<?xml version="1.0" standalone="no"?>
<!DOCTYPE svg PUBLIC "-//W3C//DTD SVG 20010904//EN"
 "http://www.w3.org/TR/2001/REC-SVG-20010904/DTD/svg10.dtd">
<svg version="1.0" xmlns="http://www.w3.org/2000/svg"
 width="300.000000pt" height="300.000000pt" viewBox="0 0 300.000000 300.000000"
 preserveAspectRatio="xMidYMid meet">
<metadata>
Created by potrace 1.10, written by Peter Selinger 2001-2011
</metadata>
<g transform="translate(0.000000,300.000000) scale(0.100000,-0.100000)"
fill="#000000" stroke="none">
<path d="M330 1500 c0 -1493 0 -1500 20 -1500 20 0 20 7 20 403 0 384 0 2358
0 2520 0 70 -2 77 -20 77 -20 0 -20 -7 -20 -1500z"/>
<path d="M1478 2980 c-4 -14 -8 -108 -8 -210 l-1 -185 -54 -59 -55 -59 -1 144
c0 139 -6 229 -15 238 -2 2 -4 -28 -4 -67 0 -41 -4 -72 -10 -72 -6 0 -10 30
-11 68 -1 56 -2 62 -10 37 -8 -27 -5 -87 6 -105 2 -3 -23 -37 -55 -74 -33 -36
-64 -75 -70 -86 -14 -26 -30 -17 -30 17 l0 26 -22 -20 c-48 -43 -61 -44 -98
-10 -61 56 -200 149 -200 133 0 -2 49 -45 110 -96 96 -79 125 -110 105 -110
-3 0 -49 39 -103 86 -118 104 -150 124 -107 68 16 -21 49 -57 72 -78 24 -22
41 -41 38 -44 -3 -3 -15 4 -28 15 -26 24 -93 63 -108 63 -6 0 32 -37 85 -81
53 -45 96 -86 96 -92 0 -6 34 22 75 63 41 41 75 70 75 64 0 -11 -131 -144
-142 -144 -4 0 -48 36 -99 81 -89 78 -111 91 -90 51 13 -24 130 -132 143 -132
5 0 16 -7 25 -16 14 -14 12 -19 -23 -54 -77 -75 -124 -129 -135 -154 -11 -23
-7 -31 39 -88 l52 -62 -32 -33 c-31 -32 -58 -43 -58 -23 0 22 -183 141 -196
127 -2 -2 41 -37 96 -77 88 -65 114 -90 94 -90 -3 0 -50 34 -105 76 -101 77
-132 92 -81 38 59 -63 60 -70 7 -39 -77 45 -99 55 -104 49 -3 -3 -1 -8 5 -12
107 -73 244 -178 244 -188 0 -10 -144 90 -259 180 -12 9 -12 8 -3 -9 22 -41
181 -169 232 -186 26 -9 30 -17 36 -65 3 -30 4 -58 1 -61 -4 -3 7 -24 22 -47
24 -34 31 -58 40 -137 10 -90 34 -178 62 -230 7 -13 35 -47 62 -76 27 -29 45
-53 40 -53 -6 0 -36 27 -66 60 -74 80 -103 160 -122 340 -3 31 -14 66 -25 80
l-19 25 5 -80 c6 -98 29 -212 54 -269 11 -23 38 -64 61 -90 37 -42 41 -49 26
-58 -17 -9 -71 -88 -99 -146 -25 -50 -40 -135 -29 -163 19 -52 29 -54 166 -35
23 3 37 -4 64 -31 57 -57 102 -84 118 -71 11 9 30 -5 92 -66 l78 -78 27 34
c29 38 34 57 11 38 -8 -7 -21 -10 -29 -7 -11 4 -13 1 -9 -10 5 -13 3 -14 -17
-3 -16 9 -19 14 -10 20 9 5 3 17 -20 41 -28 30 -31 31 -27 12 5 -21 0 -19 -44
15 -26 20 -51 44 -54 53 -7 22 -50 64 -100 101 -35 26 -45 29 -84 23 -51 -8
-50 -6 18 68 19 20 30 37 25 37 -6 0 -39 -29 -72 -64 -34 -35 -62 -62 -62 -60
0 3 9 22 19 43 29 56 81 97 141 110 78 17 87 15 64 -11 -10 -12 -13 -18 -6
-14 16 10 16 -57 0 -84 -12 -19 -5 -28 68 -100 55 -54 89 -80 105 -80 28 0 92
-43 114 -76 15 -23 14 -26 -17 -69 -18 -24 -36 -44 -39 -45 -3 0 -41 39 -84
86 -79 87 -115 101 -54 21 69 -88 116 -134 139 -132 l22 2 -20 -16 c-32 -24
-39 -57 -29 -125 14 -97 27 -90 21 11 -4 61 -3 93 5 97 8 5 11 -23 12 -96 1
-96 2 -101 14 -73 15 32 18 128 6 160 -9 22 6 75 20 75 5 0 9 6 9 14 0 7 6 19
14 25 11 9 19 4 40 -24 45 -58 60 -61 101 -18 19 20 35 41 35 45 0 18 16 6 28
-22 7 -16 26 -36 42 -44 39 -19 49 -12 155 109 19 22 38 48 41 58 3 9 11 17
18 17 7 0 23 9 36 20 12 11 27 17 31 14 5 -3 9 0 9 6 0 6 15 25 33 41 26 24
38 29 62 24 17 -3 50 -8 75 -12 80 -9 107 38 79 142 -22 84 -89 200 -121 210
-26 9 -23 16 22 60 68 67 105 174 117 343 l6 87 -22 -19 c-14 -12 -21 -31 -21
-53 0 -58 -21 -175 -42 -233 -25 -69 -85 -149 -129 -175 -30 -17 -28 -13 17
32 79 79 116 174 130 331 5 61 12 84 33 112 14 19 26 46 27 60 2 98 4 110 20
110 17 0 75 32 104 56 61 52 160 148 156 151 -3 4 -152 -103 -263 -190 -9 -6
-13 -5 -13 4 1 8 57 54 125 103 69 49 123 91 121 93 -2 3 -27 -7 -55 -21 -28
-15 -53 -25 -56 -24 -2 2 -11 -6 -19 -17 -8 -11 -17 -17 -20 -14 -3 3 15 27
40 53 25 26 43 50 41 53 -3 2 -51 -30 -106 -73 -56 -42 -102 -75 -104 -73 -1
2 -22 25 -46 51 l-43 46 51 61 51 62 -18 33 c-10 19 -53 68 -95 109 -71 71
-75 76 -58 91 10 9 22 16 28 16 17 0 149 135 155 158 5 17 -7 11 -53 -30 -33
-29 -80 -70 -105 -91 l-46 -37 -48 42 c-53 47 -95 96 -88 104 3 2 35 -27 72
-66 36 -39 66 -67 66 -63 0 5 41 41 90 82 49 41 87 78 84 83 -3 5 -16 2 -27
-7 -12 -8 -37 -23 -54 -32 -18 -9 -33 -23 -33 -30 0 -7 -5 -13 -12 -13 -7 0
-22 -12 -34 -27 -12 -16 -25 -25 -28 -22 -4 4 37 50 91 102 53 53 94 99 91
103 -4 3 -52 -33 -107 -81 -92 -81 -110 -94 -111 -80 -1 3 44 44 100 92 55 47
100 87 100 90 0 2 -9 -1 -20 -7 -11 -6 -20 -8 -20 -5 0 10 -72 -46 -126 -98
-54 -51 -70 -53 -104 -13 -18 22 -27 20 -34 -9 -8 -31 -20 -32 -33 -2 -6 12
-41 56 -79 96 -68 73 -69 74 -75 140 -3 41 -6 -1 -7 -115 -1 -99 -5 -183 -8
-187 -3 -3 -30 18 -60 48 l-54 53 1 190 c1 119 -3 197 -10 209 -8 13 -10 -35
-11 -184 0 -126 -4 -203 -10 -203 -6 0 -11 79 -12 203 -2 111 -6 191 -10 177z
m-153 -531 c-15 -33 -15 -30 -13 77 l3 111 -36 -41 c-20 -23 -48 -54 -62 -71
-18 -21 -26 -25 -27 -14 0 8 25 44 56 80 31 35 64 75 73 89 15 23 16 20 19
-86 2 -83 -1 -119 -13 -145z m435 140 c52 -60 59 -71 49 -79 -4 -3 -34 28 -68
68 -33 41 -61 67 -61 60 0 -8 3 -17 6 -20 6 -7 13 -198 7 -198 -13 0 -25 72
-28 170 l-4 115 26 -30 c13 -16 47 -55 73 -86z m75 -339 c194 -194 337 -330
348 -330 15 0 18 -6 13 -27 -3 -16 -8 -53 -11 -83 -8 -70 -27 -134 -35 -120
-3 5 -3 40 1 77 5 38 8 80 8 94 1 20 -62 88 -323 348 -178 178 -326 324 -329
325 -3 0 -153 -143 -333 -319 l-327 -319 5 -108 c6 -113 -4 -134 -21 -45 -17
91 -24 180 -13 173 6 -3 160 144 344 327 183 183 335 334 338 335 3 1 154
-146 335 -328z m-636 199 c11 -38 15 -107 5 -97 -3 3 -12 36 -19 72 -18 84
-36 120 -29 56 3 -25 9 -57 14 -71 6 -20 3 -30 -14 -47 l-23 -21 -44 30 c-24
16 -44 32 -43 36 0 5 25 34 55 65 54 57 54 57 70 36 10 -12 22 -38 28 -59z
m691 34 c10 -17 32 -39 49 -49 17 -10 31 -21 31 -24 0 -3 -23 -20 -51 -38 -48
-32 -52 -32 -64 -15 -10 12 -13 40 -10 88 3 64 2 67 -9 40 -8 -16 -15 -50 -18
-75 l-4 -45 128 -125 128 -124 32 32 33 32 -94 94 c-51 52 -89 96 -83 100 6 3
53 -38 105 -91 l95 -97 -49 -55 c-27 -30 -49 -59 -49 -64 0 -5 23 17 51 48 29
30 54 54 56 51 3 -3 -11 -22 -32 -44 -20 -22 -42 -48 -49 -57 -17 -24 -36 -11
-36 25 0 24 -21 48 -119 141 -143 134 -149 144 -132 201 27 89 57 106 91 51z
m-66 -286 l319 -312 -7 -70 -7 -70 -314 314 -313 314 -316 -314 -316 -314 0
72 0 73 313 310 c171 170 314 309 317 310 3 0 148 -141 324 -313z m-34 239 c0
-19 -1 -19 -24 3 -13 12 -26 34 -29 47 l-4 25 28 -27 c16 -15 29 -37 29 -48z
m-520 40 c0 -17 -48 -57 -55 -46 -8 12 35 71 47 64 4 -3 8 -11 8 -18z m-265
-157 c-25 -23 -65 -65 -87 -92 l-41 -48 29 -30 29 -29 125 119 c69 66 127 117
130 114 3 -3 -51 -58 -118 -123 -106 -101 -123 -121 -117 -140 10 -31 -3 -23
-59 37 l-48 53 40 47 c22 27 63 70 91 97 27 27 47 54 44 60 -3 6 2 4 12 -5 16
-16 14 -19 -30 -60z m102 20 c8 -8 -10 -32 -68 -90 -73 -73 -115 -99 -107 -65
4 19 140 165 154 166 5 0 15 -5 21 -11z m848 -446 c204 -215 212 -242 107
-357 -147 -161 -312 -329 -312 -318 0 7 67 83 149 170 201 212 214 229 207
271 -3 19 -17 50 -30 70 -14 20 -149 159 -300 310 l-275 274 -289 -289 c-240
-240 -292 -297 -307 -337 -14 -36 -15 -53 -7 -70 5 -12 89 -107 187 -211 97
-103 174 -190 171 -193 -5 -5 -128 121 -294 301 -76 82 -82 91 -82 132 0 23 5
55 10 70 6 15 146 164 312 331 l302 304 149 -148 c82 -82 218 -221 302 -310z
m53 373 c67 -73 78 -96 49 -96 -15 1 -167 143 -167 157 0 15 13 24 30 21 9 -2
48 -38 88 -82z m-25 -516 c-7 -14 -37 -79 -66 -145 -84 -189 -199 -359 -364
-539 l-52 -57 -39 43 c-88 96 -187 217 -237 294 -49 72 -136 243 -194 378 -20
46 -22 48 -35 30 -12 -15 -12 -22 -2 -34 7 -8 28 -51 46 -95 19 -44 49 -107
68 -139 18 -32 31 -64 29 -70 -4 -10 -81 65 -190 183 -31 34 -36 45 -31 68 5
18 108 130 298 321 l291 293 246 -253 c240 -247 245 -253 232 -278z m-1078
352 c21 -23 36 -45 33 -47 -2 -2 -29 23 -59 58 -29 34 -45 55 -33 47 11 -8 37
-34 59 -58z m1181 -437 c5 -21 -2 -34 -37 -73 -92 -102 -182 -192 -191 -192
-5 0 7 29 27 65 34 62 134 280 131 288 0 2 13 -11 31 -29 18 -18 35 -45 39
-59z m-929 -387 c106 -110 103 -106 118 -218 10 -79 47 -181 95 -259 73 -120
125 -200 130 -201 9 0 126 183 158 247 36 70 72 192 72 241 0 59 28 103 143
221 61 64 143 149 180 189 38 41 70 72 71 70 2 -1 -1 -17 -5 -34 -5 -18 -54
-79 -120 -150 -206 -220 -228 -252 -270 -404 -25 -91 -65 -170 -149 -295 -37
-55 -69 -106 -71 -114 -5 -14 -111 143 -176 259 -17 30 -47 107 -67 171 -19
63 -48 134 -63 156 -16 22 -91 109 -168 193 -141 153 -153 169 -154 204 -1 14
27 -11 86 -75 49 -51 134 -142 190 -201z m-162 91 c200 -223 191 -211 159
-203 -88 20 -176 89 -217 169 -20 40 -48 135 -39 134 4 0 48 -46 97 -100z
m1092 22 c-40 -113 -98 -174 -209 -216 -49 -18 -59 -33 -93 -144 -13 -44 -55
-126 -55 -110 0 28 50 172 73 211 24 40 298 341 304 334 3 -2 -7 -36 -20 -75z
m-1135 -235 c-34 -35 -92 -125 -92 -140 1 -6 9 5 20 25 10 19 26 42 36 50 20
16 19 13 -18 -57 -36 -69 -54 -140 -39 -157 9 -12 21 -11 68 5 31 11 66 17 77
14 23 -6 153 -132 145 -141 -3 -3 -35 25 -72 61 -65 66 -66 66 -109 59 -24 -4
-51 -11 -60 -16 -24 -13 -56 -11 -64 3 -4 7 -9 34 -10 62 -1 32 1 44 7 35 5
-9 9 -9 9 -2 0 6 3 20 6 30 5 15 4 15 -5 3 -23 -32 -11 17 19 76 35 71 88 137
102 128 5 -4 -3 -20 -20 -38z m340 -31 l-6 -30 -7 30 c-3 17 -10 39 -14 50 -8
20 -8 20 13 0 16 -15 19 -27 14 -50z m433 15 l-14 -45 0 36 c-1 19 4 40 11 47
18 18 18 10 3 -38z m351 18 c38 -46 88 -156 88 -195 0 -17 4 -30 8 -27 10 7
-2 -58 -15 -73 -12 -17 -33 -16 -82 2 -68 24 -80 20 -150 -52 -36 -36 -68 -63
-71 -60 -10 9 117 137 141 143 12 3 48 -4 81 -15 32 -10 62 -17 66 -15 13 8 8
67 -7 99 -13 25 -14 26 -9 5 4 -18 -3 -11 -24 21 -50 77 -122 119 -203 119
l-39 0 0 -60 c0 -44 4 -60 14 -60 17 0 27 45 12 61 -17 17 79 2 133 -22 29
-13 41 -23 38 -33 -3 -8 2 -20 11 -28 15 -12 16 -11 3 5 -9 11 -10 17 -2 17
10 0 15 -14 9 -24 -2 -3 8 -16 21 -30 14 -14 22 -28 19 -31 -3 -3 -28 19 -56
49 -49 51 -72 72 -72 64 0 -2 20 -26 45 -53 25 -28 45 -53 45 -56 0 -3 -20 -2
-45 4 -42 10 -48 8 -87 -19 -23 -16 -60 -53 -83 -82 -42 -55 -116 -112 -96
-73 6 10 23 30 38 43 16 13 37 35 48 48 10 14 -13 -6 -52 -44 -40 -38 -70 -73
-67 -78 3 -5 1 -7 -5 -6 -6 2 -21 -9 -33 -24 l-23 -28 -25 19 -25 20 24 25
c13 14 45 33 70 42 30 11 71 41 119 88 62 61 72 75 67 96 -4 14 -11 30 -16 35
-7 7 -8 1 -4 -17 6 -23 -2 -35 -62 -95 -59 -58 -138 -111 -149 -101 -1 2 8 24
21 48 118 227 128 242 138 203 3 -10 5 10 6 43 2 94 41 111 142 62 48 -24 50
-25 30 -5 -12 12 -38 27 -59 34 l-37 11 37 -1 c30 -1 46 -9 77 -42 21 -22 51
-58 65 -79 14 -21 26 -36 26 -32 0 15 -62 114 -84 135 -20 18 -22 26 -13 37
17 19 22 18 53 -18z m-986 -8 c0 -5 10 -10 22 -10 44 0 57 -25 52 -103 -3 -51
-1 -64 5 -45 17 51 23 48 65 -34 24 -46 56 -106 72 -135 15 -29 26 -55 23 -58
-14 -13 -89 32 -146 89 -53 53 -63 69 -63 97 0 22 3 29 9 21 5 -8 11 14 15 58
3 39 4 75 1 79 -7 12 -113 -7 -147 -27 -66 -37 -73 -42 -70 -52 1 -6 -5 -13
-13 -16 -8 -3 -13 -9 -11 -13 6 -10 -12 -37 -19 -29 -11 11 35 89 82 139 39
42 51 49 84 49 22 0 39 -4 39 -10z m127 -52 c25 -51 68 -197 54 -182 -17 17
-98 235 -87 231 6 -1 21 -24 33 -49z m201 -71 l83 -83 81 83 c75 77 99 95 98
76 -1 -5 -41 -51 -90 -103 l-89 -95 -85 90 c-47 50 -85 86 -85 80 -1 -5 37
-50 84 -100 l85 -90 90 94 c50 52 93 91 96 88 11 -11 -26 -152 -57 -217 -33
-69 -119 -210 -128 -210 -12 1 -122 188 -147 251 -26 63 -45 219 -26 219 4 0
45 -37 90 -83z m374 -334 c-28 -32 -65 -73 -84 -90 l-34 -33 -38 46 c-24 29
-35 49 -29 55 6 6 20 -5 38 -31 l29 -41 75 75 c42 42 80 76 84 76 5 0 -14 -26
-41 -57z"/>
<path d="M1278 2032 c-197 -197 -218 -221 -224 -258 -10 -63 26 -134 120 -234
43 -47 97 -109 119 -137 21 -29 40 -53 42 -53 1 0 2 7 2 15 0 8 -5 11 -10 8
-6 -4 -8 0 -4 10 4 10 2 16 -5 14 -6 -1 -13 4 -16 12 -3 9 0 11 9 6 8 -5 11
-4 6 1 -5 5 -12 9 -16 9 -4 0 -38 36 -75 80 -101 119 -134 201 -105 258 15 28
70 87 82 87 5 0 -9 -20 -32 -45 -65 -70 -54 -130 46 -263 82 -108 83 -110 83
-90 0 8 -13 31 -30 49 -16 19 -30 37 -30 42 0 4 -15 29 -33 55 -46 66 -58 110
-41 157 26 77 35 75 103 -15 34 -45 68 -95 76 -111 9 -16 18 -29 21 -29 11 0
-50 96 -104 163 l-54 69 33 34 c18 19 35 34 38 34 10 0 74 -102 123 -195 26
-49 48 -87 48 -82 1 27 -151 287 -168 287 -3 0 -21 -15 -40 -32 -19 -18 -33
-28 -31 -22 2 6 69 74 149 151 l145 140 -3 -362 c-1 -215 1 -372 7 -386 9 -22
17 359 12 588 -1 45 2 84 7 87 7 4 98 -81 181 -169 2 -3 -2 -13 -10 -22 -13
-16 -12 -17 3 -5 22 17 28 13 88 -59 73 -88 70 -123 -26 -255 -69 -94 -97
-150 -88 -176 4 -15 3 -18 -6 -13 -9 5 -11 4 -6 -4 6 -9 11 -9 22 0 17 14 19
33 3 23 -22 -13 32 72 83 132 88 102 119 199 82 252 -23 33 -10 38 15 6 27
-34 27 -95 2 -149 -11 -22 -53 -80 -95 -130 -42 -49 -76 -94 -76 -98 0 -5 43
35 95 90 104 108 145 177 153 255 l5 50 -224 224 c-123 123 -226 224 -229 224
-3 0 -103 -98 -222 -218z m238 162 c-3 -7 0 -16 6 -20 7 -5 8 -2 3 7 -5 8 -4
11 1 6 5 -5 9 -14 9 -20 1 -7 6 -11 11 -10 11 2 292 -275 296 -292 2 -5 6 -9
10 -8 4 2 18 -11 32 -28 20 -24 26 -41 25 -77 -1 -45 -1 -46 -9 -14 -8 33 -46
83 -60 79 -9 -3 -170 148 -170 159 0 5 38 -29 85 -76 47 -47 85 -82 85 -80 0
3 -73 77 -162 165 -90 88 -127 123 -83 78 44 -46 75 -83 69 -83 -16 0 -154
148 -151 161 8 37 -39 -1 -212 -175 -147 -147 -195 -201 -201 -227 -8 -33 -8
-33 -9 13 -1 37 5 53 25 78 17 19 30 27 34 20 4 -7 13 -3 25 10 10 11 15 23
11 27 -9 9 315 333 327 326 4 -3 6 -11 3 -19z"/>
<path d="M1577 2118 c15 -18 80 -82 143 -143 110 -105 108 -103 -25 33 -136
138 -177 176 -118 110z"/>
<path d="M1291 1990 c-30 -28 -53 -52 -50 -54 2 -2 29 20 59 50 69 67 63 70
-9 4z"/>
<path d="M1150 1505 c62 -114 137 -220 238 -337 56 -64 105 -119 109 -121 9
-5 156 163 227 257 51 69 159 247 153 253 -6 5 -157 -163 -183 -202 -10 -16
-18 -36 -19 -46 0 -18 -88 -130 -145 -184 l-30 -29 -63 68 c-34 38 -79 87 -99
110 -40 43 -48 62 -23 52 8 -3 15 -3 15 0 0 12 -101 131 -156 184 l-57 55 33
-60z"/>
<path d="M1377 1315 c13 -33 86 -146 91 -140 5 5 -47 94 -79 135 -15 20 -18
21 -12 5z"/>
<path d="M1415 1303 c46 -70 65 -97 65 -89 0 11 -69 116 -77 116 -3 0 3 -12
12 -27z"/>
<path d="M2076 1108 c54 -74 61 -82 44 -48 -20 40 -73 110 -82 110 -4 0 13
-28 38 -62z"/>
<path d="M988 1112 l-33 -35 40 27 c22 14 47 26 57 26 29 0 27 15 -2 16 -21 1
-38 -9 -62 -34z"/>
<path d="M2630 2968 c1 -18 0 -600 -1 -1293 -2 -1758 -3 -1675 21 -1675 20 0
20 7 20 1500 0 1493 0 1500 -20 1500 -16 0 -20 -7 -20 -32z"/>
<path d="M1682 2785 c-1 -56 1 -66 10 -48 7 15 7 37 0 70 l-10 48 0 -70z"/>
<path d="M2033 2705 c-20 -19 -32 -35 -26 -35 5 0 24 16 43 35 19 19 31 35 26
35 -4 0 -23 -16 -43 -35z"/>
<path d="M2039 2672 c-24 -26 -38 -42 -30 -35 7 6 20 9 29 6 10 -4 13 -2 8 5
-4 7 -3 12 2 12 11 0 46 49 40 56 -2 2 -24 -18 -49 -44z"/>
<path d="M928 2689 c12 -14 19 -29 15 -32 -3 -4 4 -7 16 -7 27 0 21 12 -22 41
l-32 23 23 -25z"/>
<path d="M2279 2062 c-78 -51 -117 -88 -106 -99 6 -5 197 133 197 143 0 11
-24 0 -91 -44z"/>
<path d="M515 1762 c20 -19 257 -173 261 -169 5 4 -53 57 -91 84 -55 38 -195
108 -170 85z"/>
<path d="M2450 1752 c-121 -63 -230 -140 -230 -162 0 -8 233 144 265 172 15
13 2 9 -35 -10z"/>
<path d="M506 1732 c37 -34 227 -172 237 -172 8 0 2 28 -8 37 -4 4 -5 2 -1 -4
4 -7 3 -13 -2 -13 -13 0 -33 25 -26 32 3 3 -3 5 -13 5 -10 -1 -17 3 -16 9 1 7
-5 11 -15 10 -9 0 -16 4 -15 10 1 7 -5 11 -15 10 -9 0 -16 4 -15 10 1 7 -5 11
-15 10 -9 0 -16 5 -14 12 1 8 -2 11 -8 7 -5 -3 -10 -2 -10 3 0 9 -64 52 -77
52 -4 0 2 -8 13 -18z"/>
<path d="M2484 1736 c-8 -22 -113 -88 -127 -80 -7 4 -9 4 -5 -1 9 -9 -9 -35
-24 -35 -5 0 -6 6 -2 13 4 7 3 9 -2 4 -5 -5 -9 -14 -9 -20 0 -7 -9 -12 -20
-12 -11 -1 -19 -7 -17 -14 2 -8 -3 -11 -12 -8 -18 7 -42 -18 -27 -27 10 -7 69
29 174 106 62 46 103 88 87 88 -6 0 -13 -6 -16 -14z"/>
<path d="M1641 506 c-9 -17 -11 -51 -7 -119 10 -161 25 -160 25 1 1 78 0 142
-2 142 -2 0 -9 -11 -16 -24z"/>
<path d="M1681 420 c-1 -58 -3 -123 -6 -145 -4 -33 -2 -30 10 15 20 77 24 172
9 206 -11 26 -12 17 -13 -76z"/>
</g>
</svg>
