<?xml version="1.0" standalone="no"?>
<!DOCTYPE svg PUBLIC "-//W3C//DTD SVG 20010904//EN"
 "http://www.w3.org/TR/2001/REC-SVG-20010904/DTD/svg10.dtd">
<svg version="1.0" xmlns="http://www.w3.org/2000/svg"
 width="1080.000000pt" height="1080.000000pt" viewBox="0 0 1080.000000 1080.000000"
 preserveAspectRatio="xMidYMid meet">
<metadata>
Created by potrace 1.16, written by Peter Selinger 2001-2019
</metadata>
<g transform="translate(0.000000,1080.000000) scale(0.100000,-0.100000)"
fill="#000000" stroke="none">
<path d="M1200 5400 l0 -5400 4200 0 4200 0 0 3279 c0 2612 -3 3280 -13 3284
-9 4 -9 6 1 6 9 1 12 119 12 555 0 434 -3 556 -12 560 -10 5 -10 7 0 12 9 4
12 325 12 1555 l0 1549 -503 0 -503 0 -302 -306 c-166 -168 -302 -310 -302
-316 0 -5 7 -8 15 -4 17 6 20 -15 5 -30 -6 -6 -7 -27 -1 -57 8 -42 7 -47 -10
-47 -17 0 -19 8 -19 75 0 119 -16 87 -23 -46 -4 -68 -12 -128 -19 -136 -6 -8
-25 -13 -42 -11 -32 3 -32 2 -20 68 3 14 0 32 -5 40 -9 12 -17 8 -51 -25 -22
-21 -40 -45 -40 -53 0 -8 -6 -12 -14 -9 -17 7 -266 -253 -266 -277 0 -9 -7
-16 -16 -16 -9 0 -71 -57 -137 -127 -67 -71 -213 -221 -326 -335 -113 -115
-201 -208 -196 -208 6 0 76 39 156 88 81 48 195 113 254 146 81 44 104 61 94
68 -11 7 -9 8 5 4 17 -6 96 32 301 144 33 19 81 44 106 56 26 13 49 30 52 38
4 9 16 16 28 16 32 0 230 121 240 148 6 15 17 22 36 22 18 1 60 23 115 63 48
34 153 107 235 162 324 220 424 295 418 314 -8 26 10 68 35 81 55 29 114 -35
84 -91 -16 -31 -31 -39 -66 -32 -20 4 -47 -9 -118 -59 -50 -34 -101 -70 -113
-78 -13 -8 -78 -53 -145 -100 -68 -47 -131 -89 -141 -95 -79 -46 -261 -183
-261 -196 0 -23 -23 -39 -51 -37 -13 0 -64 -23 -114 -52 -100 -59 -127 -79
-120 -90 8 -14 -23 -32 -44 -25 -23 7 -85 -21 -76 -35 3 -5 0 -12 -6 -16 -8
-4 -9 -3 -5 4 19 31 -19 13 -364 -176 -134 -73 -596 -338 -610 -350 -5 -3 3
-10 47 -39 16 -11 14 -12 -12 -6 -48 10 -26 -2 69 -37 79 -29 90 -31 98 -16
10 17 38 21 53 7 6 -5 95 20 215 60 113 38 248 82 300 98 52 16 176 55 275 86
99 31 290 90 424 131 134 40 244 74 245 76 23 52 34 63 63 66 54 5 90 -56 59
-103 -20 -30 -69 -34 -98 -9 -15 15 -23 15 -63 4 -25 -7 -48 -17 -51 -21 -3
-5 -17 -9 -31 -9 -28 0 -203 -52 -608 -181 -580 -184 -707 -227 -715 -239 -6
-10 20 -29 95 -71 57 -32 157 -91 222 -132 65 -41 141 -87 168 -102 56 -32
168 -113 261 -190 34 -27 103 -84 154 -125 50 -41 110 -95 133 -120 306 -332
407 -451 523 -615 27 -38 58 -78 69 -87 19 -16 21 -15 48 10 l29 27 -7 -30
c-4 -16 -8 -36 -11 -42 -2 -7 3 -13 11 -13 8 0 15 -6 15 -14 0 -8 19 -21 42
-31 32 -12 39 -19 27 -26 -7 -5 -24 -9 -35 -9 -31 0 -42 -75 -18 -122 52 -101
131 -305 198 -511 42 -129 76 -241 76 -248 1 -22 26 -49 46 -49 17 0 16 -3 -6
-20 -23 -18 -23 -20 -5 -19 11 0 31 6 45 14 14 8 34 14 45 14 11 0 -5 -10 -35
-23 -30 -13 -56 -28 -58 -34 -1 -5 6 -61 18 -123 11 -63 25 -145 31 -184 8
-49 19 -78 36 -96 47 -51 51 -124 10 -170 -21 -23 -22 -32 -22 -304 0 -222 -4
-304 -19 -395 -12 -80 -15 -115 -7 -118 15 -5 14 -29 -1 -38 -8 -5 -9 -1 -4
12 5 12 4 16 -3 9 -5 -5 -21 -69 -35 -142 -27 -140 -51 -237 -118 -477 l-42
-149 26 -21 c35 -29 48 -57 48 -105 0 -73 -75 -127 -142 -102 -23 9 -27 5 -50
-42 -48 -97 -201 -352 -325 -539 -122 -184 -313 -411 -507 -602 -81 -80 -136
-140 -128 -143 6 -3 10 -9 7 -13 -3 -5 -12 -7 -19 -4 -8 3 -46 -27 -93 -73
-66 -66 -98 -89 -208 -147 -71 -38 -137 -74 -145 -81 -8 -6 -91 -52 -185 -100
-93 -49 -173 -93 -176 -98 -4 -5 -11 -7 -17 -3 -5 3 -30 -6 -55 -19 -41 -23
-216 -98 -260 -112 -10 -3 -16 -11 -14 -17 2 -6 -7 -19 -19 -29 l-23 -18 24
-45 c23 -44 24 -47 7 -70 -21 -29 -32 -30 -39 -4 -7 28 -42 26 -88 -5 -20 -15
-40 -23 -44 -20 -3 4 2 11 12 16 9 6 14 15 11 21 -4 6 -3 8 3 5 5 -3 29 1 53
9 25 9 55 14 67 11 13 -2 23 -3 23 0 0 9 -46 73 -53 73 -5 0 -5 -4 -2 -10 3
-5 -3 -10 -14 -10 -28 0 -27 -18 2 -30 17 -7 12 -9 -25 -8 -37 1 -48 5 -48 17
-1 11 -6 8 -15 -9 l-14 -25 -1 33 c0 22 -5 32 -16 32 -14 0 -125 -23 -317 -64
-112 -25 -333 -56 -484 -68 -101 -8 -143 -15 -143 -24 0 -22 -60 -64 -91 -64
-32 0 -79 38 -79 64 0 10 -14 16 -42 20 -46 5 -240 19 -298 20 -19 1 -37 4
-40 8 -3 4 -48 14 -100 22 -102 15 -429 93 -525 125 -55 18 -60 18 -72 3 -15
-21 -16 -32 -3 -32 6 0 3 -14 -6 -33 -22 -43 -21 -43 -44 -22 -28 25 -26 63 4
77 35 15 40 37 13 47 -12 4 -62 23 -112 41 -174 63 -594 280 -792 408 -32 21
-41 22 -79 13 -56 -14 -99 -5 -135 31 -24 25 -29 37 -29 81 l0 51 -127 131
c-263 271 -502 562 -689 841 -49 73 -60 83 -78 77 -38 -14 -95 -8 -123 13 -34
25 -59 90 -49 127 3 15 19 41 35 60 l29 32 -34 85 c-70 176 -147 427 -193 625
-57 246 -72 331 -100 569 -23 190 -32 241 -45 248 -19 11 -22 48 -3 48 26 -1
44 -27 50 -75 24 -189 47 -366 51 -402 16 -117 100 -504 117 -535 5 -10 9 -24
9 -33 0 -45 110 -365 124 -362 6 1 11 -11 12 -28 0 -16 11 -53 23 -82 21 -48
25 -51 64 -56 23 -2 52 -8 63 -12 19 -6 16 5 -28 94 -55 111 -171 447 -188
544 -6 34 -22 105 -35 157 -27 107 -61 310 -101 606 l-27 201 -44 2 c-29 1
-43 -3 -43 -11 -1 -8 -6 -5 -15 5 -12 17 -25 19 -145 14 -100 -4 -136 -9 -149
-21 -18 -17 -58 -21 -77 -8 -6 4 -16 16 -22 28 -26 49 25 101 80 82 21 -7 54
-4 135 15 60 14 122 28 139 32 l32 6 6 132 c11 223 26 366 53 512 14 77 27
149 28 160 2 11 10 50 19 87 8 37 13 75 10 83 -4 9 0 21 9 28 8 7 33 62 55
122 22 61 43 118 47 128 4 10 3 17 -4 17 -6 0 -11 7 -11 15 0 8 6 15 13 15 15
0 27 25 76 152 17 42 46 107 66 146 19 38 35 76 35 85 0 8 3 17 8 19 4 2 29
41 56 88 115 200 323 475 493 654 l76 79 -17 28 c-22 38 -20 72 7 97 24 23 53
21 94 -6 21 -13 28 -9 125 73 57 47 116 96 131 108 16 12 45 36 65 53 20 17
52 39 69 48 18 9 99 60 180 114 82 54 198 127 258 162 61 35 125 73 142 85
l33 22 -183 61 c-100 34 -261 86 -357 116 -96 30 -256 80 -354 111 -148 47
-183 55 -199 46 -24 -15 -57 -5 -57 18 0 14 -23 25 -102 50 -57 18 -123 39
-148 48 -67 22 -100 27 -100 14 0 -15 -73 -14 -88 1 -7 7 -12 29 -12 50 0 29
6 41 24 54 14 8 33 14 43 12 10 -1 24 1 30 5 9 5 11 3 7 -6 -3 -8 -1 -18 5
-22 6 -3 11 -17 11 -30 0 -22 11 -28 123 -64 67 -21 138 -46 159 -55 20 -9 51
-16 70 -18 18 -1 41 -8 50 -16 9 -7 31 -17 50 -22 91 -23 550 -166 824 -257
l231 -77 89 40 c49 23 104 47 122 54 18 7 31 18 29 24 -2 6 -91 57 -198 114
-107 57 -333 180 -504 275 -229 126 -319 171 -345 172 -27 0 -35 5 -40 23 -3
15 -50 50 -150 115 -205 130 -322 206 -638 415 -182 120 -282 180 -292 176
-39 -17 -90 14 -90 55 1 28 34 59 68 63 29 4 35 1 49 -26 9 -17 17 -41 17 -54
1 -19 47 -53 246 -185 135 -89 290 -191 345 -226 55 -36 141 -92 190 -125 180
-119 259 -166 283 -166 15 0 26 -7 29 -18 2 -10 30 -31 61 -46 31 -16 179 -96
327 -179 149 -83 297 -165 330 -183 33 -17 104 -55 159 -84 54 -29 97 -48 95
-42 -2 7 -96 105 -209 219 -280 285 -585 597 -705 722 -81 85 -107 106 -135
111 -31 5 -35 9 -38 38 -3 27 -28 57 -150 177 -116 115 -153 145 -174 145 -28
0 -48 23 -48 55 0 9 -50 70 -111 135 -102 109 -113 118 -134 108 -17 -7 -30
-7 -51 4 -26 12 -29 19 -28 61 l0 47 -538 0 -538 0 0 -5400z m6250 -3590 c0
-15 -4 -30 -9 -32 -5 -1 -10 -19 -11 -38 -3 -51 -2 -54 15 -40 20 17 21 15 28
-57 6 -53 4 -63 -9 -63 -10 0 -15 8 -14 23 1 12 2 35 1 52 -2 44 -19 18 -23
-35 -3 -40 -6 -45 -29 -48 -24 -3 -27 1 -33 44 -7 56 3 174 15 174 5 0 8 -8 7
-17 -4 -57 3 -183 12 -183 6 0 9 39 8 97 -1 65 2 98 10 101 8 2 8 9 -1 23 -10
16 -9 21 3 29 20 13 30 3 30 -30z m-1901 -1389 c11 -6 26 -21 32 -33 16 -30
25 -223 10 -232 -7 -5 -11 4 -11 28 0 20 -5 36 -10 36 -6 0 -8 15 -4 40 9 55
-2 104 -31 133 -22 21 -31 24 -61 17 -20 -5 -38 -11 -42 -14 -3 -4 -6 -59 -6
-124 -1 -95 -4 -117 -16 -120 -13 -2 -15 14 -13 100 1 91 9 163 18 178 6 9
113 2 134 -9z m-321 -41 c18 -34 22 -55 17 -85 -3 -22 -5 -64 -5 -92 1 -29 -3
-53 -9 -53 -5 0 -11 5 -13 10 -2 7 -17 5 -42 -5 -32 -13 -44 -14 -74 -4 -21 7
-45 12 -54 10 -10 -1 -18 3 -18 9 0 7 6 10 14 7 17 -7 46 23 46 47 0 9 5 14
10 11 6 -3 10 -17 10 -29 0 -69 78 -45 98 30 7 24 12 48 12 53 0 11 -91 -6
-104 -19 -18 -18 -38 -11 -34 13 3 20 9 22 66 25 71 3 84 17 58 58 -26 39 -60
50 -90 30 -31 -20 -36 -20 -36 -1 0 21 36 35 85 32 37 -2 42 -6 63 -47z"/>
<path d="M2386 10778 c4 -13 7 -32 6 -43 -2 -28 225 -255 255 -255 24 0 43
-26 43 -58 0 -25 297 -308 320 -304 21 3 54 -33 47 -52 -7 -17 107 -137 818
-863 l149 -153 74 0 c59 0 73 3 69 14 -3 7 -55 141 -115 297 -113 293 -191
502 -213 577 -7 23 -18 42 -25 42 -19 0 -28 20 -26 54 2 26 -76 244 -228 634
l-51 132 -565 0 -565 0 7 -22z"/>
<path d="M3545 10763 c9 -21 63 -162 121 -313 154 -402 150 -394 174 -404 17
-8 20 -15 15 -38 -7 -31 18 -117 85 -290 31 -80 47 -108 63 -113 19 -6 20 -8
5 -12 -10 -2 -18 -7 -18 -9 0 -23 186 -473 195 -471 5 3 17 1 26 -4 36 -18 47
7 221 516 60 176 131 390 158 475 27 85 74 227 104 315 31 88 58 182 61 209 2
27 11 56 19 65 8 9 17 37 21 64 l7 47 -636 0 -636 0 15 -37z"/>
<path d="M4845 10781 c-3 -10 -3 -33 0 -50 4 -23 1 -33 -10 -37 -8 -4 -15 -12
-15 -19 0 -7 -7 -15 -15 -19 -8 -3 -15 -11 -15 -18 0 -15 -285 -876 -404
-1223 -70 -203 -89 -288 -69 -308 3 -4 11 0 18 9 10 14 13 13 29 -11 13 -20
15 -30 7 -38 -6 -6 -11 -15 -11 -19 0 -8 456 399 497 443 11 13 23 33 25 44 2
13 10 19 23 17 14 -2 64 37 155 120 124 112 227 189 269 203 32 10 19 53 -28
90 l-44 35 70 0 70 0 7 61 c9 89 7 567 -2 573 -4 3 -6 41 -4 85 l4 81 -275 0
c-262 0 -276 -1 -282 -19z"/>
<path d="M5440 10770 c0 -16 4 -30 9 -30 16 0 20 -53 5 -67 -11 -11 -14 -64
-14 -261 0 -284 5 -349 30 -382 l18 -23 47 27 c25 15 49 25 52 22 3 -2 -5 -19
-17 -35 -12 -17 -17 -31 -11 -31 6 0 10 -16 9 -35 -1 -29 6 -43 37 -75 41 -42
35 -49 -24 -29 -46 16 -47 6 -4 -24 21 -14 85 -66 143 -116 58 -50 114 -91
126 -91 24 0 44 -18 44 -40 0 -9 28 -37 63 -62 34 -25 109 -86 167 -134 58
-48 134 -112 170 -142 36 -30 100 -86 144 -126 102 -92 139 -118 164 -114 20
3 20 4 2 68 -10 36 -75 229 -145 430 -69 201 -157 457 -195 570 -134 405 -191
564 -205 580 -9 9 -14 25 -13 36 1 10 -2 40 -6 67 l-8 47 -294 0 -294 0 0 -30z"/>
<path d="M6054 10778 c3 -13 6 -29 6 -36 0 -7 12 -24 27 -38 23 -21 25 -28 15
-44 -9 -15 3 -59 69 -252 44 -128 133 -390 198 -583 65 -192 144 -424 176
-515 31 -91 61 -182 67 -203 9 -33 14 -38 36 -35 30 3 57 61 164 338 137 359
460 1253 495 1373 5 16 -29 17 -627 17 l-632 0 6 -22z"/>
<path d="M7323 10763 c-6 -21 -43 -129 -82 -240 -45 -129 -66 -203 -58 -203 8
0 8 -3 1 -8 -14 -10 -37 -67 -164 -412 -62 -168 -161 -431 -221 -585 -96 -243
-108 -281 -94 -291 8 -6 15 -19 15 -28 0 -12 9 -16 34 -16 31 0 55 22 308 283
400 412 412 425 391 424 -13 -2 -18 5 -18 23 0 20 5 25 25 25 18 0 25 -5 23
-19 -1 -13 13 -5 49 30 64 63 177 191 159 179 -10 -5 -12 -4 -7 3 4 7 14 12
22 12 8 0 13 3 10 8 -2 4 2 16 10 27 10 13 14 15 14 4 1 -11 4 -10 14 4 7 9
17 17 23 17 5 0 19 13 31 29 18 25 19 31 7 41 -19 16 -19 74 -1 89 17 14 29 0
20 -23 -9 -22 5 -71 16 -60 5 5 12 35 16 67 6 50 4 60 -12 72 -10 8 -14 15 -7
15 6 0 15 -5 18 -10 4 -6 11 -8 16 -5 5 4 9 -10 9 -29 0 -32 2 -35 22 -27 35
13 47 39 25 56 -12 8 -14 15 -7 20 6 3 9 18 8 32 -2 14 3 28 10 30 8 3 12 -9
12 -41 0 -24 5 -48 10 -51 6 -3 10 -2 10 2 0 5 128 137 285 293 157 157 285
288 285 292 0 5 -274 8 -608 8 l-608 0 -11 -37z"/>
<path d="M5273 9815 c-28 -19 -106 -85 -174 -147 -68 -61 -142 -128 -164 -148
-42 -36 -255 -229 -447 -403 -59 -54 -108 -103 -108 -108 0 -6 32 -9 80 -8 79
2 112 7 335 49 60 11 177 27 260 35 212 22 223 24 230 45 8 25 66 60 99 60
l26 0 0 243 c1 133 3 279 6 324 l6 82 -57 -31 c-31 -16 -59 -28 -61 -25 -3 3
2 17 12 31 9 15 15 29 12 31 -2 2 -27 -11 -55 -30z"/>
<path d="M5517 9823 c-4 -3 -7 -26 -7 -50 0 -54 -10 -55 -32 -3 -34 81 -38 52
-38 -270 l0 -309 30 -16 c17 -9 30 -19 30 -23 0 -4 7 -16 15 -26 12 -16 33
-20 127 -27 204 -13 488 -60 769 -128 125 -31 160 -33 98 -7 -31 13 -32 14 -9
18 13 1 25 8 26 13 3 9 -158 153 -288 257 -47 38 -63 46 -74 37 -16 -13 -34
-4 -34 18 0 9 6 13 15 9 28 -10 15 3 -67 71 -129 107 -205 163 -222 163 -8 0
-24 13 -35 29 -21 29 -211 200 -261 234 -27 19 -33 20 -43 10z"/>
<path d="M5155 9064 c-16 -2 -75 -9 -130 -15 -146 -16 -327 -46 -441 -73 -130
-32 -155 -42 -148 -59 3 -8 -2 -21 -10 -30 -14 -14 -13 -16 13 -22 35 -7 232
18 346 45 44 10 170 35 280 55 110 20 200 37 201 38 1 1 -1 17 -3 35 -6 34
-14 36 -108 26z"/>
<path d="M5530 9041 c0 -25 4 -27 168 -64 92 -21 208 -42 257 -48 127 -14 309
-46 454 -80 l125 -30 25 26 26 25 -30 0 -30 1 25 13 24 14 -39 11 c-142 37
-414 94 -550 115 -207 32 -234 34 -244 17 -7 -11 -11 -9 -20 8 -11 20 -19 21
-102 20 -89 -2 -89 -2 -89 -28z"/>
<path d="M5259 8986 c-4 -4 -171 -36 -314 -60 -44 -8 -108 -21 -142 -30 -138
-36 -384 -59 -416 -39 -11 6 -3 -99 9 -130 11 -31 -19 -18 -63 25 -43 42 -43
42 -43 15 0 -36 47 -156 200 -509 l42 -96 71 24 c174 59 409 99 698 119 l97 7
6 131 c4 73 6 210 4 305 l-2 172 -26 0 c-29 0 -88 33 -96 55 -6 15 -16 19 -25
11z"/>
<path d="M5488 8955 l-38 -35 0 -303 0 -302 123 -2 c97 -1 163 -9 303 -37 231
-47 388 -85 441 -108 24 -10 47 -18 51 -18 16 0 64 127 57 150 -5 15 -1 29 13
43 10 12 54 117 97 232 43 116 84 222 92 238 14 29 4 37 -17 12 -7 -8 -19 -15
-26 -15 -17 0 -18 -17 -1 -23 9 -4 9 -6 -1 -6 -7 -1 -29 6 -49 14 -48 20 -213
62 -278 70 -27 4 -93 15 -145 25 -145 29 -217 35 -235 20 -12 -10 -15 -9 -15
5 0 10 -2 16 -5 13 -3 -3 -61 8 -128 24 -189 45 -195 45 -239 3z"/>
<path d="M6744 8824 c3 -9 6 -28 6 -44 0 -16 11 -42 26 -60 31 -36 54 -35 117
6 44 29 46 39 10 52 -16 5 -59 21 -97 36 -55 21 -67 23 -62 10z"/>
<path d="M4189 8739 c-32 -38 -39 -53 -29 -59 9 -6 2 -19 -29 -51 l-41 -43 0
-106 c0 -58 -3 -196 -7 -307 l-6 -202 79 38 c43 21 140 62 214 91 74 30 137
55 139 57 2 2 -16 49 -41 105 -25 57 -85 199 -134 316 -48 116 -90 212 -95
212 -4 0 -26 -23 -50 -51z"/>
<path d="M3865 8731 c-57 -26 -222 -126 -435 -263 -226 -146 -282 -186 -336
-238 -23 -22 -45 -40 -50 -40 -16 0 -142 -119 -164 -155 l-21 -34 20 -22 20
-22 58 55 c32 30 87 74 123 98 36 24 86 61 113 81 26 21 84 61 130 89 45 28
107 69 137 91 30 22 65 44 78 49 12 5 66 38 120 73 53 35 150 97 214 138 65
41 118 76 118 79 0 4 -17 12 -37 20 -21 8 -40 16 -43 17 -3 1 -23 -6 -45 -16z"/>
<path d="M6595 8683 c-76 -191 -116 -318 -110 -355 5 -30 3 -37 -13 -42 -12
-4 -30 -31 -46 -69 -29 -70 -32 -87 -13 -87 14 0 157 -57 252 -100 28 -13 45
-25 38 -27 -7 -3 -47 11 -90 31 -111 49 -217 86 -225 78 -10 -10 -64 -152 -72
-187 -6 -30 -5 -31 46 -49 29 -10 72 -29 96 -42 40 -22 42 -22 42 -3 0 10 5
19 10 19 6 0 10 -9 10 -20 0 -12 7 -32 16 -45 18 -28 13 -33 -10 -9 -15 14
-16 14 -16 -1 0 -9 -6 -15 -12 -12 -7 2 -12 10 -10 16 4 21 -25 40 -106 70
l-79 30 -12 -25 c-15 -33 -14 -64 2 -65 6 0 3 -4 -9 -9 -18 -7 -33 -39 -47
-103 -1 -5 24 -20 56 -33 l59 -23 -6 42 -7 42 20 -35 19 -35 7 37 c5 24 14 40
26 43 29 9 39 -2 39 -46 0 -35 -3 -39 -24 -39 -27 0 -42 -15 -26 -25 11 -7 14
-45 4 -45 -4 0 -13 8 -20 18 -11 16 -13 14 -24 -13 -8 -21 -8 -31 -1 -33 17
-6 13 -22 -5 -22 -23 0 -43 29 -44 63 0 32 20 37 21 5 0 -22 1 -22 9 -3 10 25
6 29 -55 52 l-50 19 -3 -45 c-4 -61 -16 -75 -22 -27 l-5 40 -21 -60 c-12 -32
-24 -66 -28 -76 -5 -12 -1 -18 16 -23 13 -4 70 -28 128 -53 186 -82 410 -228
570 -372 l95 -86 67 71 67 72 -33 32 c-24 24 -35 29 -39 19 -4 -10 -9 -8 -18
7 -20 35 -132 139 -193 180 -104 71 -141 95 -161 107 -17 10 -18 9 -8 -4 10
-12 10 -19 -1 -34 -17 -23 -25 -17 -28 19 -2 21 -8 27 -25 27 l-23 0 22 22
c19 19 24 20 44 7 52 -32 222 -151 269 -188 58 -46 65 -48 65 -21 0 25 25 36
45 20 12 -10 11 -15 -10 -34 l-24 -22 65 -65 64 -64 82 82 82 82 -24 27 c-31
33 -219 184 -240 192 -8 3 -18 10 -22 16 -5 7 -8 4 -8 -6 0 -12 -8 -18 -24
-18 -42 0 -56 11 -56 41 0 24 -4 29 -25 29 -21 0 -25 -5 -25 -30 0 -16 -4 -30
-10 -30 -5 0 -10 14 -10 30 0 18 -5 30 -13 30 -9 0 -12 -10 -9 -30 3 -18 0
-30 -7 -30 -6 0 -11 14 -11 32 0 40 -9 33 -12 -10 -2 -30 -5 -32 -40 -32 l-38
0 0 43 c0 49 22 92 33 63 4 -9 14 -16 22 -16 16 0 16 21 -1 83 -7 21 -20 22
-28 1 -3 -8 -2 -12 4 -9 6 3 10 1 10 -4 0 -6 -10 -11 -21 -11 -16 0 -20 5 -16
20 3 10 -1 27 -9 37 -12 16 -13 15 -14 -16 0 -26 -3 -32 -16 -27 -9 3 -18 6
-20 6 -2 0 -4 7 -4 15 0 24 -18 17 -22 -7 -2 -15 -11 -24 -25 -26 -21 -3 -23
1 -23 40 0 31 -3 39 -10 28 -5 -8 -10 -25 -10 -37 0 -12 -5 -25 -11 -28 -7 -5
-8 5 -4 29 5 22 3 36 -3 36 -5 0 -9 -11 -9 -25 0 -30 -1 -30 -29 -39 -20 -6
-22 -2 -26 39 -2 31 1 45 9 45 8 0 13 -14 13 -37 0 -46 10 -38 12 11 1 34 21
51 30 25 3 -9 9 -9 25 0 12 6 34 11 50 12 l28 0 -35 17 c-19 9 -38 21 -42 27
-14 18 -8 72 8 86 15 12 16 10 12 -24 -2 -20 0 -37 4 -37 4 0 9 3 9 8 1 4 3
20 5 36 1 15 5 30 8 33 11 11 26 -10 26 -37 0 -23 4 -28 16 -23 11 4 14 13 10
29 -5 17 -2 24 8 24 18 0 33 -77 17 -93 -6 -6 -11 -7 -11 -2 0 6 -20 10 -45
10 -25 0 -45 -3 -45 -6 0 -7 131 -65 140 -62 3 1 10 -3 17 -9 9 -7 14 -3 19
16 3 14 10 23 15 21 4 -3 4 -17 -1 -30 -7 -18 -5 -29 9 -46 l18 -23 7 37 c9
49 31 50 23 1 -4 -25 -2 -34 6 -31 7 2 13 15 14 28 2 42 5 45 12 11 3 -18 10
-31 16 -30 5 2 8 9 7 17 -2 7 -1 20 3 29 5 14 7 14 15 2 6 -8 10 -27 10 -42 0
-23 -4 -28 -25 -28 -14 0 -25 -4 -25 -8 0 -14 48 -55 57 -49 4 3 22 -6 38 -20
17 -13 73 -59 125 -101 52 -41 119 -98 148 -125 l54 -50 85 84 84 84 -78 73
c-92 87 -191 168 -250 205 l-42 27 6 -33 c3 -17 10 -40 14 -49 14 -26 10 -35
-5 -15 -13 16 -14 16 -20 -8 -7 -28 -26 -34 -26 -7 -1 16 -1 16 -14 0 -13 -17
-56 -15 -56 3 0 5 6 6 13 4 21 -8 44 55 36 100 -4 22 -5 43 -3 47 5 8 54 -14
54 -25 0 -5 4 -6 8 -3 14 9 269 -197 335 -271 16 -18 34 -33 40 -33 6 0 116
107 244 238 l233 237 -57 55 c-111 105 -189 165 -438 333 -210 141 -238 158
-245 147 -5 -8 -9 -5 -12 7 -5 19 -156 110 -252 152 -52 23 -74 21 -98 -7 -14
-15 -14 -29 -2 -117 21 -152 45 -435 39 -456 -3 -11 -7 -28 -10 -38 -5 -16 0
-20 22 -23 26 -3 28 -6 25 -38 -2 -19 -8 -40 -13 -46 -20 -25 35 -46 59 -22 9
9 12 9 12 -4 0 -8 11 -27 25 -42 27 -29 31 -41 15 -51 -5 -3 -10 -33 -10 -66
0 -32 -4 -59 -9 -59 -5 0 -7 24 -5 53 l3 53 -80 -3 -80 -3 3 41 c4 53 24 63
22 12 -1 -29 0 -31 3 -8 3 17 11 37 18 45 11 13 11 18 -1 34 -8 12 -10 24 -5
30 15 18 17 59 4 63 -9 3 -13 -6 -13 -27 0 -20 -4 -29 -11 -24 -8 4 -9 0 -4
-15 9 -29 -13 -27 -24 2 -5 13 -7 35 -4 50 3 15 0 34 -7 42 -8 10 -9 19 -1 32
9 16 10 15 11 -9 0 -16 4 -28 10 -28 16 0 25 51 23 140 -2 109 -51 497 -66
530 -9 18 -22 26 -45 28 -17 2 -32 8 -32 13 0 10 -59 39 -79 39 -5 0 -21 -30
-36 -67z"/>
<path d="M6907 8715 l-39 -22 29 -20 c15 -11 78 -46 138 -78 144 -75 334 -196
575 -365 114 -80 181 -134 278 -224 l64 -58 34 33 35 34 -26 22 c-15 14 -32
20 -42 16 -12 -5 -15 -2 -10 10 6 16 -28 51 -119 123 -21 18 -79 64 -129 103
-49 40 -103 79 -120 88 -16 8 -37 22 -46 30 -9 7 -41 29 -70 47 -309 188 -378
230 -432 256 -34 16 -66 30 -72 29 -5 0 -27 -11 -48 -24z"/>
<path d="M3935 8652 c-82 -54 -148 -97 -335 -213 -74 -47 -153 -97 -175 -113
-22 -15 -83 -55 -135 -89 -214 -141 -370 -263 -370 -290 0 -16 314 -320 318
-308 2 6 14 11 27 11 26 0 38 -28 23 -55 -8 -14 0 -27 42 -70 l53 -54 80 75
c136 126 345 276 520 374 l77 44 1 180 c1 100 3 240 5 313 2 79 0 135 -6 138
-6 3 -10 23 -10 44 0 37 -14 62 -34 60 -6 0 -43 -22 -81 -47z"/>
<path d="M5498 8293 l-48 -4 0 -114 0 -113 88 -6 c258 -19 451 -53 639 -115
l113 -37 15 54 c9 30 27 79 41 110 19 43 22 57 12 64 -33 21 -296 88 -503 129
-74 14 -267 39 -290 37 -11 -1 -41 -3 -67 -5z"/>
<path d="M5220 8279 c-147 -11 -213 -18 -305 -35 -44 -9 -89 -17 -100 -19 -65
-10 -251 -65 -272 -80 -2 -1 8 -33 20 -71 16 -47 30 -70 42 -73 14 -2 17 2 12
18 -3 14 0 21 9 21 8 0 14 5 14 10 0 6 5 10 10 10 6 0 10 -9 10 -20 0 -11 4
-20 9 -20 5 0 16 -3 25 -6 13 -5 16 1 16 30 0 20 4 36 9 36 4 0 6 -23 3 -51
l-5 -52 48 7 c26 4 57 12 69 17 19 8 18 9 -5 4 -20 -3 -26 0 -26 13 0 19 15
42 28 42 5 0 9 -7 9 -15 0 -8 5 -15 10 -15 6 0 10 -7 10 -15 0 -11 7 -14 23
-11 48 11 195 35 250 42 31 3 57 10 57 15 0 5 8 4 18 -2 13 -8 46 -9 105 -4
l87 7 0 114 0 114 -37 -2 c-21 0 -85 -5 -143 -9z"/>
<path d="M4427 8105 c-48 -18 -107 -42 -130 -53 -23 -11 -76 -34 -117 -51 -41
-17 -80 -35 -86 -39 -12 -8 -27 -282 -15 -282 4 0 15 6 26 14 48 33 258 138
345 171 52 21 110 44 128 52 32 14 32 14 14 38 -10 13 -29 60 -43 104 -13 45
-26 81 -29 80 -3 0 -45 -15 -93 -34z"/>
<path d="M5185 8029 c-78 -7 -196 -22 -272 -34 -35 -6 -58 -12 -108 -30 -11
-4 -35 -8 -53 -9 l-33 -1 -4 -62 -4 -61 39 -7 c22 -4 40 -12 41 -18 1 -7 1
-40 2 -74 1 -54 3 -63 19 -63 10 0 18 -4 18 -10 0 -13 -37 -13 -45 1 -4 6 -13
8 -21 5 -8 -3 -19 4 -25 17 -11 20 -11 21 5 8 27 -23 37 -1 30 63 -6 46 -9 55
-19 44 -22 -23 -28 -58 -11 -58 9 0 16 -6 16 -14 0 -16 -37 -28 -46 -15 -10
17 -22 9 -17 -11 3 -10 10 -18 16 -17 10 2 13 -9 37 -115 7 -32 17 -55 22 -52
5 3 6 13 4 22 -8 24 9 46 28 39 14 -6 15 -3 6 13 -12 22 -6 40 12 40 6 0 8 -9
5 -20 -6 -25 1 -26 20 -2 10 12 9 5 -3 -25 -25 -66 -17 -73 55 -54 34 8 61 20
61 26 0 6 6 20 14 30 12 16 16 17 30 6 19 -16 12 -31 -16 -31 -12 0 -19 -3
-15 -6 8 -8 104 15 140 33 22 11 36 12 58 4 18 -6 31 -6 34 0 4 5 49 9 101 9
l94 0 0 96 0 97 -107 -7 c-118 -7 -195 -17 -348 -47 -55 -10 -109 -19 -119
-19 -36 0 -2 17 59 29 86 18 96 21 90 32 -4 5 0 9 9 9 8 0 16 -4 18 -8 2 -5
53 -3 113 5 61 7 149 16 198 19 l87 6 0 114 0 114 -67 -2 c-38 -1 -104 -5
-148 -9z"/>
<path d="M5450 8032 c0 -6 7 -12 15 -16 8 -3 15 -15 15 -27 0 -15 -5 -19 -15
-15 -13 4 -15 -8 -15 -79 l0 -85 65 -2 c36 -1 73 -2 82 -2 14 -1 21 19 38 107
12 59 19 110 16 111 -17 9 -201 16 -201 8z"/>
<path d="M5666 7948 c-9 -40 -19 -89 -22 -109 l-6 -36 98 -13 c126 -15 243
-41 364 -80 52 -16 98 -30 101 -30 3 0 12 19 19 43 8 23 18 47 22 54 5 6 5 14
-2 18 -15 9 -12 38 4 32 12 -5 36 30 36 53 0 25 -462 140 -560 140 l-38 0 -16
-72z"/>
<path d="M8021 7946 l-33 -34 109 -108 c59 -60 140 -152 180 -204 171 -229
215 -284 209 -262 -5 13 -3 22 3 22 6 0 11 -6 11 -13 0 -8 11 -24 25 -37 31
-29 26 -37 -9 -15 -27 18 -36 6 -11 -15 18 -15 71 -4 79 17 7 17 -64 147 -110
202 -17 20 -71 86 -120 147 -50 62 -138 162 -195 223 l-106 110 -32 -33z"/>
<path d="M2753 7924 c-21 -25 -37 -50 -36 -54 2 -5 -3 -7 -10 -4 -15 5 -183
-187 -266 -304 -30 -42 -75 -106 -101 -142 -62 -87 -160 -252 -160 -270 0 -7
-12 -33 -26 -57 -17 -29 -23 -51 -18 -65 5 -17 3 -20 -10 -15 -11 4 -21 -3
-32 -24 -22 -44 -84 -206 -84 -221 0 -7 16 -18 35 -24 l34 -11 27 71 c41 107
100 222 159 306 29 41 50 81 47 89 -3 8 0 11 6 7 13 -8 22 4 128 179 47 77 88
145 92 151 4 6 48 59 97 117 93 108 189 225 215 260 13 18 12 21 -9 38 -34 28
-46 24 -88 -27z"/>
<path d="M3953 7885 c-168 -97 -363 -240 -492 -363 l-64 -60 82 -81 c45 -45
85 -81 90 -81 4 0 20 14 37 31 16 17 53 49 82 71 l52 40 0 69 c0 38 -6 78 -12
89 -16 25 -1 54 31 58 28 4 37 -22 17 -53 -10 -16 -16 -46 -16 -85 l0 -61 43
34 c23 19 90 67 150 106 l107 72 0 135 c0 74 -3 134 -7 133 -5 0 -50 -25 -100
-54z"/>
<path d="M4630 7905 c0 -9 -6 -15 -12 -14 -41 5 -50 -1 -45 -28 3 -16 0 -41
-7 -58 -7 -16 -11 -36 -8 -44 3 -8 0 -11 -7 -7 -6 4 -11 2 -11 -3 0 -6 5 -11
10 -11 6 0 10 -4 10 -10 0 -5 -6 -10 -14 -10 -7 0 -19 -7 -26 -15 -7 -8 -16
-15 -21 -15 -13 0 -11 24 3 38 6 6 12 41 12 77 1 70 -9 80 -43 46 -11 -11 -22
-17 -25 -14 -9 10 -68 -16 -223 -98 l-153 -81 0 -49 c0 -62 -18 -74 -22 -14
l-3 45 -110 -76 c-60 -42 -125 -85 -142 -97 -27 -18 -33 -28 -32 -57 0 -50 14
-168 20 -174 11 -11 79 16 89 34 7 13 21 20 38 19 15 0 21 -3 15 -6 -7 -2 -13
-9 -13 -14 0 -16 22 -10 57 17 19 14 37 23 40 20 8 -8 -15 -34 -38 -41 -10 -4
-19 -10 -19 -14 0 -9 66 -41 85 -41 19 0 19 33 0 70 -14 27 -14 31 3 47 24 23
34 51 21 59 -5 3 -9 13 -8 22 3 30 -1 42 -12 42 -7 0 -9 -10 -7 -25 3 -14 1
-28 -3 -31 -5 -3 -9 13 -9 34 0 34 3 40 25 44 32 7 35 2 35 -44 0 -24 5 -38
13 -38 20 1 60 27 50 33 -5 3 -15 2 -23 -4 -28 -17 -29 -9 -5 27 14 20 25 41
25 46 0 15 52 -1 65 -19 13 -18 35 -10 35 13 0 8 7 14 16 14 8 0 13 3 11 8 -3
4 8 7 23 8 28 1 167 63 143 64 -7 0 -13 4 -13 9 0 13 50 25 93 22 40 -3 47 5
20 25 -17 12 -17 14 -1 30 19 19 45 13 55 -13 4 -10 11 -21 17 -25 6 -4 4 -9
-7 -14 -13 -4 -17 -18 -17 -52 0 -47 11 -51 18 -5 2 14 9 35 16 45 11 16 15
16 25 4 16 -19 24 -66 11 -66 -5 0 -11 15 -11 33 l-2 32 -6 -35 c-9 -44 -6
-51 22 -46 16 2 21 10 20 25 -3 20 6 25 35 22 6 -1 12 1 12 5 0 20 -35 122
-46 135 -8 8 -14 30 -14 47 0 17 -4 34 -10 37 -12 8 -13 45 -1 45 5 0 15 -20
22 -45 15 -52 29 -59 29 -14 0 17 -4 28 -10 24 -6 -4 -7 5 -4 23 7 34 -9 50
-31 32 -16 -13 -18 -9 -15 33 1 15 -1 27 -4 27 -3 0 -6 -7 -6 -15z"/>
<path d="M2834 7868 c-23 -24 -61 -70 -86 -103 -25 -33 -82 -103 -127 -155
-45 -52 -81 -99 -81 -104 0 -5 8 -18 17 -28 16 -18 16 -18 0 -12 -9 3 -17 11
-17 17 0 19 -24 -14 -100 -138 -41 -66 -103 -160 -139 -210 -77 -108 -129
-203 -170 -310 -37 -96 -40 -125 -10 -125 12 0 71 -22 133 -49 113 -50 322
-134 364 -146 19 -5 24 -1 33 24 6 17 15 29 20 26 5 -3 3 -14 -3 -24 -12 -20
-5 -51 11 -51 6 0 17 13 26 29 20 39 56 65 67 48 13 -20 9 -72 -7 -93 -12 -16
-14 -16 -15 -3 0 20 -37 32 -47 16 -3 -6 0 -13 8 -16 8 -2 51 -24 96 -48 46
-23 85 -43 88 -43 15 0 1 34 -26 65 -17 19 -26 35 -20 35 6 0 11 -4 11 -9 0
-5 10 -8 23 -8 12 1 32 -2 44 -7 18 -6 25 -2 37 23 18 35 20 45 6 36 -13 -8
-13 19 2 66 15 52 32 50 25 -3 -6 -42 -5 -41 40 36 38 66 44 83 38 113 -3 19
-11 40 -16 47 -5 6 -23 32 -40 58 -32 50 -58 67 -71 46 -4 -7 -32 -49 -61 -93
-43 -64 -51 -82 -40 -90 15 -11 8 -75 -9 -75 -6 0 -7 11 -4 25 9 34 0 32 -19
-5 -9 -16 -20 -30 -26 -30 -6 0 -6 6 1 19 13 25 13 51 0 51 -5 0 -12 -16 -16
-35 -3 -19 -12 -35 -19 -35 -9 0 -10 10 -2 44 9 41 12 44 37 40 21 -5 28 -1
39 23 7 15 33 58 57 95 47 72 58 107 22 71 -19 -20 -23 -20 -33 -6 -6 8 -24
16 -38 16 -33 0 -35 13 -4 21 57 14 84 67 52 100 -16 16 -19 35 -9 60 12 31
25 16 18 -20 -6 -35 -6 -36 17 -28 13 4 34 8 47 7 15 -1 22 5 22 17 0 10 10
20 23 24 16 4 19 8 9 15 -11 6 -10 10 3 15 9 3 24 6 33 6 9 0 49 41 87 90 39
49 73 90 76 90 3 0 36 36 73 80 l68 80 -24 27 c-35 41 -443 443 -449 443 -3 0
-23 -19 -45 -42z"/>
<path d="M7790 7712 c-96 -97 -200 -203 -230 -235 l-55 -58 55 -54 c36 -35 61
-52 72 -49 22 6 33 -12 11 -20 -14 -6 -12 -11 13 -37 15 -16 34 -27 42 -24 7
3 12 -1 10 -9 -2 -8 20 -43 47 -77 28 -35 66 -87 85 -116 27 -40 39 -51 54
-47 16 5 18 2 13 -17 -7 -27 14 -61 34 -57 8 2 13 -2 12 -8 -1 -6 27 -69 62
-139 36 -70 65 -133 65 -141 0 -19 15 -18 34 2 19 18 20 30 6 39 -6 4 -10 14
-9 23 1 10 -3 30 -10 45 -9 22 -8 35 1 55 20 39 40 48 77 32 45 -18 50 -51 17
-117 -26 -54 -27 -73 -1 -73 8 0 11 7 8 20 -3 12 1 22 11 26 9 3 16 13 16 21
0 8 27 56 61 105 34 52 58 97 54 106 -3 9 0 12 9 9 9 -4 23 6 35 26 12 18 52
73 91 122 45 58 64 91 55 93 -7 2 -21 14 -30 28 -9 14 -21 22 -28 18 -9 -5 -9
-3 0 6 11 12 16 10 33 -8 28 -30 42 -28 28 3 -6 14 -16 25 -21 25 -6 0 -8 3
-4 6 8 8 -82 138 -215 312 -113 147 -295 342 -320 342 -8 0 -92 -80 -188 -178z"/>
<path d="M5450 7698 l0 -95 62 -6 c35 -3 65 -2 68 2 3 4 18 8 34 9 25 2 28 -1
22 -21 -3 -12 -6 -25 -6 -29 0 -5 -7 -8 -15 -8 -8 0 -15 -4 -15 -10 0 -5 3
-10 8 -10 16 0 29 17 45 55 9 22 16 33 17 25 0 -12 3 -11 11 3 15 26 30 21 23
-8 -7 -29 -13 -26 115 -50 52 -10 142 -32 200 -50 120 -37 113 -40 135 52 7
33 19 69 25 81 9 18 9 23 -1 27 -68 25 -114 38 -225 64 -156 37 -233 48 -385
57 l-118 7 0 -95z"/>
<path d="M4455 7590 c-3 -5 -1 -10 4 -10 6 0 11 -3 11 -7 0 -8 -20 -18 -130
-67 -57 -25 -124 -75 -103 -76 8 0 11 -10 7 -30 -4 -19 -2 -30 5 -30 11 0 15
13 12 38 -1 6 5 12 14 12 20 0 19 -5 -6 -57 -35 -72 -40 -68 -44 34 0 18 -3
34 -6 38 -8 8 -70 -25 -76 -41 -3 -8 -11 -14 -17 -14 -7 0 -21 -6 -31 -14 -18
-13 -18 -14 3 -41 23 -29 18 -57 -13 -69 -11 -4 -15 -21 -15 -66 0 -56 1 -60
16 -46 8 9 55 39 102 67 48 28 104 67 125 87 22 21 35 29 31 19 -6 -17 -5 -17
30 -1 24 12 33 21 26 28 -13 13 -13 76 0 76 6 0 10 -12 10 -27 0 -16 5 -35 11
-43 8 -12 9 -10 4 8 -3 12 -3 32 0 43 6 17 9 19 17 8 7 -11 11 -11 15 -1 5 14
23 16 23 3 0 -5 -7 -17 -16 -26 -19 -19 -12 -30 13 -21 10 4 19 6 20 4 1 -2
12 6 25 18 19 17 127 62 210 88 11 3 15 12 11 25 -6 25 -2 24 -59 10 -24 -6
-44 -16 -44 -21 0 -6 -7 -8 -15 -4 -8 3 -15 1 -15 -4 0 -6 -4 -10 -9 -10 -5 0
-8 8 -7 17 0 10 -6 18 -14 18 -8 0 -16 10 -18 22 -2 15 -8 20 -20 17 -15 -5
-15 -4 1 9 9 8 17 22 17 31 0 13 -6 15 -27 10 -16 -4 -29 -11 -31 -16 -6 -14
-22 -9 -22 7 0 17 -16 20 -25 5z"/>
<path d="M5233 7567 c3 -8 1 -20 -4 -28 -7 -11 -12 -11 -26 -2 -10 6 -17 15
-16 20 3 15 -25 12 -159 -18 -69 -16 -129 -29 -133 -29 -4 0 -5 -7 -1 -15 7
-19 -30 -21 -37 -2 -4 9 -8 8 -16 -3 -6 -8 -11 -10 -11 -5 0 6 -5 2 -11 -7
-13 -23 -29 -23 -29 -1 0 9 -3 13 -7 10 -3 -4 3 -26 14 -50 11 -23 33 -75 48
-114 15 -40 30 -75 35 -78 4 -2 50 7 101 21 52 13 109 27 127 31 17 3 32 12
32 19 0 8 5 14 10 14 6 0 10 -5 10 -10 0 -7 28 -8 83 -3 45 3 99 7 119 7 32 1
37 4 41 29 3 20 0 26 -10 23 -15 -6 -18 10 -3 19 6 3 10 46 10 96 l0 89 -86 0
c-68 0 -85 -3 -81 -13z"/>
<path d="M5451 7483 c0 -77 3 -92 10 -71 7 17 15 25 25 21 8 -3 14 0 14 6 0 5
9 15 20 21 25 13 64 -5 56 -26 -4 -9 2 -14 15 -14 16 0 20 -5 16 -20 -7 -27 1
-25 12 3 6 16 18 23 41 25 30 2 32 0 28 -23 -6 -28 6 -43 18 -24 4 7 7 27 6
45 -2 49 30 84 79 84 56 0 62 -31 21 -110 -25 -47 -28 -59 -16 -64 8 -3 14 1
14 9 0 17 33 75 43 75 4 0 7 -11 7 -24 0 -29 19 -46 21 -19 1 10 1 24 0 31 -1
6 7 12 19 12 15 0 20 -6 20 -29 0 -16 -6 -31 -15 -35 -8 -3 -15 -15 -15 -26 0
-23 -15 -27 -23 -6 -5 13 -10 13 -35 0 -35 -17 -61 -10 -67 20 -14 72 -15 114
-2 125 16 12 47 5 47 -11 0 -6 -7 -5 -15 2 -20 17 -25 10 -14 -19 8 -19 12
-21 24 -11 8 7 15 23 15 36 0 21 -5 24 -34 24 -28 0 -36 -5 -49 -32 -9 -19
-12 -34 -7 -36 6 -2 7 -21 4 -43 -4 -26 -3 -39 5 -39 22 0 10 -16 -13 -18 -18
-1 -26 4 -29 21 l-4 22 -2 -22 c-2 -33 -21 -28 -21 5 -1 26 -1 26 -15 8 -8
-11 -15 -16 -15 -12 0 5 -7 3 -15 -4 -9 -7 -14 -14 -13 -16 2 -1 41 -10 88
-19 47 -9 138 -33 204 -51 65 -19 121 -32 124 -29 5 5 78 194 85 219 1 4 -16
15 -38 23 -71 26 -305 83 -339 83 -29 0 -34 -4 -40 -31 -6 -29 -7 -30 -58 -27
l-53 3 -3 36 c-3 32 -7 38 -34 43 -17 3 -46 6 -64 6 l-34 0 1 -97z"/>
<path d="M4651 7425 c-46 -19 -86 -37 -89 -40 -3 -2 1 -11 8 -20 10 -12 10
-16 -1 -19 -40 -14 -69 -9 -69 11 0 15 -2 15 -19 -1 -10 -9 -50 -32 -87 -50
-79 -39 -229 -128 -261 -156 -12 -10 -23 -17 -25 -15 -1 2 -3 -12 -4 -30 -1
-46 -21 -68 -57 -62 -24 3 -39 -5 -84 -46 l-54 -50 92 -93 92 -92 78 77 c43
43 111 100 151 127 93 62 272 154 413 211 61 25 113 47 117 49 6 4 -49 150
-78 207 -8 15 -20 27 -27 27 -6 0 -50 -16 -96 -35z"/>
<path d="M6116 7383 c-10 -32 -29 -82 -42 -112 -14 -30 -23 -55 -22 -56 2 -1
35 -14 73 -29 39 -15 99 -43 134 -62 58 -32 101 -39 86 -14 -3 5 -1 10 5 10 8
0 8 6 0 21 -15 26 -7 35 13 14 18 -18 37 -20 37 -3 0 6 9 3 20 -7 20 -18 27
-45 12 -45 -7 0 -32 -42 -32 -54 0 -2 37 -26 83 -53 45 -28 90 -60 100 -71 11
-11 25 -18 33 -15 8 3 17 -3 21 -13 4 -11 36 -48 71 -82 l65 -64 88 88 89 88
-53 54 c-91 93 -270 225 -432 319 -82 48 -265 132 -304 139 -25 5 -28 2 -45
-53z"/>
<path d="M3250 7299 c-63 -73 -138 -158 -166 -189 -56 -62 -72 -96 -55 -113 6
-6 11 -19 11 -28 0 -11 12 -18 40 -23 22 -3 40 -11 40 -17 0 -6 -16 -8 -44 -4
-39 6 -45 5 -51 -14 -3 -12 -11 -21 -16 -21 -16 0 -9 -24 16 -52 13 -16 29
-28 35 -28 6 0 8 -4 5 -10 -3 -6 1 -7 9 -4 13 5 16 -2 16 -37 0 -26 4 -39 8
-31 5 7 7 28 6 47 -2 19 1 35 6 35 6 0 10 -12 11 -27 0 -26 1 -26 12 -9 7 10
41 59 76 108 50 72 61 92 50 100 -10 7 -9 8 6 4 16 -4 32 9 73 59 34 42 48 65
38 65 -22 0 -37 32 -25 53 13 23 46 22 54 -3 7 -22 35 -28 35 -8 0 7 21 34 47
60 l48 48 -85 85 -85 85 -115 -131z"/>
<path d="M3663 7360 c-40 -33 -73 -66 -73 -73 1 -7 36 -50 79 -96 l78 -85 44
37 c24 20 58 48 74 63 l30 26 -30 -5 c-16 -3 -46 -8 -66 -12 -35 -6 -36 -5
-43 25 -3 18 -7 53 -7 79 -1 25 -4 59 -8 74 l-6 28 -72 -61z"/>
<path d="M7420 7329 c-41 -42 -76 -82 -78 -89 -2 -6 29 -46 70 -88 89 -92 148
-164 212 -254 26 -38 49 -68 52 -68 3 0 2 5 -1 10 -3 6 -1 10 5 10 7 0 10 -6
7 -14 -5 -13 59 -140 95 -189 10 -14 31 -19 103 -23 50 -2 111 -7 137 -10 l48
-7 -10 29 c-6 16 -36 79 -68 139 -50 96 -61 110 -85 113 -16 2 -27 9 -27 18 0
10 5 12 13 8 9 -6 9 -4 -1 8 -7 8 -10 24 -6 34 5 18 5 18 -6 1 -7 -11 -13 -26
-14 -35 -2 -9 -9 -18 -16 -20 -9 -3 -11 1 -5 14 21 51 17 61 -56 160 -84 114
-185 224 -207 224 -8 0 -48 -30 -88 -66 -41 -36 -74 -61 -74 -56 0 6 34 41 75
79 l74 68 -37 41 -37 41 -75 -78z"/>
<path d="M5265 7301 c-32 -5 -41 -11 -43 -28 -4 -25 -32 -32 -32 -8 0 21 -47
19 -148 -5 -99 -24 -122 -35 -122 -58 0 -30 19 -41 54 -31 81 25 222 48 324
55 92 6 112 10 108 21 -4 8 -6 25 -6 37 0 20 -5 23 -47 23 -27 0 -66 -3 -88
-6z"/>
<path d="M5450 7273 l0 -40 108 -7 c123 -7 229 -26 356 -62 48 -14 89 -24 91
-22 1 2 5 15 9 30 5 20 2 28 -11 32 -168 49 -373 96 -423 96 -16 0 -31 -6 -33
-12 -4 -10 -8 -10 -14 -1 -4 6 -25 14 -46 18 l-37 7 0 -39z"/>
<path d="M3497 7200 c-26 -29 -47 -56 -47 -61 0 -4 19 -13 43 -19 23 -6 77
-21 120 -32 42 -12 80 -18 83 -15 4 4 -21 35 -54 69 -33 35 -69 74 -79 87
l-19 23 -47 -52z"/>
<path d="M7234 7147 l-81 -83 44 -49 44 -48 85 84 84 84 -48 48 -48 47 -80
-83z"/>
<path d="M3840 7164 c-36 -30 -67 -60 -69 -66 -2 -6 25 -39 60 -73 l63 -63 56
45 c30 25 55 49 54 54 -1 5 -2 21 -2 35 -1 16 -20 44 -49 74 l-48 48 -65 -54z"/>
<path d="M5210 7199 c-98 -12 -265 -52 -265 -64 -1 -27 -19 -37 -54 -31 -45 7
-94 -6 -183 -46 -62 -28 -85 -48 -57 -48 6 0 9 -12 7 -27 -2 -23 -7 -28 -27
-25 -13 1 -29 9 -35 18 -10 13 -21 10 -89 -21 -42 -20 -77 -38 -77 -40 0 -2 7
-1 17 2 11 4 14 3 9 -6 -4 -6 -16 -9 -26 -6 -22 7 -60 -14 -60 -32 0 -7 -8
-13 -18 -13 -18 0 -136 -81 -184 -127 l-27 -26 73 -76 c41 -42 93 -98 116
-126 23 -27 89 -100 146 -161 97 -105 105 -111 139 -109 28 2 47 13 81 46 24
24 46 50 49 59 3 8 24 21 47 28 24 8 50 19 58 27 8 7 44 24 80 38 64 25 78 29
133 41 30 7 28 26 -4 26 -23 0 -25 22 -4 40 18 15 40 1 51 -32 5 -18 11 -19
57 -12 29 4 72 8 97 9 33 1 44 5 42 16 -10 40 -10 52 0 63 12 13 65 9 84 -5
15 -12 24 253 17 468 l-6 163 -56 -1 c-31 -1 -90 -6 -131 -10z"/>
<path d="M5450 7025 c0 -102 4 -185 9 -185 5 0 14 7 21 15 15 18 30 20 30 4 0
-7 8 -17 17 -24 16 -12 16 -14 0 -30 -11 -10 -16 -26 -12 -39 3 -12 -1 -9 -10
9 l-15 30 2 -45 c2 -35 -1 -45 -14 -48 -15 -3 -16 3 -11 47 4 35 2 51 -6 51
-8 0 -11 -39 -11 -130 0 -115 8 -156 23 -117 2 6 20 12 38 11 36 -1 50 -24 30
-48 -9 -10 -7 -15 9 -19 22 -6 28 8 8 16 -10 4 -10 6 0 6 7 1 11 5 8 10 -8 12
93 5 125 -9 22 -9 20 -10 -11 -5 -32 5 -33 4 -15 -10 19 -14 18 -14 -15 -10
-26 4 -30 3 -15 -3 35 -16 103 -21 118 -8 12 9 77 164 77 182 0 3 -6 2 -12 -1
-7 -4 -6 -1 3 7 21 18 53 104 44 119 -6 8 -4 10 5 4 10 -6 12 -3 7 14 -3 13
-3 20 0 17 4 -4 28 51 53 121 26 71 50 135 54 144 6 14 -6 21 -66 39 -130 39
-314 70 -425 70 l-43 0 0 -185z"/>
<path d="M4768 7173 c-32 -15 -58 -30 -58 -34 0 -5 7 -6 15 -3 10 4 15 0 15
-15 0 -26 -8 -27 -30 -1 -18 20 -19 20 -153 -45 -174 -84 -262 -142 -367 -242
-67 -64 -82 -84 -73 -94 10 -9 27 0 85 45 98 77 191 137 287 186 59 29 79 44
75 55 -4 8 -1 15 5 15 6 0 8 8 4 18 -5 15 -4 14 9 -2 17 -22 24 -20 188 48 81
34 104 54 93 84 -7 17 -30 14 -95 -15z"/>
<path d="M6036 7165 c-7 -29 -1 -45 18 -45 20 0 307 -146 361 -184 28 -19 64
-43 80 -52 17 -9 74 -52 128 -96 73 -59 103 -78 117 -73 11 4 20 10 20 13 0
10 -104 110 -162 157 -27 20 -48 32 -48 26 0 -13 -46 -15 -54 -2 -3 5 1 12 10
15 21 8 11 21 -49 59 -78 49 -154 84 -227 102 -65 17 -89 29 -77 41 5 6 19 2
82 -21 51 -19 -6 16 -65 40 -99 41 -97 40 -82 24 16 -18 15 -29 -3 -29 -9 0
-15 9 -15 25 0 33 -26 33 -34 0z"/>
<path d="M8538 7118 c-14 -18 -31 -44 -38 -58 -7 -14 -23 -36 -35 -50 -51 -56
-213 -299 -220 -328 -3 -17 -7 -44 -7 -61 -1 -17 -1 -31 -2 -31 -1 0 -22 6
-47 14 -40 12 -48 12 -67 -3 l-22 -16 27 -55 c16 -30 29 -56 29 -58 1 -2 14 0
28 4 18 4 33 19 44 43 19 40 48 50 95 32 21 -8 28 -19 33 -52 8 -49 30 -61 56
-30 13 18 18 19 18 7 0 -8 -13 -22 -28 -30 -26 -13 -31 -13 -45 2 -12 11 -17
12 -17 4 0 -7 24 -24 54 -37 30 -13 69 -37 88 -53 18 -15 49 -39 68 -52 19
-13 49 -35 65 -50 17 -15 47 -36 68 -48 l38 -22 11 25 c6 14 15 25 20 25 10 0
10 -3 -2 -36 -10 -24 -9 -26 12 -21 13 3 49 11 81 17 l58 13 -6 41 c-10 63
-164 512 -200 586 -45 89 -114 254 -118 279 -5 34 -13 33 -39 -1z"/>
<path d="M8627 7112 c-10 -10 -17 -26 -17 -35 0 -10 28 -75 61 -145 34 -70 78
-175 99 -234 21 -59 40 -104 44 -101 6 7 9 -11 7 -39 -1 -9 12 -53 30 -99 38
-98 59 -174 59 -213 0 -23 3 -27 18 -21 9 4 29 12 45 17 20 8 27 17 27 37 0
36 -39 151 -51 151 -24 0 -36 26 -31 71 3 36 -4 71 -33 155 -82 237 -157 407
-200 450 -29 29 -37 30 -58 6z"/>
<path d="M7337 7035 l-88 -81 22 -20 c11 -10 53 -58 91 -106 38 -49 77 -88 86
-89 10 0 12 -3 5 -5 -7 -3 3 -28 30 -71 l41 -65 45 6 c25 3 78 7 118 9 39 1
74 5 78 9 8 8 -72 148 -85 148 -6 0 -10 7 -10 16 0 21 -120 189 -192 270 l-54
60 -87 -81z"/>
<path d="M3460 7080 c0 -18 12 -73 26 -121 26 -85 27 -87 50 -77 13 6 24 16
23 22 -5 39 2 65 15 60 17 -7 111 76 99 87 -4 4 -48 17 -98 29 -49 13 -96 25
-102 27 -9 4 -13 -5 -13 -27z"/>
<path d="M5997 7073 c-14 -36 -14 -38 5 -45 23 -9 20 -41 -5 -46 -12 -2 -17 3
-18 20 0 15 -5 7 -14 -22 -8 -25 -48 -137 -89 -249 -59 -156 -74 -207 -65
-217 6 -8 16 -11 22 -7 6 4 8 0 4 -9 -10 -27 6 -30 25 -6 16 21 18 21 13 3 -5
-16 -3 -16 6 2 l12 23 23 -32 c13 -18 24 -37 24 -42 1 -6 15 -18 33 -26 31
-15 33 -14 35 4 2 31 20 43 37 25 16 -15 11 -54 -5 -44 -5 3 -11 1 -14 -4 -4
-5 4 -13 16 -17 13 -4 34 -15 47 -25 13 -11 33 -19 43 -19 12 0 18 -5 15 -12
-2 -7 24 -34 59 -61 35 -26 64 -43 64 -38 0 5 -6 12 -12 15 -7 3 -2 4 12 3 28
-2 101 58 94 78 -3 8 2 12 13 12 10 -1 17 4 15 11 -1 6 2 11 7 10 17 -5 211
194 211 215 0 3 24 29 53 57 l52 50 -53 50 c-93 87 -292 216 -454 294 -200 97
-192 95 -211 49z"/>
<path d="M3315 6993 c-131 -159 -187 -255 -140 -237 17 7 21 -11 5 -21 -5 -3
-10 -21 -9 -38 0 -27 2 -29 9 -12 7 16 9 17 9 3 1 -21 -11 -29 -28 -18 -9 5
-12 19 -9 39 3 20 0 32 -10 36 -22 8 -24 3 -13 -66 6 -35 15 -114 21 -175 12
-128 25 -175 46 -167 8 3 14 9 14 14 0 6 34 68 75 140 41 71 72 135 69 143 -3
8 3 16 14 18 19 5 132 177 132 201 0 7 -13 51 -28 97 -21 61 -36 89 -58 106
l-29 22 -70 -85z"/>
<path d="M3642 6988 c-46 -44 -60 -63 -50 -69 7 -5 17 -4 22 1 6 6 14 10 20
10 5 0 7 -3 3 -6 -3 -4 0 -13 8 -21 32 -31 12 -83 -32 -83 -19 0 -23 5 -23 30
0 17 5 30 11 30 5 0 8 4 4 10 -9 14 -32 1 -38 -22 -4 -12 -11 -18 -20 -15 -11
4 -14 -9 -14 -61 0 -115 -3 -142 -13 -142 -5 0 -7 21 -3 51 6 49 5 51 -15 44
-17 -5 -22 -2 -23 12 0 14 -2 15 -6 3 -3 -8 -19 -34 -35 -58 -29 -42 -32 -81
-6 -66 9 4 8 2 -1 -7 -10 -10 -15 -11 -18 -2 -6 15 -33 5 -33 -13 0 -8 6 -11
15 -8 11 5 14 0 12 -17 -4 -26 -35 -38 -47 -19 -6 9 -102 -150 -134 -220 -3
-8 -15 -28 -25 -45 -11 -16 -20 -33 -20 -37 -1 -11 91 -49 106 -44 7 3 13 2
13 -2 0 -11 58 -41 65 -34 3 4 33 63 66 131 62 131 65 146 26 189 -11 12 -15
22 -9 22 6 0 11 19 10 48 -1 55 10 112 22 112 13 0 21 -18 11 -24 -21 -13 -23
-101 -3 -151 l19 -49 23 44 c12 24 18 46 13 47 -6 2 -19 10 -29 18 -16 13 -17
16 -4 25 11 7 19 4 30 -11 15 -19 16 -19 51 18 19 21 65 79 102 128 36 50 89
112 116 140 l51 49 -62 63 c-34 35 -69 63 -78 63 -8 0 -43 -28 -78 -62z"/>
<path d="M7065 6980 l-68 -71 55 -57 c49 -51 116 -129 186 -218 13 -16 21 -22
19 -14 -6 20 48 26 69 9 8 -6 14 -7 14 -2 0 5 7 18 16 29 14 18 15 17 10 -16
-9 -54 1 -61 72 -54 34 4 62 10 62 14 0 30 -226 315 -327 413 l-39 37 -69 -70z"/>
<path d="M3806 6850 c-30 -34 -88 -107 -128 -163 -39 -56 -88 -124 -109 -152
-44 -60 -191 -353 -183 -366 3 -5 10 -9 15 -9 6 0 34 -11 62 -24 58 -28 147
-59 152 -54 2 2 26 50 53 108 27 58 79 147 115 198 59 86 64 97 60 133 -4 25
-2 39 5 39 7 0 10 -12 6 -32 l-5 -33 33 39 c18 22 64 73 101 114 37 41 67 78
65 83 -4 13 -170 179 -179 179 -4 0 -32 -27 -63 -60z"/>
<path d="M6900 6808 l-79 -83 27 -27 c14 -16 22 -28 17 -28 -5 0 7 -17 26 -37
20 -21 57 -66 84 -100 46 -61 48 -62 74 -48 15 7 58 23 96 36 39 12 78 28 87
36 15 14 14 18 -14 65 -17 27 -40 53 -52 57 -11 5 -21 15 -21 24 0 19 -119
163 -146 178 -17 9 -31 -2 -99 -73z"/>
<path d="M1982 6697 c-12 -14 -94 -244 -111 -307 -53 -205 -101 -562 -101
-757 0 -50 -4 -94 -8 -97 -11 -6 -3 -64 10 -72 5 -3 20 -3 34 0 21 6 24 12 24
51 0 72 22 200 31 183 5 -8 4 -30 -1 -49 -4 -19 -12 -58 -15 -87 -7 -52 -6
-53 13 -43 28 15 58 14 75 -3 12 -12 23 -10 78 17 68 34 196 93 268 123 144
61 205 92 211 104 4 8 12 25 19 38 7 13 25 89 41 170 16 81 43 192 61 247 17
55 38 125 46 155 8 30 19 61 25 67 12 15 -27 33 -68 33 -43 0 -160 -30 -276
-72 -62 -22 -155 -53 -206 -70 l-93 -30 -27 -56 c-15 -30 -37 -65 -49 -78 -37
-38 -83 -233 -83 -358 0 -33 -5 -68 -10 -76 -15 -24 -1 161 22 275 10 55 28
119 38 142 21 49 17 79 -16 111 -20 19 -25 21 -30 8 -9 -24 -26 -19 -22 7 2
15 9 21 21 19 12 -2 17 4 17 18 0 28 44 72 64 64 20 -7 38 34 56 121 6 33 18
91 26 129 8 38 12 71 10 73 -10 10 -66 10 -74 0z"/>
<path d="M3997 6641 c-73 -78 -169 -209 -162 -221 3 -4 -1 -10 -9 -13 -9 -3
-12 -15 -9 -31 3 -15 1 -26 -6 -26 -6 0 -11 5 -11 11 0 40 -70 -72 -131 -209
l-38 -85 36 -19 c19 -11 36 -18 37 -16 5 6 56 130 56 134 0 2 -7 4 -16 4 -8 0
-12 5 -9 11 4 6 13 8 20 5 8 -3 33 34 69 102 32 59 63 117 69 129 18 32 118
171 161 222 36 42 41 61 19 68 -5 2 -40 -28 -76 -66z"/>
<path d="M2071 6667 c-14 -36 -55 -257 -55 -295 1 -52 15 -58 81 -38 87 26
272 99 268 106 -2 4 10 6 28 7 31 0 172 34 182 44 3 3 -39 23 -93 43 -53 21
-151 62 -217 91 -66 29 -135 56 -152 60 -29 6 -34 3 -42 -18z"/>
<path d="M3032 6564 c-34 -64 -62 -120 -62 -124 0 -4 30 -10 68 -13 37 -3 75
-9 85 -12 14 -6 17 -1 16 31 -2 78 -24 228 -35 231 -6 2 -39 -49 -72 -113z"/>
<path d="M4063 6623 c-71 -85 -163 -226 -163 -250 0 -12 -4 -23 -9 -23 -18 0
-154 -261 -163 -314 -2 -15 8 -23 47 -39 28 -10 64 -25 80 -33 60 -27 506
-194 518 -194 7 0 18 22 24 49 6 27 32 85 57 130 50 88 52 93 34 90 -41 -5
-51 14 -20 37 23 18 42 17 42 -1 0 -25 19 -17 35 16 11 21 13 34 6 43 -6 7 -8
22 -4 34 7 29 -40 87 -245 301 -86 90 -163 172 -170 182 -7 11 -17 19 -21 19
-4 0 -26 -21 -48 -47z"/>
<path d="M6649 6538 c-51 -57 -116 -127 -146 -155 -33 -32 -52 -57 -47 -64 4
-7 3 -9 -3 -6 -6 4 -38 -21 -71 -55 -41 -42 -57 -65 -49 -70 9 -6 9 -8 0 -8
-20 0 -16 -13 17 -50 16 -19 28 -28 25 -20 -7 22 10 44 30 37 9 -4 14 -11 10
-16 -3 -5 -1 -12 5 -16 5 -3 10 2 10 11 0 10 3 15 6 11 4 -3 3 -14 -1 -24 -5
-10 -7 -22 -6 -26 0 -4 -6 -10 -14 -13 -8 -3 -12 -10 -9 -15 3 -5 10 -6 16 -3
7 4 8 2 4 -4 -11 -18 35 -94 52 -87 10 3 12 0 8 -10 -3 -9 4 -35 16 -59 19
-40 23 -43 57 -42 22 1 44 -5 57 -17 21 -18 23 -17 130 25 97 38 109 45 106
65 -2 17 1 21 11 17 10 -3 18 2 21 14 9 27 50 36 80 17 22 -15 24 -14 28 3 5
18 70 59 166 105 23 12 42 25 42 30 0 10 -137 257 -186 335 -1 2 -52 -17 -63
-24 -5 -4 94 -177 140 -247 27 -40 36 -63 31 -74 -9 -15 -41 35 -143 225 -22
39 -46 72 -54 72 -8 0 -22 -11 -31 -26 -18 -27 -72 -59 -82 -49 -4 3 15 25 42
49 44 38 48 45 42 73 -4 17 -14 37 -22 43 -7 7 -37 43 -65 81 -28 38 -55 69
-59 69 -5 0 -50 -46 -101 -102z"/>
<path d="M7670 6595 c-63 -7 -121 -13 -128 -14 -10 -1 -8 -9 6 -28 11 -16 36
-61 56 -100 20 -40 40 -73 46 -73 19 0 80 43 80 56 0 9 11 14 30 14 41 0 81
20 78 39 -3 11 -13 15 -32 13 -17 -2 -25 1 -21 7 3 6 13 11 21 11 8 0 14 5 14
10 0 13 -28 81 -32 79 -2 -1 -55 -8 -118 -14z"/>
<path d="M7398 6563 c-10 -2 -18 -12 -18 -21 0 -8 -9 -26 -21 -38 -22 -23 -22
-22 20 -94 18 -31 61 -129 61 -139 0 -6 4 -11 9 -11 12 0 170 90 177 101 3 5
-19 53 -49 106 l-54 98 -54 2 c-30 0 -62 -1 -71 -4z"/>
<path d="M7960 6518 c-47 -28 -86 -52 -88 -53 -1 -1 6 -23 17 -48 l20 -46 100
45 c56 24 108 44 116 44 21 0 19 10 -11 64 -18 33 -32 46 -47 46 -12 0 -60
-23 -107 -52z"/>
<path d="M7138 6492 c-54 -20 -98 -41 -98 -47 0 -6 15 -33 33 -60 25 -37 112
-197 143 -263 1 -2 28 11 59 29 42 24 53 34 43 41 -10 7 -8 8 5 4 15 -5 35 4
106 50 5 4 -60 144 -92 197 -16 26 -36 47 -45 47 -9 0 -25 9 -36 19 -21 19
-22 19 -118 -17z"/>
<path d="M5290 6483 c-120 -8 -152 -14 -146 -29 3 -8 -1 -14 -10 -14 -9 0 -12
5 -8 11 8 13 -67 5 -126 -13 -31 -10 -238 -113 -249 -124 -2 -2 4 -13 14 -24
17 -18 17 -20 2 -14 -9 3 -17 11 -17 17 0 6 -18 -6 -40 -28 -36 -35 -38 -39
-22 -52 16 -12 15 -13 -3 -7 -18 5 -18 4 3 -14 12 -11 22 -25 22 -31 0 -7 28
12 63 40 118 99 358 187 559 205 l67 5 -2 40 c-1 43 8 40 -107 32z"/>
<path d="M7760 6410 c-46 -28 -89 -51 -95 -53 -6 -2 -2 -19 9 -43 17 -37 19
-38 27 -16 5 12 11 22 15 22 3 0 4 -7 0 -15 -3 -8 -1 -15 4 -15 7 0 135 58
169 77 5 3 -31 93 -38 93 -3 0 -44 -23 -91 -50z"/>
<path d="M8176 6452 c-2 -4 22 -88 54 -186 67 -201 102 -369 127 -596 10 -101
21 -159 30 -166 11 -10 11 -16 -2 -40 -21 -41 -18 -54 5 -24 11 14 20 21 20
16 0 -6 -12 -22 -27 -38 -14 -15 -24 -31 -21 -34 12 -11 318 -18 318 -6 0 14
50 8 60 -8 5 -8 10 -9 14 -2 3 6 1 14 -6 18 -9 6 -6 10 11 14 19 4 24 13 27
50 6 75 10 95 20 90 10 -5 7 -36 -6 -60 -10 -19 -1 -110 11 -110 5 0 9 9 9 20
0 11 5 20 11 20 5 0 7 5 4 10 -4 6 -11 8 -16 5 -5 -4 -9 1 -9 9 0 9 5 16 10
16 6 0 10 15 10 34 0 19 4 36 10 38 12 4 -8 113 -45 243 -14 50 -27 96 -28
103 -4 17 -256 301 -368 415 -69 69 -86 92 -81 109 3 14 1 19 -6 14 -7 -4 -12
-16 -12 -26 0 -10 -4 -22 -10 -25 -13 -8 -13 6 0 39 8 23 7 26 -13 26 -12 0
-28 9 -35 20 -12 20 -56 28 -66 12z"/>
<path d="M5796 6426 c4 -10 1 -16 -7 -16 -12 0 -12 -2 -1 -9 8 -4 12 -12 10
-17 -1 -5 10 -13 27 -19 16 -5 73 -33 125 -61 80 -44 97 -49 107 -37 13 16 26
2 18 -20 -6 -15 81 -94 92 -83 3 3 13 1 20 -6 11 -9 17 -9 24 3 12 19 11 29
-2 29 -19 0 -34 24 -33 53 1 15 -4 27 -11 27 -6 0 -23 13 -38 28 -15 16 -49
39 -75 51 -26 12 -55 26 -64 32 -23 12 -31 11 -22 -2 4 -8 0 -9 -15 -4 -13 4
-21 2 -21 -5 0 -13 -51 -5 -60 9 -7 11 -40 10 -34 -1 3 -4 1 -8 -5 -8 -20 0
-20 18 1 39 19 21 19 22 2 20 -11 -2 -25 0 -31 4 -9 6 -11 3 -7 -7z"/>
<path d="M8028 6387 c-85 -41 -105 -55 -98 -67 17 -31 92 -258 114 -350 23
-92 50 -266 62 -402 l6 -68 124 0 c101 0 124 3 124 14 0 46 -45 358 -66 456
-40 190 -100 372 -129 393 -14 10 -25 28 -25 39 0 17 3 18 14 9 12 -10 13 -8
9 8 -3 12 -10 21 -17 20 -6 0 -59 -24 -118 -52z"/>
<path d="M2666 6343 c-56 -178 -75 -250 -95 -353 -42 -224 -42 -224 91 -147
140 80 137 79 144 117 12 67 65 285 73 300 5 9 11 29 15 46 6 28 4 31 -41 54
-26 13 -54 23 -60 21 -7 -1 -13 3 -13 8 0 10 -61 41 -79 41 -4 0 -20 -39 -35
-87z"/>
<path d="M2943 6393 c-9 -13 -13 -27 -9 -30 12 -13 171 -75 202 -80 l31 -5
-10 51 c-12 62 -21 68 -122 79 -74 8 -77 8 -92 -15z"/>
<path d="M8330 6415 c0 -33 78 -113 94 -98 4 4 4 0 1 -9 -5 -11 19 -44 77
-109 46 -51 111 -124 144 -163 34 -39 74 -82 89 -96 l28 -25 -7 25 c-9 31 -32
133 -40 183 -6 31 -10 37 -26 32 -21 -7 -36 10 -19 21 12 7 -3 21 -116 107
-71 54 -202 137 -217 137 -4 0 -8 -2 -8 -5z"/>
<path d="M5350 6383 c-32 -3 -40 -7 -30 -14 11 -7 6 -8 -13 -3 -33 8 -177 -15
-177 -27 0 -5 -7 -6 -15 -3 -20 8 -105 -21 -195 -67 -92 -47 -116 -63 -174
-117 l-45 -42 42 -39 c33 -31 46 -37 63 -31 31 12 105 0 133 -21 13 -11 19
-19 13 -19 -11 0 -11 -18 1 -36 4 -7 0 -15 -9 -18 -9 -4 -14 -9 -11 -12 3 -4
32 14 64 39 55 44 154 97 180 97 7 0 10 7 7 15 -7 18 25 33 35 17 5 -8 17 -9
41 -2 19 6 49 10 66 10 23 0 33 5 37 20 3 11 2 20 -2 20 -12 0 -5 44 7 48 7 2
13 22 14 45 1 33 3 29 8 -23 6 -55 7 -47 7 53 1 64 0 116 -1 115 0 -1 -21 -3
-46 -5z"/>
<path d="M5456 6374 c-10 -27 -7 -106 4 -99 14 8 39 -12 36 -28 -2 -7 -6 -20
-11 -30 -4 -9 -5 -29 -3 -42 4 -19 1 -25 -13 -25 -11 0 -19 -7 -19 -15 0 -10
10 -15 33 -14 17 0 26 3 20 6 -7 2 -13 9 -13 15 0 6 7 7 16 4 14 -5 15 -4 5 8
-9 10 -9 16 -1 21 6 4 8 16 5 28 -2 12 -2 16 1 10 3 -7 14 -13 25 -13 10 0 19
-5 19 -11 0 -11 27 -9 65 6 19 8 19 8 2 -12 -12 -14 -14 -20 -4 -20 15 0 93
174 83 184 -3 4 -15 -2 -26 -12 -10 -9 -26 -15 -34 -12 -11 4 -14 -1 -11 -24
2 -16 0 -29 -5 -29 -6 0 -10 6 -10 13 0 8 -4 7 -10 -3 -5 -8 -10 -10 -10 -4 0
5 5 15 11 21 15 15 3 46 -13 38 -7 -4 -4 1 6 9 22 18 42 21 50 7 4 -5 -4 -7
-16 -5 l-23 5 22 -12 c18 -9 26 -9 38 1 13 11 13 15 3 22 -8 6 -3 7 17 4 23
-5 26 -4 15 4 -8 6 -37 8 -65 6 -33 -4 -42 -3 -25 3 17 5 -4 8 -66 10 -76 1
-93 -1 -98 -15z"/>
<path d="M5769 6288 c2 -31 6 -46 11 -38 7 11 12 10 25 -3 9 -10 11 -17 5 -17
-6 0 -8 -5 -5 -10 5 -8 11 -7 20 0 16 14 35 5 35 -16 0 -8 4 -14 10 -14 5 0 6
8 3 17 -5 13 -3 15 13 9 10 -5 25 -9 32 -9 7 0 11 -6 8 -13 -3 -7 6 -14 22
-17 31 -6 43 0 24 12 -7 4 -12 12 -11 17 3 20 -2 23 -24 15 -13 -5 -30 -5 -38
-1 -17 11 -10 18 22 24 13 2 26 5 29 6 11 2 -76 50 -90 50 -8 -1 2 -10 23 -21
20 -11 37 -22 37 -25 0 -3 -4 -3 -9 0 -5 4 -20 2 -33 -3 -12 -6 -17 -10 -9
-10 8 -1 12 -3 9 -6 -3 -3 -13 -2 -22 1 -14 5 -15 9 -4 15 10 7 9 9 -5 9 -20
0 -47 22 -47 38 0 5 12 12 28 15 19 4 44 -4 84 -26 32 -17 53 -34 49 -37 -5
-3 -1 -16 10 -29 21 -26 52 -22 47 6 -4 24 -157 104 -182 97 -12 -4 -16 -2
-12 5 4 6 3 11 -3 11 -5 0 -13 -5 -16 -10 -4 -6 -13 -7 -23 -1 -15 8 -17 3
-13 -41z"/>
<path d="M7539 6287 c-83 -51 -85 -54 -71 -75 8 -12 20 -22 28 -22 12 0 163
65 172 75 7 7 -22 75 -33 75 -5 -1 -49 -24 -96 -53z"/>
<path d="M2890 6232 c-16 -53 -39 -139 -50 -191 -11 -52 -23 -98 -26 -103 -10
-16 12 -7 71 28 33 21 91 53 128 72 60 31 68 38 64 59 -4 24 7 37 32 38 16 0
35 59 27 80 -7 20 -119 70 -124 55 -3 -7 -9 -3 -16 10 -6 12 -26 28 -43 36
l-33 13 -30 -97z"/>
<path d="M7807 6286 c-48 -24 -90 -45 -93 -48 -2 -3 9 -43 26 -89 56 -152 101
-354 125 -561 7 -65 13 -68 133 -74 40 -2 77 -6 82 -9 6 -4 10 16 10 49 0 105
-54 426 -71 426 -5 0 -9 -4 -9 -10 0 -5 -9 -10 -20 -10 -16 0 -20 7 -20 31 0
28 3 31 24 25 l24 -6 -38 118 c-55 168 -65 196 -76 198 -5 1 -49 -17 -97 -40z"/>
<path d="M7595 6187 c-50 -24 -85 -46 -78 -50 6 -4 9 -15 6 -25 -2 -10 8 -51
23 -92 59 -165 92 -328 101 -507 3 -61 9 -116 12 -122 4 -5 49 -11 101 -12
l94 -2 -3 99 c-6 225 -65 514 -150 727 -6 15 -12 27 -13 27 -2 0 -43 -20 -93
-43z"/>
<path d="M8953 6218 c-28 -13 -30 -51 -8 -148 8 -36 22 -101 31 -145 l17 -80
43 0 c51 0 49 -4 28 107 -8 46 -22 117 -30 159 -8 42 -14 86 -14 97 0 25 -29
29 -67 10z"/>
<path d="M3159 6183 c-5 -14 -7 -45 -4 -67 l7 -41 73 -21 74 -20 16 38 c8 21
15 45 15 53 0 13 -52 41 -133 71 -37 13 -38 13 -48 -13z"/>
<path d="M8765 6167 c-16 -6 -31 -12 -33 -13 -1 0 9 -59 23 -130 24 -124 26
-130 62 -159 20 -16 53 -40 72 -52 36 -21 37 -21 61 -3 27 20 27 16 -20 260
-11 58 -20 106 -20 108 0 7 -120 -2 -145 -11z"/>
<path d="M6275 6141 c-3 -5 0 -13 6 -17 8 -5 9 -3 4 6 -5 8 -3 11 5 8 7 -2 14
-12 16 -22 2 -13 -2 -16 -14 -12 -13 5 -13 3 2 -9 10 -8 23 -12 27 -9 5 3 9 0
9 -5 0 -6 -7 -11 -15 -11 -8 0 -15 -5 -15 -11 0 -6 -7 -8 -16 -5 -13 5 -12 0
5 -26 11 -18 26 -32 32 -30 6 1 8 -2 5 -7 -3 -5 11 -38 33 -73 21 -35 49 -87
61 -116 23 -54 34 -63 44 -36 4 9 13 14 21 10 23 -9 19 67 -6 117 -44 87 -109
178 -122 171 -6 -4 -9 -4 -5 1 4 4 -2 22 -14 39 -32 45 -51 56 -63 37z"/>
<path d="M3345 6080 c-19 -57 -16 -66 25 -75 16 -4 32 -11 35 -16 8 -12 -21
-12 -62 0 -37 11 -31 24 -69 -139 -27 -119 -53 -310 -54 -391 0 -43 1 -46 24
-42 23 5 44 -12 31 -25 -3 -3 -10 0 -15 8 -7 10 -10 11 -10 3 0 -7 -7 -13 -15
-13 -8 0 -15 -4 -15 -10 0 -6 51 -10 133 -10 l134 0 6 103 c6 98 52 431 62
447 7 11 -41 30 -75 30 -17 0 -30 -4 -30 -10 0 -5 -5 -10 -11 -10 -6 0 -8 7
-5 15 5 13 -1 15 -32 10 l-37 -6 28 16 c21 12 26 21 21 37 -4 15 -2 19 7 15 8
-2 13 -9 12 -15 -1 -5 4 -9 12 -8 8 0 13 -3 13 -9 -1 -16 105 -36 114 -22 16
24 21 61 9 65 -6 2 -57 26 -112 53 -55 27 -102 49 -104 49 -2 0 -11 -22 -20
-50z"/>
<path d="M7390 6089 c-47 -23 -94 -45 -106 -49 l-22 -9 20 -58 c39 -118 88
-340 94 -423 3 -47 7 -104 10 -127 l5 -43 126 0 126 0 -7 105 c-7 111 -15 164
-47 315 -33 159 -30 148 -39 125 -7 -16 -9 -13 -9 16 -1 40 -38 158 -55 176
-9 10 -30 4 -96 -28z"/>
<path d="M4570 6092 c0 -6 -14 -27 -31 -46 -18 -21 -27 -40 -23 -47 4 -8 3 -9
-4 -5 -16 10 -89 -149 -95 -208 l-5 -50 19 25 c10 13 35 53 56 89 21 35 66
104 100 152 47 66 58 88 45 88 -9 0 -27 3 -39 6 -14 4 -23 2 -23 -4z"/>
<path d="M4638 6038 c-58 -73 -188 -281 -188 -300 0 -8 57 -30 88 -35 98 -13
97 -13 133 40 19 27 57 68 86 90 l52 41 -25 22 c-21 20 -29 47 -26 93 0 8 -6
20 -14 28 -8 8 -14 20 -14 27 0 10 -39 36 -55 36 -2 0 -19 -19 -37 -42z"/>
<path d="M6199 6058 c-1 -7 -2 -17 -4 -23 -1 -5 -3 -17 -4 -25 -1 -13 -2 -13
-11 0 -8 12 -10 10 -10 -9 0 -17 -4 -22 -16 -17 -8 3 -13 2 -10 -3 3 -5 -1
-11 -8 -14 -8 -3 -17 -1 -19 6 -3 7 -20 -4 -43 -27 -22 -21 -34 -36 -27 -32 7
4 17 -2 23 -14 6 -11 8 -20 4 -20 -4 0 5 -9 19 -20 27 -22 47 -26 47 -10 0 5
-6 8 -12 6 -7 -1 -10 -1 -5 1 17 10 5 24 -15 18 -18 -5 -20 -4 -8 4 8 6 18 11
22 11 13 0 29 -40 21 -53 -13 -21 -12 -36 2 -30 9 3 13 -2 12 -14 0 -10 18
-44 41 -75 33 -43 48 -55 62 -51 11 3 20 9 20 14 0 5 -8 6 -17 3 -13 -4 -14
-3 -5 3 7 5 10 17 7 25 -4 9 -2 19 4 23 7 4 14 -6 17 -25 5 -22 11 -29 21 -26
8 4 21 6 29 6 9 0 12 5 8 12 -4 7 -3 8 5 4 16 -10 83 13 79 27 -10 40 -112
216 -120 210 -6 -3 -8 -1 -5 4 4 6 -12 36 -35 67 -39 53 -67 71 -69 44z"/>
<path d="M3153 6048 c1 -7 -5 -12 -15 -12 -17 2 -43 -67 -36 -96 2 -8 -2 -14
-8 -13 -14 3 -16 -6 -49 -167 -27 -126 -51 -350 -42 -375 7 -18 92 -22 103 -4
4 8 9 8 17 0 15 -15 74 -14 80 2 2 6 5 48 6 92 1 94 17 241 33 305 6 25 19 81
28 125 10 44 21 87 25 96 5 14 -7 21 -63 38 -82 25 -83 25 -79 9z"/>
<path d="M3010 6017 c-36 -19 -95 -50 -132 -71 -65 -36 -67 -39 -73 -84 -4
-26 -10 -58 -15 -72 -14 -41 -32 -203 -33 -313 l-2 -102 115 0 115 0 7 122 c7
124 42 319 79 448 11 39 23 78 25 88 8 25 -12 21 -86 -16z"/>
<path d="M5176 6043 c-3 -4 -16 -8 -27 -10 -28 -4 -82 -33 -75 -40 3 -3 13 0
23 8 9 8 14 9 10 2 -4 -6 -3 -14 3 -18 7 -4 6 -13 -2 -28 -19 -35 -33 -45 -60
-40 -21 4 -24 9 -20 31 4 22 3 25 -9 16 -8 -6 -33 -25 -57 -44 l-44 -33 83
-83 c45 -46 87 -80 92 -77 6 3 7 2 4 -4 -3 -5 14 -30 40 -54 33 -32 42 -37 33
-19 -13 25 -13 25 8 7 11 -11 19 -24 17 -30 -3 -7 4 -23 15 -36 16 -19 23 -21
34 -11 8 6 12 18 9 26 -4 12 -8 12 -19 -3 -7 -10 -14 -13 -14 -6 0 6 7 18 15
27 8 8 15 19 15 25 0 14 27 14 35 1 3 -5 -2 -10 -12 -11 -11 0 -13 -3 -5 -6 7
-3 22 3 33 13 18 16 18 18 2 34 -12 11 -20 13 -25 6 -4 -6 -9 -8 -12 -5 -8 7
17 59 27 59 13 0 -4 43 -21 56 -9 7 -13 18 -9 28 4 10 3 15 -3 11 -6 -3 -10
-1 -10 5 0 6 -11 21 -24 33 -28 26 -49 81 -23 59 12 -10 21 -11 34 -3 17 10
17 10 -3 11 -11 0 -26 11 -33 23 -9 18 -19 23 -37 19 -18 -3 -24 0 -24 13 0
14 3 15 15 5 11 -9 19 -8 37 4 12 9 18 16 12 16 -5 0 -15 -5 -22 -12 -7 -7
-12 -8 -12 -2 0 6 5 15 12 22 6 6 9 14 7 17 -3 3 -9 2 -13 -2z"/>
<path d="M3597 5981 c-16 -40 -14 -51 11 -52 10 -1 7 -4 -8 -8 -20 -5 -28 -17
-38 -56 -7 -28 -10 -69 -6 -94 4 -30 2 -46 -7 -51 -14 -9 -37 -162 -40 -270
-2 -67 0 -75 16 -75 16 0 23 24 50 175 18 97 42 209 53 250 21 73 21 74 2 50
-11 -14 -20 -19 -20 -12 0 6 9 21 20 32 20 20 50 83 50 104 0 7 -16 19 -35 27
l-34 16 -14 -36z"/>
<path d="M7209 6004 l-27 -14 29 -88 c35 -111 67 -264 74 -362 13 -163 12
-160 52 -160 l35 0 -7 98 c-7 104 -34 256 -65 362 -10 36 -26 91 -34 123 -18
62 -18 62 -57 41z"/>
<path d="M3700 5965 c0 -7 -3 -21 -7 -31 -5 -13 -3 -16 10 -11 12 5 17 1 17
-13 0 -22 -10 -26 -27 -9 -20 20 -76 -200 -128 -504 l-5 -27 298 1 c163 1 304
5 313 10 9 5 20 4 26 -2 6 -6 25 -8 45 -4 37 7 41 19 42 123 1 23 4 42 8 42
10 0 48 89 48 111 0 11 5 28 12 39 7 10 10 21 8 23 -19 15 -293 119 -325 123
-22 2 -44 10 -50 18 -13 17 -44 33 -119 61 -33 13 -85 32 -113 43 -41 16 -53
17 -53 7z"/>
<path d="M7095 5941 c-33 -20 -65 -47 -71 -59 -6 -13 -15 -23 -20 -22 -5 1
-10 -3 -12 -9 -2 -6 10 -9 30 -6 21 3 39 -2 50 -12 26 -23 23 -30 -18 -37 -26
-5 -41 -16 -56 -42 -23 -39 -34 -38 -24 1 4 14 21 34 39 45 l32 20 -32 0 c-18
0 -33 -3 -33 -7 0 -5 -10 -19 -21 -33 l-21 -25 6 27 c8 35 -2 58 -24 58 -10 0
-25 6 -32 14 -12 11 -31 6 -128 -39 -63 -28 -119 -60 -124 -71 -15 -26 -27
-34 -53 -34 -13 0 -23 -1 -23 -3 0 -19 33 -107 40 -107 5 0 7 -6 4 -14 -5 -12
22 -144 31 -154 2 -2 17 6 34 19 17 12 34 19 38 15 4 -4 0 -12 -10 -17 -9 -6
-17 -17 -17 -26 0 -10 -6 -14 -20 -10 -15 4 -20 0 -20 -14 0 -17 8 -19 78 -20
239 -2 556 1 560 6 8 8 -17 225 -38 325 -21 100 -68 258 -79 264 -3 2 -33 -13
-66 -33z"/>
<path d="M2720 5859 c-36 -21 -65 -44 -65 -51 0 -6 -6 -13 -14 -16 -9 -3 -11
0 -6 8 5 7 -5 5 -23 -5 -17 -10 -35 -29 -41 -42 -6 -12 -19 -23 -29 -23 -17 0
-20 -11 -25 -82 -4 -46 -7 -127 -7 -180 l0 -98 58 -1 c94 -2 157 3 163 13 3 5
9 66 12 136 3 70 16 183 27 250 12 68 20 125 18 127 -2 2 -32 -14 -68 -36z"/>
<path d="M4903 5866 c4 -6 -1 -15 -12 -20 -27 -15 -170 -203 -159 -210 2 -1
28 -10 58 -20 30 -10 64 -22 75 -26 40 -18 216 -61 224 -55 5 3 11 1 13 -4 1
-5 17 -11 33 -13 17 -3 24 -3 17 -1 -10 4 -10 8 -1 19 12 15 34 20 25 5 -3 -4
6 -6 19 -3 14 2 25 9 25 14 0 6 -7 8 -15 5 -8 -4 -17 -1 -21 5 -5 7 -2 8 7 2
17 -10 -18 33 -86 104 -27 29 -55 50 -62 48 -7 -3 -15 0 -19 6 -5 7 -2 8 6 3
8 -5 11 -3 8 6 -3 8 -12 14 -21 14 -8 0 -19 4 -24 9 -4 5 -3 6 5 2 29 -17 8
14 -45 64 -32 30 -54 51 -50 46z"/>
<path d="M5907 5792 c-38 -37 -68 -71 -67 -76 1 -5 -5 -13 -14 -18 -9 -5 -13
-14 -10 -20 5 -7 1 -9 -9 -5 -18 7 -32 -7 -22 -24 5 -7 14 -4 26 7 10 9 19 12
19 6 0 -6 -9 -16 -21 -22 -15 -8 -18 -15 -10 -24 8 -9 6 -12 -9 -11 -28 2 -46
20 -29 30 8 5 10 4 5 -3 -5 -8 -2 -10 8 -6 20 8 20 10 1 18 -10 3 -36 -13 -70
-44 -30 -28 -51 -50 -46 -50 4 0 8 -12 7 -27 -1 -22 4 -29 22 -31 15 -2 22 2
22 14 0 14 3 14 15 4 9 -7 18 -10 22 -6 3 3 0 6 -7 6 -9 0 -7 5 5 14 16 11 17
18 8 47 -10 32 -11 32 -12 7 -1 -14 -4 -28 -8 -31 -5 -2 -2 -2 5 -1 6 2 12 -1
12 -5 0 -16 -24 -18 -53 -3 -27 13 -27 15 -11 33 9 10 23 19 30 19 7 0 16 5
20 12 5 7 3 8 -6 3 -9 -6 -11 -4 -5 5 6 10 12 8 27 -9 10 -13 18 -29 18 -37 0
-8 5 -14 10 -14 6 0 10 -7 10 -15 0 -8 -8 -15 -17 -15 -9 0 -14 -3 -10 -6 10
-10 57 5 57 18 0 6 -10 22 -22 35 -12 13 -16 23 -10 23 7 0 12 -4 12 -10 0
-16 17 -12 24 6 4 9 2 22 -4 29 -11 14 15 43 27 31 4 -4 1 -11 -6 -15 -8 -5
-10 -14 -6 -21 5 -8 10 -9 14 -2 10 16 67 20 64 5 -3 -13 7 -15 54 -16 12 0
20 -4 17 -9 -3 -5 -12 -7 -20 -4 -8 3 -14 0 -14 -6 0 -7 -5 -7 -14 1 -12 10
-17 8 -26 -8 -6 -12 -16 -21 -22 -21 -7 0 -6 5 2 15 10 12 10 18 0 30 -14 17
-35 21 -25 5 3 -5 -2 -10 -12 -10 -15 0 -16 -2 -3 -10 9 -6 17 -5 22 3 4 6 9
9 12 7 2 -3 -2 -14 -10 -24 -8 -11 -14 -14 -14 -8 0 7 -9 12 -21 12 -11 0 -17
-5 -14 -10 4 -6 11 -7 17 -4 7 5 9 1 5 -9 -3 -10 -3 -17 1 -17 4 0 64 19 135
42 82 27 127 47 127 56 0 8 -6 12 -12 9 -9 -3 -13 6 -14 23 -1 22 2 25 11 17
7 -7 12 -14 10 -17 -2 -3 3 -14 11 -25 21 -28 17 0 -6 43 -43 81 -91 110 -81
50 0 -5 -4 -8 -9 -8 -6 0 -8 11 -4 25 4 17 2 25 -7 25 -8 0 -5 6 7 14 18 15
18 16 -11 45 l-30 31 -68 -68z"/>
<path d="M8790 5852 c0 -5 7 -29 15 -52 26 -73 57 -252 52 -293 -5 -39 -5 -39
23 -34 25 5 30 2 39 -25 14 -38 6 -51 -8 -14 -13 32 -25 33 -45 4 -20 -29 -21
-68 -1 -68 10 0 15 10 15 31 0 18 4 28 10 24 6 -3 7 -17 4 -31 -4 -14 -2 -24
5 -24 6 0 11 6 11 13 0 9 2 9 8 0 4 -7 17 -10 30 -6 18 4 21 10 16 27 -4 11
-12 24 -18 28 -6 4 -7 10 -3 14 12 12 37 -18 37 -45 0 -21 2 -23 10 -11 9 13
12 13 21 -3 7 -13 21 -17 50 -15 l39 3 0 50 c0 28 -3 73 -6 100 l-6 51 -46 -6
-46 -5 3 -60 c1 -33 0 -58 -3 -55 -2 3 -6 27 -7 53 -2 26 -7 47 -11 47 -5 0
-8 6 -6 13 2 8 -12 26 -29 41 -39 33 -61 93 -44 124 19 35 13 49 -36 84 -65
46 -73 51 -73 40z"/>
<path d="M2410 5696 c-41 -18 -88 -39 -105 -46 -34 -14 -130 -58 -257 -115
-62 -29 -87 -45 -88 -58 0 -22 -19 -59 -34 -69 -17 -12 -61 -9 -73 3 -9 9 -11
7 -8 -7 2 -11 4 -25 4 -33 1 -11 27 -13 143 -9 96 3 143 8 146 16 2 7 10 12
18 12 9 0 12 -4 9 -10 -4 -6 17 -10 54 -10 34 0 61 4 61 10 0 6 5 10 11 10 5
0 7 -5 3 -11 -5 -9 17 -11 84 -7 50 3 95 1 100 -4 5 -5 12 49 16 139 4 81 10
165 13 186 7 47 1 47 -97 3z"/>
<path d="M6481 5719 c-17 -7 -21 -14 -16 -27 25 -59 65 -213 79 -302 2 -9 16
-15 40 -16 36 -1 36 -1 30 33 -3 18 -23 97 -44 176 -38 147 -43 155 -89 136z"/>
<path d="M6337 5667 c-51 -17 -86 -34 -84 -41 2 -6 12 -46 22 -88 15 -60 23
-78 36 -78 10 0 19 6 22 13 7 20 41 -6 51 -41 8 -30 45 -52 85 -52 14 0 14 2
1 10 -11 7 -7 10 18 10 28 0 32 3 28 23 -37 175 -65 269 -82 273 -5 1 -49 -12
-97 -29z"/>
<path d="M4402 5643 c-23 -55 -52 -185 -52 -238 l0 -35 89 0 c59 0 92 4 98 13
6 6 13 33 16 58 4 26 13 66 21 90 10 28 12 46 5 50 -6 3 -4 11 6 19 28 23 15
37 -52 58 -119 37 -108 38 -131 -15z"/>
<path d="M4607 5553 c-14 -43 -28 -102 -32 -130 l-7 -53 35 0 c35 0 36 1 42
48 4 26 15 80 25 120 l17 74 -24 9 c-13 5 -26 9 -28 9 -2 0 -15 -35 -28 -77z"/>
<path d="M4706 5599 c-14 -40 -28 -106 -35 -165 l-8 -66 46 7 c25 3 142 6 259
5 l212 -1 0 58 c0 41 -3 54 -10 43 -5 -8 -10 -10 -10 -4 0 6 -6 11 -12 11 -7
1 -98 27 -203 58 -242 72 -234 70 -239 54z"/>
<path d="M6062 5575 c-40 -13 -80 -29 -88 -36 -8 -6 -29 -13 -47 -15 -54 -5
-181 -49 -185 -65 -3 -12 -2 -12 6 0 6 8 17 11 25 8 9 -3 17 -2 19 2 2 5 14
11 28 15 17 5 21 4 11 -2 -11 -8 -11 -11 0 -16 8 -3 4 -3 -7 -1 -15 4 -24 0
-28 -12 -6 -14 -9 -15 -15 -4 -7 11 -14 10 -37 -5 -15 -11 -25 -13 -21 -6 5 7
3 12 -4 12 -7 0 -9 -10 -7 -25 3 -13 0 -26 -6 -28 -21 -7 180 -18 302 -16 106
1 121 3 113 17 -5 8 -6 24 -3 36 5 19 4 20 -14 6 -17 -14 -18 -13 -7 1 10 12
10 18 1 27 -8 8 -9 12 -1 12 6 0 13 -7 17 -15 8 -21 29 -19 44 6 11 16 11 31
1 75 -7 30 -15 54 -18 53 -3 -1 -39 -11 -79 -24z"/>
<path d="M7870 5449 c0 -50 3 -60 15 -55 8 3 15 1 15 -5 0 -6 35 -9 94 -7 l94
2 4 49 c2 27 1 51 -1 53 -9 9 -111 3 -111 -6 0 -5 -4 -10 -10 -10 -5 0 -10 6
-10 14 0 7 -14 16 -31 20 -58 11 -59 11 -59 -55z"/>
<path d="M8110 5430 l0 -50 115 0 c115 0 116 0 125 26 6 14 7 36 4 50 -6 24
-7 24 -125 24 l-119 0 0 -50z"/>
<path d="M1570 5413 c-63 -14 -116 -26 -118 -28 -1 -1 0 -10 4 -19 5 -14 17
-16 73 -12 36 3 96 5 134 5 l67 1 0 40 c0 49 1 48 -160 13z"/>
<path d="M4723 5353 c-15 -3 -23 -12 -23 -24 0 -11 -4 -17 -10 -14 -20 13 -9
-39 31 -141 23 -58 51 -116 63 -130 l21 -25 115 66 c63 36 131 78 150 93 19
15 54 36 78 47 26 11 41 23 38 31 -3 9 1 11 11 7 11 -4 14 -2 10 8 -3 8 -11
31 -18 52 l-12 37 -216 -1 c-119 -1 -226 -4 -238 -6z"/>
<path d="M5731 5341 c-9 -6 -10 -11 -2 -15 17 -11 3 -26 -17 -19 -12 5 -11 -1
7 -20 24 -27 49 -37 35 -15 -4 7 -3 8 5 4 6 -4 9 -11 6 -16 -3 -4 12 -16 33
-25 20 -10 39 -21 42 -25 11 -14 104 -73 116 -73 7 0 11 -3 9 -7 -2 -4 7 -12
21 -19 19 -8 30 -8 47 1 12 7 27 11 32 10 6 -1 27 26 47 60 28 47 34 65 26 75
-8 11 -5 20 15 41 32 34 34 42 7 42 -11 0 -20 -4 -20 -10 0 -5 -5 -10 -11 -10
-5 0 -7 5 -4 10 4 7 -59 10 -182 9 -108 -1 -175 -5 -158 -9 23 -6 25 -8 8 -9
-29 -1 -54 9 -47 20 7 11 3 11 -15 0z"/>
<path d="M9054 5332 l-41 -3 -7 -117 c-9 -152 -17 -210 -72 -497 -81 -428
-145 -659 -214 -770 -18 -29 -18 -33 -4 -39 22 -9 24 -8 24 9 0 26 31 78 67
113 18 18 30 38 27 44 -4 7 -2 8 4 4 6 -4 8 -14 5 -23 -4 -11 -2 -14 8 -11 14
5 105 301 134 438 9 41 25 116 36 165 11 50 21 104 23 121 2 17 6 35 9 40 13
22 27 167 17 179 -8 9 -7 14 1 17 14 5 31 156 27 255 l-3 78 -41 -3z"/>
<path d="M1893 5323 c-30 -4 -33 -7 -33 -38 0 -89 79 -596 121 -780 17 -71 37
-161 46 -200 38 -169 195 -569 228 -582 8 -3 45 12 82 33 84 47 371 197 435
227 26 12 48 27 48 32 0 6 -11 28 -25 50 -13 22 -24 49 -24 60 0 12 13 -5 31
-40 17 -33 32 -61 33 -63 1 -2 28 10 59 25 39 19 55 32 51 42 -4 11 -2 11 8 2
11 -8 22 -7 46 5 26 13 30 19 25 42 -11 43 -76 182 -86 182 -23 0 -66 -31 -71
-52 -9 -32 -15 -19 -10 19 4 28 10 33 39 39 19 3 36 9 39 13 2 4 -12 47 -31
95 -19 48 -55 163 -80 254 -24 92 -47 174 -51 182 -8 21 -8 64 1 78 4 7 3 12
-2 12 -10 0 -17 53 -27 195 -8 109 -12 125 -33 125 -9 0 -50 9 -89 19 -53 13
-73 14 -73 6 0 -7 -9 -20 -19 -29 -15 -14 -24 -15 -40 -6 -12 6 -21 20 -21 30
0 11 -1 20 -2 21 -9 3 -549 5 -575 2z m637 -333 c22 -195 80 -439 139 -589 60
-151 89 -211 100 -211 16 0 13 -29 -3 -45 -15 -15 -27 -10 -20 9 3 7 -23 77
-56 156 -70 166 -110 299 -145 485 -28 150 -58 423 -47 439 4 6 10 -23 14 -64
4 -41 12 -122 18 -180z"/>
<path d="M3260 5313 c-8 -13 -13 -14 -16 -5 -3 6 -10 12 -16 12 -24 0 12 -369
51 -520 27 -102 96 -300 132 -376 l38 -80 107 53 c59 29 112 54 118 56 6 2 -4
35 -26 83 -81 176 -130 381 -149 626 -15 182 -3 168 -141 168 -72 0 -89 -3
-98 -17z"/>
<path d="M3570 5279 c0 -110 98 -522 156 -655 60 -137 53 -130 104 -102 24 12
137 70 252 128 222 113 242 125 215 136 -9 3 -14 10 -11 16 4 5 11 5 19 -2 32
-27 45 69 14 106 -15 18 -49 213 -46 263 2 51 -17 67 -33 27 -10 -28 -24 -33
-36 -15 -4 7 2 19 14 28 18 14 42 75 42 109 0 9 -68 12 -305 12 -226 0 -311
-3 -326 -12 -17 -10 -23 -10 -26 0 -3 6 -11 12 -19 12 -10 0 -14 -14 -14 -51z"/>
<path d="M4309 5320 c-34 -19 -12 -329 27 -385 8 -11 14 -29 14 -40 0 -39 24
-73 54 -79 49 -10 70 -8 58 7 -6 6 -27 68 -47 137 -20 69 -39 132 -42 140 -4
8 -7 24 -9 35 -3 31 -33 188 -36 191 -2 1 -10 -2 -19 -6z"/>
<path d="M4350 5318 c0 -33 94 -402 115 -456 l16 -40 65 36 c64 37 77 55 48
66 -10 4 -13 13 -9 26 5 15 -19 121 -32 139 -1 2 -9 -2 -18 -9 -12 -10 -15
-10 -15 4 0 9 7 19 15 22 9 4 15 19 15 36 0 27 -3 30 -25 26 -18 -4 -25 -1
-25 10 0 9 7 13 23 10 21 -4 22 -2 19 69 l-4 73 -94 0 c-69 0 -94 -3 -94 -12z"/>
<path d="M4560 5318 c0 -7 5 -62 10 -123 12 -120 21 -162 50 -231 l20 -45 70
38 c38 21 70 44 70 51 0 7 -4 11 -8 8 -4 -2 -14 10 -21 27 -7 18 -21 48 -31
67 -10 19 -26 62 -36 95 -17 56 -19 58 -22 27 -3 -28 -5 -30 -18 -17 -11 11
-12 19 -5 34 6 11 8 33 5 50 -6 28 -10 31 -45 31 -25 0 -39 -5 -39 -12z"/>
<path d="M6206 5263 c-21 -89 -20 -83 -39 -120 -19 -36 -22 -73 -7 -73 6 0 20
-11 32 -25 12 -14 27 -25 34 -25 22 0 54 155 54 258 0 51 -1 52 -29 52 -27 0
-30 -3 -45 -67z"/>
<path d="M6297 5233 c-4 -54 -15 -133 -25 -175 l-19 -77 44 -19 44 -19 34 34
c29 29 40 34 72 31 l38 -3 12 55 c6 30 16 103 20 163 l9 107 -112 0 -111 0 -6
-97z"/>
<path d="M6547 5323 c-4 -3 -7 -24 -7 -45 0 -31 3 -38 20 -38 23 0 27 -15 6
-23 -8 -3 -17 -1 -19 6 -2 7 -7 -17 -11 -53 -4 -36 -12 -91 -17 -122 -9 -53
-8 -58 16 -82 15 -15 25 -37 25 -53 0 -22 2 -25 10 -13 30 46 63 268 54 362
l-7 68 -32 0 c-17 0 -35 -3 -38 -7z"/>
<path d="M6645 5312 c-3 -9 -3 -39 0 -67 4 -30 0 -97 -10 -165 -16 -110 -16
-115 2 -128 17 -14 17 -14 -4 -9 -17 4 -24 -1 -32 -26 -17 -48 -14 -53 57 -87
70 -33 95 -39 125 -25 13 5 16 4 11 -9 -3 -9 -11 -13 -18 -9 -7 4 -8 2 -1 -5
14 -16 286 -133 310 -135 11 0 26 -5 32 -10 9 -6 15 -3 19 9 4 11 18 46 30 78
26 65 29 80 14 71 -5 -3 -10 -1 -10 4 0 6 6 11 14 11 18 0 43 103 26 108 -15
5 -12 22 4 22 20 0 46 137 60 318 l6 72 -314 0 c-283 -1 -315 -3 -321 -18z"/>
<path d="M7290 5273 c0 -95 -18 -223 -50 -357 -17 -70 -28 -131 -25 -137 4 -5
2 -9 -3 -9 -14 0 -42 -75 -42 -110 0 -17 -4 -30 -10 -30 -5 0 -10 -5 -10 -12
0 -6 3 -9 6 -5 4 3 19 0 34 -8 l28 -15 26 73 c54 154 99 359 110 502 4 44 9
99 12 123 l5 42 -40 0 -41 0 0 -57z"/>
<path d="M7387 5323 c-4 -3 -7 -35 -7 -70 0 -129 -51 -386 -116 -586 -20 -59
-23 -81 -14 -91 6 -8 54 -33 107 -56 76 -34 97 -39 104 -29 4 8 35 95 68 194
64 194 95 348 107 538 l6 107 -124 0 c-69 0 -128 -3 -131 -7z"/>
<path d="M7656 5299 c-3 -17 -6 -58 -6 -90 0 -66 -14 -177 -37 -298 -13 -65
-14 -88 -5 -102 16 -26 15 -34 -3 -19 -9 7 -17 11 -18 9 -5 -8 -107 -314 -107
-322 0 -9 85 -47 104 -47 7 0 23 26 36 58 12 31 33 68 45 82 28 32 81 125 66
116 -6 -4 -11 -1 -11 8 0 9 8 16 18 16 20 0 57 64 47 81 -4 5 -1 17 5 26 10
16 11 15 7 -4 -8 -34 4 -27 43 25 19 26 57 70 84 99 26 29 55 62 64 75 8 13
27 39 41 58 14 19 26 38 26 42 0 4 8 13 19 21 15 11 19 31 24 105 5 90 4 92
-18 92 -17 0 -21 -4 -17 -19 3 -14 1 -18 -9 -14 -8 3 -14 11 -14 19 0 11 -18
14 -79 14 -67 0 -80 -3 -85 -17 -3 -10 -10 -84 -16 -165 -14 -202 -47 -324
-75 -279 -3 5 -1 12 5 16 5 3 9 18 9 33 -1 17 -3 21 -6 10 -2 -10 -8 -18 -13
-18 -4 0 -5 12 -1 27 5 18 14 28 27 28 16 0 20 9 25 55 4 30 10 83 14 118 6
44 5 62 -4 62 -12 0 -15 42 -4 54 4 3 12 22 19 41 l12 35 -103 0 -102 0 -7
-31z"/>
<path d="M8110 5235 c0 -57 4 -95 10 -95 6 0 10 -4 10 -10 0 -5 -7 -10 -15
-10 -20 0 -33 -59 -34 -150 -1 -41 -4 -83 -7 -92 -4 -13 0 -18 15 -18 13 0 21
-6 21 -16 0 -12 -6 -15 -25 -10 -15 4 -25 2 -25 -4 0 -6 -4 -9 -9 -5 -6 3 -6
16 -1 33 5 15 11 69 15 120 5 75 3 93 -7 90 -22 -8 -34 -56 -20 -79 7 -11 10
-24 7 -29 -10 -15 -33 -12 -43 6 -8 14 -15 11 -51 -26 -45 -46 -49 -58 -26
-66 12 -5 13 -10 4 -20 -17 -21 -38 -17 -32 6 3 11 3 20 0 20 -11 0 -47 -73
-47 -96 0 -13 -5 -24 -11 -24 -6 0 -8 9 -3 23 6 21 6 21 -13 -3 -44 -55 -56
-93 -57 -180 -1 -76 1 -85 18 -88 11 -2 26 4 33 14 7 10 13 13 13 8 0 -15 -67
-90 -74 -83 -3 3 3 15 14 27 21 22 21 22 1 22 -11 0 -23 -5 -27 -12 -5 -7 -2
-9 7 -4 8 4 6 1 -3 -7 -18 -15 -48 -77 -48 -100 0 -7 17 -19 38 -26 20 -8 63
-26 95 -42 l58 -28 14 32 c24 60 28 97 11 97 -9 0 -16 5 -16 11 0 5 10 9 23 7
19 -3 25 5 44 64 13 36 32 108 43 159 17 74 18 94 8 101 -10 6 -8 8 5 8 12 0
17 8 17 26 0 14 4 23 10 19 6 -3 8 -16 5 -28 -16 -72 -76 -325 -81 -339 -4
-12 0 -18 10 -18 18 0 20 -8 7 -28 -6 -10 -10 -8 -14 8 -7 27 -27 17 -27 -14
0 -12 -9 -42 -21 -65 -11 -24 -18 -45 -16 -48 7 -7 210 -94 212 -91 38 48 149
426 184 628 21 120 36 258 46 423 l5 97 -125 0 -125 0 0 -95z"/>
<path d="M8370 5243 c0 -139 -35 -419 -75 -598 -3 -11 -2 -14 1 -7 7 14 34 17
34 3 0 -11 -20 -26 -35 -26 -5 0 -20 -38 -33 -85 -13 -47 -43 -145 -68 -218
-43 -126 -47 -152 -22 -152 10 0 161 -71 341 -161 43 -21 85 -39 92 -39 8 0
30 -9 50 -20 19 -11 35 -15 35 -10 0 6 11 27 25 48 61 92 127 337 209 767 55
294 56 303 64 457 l7 125 -67 0 c-52 1 -68 -2 -68 -13 0 -8 -5 -14 -11 -14 -6
0 -9 7 -5 15 8 22 -130 21 -162 -1 -20 -14 -22 -14 -22 0 0 14 -20 16 -145 16
l-145 0 0 -87z"/>
<path d="M3100 5297 c-55 -26 -58 -29 -44 -34 9 -3 8 -12 -2 -33 -10 -18 -20
-27 -29 -23 -11 4 -15 -3 -15 -25 0 -63 21 -241 41 -341 22 -116 98 -356 129
-408 11 -19 20 -42 20 -52 0 -10 13 -38 30 -62 16 -24 30 -52 30 -61 0 -10 2
-18 5 -18 19 0 165 83 165 94 0 7 -18 51 -39 97 -104 222 -166 482 -187 787
-7 102 -7 102 -33 101 -14 0 -46 -10 -71 -22z"/>
<path d="M3506 5258 c23 -273 39 -369 89 -535 36 -118 95 -253 110 -253 8 0
25 4 39 10 l25 9 -38 83 c-45 97 -82 210 -117 356 -31 136 -64 316 -64 359 0
28 -3 33 -25 33 -24 0 -25 -1 -19 -62z"/>
<path d="M5623 5289 c-13 -5 -23 -15 -23 -24 0 -18 -20 -56 -38 -70 -9 -8 3
-32 54 -105 36 -52 70 -94 76 -92 5 1 7 -2 3 -8 -5 -9 49 -100 60 -100 19 0
55 26 51 37 -3 8 1 16 10 20 21 8 32 -6 14 -18 -22 -15 25 -1 77 23 52 24 69
44 77 89 l6 37 -83 56 c-81 55 -123 73 -98 42 10 -12 8 -13 -9 -9 -15 4 -20
11 -17 25 4 15 -6 26 -40 48 -25 16 -50 27 -55 24 -5 -3 -7 0 -6 6 4 17 -33
29 -59 19z"/>
<path d="M2751 5237 c1 -99 15 -176 36 -199 16 -17 20 -33 18 -60 -3 -32 -1
-38 15 -38 10 0 22 -4 25 -10 13 -21 43 -10 50 18 9 39 38 102 46 102 21 0 17
-36 -6 -60 -16 -17 -25 -37 -25 -58 0 -31 1 -32 44 -32 25 0 48 -5 51 -10 9
-14 -127 -1 -136 13 -4 5 -12 6 -18 3 -6 -4 -11 -2 -11 3 0 6 -5 11 -11 11 -7
0 -8 -11 -4 -30 5 -23 3 -30 -9 -30 -9 0 -16 -6 -16 -13 0 -24 80 -305 110
-390 43 -117 38 -113 98 -87 29 13 59 19 69 16 11 -5 13 -10 7 -14 -10 -7 -33
-114 -42 -199 -3 -30 0 -43 8 -43 10 0 173 80 199 97 7 4 -31 82 -46 94 -7 6
-13 19 -13 27 0 9 -20 66 -44 127 -77 189 -126 388 -141 570 -11 127 -14 137
-33 123 -10 -7 -38 -35 -62 -61 -33 -36 -40 -51 -32 -59 15 -15 16 -55 2 -63
-6 -4 -10 7 -10 26 0 37 -16 29 -22 -10 -1 -14 -8 -26 -14 -28 -36 -12 27 108
93 177 20 20 32 42 30 52 -3 9 1 19 9 22 25 10 15 26 -16 26 -16 0 -51 4 -77
9 -26 5 -65 12 -85 15 l-38 5 1 -42z"/>
<path d="M5219 5234 c0 -10 -3 -14 -6 -7 -3 8 -8 9 -16 2 -14 -11 -141 -88
-269 -162 -49 -28 -88 -53 -88 -56 0 -21 223 -136 241 -125 14 9 184 268 184
281 0 6 4 15 9 20 5 5 6 2 1 -6 -6 -10 -4 -12 4 -7 7 5 10 10 7 13 -2 2 -7 3
-10 1 -3 -1 -17 12 -31 31 -20 28 -25 31 -26 15z"/>
<path d="M5267 5118 c-24 -35 -71 -104 -105 -154 l-61 -91 72 -17 c40 -10 82
-20 95 -23 13 -3 22 -1 22 7 0 16 21 36 47 44 16 5 22 1 27 -19 4 -14 4 -30 1
-35 -4 -6 8 -10 25 -10 l31 0 -2 155 c-1 139 -3 156 -17 153 -10 -1 -18 2 -19
7 -1 6 7 9 18 8 10 -2 19 2 19 8 0 7 -15 10 -39 7 -22 -2 -37 0 -35 3 3 6 -19
19 -31 19 -2 0 -23 -28 -48 -62z"/>
<path d="M5468 5159 l-27 -10 0 -165 c0 -120 4 -164 12 -164 33 0 150 23 210
41 l67 20 -40 59 c-26 38 -45 57 -54 54 -18 -7 -32 16 -16 26 10 6 6 18 -17
49 -16 22 -34 37 -38 33 -5 -4 -5 -2 -2 4 9 16 -30 64 -51 63 -9 0 -29 -5 -44
-10z"/>
<path d="M4717 4938 c-66 -39 -67 -41 -52 -62 8 -11 27 -39 41 -61 35 -53 85
-105 101 -105 8 0 16 -6 19 -14 5 -13 76 -66 88 -66 3 0 8 16 12 35 5 31 24
50 24 25 0 -5 6 -7 13 -4 8 3 20 -2 27 -11 11 -13 10 -20 -8 -44 l-21 -29 72
-32 c85 -38 226 -75 315 -83 l62 -5 0 112 0 113 -77 3 c-43 2 -95 3 -115 2
-27 -1 -38 3 -38 12 0 17 -69 31 -101 21 -14 -5 -19 -3 -15 3 10 16 -138 121
-152 107 -3 -3 0 -5 7 -5 9 0 9 -5 1 -21 -7 -11 -9 -27 -6 -35 8 -21 -21 -17
-45 7 -17 17 -19 23 -8 30 7 4 18 6 24 3 5 -3 2 1 -7 8 -15 11 -15 13 -1 23
20 14 10 33 -24 46 -13 5 -22 13 -19 17 7 12 -22 52 -37 51 -7 0 -43 -19 -80
-41z"/>
<path d="M6132 4954 c-7 -8 -30 -14 -52 -14 -25 0 -56 -10 -85 -27 -43 -27
-57 -43 -35 -43 6 0 10 -5 10 -11 0 -7 -10 -9 -24 -5 -17 4 -54 -7 -121 -39
-119 -55 -232 -91 -313 -101 l-62 -7 0 -111 0 -112 73 7 c39 4 78 8 85 8 6 1
12 8 12 15 0 11 11 15 38 13 35 -1 211 61 236 84 5 4 -2 24 -15 45 -12 21 -25
32 -27 26 -5 -17 -29 -15 -36 3 -4 11 2 15 24 15 27 0 61 -30 73 -63 7 -21
115 62 181 139 58 68 123 170 114 179 -12 13 -65 12 -76 -1z"/>
<path d="M6214 4907 c-11 -17 -29 -45 -39 -62 -36 -58 -111 -137 -177 -186
l-67 -50 17 -27 c45 -73 49 -76 68 -57 13 13 27 16 56 11 35 -6 45 -2 96 38
62 47 232 220 232 235 0 5 -8 8 -17 7 -10 0 -18 4 -19 9 0 6 -7 31 -14 57 -10
35 -17 45 -26 37 -8 -7 -24 -5 -49 6 -21 8 -38 15 -39 15 0 0 -10 -15 -22 -33z"/>
<path d="M4947 4902 c17 -18 42 -32 55 -32 21 -1 22 -2 5 -14 -16 -12 -13 -16
30 -50 30 -23 57 -36 77 -36 17 0 67 -9 111 -20 44 -11 103 -20 131 -20 44 0
52 3 57 21 10 38 -2 49 -55 49 -27 0 -105 14 -171 30 -67 17 -130 29 -140 26
-9 -2 -15 -1 -12 4 2 4 -23 22 -58 41 l-62 33 32 -32z"/>
<path d="M4558 4846 c-38 -22 -68 -46 -68 -52 0 -6 9 -19 20 -29 11 -10 20
-25 20 -33 0 -18 146 -169 182 -188 21 -11 33 -11 51 -3 19 9 31 7 57 -6 17
-9 33 -15 35 -13 1 2 14 21 28 44 l25 40 -87 65 c-68 51 -96 80 -136 141 -27
42 -52 76 -55 76 -3 0 -35 -19 -72 -42z"/>
<path d="M5718 4855 c-9 -9 -157 -42 -220 -50 l-58 -7 0 -35 0 -34 48 6 c116
16 282 66 282 85 0 31 -33 53 -52 35z"/>
<path d="M6477 4799 c-9 -6 -26 -9 -36 -7 -12 2 -38 -19 -77 -62 -64 -70 -120
-123 -197 -184 -36 -30 -45 -42 -37 -52 8 -9 7 -20 -3 -41 -11 -22 -11 -33 -2
-50 l12 -23 44 29 c24 17 63 46 87 66 35 31 41 40 31 52 -11 12 -9 13 12 8 20
-5 28 0 42 24 17 29 17 30 1 24 -12 -4 -15 -3 -10 6 5 7 14 10 22 7 22 -8 71
41 115 115 52 87 50 120 -4 88z"/>
<path d="M6505 4715 c-37 -64 -75 -110 -150 -183 -55 -53 -123 -112 -151 -131
l-51 -34 75 -101 c119 -161 296 -386 303 -386 8 0 247 209 273 238 14 17 16
22 5 23 -8 0 -5 4 7 9 46 18 284 377 284 428 0 19 -412 197 -489 212 -30 5
-54 10 -55 10 -1 0 -24 -38 -51 -85z"/>
<path d="M4457 4759 c3 -17 0 -40 -7 -54 -11 -21 -10 -31 6 -67 49 -110 232
-311 261 -287 15 13 18 49 3 49 -5 0 -12 16 -16 35 -3 19 -10 32 -15 29 -5 -3
-9 1 -9 9 0 8 10 17 21 20 19 5 9 19 -82 109 -57 57 -115 122 -129 146 -28 49
-42 54 -33 11z"/>
<path d="M4243 4687 c-35 -17 -63 -38 -63 -45 0 -9 -6 -12 -16 -8 -21 8 -354
-158 -354 -177 0 -14 72 -133 123 -202 4 -6 15 -1 28 15 14 17 22 21 26 13 2
-7 11 -13 19 -13 9 0 14 -10 14 -27 l0 -28 -20 25 c-18 24 -20 24 -37 7 -17
-16 -16 -18 9 -45 15 -15 67 -70 114 -122 125 -136 227 -230 251 -230 5 0 27
25 49 56 21 30 53 74 70 97 60 82 184 267 184 276 0 5 11 19 24 32 l24 23 -44
34 c-57 44 -125 128 -183 224 -39 65 -50 77 -73 78 -14 0 -39 11 -55 24 l-28
23 -62 -30z"/>
<path d="M4900 4550 c-12 -25 -20 -50 -19 -55 2 -6 -2 -20 -9 -31 -14 -25 -9
-30 54 -62 59 -30 174 -60 274 -72 47 -6 98 -13 113 -16 16 -2 44 -2 63 2 l34
6 0 69 0 68 -45 7 c-25 3 -58 4 -75 2 -16 -3 -30 -1 -30 4 0 4 -7 8 -16 8 -8
0 -13 -4 -10 -9 7 -10 -22 -37 -30 -28 -3 3 -1 13 4 23 9 16 -1 21 -87 49 -53
17 -119 43 -148 56 l-51 25 -22 -46z"/>
<path d="M5855 4568 c-82 -38 -230 -85 -290 -93 -126 -15 -115 -9 -115 -74 0
-55 2 -59 25 -65 14 -4 31 -4 37 0 5 4 13 2 17 -3 10 -16 124 3 231 38 98 33
230 94 230 107 0 4 -17 32 -38 63 l-37 55 -60 -28z"/>
<path d="M7107 4541 c-22 -54 -128 -220 -209 -328 -68 -91 -174 -197 -293
-296 -53 -44 -87 -82 -56 -63 6 4 16 4 22 0 8 -5 8 -9 -1 -14 -9 -6 -9 -12 1
-28 11 -17 17 -19 33 -10 20 11 33 20 126 98 55 45 199 206 265 295 79 107
195 312 195 344 0 4 -15 15 -34 24 l-34 16 -15 -38z"/>
<path d="M7191 4492 c-34 -70 -127 -230 -167 -287 -51 -71 -153 -191 -218
-254 -30 -30 -53 -58 -50 -63 7 -12 -16 -39 -27 -32 -7 4 -76 -41 -128 -82 -2
-2 14 -25 36 -51 22 -26 53 -69 70 -94 54 -79 43 -83 201 74 197 195 225 225
261 279 31 47 31 48 9 45 -17 -1 -23 3 -23 18 0 16 7 20 35 20 33 0 39 5 90
82 82 123 156 271 145 289 -6 9 -46 31 -90 50 -133 59 -119 58 -144 6z"/>
<path d="M3752 4444 l-34 -15 28 -47 c35 -61 102 -159 112 -166 4 -2 17 6 28
19 l21 23 -54 88 c-29 49 -56 94 -60 100 -6 9 -17 8 -41 -2z"/>
<path d="M5930 4416 c-110 -58 -336 -118 -467 -125 -8 -1 -13 -16 -13 -43 l0
-41 118 6 c65 4 136 13 158 20 21 8 60 17 85 21 35 5 48 12 52 26 6 22 27 27
27 7 0 -11 11 -10 53 4 37 13 51 23 49 34 -2 12 3 14 22 9 15 -3 26 -2 26 4 0
17 -26 32 -51 30 -20 -3 -24 1 -21 22 2 14 11 31 20 38 27 21 -8 14 -58 -12z"/>
<path d="M7398 4317 c-32 -62 -76 -142 -100 -178 -24 -36 -47 -72 -53 -81 -43
-67 -142 -183 -249 -293 -135 -138 -163 -171 -152 -183 4 -3 11 0 16 8 6 9 10
10 10 3 0 -6 -5 -15 -11 -18 -5 -4 -14 -18 -19 -31 -12 -29 -60 -35 -61 -6 0
12 -2 13 -6 3 -3 -8 8 -26 26 -41 17 -15 31 -31 31 -35 0 -3 7 -13 15 -21 8
-8 19 -22 24 -31 8 -15 11 -15 39 3 17 10 89 75 161 143 112 105 133 130 143
167 7 24 18 44 25 44 7 0 13 -4 13 -10 0 -22 18 -7 86 73 56 64 254 369 254
390 0 3 -12 7 -27 10 -44 8 -60 -7 -68 -63 -8 -56 -15 -65 -51 -56 -38 10 -30
40 34 125 54 71 90 136 81 145 -2 3 -27 13 -54 24 l-51 20 -56 -111z"/>
<path d="M3686 4413 c-2 -5 -47 -30 -100 -58 -83 -42 -95 -52 -90 -70 4 -11
35 -65 69 -120 41 -66 68 -100 79 -99 17 2 19 -28 3 -53 -12 -19 -54 -16 -61
3 -5 14 -4 15 9 4 23 -19 19 6 -6 41 -11 16 -15 29 -9 29 7 0 3 12 -8 28 -11
15 -31 50 -45 78 -14 28 -37 58 -51 68 -25 16 -28 15 -107 -24 l-80 -41 19
-32 c87 -147 110 -182 130 -196 75 -53 74 -51 58 -75 -14 -21 -9 -28 95 -147
113 -128 266 -279 331 -325 l37 -26 27 32 c15 17 44 52 64 77 l38 45 -67 58
c-151 131 -278 269 -347 375 -36 56 6 13 63 -63 75 -102 332 -352 362 -352 5
0 31 29 59 65 47 61 49 67 39 95 -9 23 -9 35 1 50 6 11 12 22 12 24 0 10 -89
66 -93 58 -2 -4 -2 -1 -1 5 5 18 -167 199 -184 195 -10 -2 -13 2 -8 13 3 9 0
28 -8 43 -14 28 -11 52 5 52 5 0 9 -13 9 -29 0 -16 8 -39 19 -52 l19 -23 7 33
c8 36 -1 54 -15 31 -8 -12 -10 -12 -10 -1 0 8 8 20 18 27 16 12 16 14 -3 27
-10 8 -26 12 -34 9 -10 -4 -13 -1 -8 11 8 22 -10 32 -29 16 -10 -8 -13 -22 -9
-43 4 -27 4 -28 -5 -8 -5 12 -13 22 -18 22 -9 0 -98 128 -138 198 -18 32 -29
39 -38 25z"/>
<path d="M4813 4389 c-24 -11 -47 -28 -53 -38 -8 -16 -3 -22 38 -39 138 -59
293 -90 495 -99 l117 -5 0 41 0 41 -52 1 c-29 0 -60 2 -68 3 -8 2 -41 6 -72
10 -32 4 -92 16 -135 26 -67 16 -79 16 -86 4 -4 -8 -12 -14 -17 -14 -15 0 -12
30 3 30 6 0 -19 14 -58 30 -38 17 -70 30 -70 29 0 0 -19 -9 -42 -20z"/>
<path d="M6079 4327 c-9 -7 -14 -17 -12 -23 2 -6 -6 -19 -17 -29 -19 -18 -20
-18 -20 3 0 11 6 23 13 25 9 4 9 6 -1 6 -7 1 -27 -6 -43 -15 -91 -47 -349
-104 -468 -104 l-81 0 0 -340 0 -340 58 6 c95 9 255 33 292 44 19 5 49 10 66
10 17 0 37 6 43 14 6 8 33 17 58 21 48 7 133 39 258 95 75 34 255 138 255 148
0 13 -372 493 -382 492 -2 0 -10 -6 -19 -13z"/>
<path d="M7650 4297 c-24 -38 -26 -67 -5 -67 8 0 15 -5 15 -11 0 -7 -11 -9
-28 -6 -25 5 -31 2 -44 -27 -9 -18 -53 -92 -98 -165 -81 -130 -194 -269 -311
-383 -43 -41 -57 -62 -53 -75 4 -13 3 -15 -4 -5 -7 11 -29 -4 -97 -62 -48 -42
-97 -84 -110 -94 l-23 -17 28 -41 c16 -22 35 -46 44 -53 9 -7 14 -16 12 -20
-3 -4 9 -22 25 -40 33 -38 19 -44 139 58 177 150 354 338 344 365 -4 12 -2 15
9 11 23 -10 110 99 113 141 4 40 12 57 24 49 4 -3 22 7 40 21 28 24 30 28 15
44 -17 19 -20 46 -5 55 6 4 10 -7 10 -27 1 -31 1 -32 15 -14 8 11 13 28 10 37
-4 11 0 16 11 15 18 -1 146 228 141 254 -1 8 -11 15 -22 15 -11 0 -24 5 -30
12 -5 7 -40 24 -78 38 l-67 25 -20 -33z"/>
<path d="M4754 4301 c4 -5 2 -21 -4 -36 -10 -26 -11 -27 -35 -11 -13 9 -26 16
-29 16 -3 0 -31 -39 -62 -87 -58 -88 -82 -122 -186 -263 -30 -41 -58 -81 -62
-88 -5 -9 7 -19 40 -34 27 -11 69 -34 95 -50 26 -15 101 -53 168 -83 103 -47
125 -54 143 -44 28 15 104 6 128 -16 13 -12 27 -15 45 -11 18 5 25 2 25 -7 0
-10 -9 -13 -27 -11 -16 2 -9 -3 17 -11 25 -9 88 -20 140 -26 52 -5 125 -15
162 -21 36 -6 72 -9 80 -6 11 4 12 68 10 342 -3 334 -3 336 -24 336 -17 0 -20
-4 -15 -28 7 -34 -6 -57 -27 -49 -19 7 -21 38 -4 55 18 18 9 21 -70 25 -87 5
-122 -14 -122 -64 0 -35 -6 -36 -45 -4 -28 23 -29 24 -11 44 13 14 26 19 42
15 14 -4 24 -2 24 5 0 11 -5 13 -110 31 -83 15 -194 47 -242 71 -41 21 -52 23
-44 10z"/>
<path d="M7840 4137 c-30 -56 -63 -120 -75 -142 -27 -51 -49 -86 -103 -159
-40 -56 -42 -60 -26 -77 10 -11 24 -19 33 -19 11 0 12 -3 3 -12 -9 -9 -17 -7
-35 10 l-23 22 -73 -88 c-130 -155 -284 -306 -479 -468 l-25 -21 63 -84 c35
-46 65 -86 67 -88 18 -25 382 295 481 424 16 22 33 37 37 33 9 -9 -38 -62
-179 -202 -67 -66 -120 -126 -118 -134 2 -10 -2 -13 -13 -8 -21 8 -188 -131
-178 -148 5 -9 124 -162 155 -201 5 -5 33 -42 64 -82 36 -48 60 -70 69 -66 14
5 19 -6 16 -34 -1 -7 3 -13 8 -13 5 0 16 -10 23 -23 35 -62 54 -87 67 -87 8 0
37 24 65 53 28 29 119 122 201 207 83 85 171 182 195 215 24 33 64 85 89 116
26 31 64 80 86 109 22 29 48 61 57 71 10 10 29 40 43 66 47 87 95 166 141 230
35 49 43 68 38 88 -4 15 -2 25 5 25 6 0 11 -6 11 -12 0 -24 135 201 142 235 2
14 -13 24 -72 48 -41 16 -113 48 -158 71 -69 34 -85 39 -93 27 -7 -12 -9 -11
-9 2 0 15 -14 22 -154 84 -67 30 -67 29 -106 -55 -11 -25 -25 -52 -30 -60 -5
-8 -39 -62 -74 -120 -36 -58 -87 -139 -114 -180 -29 -44 -45 -78 -39 -81 5 -4
-3 -15 -19 -24 -16 -10 -46 -37 -67 -59 l-39 -41 31 47 c17 26 40 49 50 53 13
4 17 12 14 25 -3 11 0 20 6 20 6 0 11 7 11 15 0 8 -6 15 -12 15 -18 0 -39 -15
-37 -26 1 -5 1 -18 0 -28 -2 -35 -13 -8 -17 41 -2 26 0 42 4 35 5 -7 24 -11
47 -10 37 3 41 7 96 93 31 50 78 123 104 163 37 56 45 75 36 86 -9 10 -6 17
11 29 13 8 33 34 46 56 l23 41 -63 31 c-35 17 -84 39 -109 49 l-45 18 -54
-101z"/>
<path d="M3210 4157 c-31 -17 -74 -41 -95 -52 -22 -10 -42 -20 -44 -22 -6 -4
76 -137 95 -154 14 -12 49 -19 129 -24 l111 -7 12 28 c12 25 10 30 -20 63 -18
20 -36 40 -39 44 -4 5 -17 4 -28 -3 -12 -6 -29 -10 -37 -8 -12 2 -11 7 6 26
13 13 28 21 37 18 14 -6 -1 24 -51 107 -14 22 -12 22 -76 -16z"/>
<path d="M3997 4130 c4 -22 0 -36 -12 -50 -17 -19 -14 -23 101 -139 l119 -119
64 1 65 0 -45 36 c-50 40 -134 123 -231 228 -61 65 -67 70 -61 43z"/>
<path d="M3017 4056 c-14 -11 -17 -26 -15 -75 3 -58 4 -61 28 -61 14 0 49 -3
79 -7 l54 -6 -25 34 c-14 19 -38 55 -53 82 -28 50 -39 55 -68 33z"/>
<path d="M2923 4008 c-29 -16 -53 -35 -53 -42 0 -21 126 -233 186 -314 120
-161 225 -282 244 -282 13 0 17 -5 14 -14 -3 -9 26 -44 76 -93 45 -43 85 -79
90 -81 4 -2 18 14 31 35 12 21 40 59 61 84 21 26 38 49 38 52 0 3 -46 52 -101
109 -140 142 -305 350 -329 414 -10 24 -11 25 -117 24 -137 -2 -144 0 -130 47
6 20 19 38 29 41 10 2 18 8 18 12 0 5 3 15 6 24 8 21 -2 19 -63 -16z"/>
<path d="M2690 3889 c-85 -43 -191 -96 -236 -118 -44 -21 -99 -50 -121 -64
-22 -14 -44 -23 -47 -20 -15 16 -3 -27 20 -72 29 -54 159 -241 262 -373 59
-76 67 -83 96 -80 29 3 31 1 32 -32 1 -19 2 -40 3 -46 2 -18 97 -132 234 -279
241 -259 265 -282 297 -288 28 -6 34 0 143 136 203 255 191 236 156 260 -13
10 -17 17 -10 22 6 3 25 -5 42 -20 34 -28 46 -28 31 2 -5 10 -22 59 -38 108
-18 58 -37 99 -54 114 -14 13 -60 56 -103 95 -160 145 -364 406 -485 621 -28
50 -55 95 -59 102 -6 9 -52 -11 -163 -68z"/>
<path d="M3200 3880 c0 -55 377 -500 424 -500 14 0 29 29 30 59 1 8 7 16 14
18 8 3 10 -1 5 -13 -4 -12 -3 -15 5 -10 21 12 13 -11 -13 -42 l-25 -30 86 -71
c83 -68 104 -81 104 -63 0 8 69 95 105 133 14 15 4 26 -105 124 -66 59 -139
130 -161 157 -23 26 -48 47 -57 46 -9 -2 -16 5 -17 18 -2 31 -125 164 -151
164 -11 0 -24 3 -27 7 -4 3 -54 8 -112 11 -76 3 -105 1 -105 -8z"/>
<path d="M8679 3848 c-15 -38 -138 -242 -185 -308 -17 -25 -68 -106 -113 -180
-45 -74 -99 -156 -119 -181 -20 -26 -82 -104 -137 -175 -55 -71 -168 -198
-250 -284 -270 -278 -274 -283 -256 -301 9 -9 21 -23 26 -33 9 -14 26 -1 120
96 140 144 238 238 247 238 11 0 304 356 378 460 83 116 172 268 164 281 -3 5
0 8 7 7 13 -3 86 112 168 264 l52 96 -34 26 c-44 34 -52 33 -68 -6z"/>
<path d="M6421 3789 c-83 -52 -234 -127 -342 -169 l-86 -34 16 -38 c10 -24 23
-38 34 -38 45 0 381 159 466 220 l42 31 -27 34 c-14 19 -29 35 -33 35 -3 0
-35 -18 -70 -41z"/>
<path d="M4344 3796 c-3 -7 -1 -29 3 -47 8 -29 22 -41 99 -86 49 -28 91 -47
92 -42 2 5 8 9 14 9 6 0 8 -6 5 -14 -6 -14 41 -36 171 -79 40 -14 42 -14 42 5
0 11 4 28 10 38 8 15 4 20 -23 31 -64 25 -198 91 -269 131 -107 60 -137 72
-144 54z"/>
<path d="M6510 3712 c-141 -88 -429 -221 -481 -223 -13 0 -18 -3 -11 -6 14 -6
16 -33 2 -33 -5 0 -10 4 -10 10 0 5 -16 2 -35 -7 -20 -9 -34 -19 -32 -22 2 -3
10 -21 17 -38 8 -18 17 -33 20 -33 3 1 17 19 32 40 15 22 33 40 40 40 6 0 2
-10 -9 -22 -52 -58 -56 -72 -37 -132 18 -57 22 -60 62 -50 17 5 21 11 16 26
-5 17 -3 18 14 7 16 -10 33 -7 103 19 192 69 396 170 474 235 l34 28 -70 92
c-39 51 -74 93 -77 94 -4 2 -27 -10 -52 -25z"/>
<path d="M4310 3685 c-14 -8 -32 -14 -41 -15 -19 0 -99 -85 -99 -105 0 -7 -6
-16 -12 -19 -10 -4 -9 -7 2 -15 8 -5 29 -21 45 -36 32 -28 153 -93 233 -124
26 -10 73 -31 106 -46 107 -49 239 -97 256 -92 9 2 25 -2 35 -9 29 -21 35 -17
36 24 1 68 18 83 18 17 l1 -60 123 -23 c129 -24 273 -42 347 -42 l45 0 -3 119
c-4 136 1 131 -104 131 -50 0 -57 -2 -52 -17 4 -14 1 -13 -14 5 -16 17 -31 22
-71 22 -27 0 -53 5 -57 12 -7 11 34 10 222 -8 l72 -7 4 47 c2 26 1 49 -1 52
-2 2 -26 4 -52 4 -32 0 -49 -5 -53 -15 -3 -8 -16 -15 -28 -15 -27 0 -51 14
-46 25 6 14 -25 23 -117 35 -49 6 -101 14 -114 17 -16 4 -22 2 -17 -5 4 -6 0
-28 -9 -48 -8 -20 -14 -38 -13 -39 3 -3 78 -13 101 -14 5 -1 5 -5 2 -11 -3 -5
2 -10 12 -11 12 -1 10 -3 -7 -8 -14 -4 -26 -16 -28 -26 -6 -40 -12 -49 -23
-38 -8 8 -7 20 5 43 l16 33 -35 -6 c-24 -4 -33 -2 -29 5 4 6 3 8 -4 4 -5 -3
-13 0 -16 6 -4 9 -8 10 -11 2 -8 -16 -105 -6 -126 12 -9 8 -18 11 -21 8 -4 -3
-9 8 -12 23 -6 26 -15 32 -79 52 -77 25 -196 82 -288 137 -64 38 -65 39 -99
19z"/>
<path d="M2262 3626 c9 -29 8 -40 -10 -69 l-20 -35 46 -70 c132 -198 357 -490
422 -547 21 -18 23 -18 17 -2 -4 11 -3 16 4 12 5 -4 7 -16 3 -27 -4 -14 -2
-18 5 -14 6 4 11 1 11 -7 0 -8 28 -47 63 -87 72 -85 288 -310 296 -310 4 0 21
14 39 31 l33 30 -122 132 c-67 73 -151 161 -186 196 -35 34 -77 83 -93 107
-17 24 -39 49 -48 56 -10 7 -27 25 -37 41 -9 15 -28 30 -41 33 -16 4 -24 13
-24 28 0 13 -46 85 -107 167 -121 163 -216 303 -234 342 -17 39 -29 33 -17 -7z"/>
<path d="M5825 3549 c-89 -20 -88 -20 -76 -32 6 -6 11 -17 11 -24 0 -18 -40
-16 -54 3 -11 14 -28 15 -134 9 l-122 -8 0 -49 0 -49 73 7 c182 17 398 61 347
70 -8 1 -32 5 -52 9 -21 3 -38 11 -38 17 0 7 16 8 45 4 l45 -7 0 30 c0 17 -1
31 -2 30 -2 -1 -21 -5 -43 -10z"/>
<path d="M6625 3471 c-130 -84 -315 -165 -583 -256 -10 -4 -10 -10 -2 -24 5
-11 22 -52 36 -93 14 -40 29 -77 33 -81 12 -12 61 11 61 28 0 17 16 21 22 5 7
-21 378 128 378 151 0 5 6 9 14 9 14 0 223 122 243 143 10 10 1 29 -43 95 -30
45 -59 82 -62 81 -4 0 -47 -27 -97 -58z"/>
<path d="M4130 3507 c0 -7 -10 -17 -22 -22 -20 -9 -99 -109 -98 -124 1 -8 81
-68 101 -76 13 -5 22 9 43 60 14 36 24 70 21 74 -2 5 4 20 15 33 l19 25 -40
21 c-26 14 -39 17 -39 9z"/>
<path d="M4225 3450 c5 -8 2 -17 -7 -24 -19 -14 -53 -79 -66 -128 -9 -33 -8
-38 7 -38 18 0 41 -18 41 -32 0 -4 -12 -3 -26 2 -14 6 -29 10 -34 10 -4 0 -24
-38 -44 -85 l-35 -86 21 -21 c13 -13 23 -17 26 -10 2 6 11 8 19 5 12 -5 15 -2
10 10 -8 22 6 60 32 86 24 24 53 89 45 102 -3 5 0 9 5 9 6 0 11 -7 11 -15 0
-25 246 -138 400 -183 195 -57 190 -57 190 -30 0 12 9 31 19 42 27 29 32 124
7 138 -11 6 -21 6 -31 -2 -8 -7 -14 -7 -17 -1 -1 6 -39 23 -83 39 -94 35 -329
138 -418 184 -81 43 -81 43 -72 28z"/>
<path d="M5815 3434 c-27 -7 -106 -21 -175 -29 -69 -9 -140 -18 -157 -21 l-33
-5 0 -119 0 -120 50 0 c103 0 400 44 414 62 2 1 15 35 30 74 l28 70 -29 50
c-33 56 -49 61 -128 38z"/>
<path d="M3576 3282 c-31 -38 -56 -74 -56 -80 0 -6 -7 -15 -15 -19 -11 -7 -5
-18 33 -54 52 -50 121 -104 125 -98 2 2 33 41 70 86 37 45 67 86 67 90 0 8
-13 19 -122 106 l-46 38 -56 -69z"/>
<path d="M3968 3322 c-34 -37 -98 -123 -98 -132 0 -10 96 -82 138 -104 l33
-17 39 87 c22 47 40 89 40 94 0 4 -17 19 -37 33 -21 15 -50 35 -64 46 l-26 20
-25 -27z"/>
<path d="M6789 3307 c-186 -118 -360 -204 -547 -268 -72 -24 -121 -46 -119
-53 38 -108 73 -196 79 -196 17 0 357 133 424 166 61 30 71 38 66 56 -5 19 -2
21 31 15 31 -5 48 2 134 54 143 88 140 84 100 133 -19 23 -50 62 -69 87 l-35
47 -64 -41z"/>
<path d="M5970 3196 c-52 -16 -55 -20 -80 -83 -39 -100 -54 -128 -72 -141 -10
-7 -18 -17 -18 -21 0 -8 279 45 288 54 6 6 -69 205 -77 204 -3 -1 -22 -6 -41
-13z"/>
<path d="M4216 3193 c-3 -3 -6 -13 -6 -20 0 -8 -13 -26 -30 -40 -30 -25 -40
-53 -19 -53 6 0 8 -7 5 -16 -5 -12 -2 -15 10 -10 8 3 22 6 31 6 11 0 10 6 -6
27 -28 35 -18 43 11 9 l23 -27 55 30 c30 17 58 31 63 31 16 0 5 -16 -21 -29
-46 -23 -226 -91 -229 -87 -2 2 -23 -6 -46 -18 -26 -14 -51 -39 -68 -68 -27
-45 -27 -47 -11 -82 15 -31 35 -44 167 -110 151 -76 324 -146 425 -172 30 -8
73 -20 95 -26 22 -6 47 -12 55 -13 8 -1 22 -5 30 -8 75 -27 555 -95 587 -83 9
4 13 14 10 26 -3 13 1 24 13 30 41 22 50 40 50 104 l0 63 -142 6 c-165 7 -417
55 -551 106 -22 9 -29 7 -41 -11 -9 -12 -19 -19 -22 -15 -4 4 -2 13 5 21 9 11
7 15 -14 20 -14 4 -25 11 -25 16 0 6 -5 10 -11 10 -5 0 -8 -4 -5 -9 4 -5 -3
-7 -14 -4 -28 8 -19 14 26 18 27 3 41 -1 51 -13 12 -16 14 -15 33 8 11 14 23
34 26 45 4 11 24 45 46 75 39 55 39 55 16 61 -50 15 -68 10 -68 -16 0 -17 7
-28 22 -34 15 -5 18 -10 9 -15 -7 -5 -18 -1 -26 10 -11 15 -15 16 -29 5 -13
-11 -16 -11 -16 2 0 8 6 17 14 20 7 3 16 15 19 26 4 18 -3 23 -66 41 -40 12
-90 27 -112 35 -50 18 -58 19 -48 3 19 -32 -1 -66 -32 -54 -14 5 -14 9 0 35 8
17 15 32 15 34 0 3 -18 12 -41 21 -23 9 -48 23 -56 31 -17 17 -33 20 -33 5 0
-19 -27 -10 -51 17 -13 15 -17 23 -9 17 18 -13 50 -25 50 -19 0 8 -62 37 -67
31 -3 -3 -13 -1 -23 4 -10 5 -20 6 -24 3z"/>
<path d="M4878 3135 c-2 -45 1 -60 15 -73 13 -11 17 -25 13 -44 -3 -15 -1 -30
5 -33 20 -13 284 -54 387 -61 l107 -7 0 101 0 101 -40 5 c-22 3 -80 8 -130 11
-76 6 -262 34 -332 51 -19 5 -21 1 -25 -51z"/>
<path d="M5805 3159 c-44 -10 -142 -24 -217 -30 l-138 -12 0 -100 0 -99 48 6
c26 3 98 8 160 11 62 2 117 7 123 10 5 4 9 26 9 50 0 42 18 64 41 50 6 -5 69
114 69 131 0 5 0 5 -95 -17z"/>
<path d="M3773 3080 l-73 -89 59 -35 59 -36 92 32 c80 29 95 37 108 65 9 18
14 34 11 36 -39 30 -170 117 -176 116 -4 0 -41 -40 -80 -89z"/>
<path d="M6945 3119 c-79 -51 -278 -163 -341 -190 -27 -13 -128 -53 -224 -90
-111 -43 -174 -73 -173 -81 1 -7 18 -53 37 -103 41 -106 23 -103 211 -38 127
44 336 140 445 205 242 145 244 147 226 167 -9 10 -40 52 -69 93 l-52 75 -60
-38z"/>
<path d="M4805 2953 c-76 -113 -103 -159 -97 -165 7 -6 114 -36 237 -65 111
-26 222 -42 344 -49 l121 -7 0 60 c0 33 -3 63 -7 66 -4 4 -5 32 -4 63 l3 55
-89 -1 c-48 0 -113 4 -143 9 -120 22 -244 40 -248 37 -3 -4 77 -73 148 -127
19 -15 33 -29 30 -32 -6 -6 -127 83 -179 132 -19 18 -47 39 -63 47 -27 14 -28
14 -53 -23z"/>
<path d="M6055 2980 c-11 -4 -83 -20 -160 -34 -125 -23 -233 -33 -392 -35
l-53 -1 0 -120 0 -119 68 -4 67 -3 -67 -2 -68 -2 0 -79 c0 -66 3 -80 18 -86
11 -4 21 0 27 11 6 9 29 46 52 83 24 36 43 72 43 79 0 6 4 12 9 12 9 0 57 75
93 145 10 19 29 45 44 60 25 25 25 25 18 3 -4 -13 -15 -34 -25 -47 -21 -26
-24 -41 -9 -41 6 0 10 9 10 20 0 11 5 20 11 20 6 0 8 -9 4 -20 -4 -12 -2 -20
6 -20 8 0 9 10 5 31 -4 22 -2 29 7 27 6 -3 13 -18 15 -35 2 -24 -2 -33 -17
-38 -11 -3 -28 -2 -38 3 -20 12 -26 6 -72 -61 l-33 -49 88 7 c96 8 248 38 384
75 47 13 86 24 87 25 2 1 -14 47 -35 103 -38 104 -44 110 -87 92z"/>
<path d="M7076 2912 c-164 -111 -399 -230 -595 -300 -79 -29 -149 -52 -155
-52 -37 -1 -36 -17 13 -151 68 -183 179 -461 190 -472 15 -15 104 15 238 79
73 35 137 64 143 64 5 0 10 5 10 10 0 6 8 10 18 10 27 -1 -21 -34 -87 -60 -31
-12 -85 -38 -121 -58 -36 -19 -85 -40 -110 -47 -43 -11 -45 -13 -42 -46 2 -19
7 -37 11 -41 13 -15 238 71 421 161 261 128 414 216 418 242 4 22 24 34 44 26
8 -3 3 -9 -12 -15 -14 -6 -19 -11 -11 -11 17 -1 172 81 168 89 -20 38 -44 70
-53 70 -6 0 -76 -37 -155 -81 -168 -96 -336 -179 -358 -179 -9 0 22 19 69 41
142 69 430 232 430 243 0 10 -92 131 -264 349 -38 47 -73 84 -77 81 -5 -3 -7
1 -4 8 3 7 -10 30 -28 50 l-32 36 -69 -46z"/>
<path d="M3737 2885 c-62 -17 -70 -25 -24 -25 20 0 38 -3 40 -7 3 -5 -17 -6
-44 -5 -39 3 -49 1 -49 -11 0 -9 -2 -21 -5 -29 -4 -10 5 -12 41 -9 32 2 44 0
40 -8 -4 -6 -25 -11 -46 -11 -21 0 -42 -4 -45 -10 -11 -18 -23 -10 -17 12 3
14 2 19 -6 14 -8 -5 -12 2 -12 18 0 15 -6 26 -13 26 -12 0 -115 -116 -127
-143 -3 -7 -22 -30 -43 -52 -20 -22 -59 -66 -86 -98 l-49 -58 22 -39 c20 -38
20 -41 5 -84 l-16 -45 94 -61 c52 -33 96 -60 98 -60 2 0 48 -26 102 -57 190
-110 592 -293 644 -293 19 0 29 20 29 56 0 29 -10 34 -206 112 -82 33 -178 77
-214 97 -36 21 -99 54 -140 75 -91 45 -304 165 -342 192 -16 11 -28 24 -28 30
0 7 10 2 23 -9 22 -20 222 -132 461 -258 146 -76 446 -200 457 -188 15 16 14
138 -1 128 -5 -3 -10 1 -10 9 0 9 6 13 14 10 10 -4 17 9 25 47 6 28 9 54 6 57
-6 7 14 32 26 32 12 0 11 -28 -1 -32 -11 -3 -29 -99 -35 -179 -1 -25 -6 -55
-9 -66 -6 -19 3 -24 79 -52 97 -35 105 -36 105 -18 0 15 -78 227 -89 242 -8
10 -35 98 -45 146 -8 37 -92 149 -112 149 -10 0 -14 6 -11 14 3 7 -21 47 -54
87 -33 41 -92 115 -132 166 -40 51 -79 92 -87 92 -21 1 -40 21 -40 43 0 11
-18 27 -50 43 -56 28 -57 28 -123 10z"/>
<path d="M3980 2792 c0 -4 66 -88 146 -187 81 -99 168 -210 194 -248 l48 -68
24 33 c66 94 144 226 136 233 -5 5 -187 75 -194 75 -3 0 -55 23 -115 51 -85
40 -113 48 -123 39 -9 -7 -16 -7 -20 -1 -4 5 2 11 11 13 14 3 10 9 -17 23 -54
30 -90 45 -90 37z"/>
<path d="M6105 2749 c-160 -44 -296 -71 -392 -76 l-102 -6 -61 -99 c-64 -103
-71 -135 -26 -124 13 3 52 10 87 16 35 5 104 16 152 23 48 8 90 11 92 7 5 -8
-53 -20 -100 -20 -21 0 -26 -3 -16 -9 7 -5 21 -7 30 -5 9 1 59 10 111 19 211
35 239 48 249 112 3 20 11 38 18 40 17 6 -4 -80 -23 -90 -8 -4 -14 -13 -14
-19 0 -9 3 -9 12 0 7 7 23 12 36 12 14 0 42 5 64 12 35 10 39 14 33 37 -10 40
-66 180 -73 185 -4 2 -38 -5 -77 -15z"/>
<path d="M4502 2468 c-27 -46 -66 -110 -85 -142 -28 -45 -34 -63 -26 -73 9
-10 8 -13 -5 -13 -20 0 -20 -5 -2 -38 8 -15 23 -52 34 -82 97 -273 67 -250
402 -311 283 -52 332 -59 458 -65 l122 -7 0 190 c0 104 3 230 6 280 7 86 6 90
-15 96 -11 3 -21 13 -21 23 0 14 3 15 12 6 17 -17 24 -15 25 8 1 13 -7 25 -22
32 -13 6 -26 19 -28 29 -4 15 -14 19 -49 19 -119 0 -509 59 -593 90 -11 4 -45
13 -75 20 -30 6 -63 14 -72 16 -12 4 -29 -17 -66 -78z"/>
<path d="M6180 2520 c-41 -10 -78 -16 -83 -13 -4 2 -13 0 -20 -5 -7 -5 -46
-15 -87 -22 -94 -16 -103 -18 -170 -30 -30 -5 -113 -13 -185 -16 -131 -6 -165
-15 -145 -39 8 -9 5 -14 -9 -18 -16 -4 -20 -17 -25 -78 -6 -65 -9 -207 -6
-264 0 -11 -2 -82 -6 -157 l-7 -138 34 0 c147 1 628 68 809 114 75 19 206 60
229 73 2 1 -10 35 -27 75 -38 91 -175 450 -191 501 -14 42 -10 41 -111 17z"/>
<path d="M4280 1881 c0 -50 10 -56 165 -99 308 -86 520 -126 750 -141 l119 -8
43 31 c24 16 43 35 43 42 0 8 -28 14 -82 18 -230 19 -348 36 -628 94 -69 14
-141 26 -160 27 -19 1 -48 8 -65 17 -16 8 -57 23 -90 32 -33 10 -68 19 -77 22
-15 5 -18 -1 -18 -35z"/>
<path d="M6446 1889 c-89 -36 -271 -79 -436 -104 -52 -8 -140 -21 -195 -30
-55 -8 -138 -18 -185 -20 -187 -12 -226 -22 -164 -45 14 -6 28 -20 31 -31 6
-21 10 -21 142 -16 75 3 179 10 231 17 116 14 484 90 557 115 8 3 9 13 3 34
-6 23 -5 35 6 45 17 17 53 30 61 22 7 -7 33 13 33 25 0 14 -30 9 -84 -12z"/>
</g>
</svg>
