<?xml version="1.0" standalone="no"?>
<!DOCTYPE svg PUBLIC "-//W3C//DTD SVG 20010904//EN"
 "http://www.w3.org/TR/2001/REC-SVG-20010904/DTD/svg10.dtd">
<svg version="1.0" xmlns="http://www.w3.org/2000/svg"
 width="1080.000000pt" height="1080.000000pt" viewBox="0 0 1080.000000 1080.000000"
 preserveAspectRatio="xMidYMid meet">
<metadata>
Created by potrace 1.16, written by Peter Selinger 2001-2019
</metadata>
<g transform="translate(0.000000,1080.000000) scale(0.100000,-0.100000)"
fill="#000000" stroke="none">
<path d="M1200 5400 l0 -5400 4200 0 4200 0 0 5400 0 5400 -4200 0 -4200 0 0
-5400z m4227 4870 c9 -30 25 -67 35 -82 11 -16 16 -28 11 -28 -4 0 3 -7 15
-16 14 -10 22 -25 21 -37 -1 -12 4 -35 11 -52 27 -63 35 -80 42 -85 4 -3 10
-23 14 -45 3 -21 13 -49 21 -62 8 -13 12 -23 7 -23 -4 0 -3 -5 4 -12 7 -7 12
-24 12 -39 0 -19 6 -30 21 -34 16 -5 18 -10 8 -21 -9 -11 -8 -14 5 -14 15 0
21 -24 19 -77 0 -7 4 -11 11 -10 6 1 10 -6 10 -15 -1 -10 2 -15 7 -13 4 3 11
-10 15 -30 5 -29 10 -35 32 -35 25 0 25 0 6 -22 -15 -19 -16 -20 -1 -9 24 19
22 -4 -3 -29 -22 -22 -19 -25 10 -10 16 9 18 8 13 -6 -5 -15 -3 -15 21 1 15
10 29 15 32 12 3 -2 -11 -15 -30 -27 -42 -25 -46 -33 -11 -20 34 13 41 -4 8
-19 -22 -10 -24 -14 -12 -22 7 -5 28 -6 44 -3 l30 7 -25 -21 -25 -21 29 -1
c28 0 29 0 11 -20 -10 -11 -15 -23 -12 -27 4 -3 7 -1 7 5 0 9 5 9 19 0 18 -11
18 -13 3 -25 -15 -12 -13 -12 13 -7 28 6 29 5 11 -8 -19 -15 -18 -15 5 -20 22
-4 54 13 44 24 -2 2 5 4 15 4 25 0 25 -11 -1 -48 -12 -16 -19 -31 -16 -34 9
-10 48 65 53 103 13 98 22 102 44 21 16 -61 34 -77 58 -54 23 20 36 21 29 2
-3 -8 1 -20 8 -26 8 -7 13 -17 12 -23 -1 -6 21 -19 48 -29 28 -9 42 -17 33
-18 -10 0 -18 -5 -18 -10 0 -9 13 -9 55 0 24 5 37 -1 32 -15 -4 -8 -2 -17 3
-20 4 -3 10 0 12 5 2 6 17 -3 33 -20 23 -24 25 -30 10 -24 -18 7 -19 6 -6 -9
8 -10 11 -20 8 -23 -6 -6 -24 23 -26 41 -1 6 -5 10 -10 10 -5 0 -13 3 -17 8
-19 19 -23 4 -5 -19 12 -15 21 -31 21 -37 0 -5 -13 8 -28 29 -31 42 -62 71
-62 58 0 -4 12 -21 28 -38 22 -25 19 -23 -18 7 -75 63 -89 70 -111 56 -10 -6
-6 -9 16 -11 17 -1 3 -4 -30 -8 l-60 -7 51 -1 c27 -1 59 -9 70 -17 18 -14 17
-14 -9 -5 -16 5 -54 10 -85 9 -52 -1 -54 -2 -22 -9 19 -5 55 -12 80 -17 36 -6
50 -16 77 -51 18 -24 33 -48 33 -54 0 -6 -13 7 -29 29 -16 22 -37 41 -47 42
-11 1 -32 3 -49 4 -16 1 -36 6 -43 11 -7 4 -16 5 -20 1 -3 -3 0 -10 8 -15 13
-8 12 -10 -2 -10 -9 0 -20 5 -23 10 -3 6 -16 10 -28 9 -12 0 -16 -3 -9 -6 21
-8 13 -21 -15 -26 -16 -2 1 -5 37 -7 44 -2 54 -5 30 -7 -19 -3 -39 -9 -44 -14
-6 -5 -26 -9 -45 -9 -67 0 -22 -11 65 -16 137 -8 207 -51 274 -170 17 -28 41
-59 55 -68 14 -9 25 -24 25 -32 0 -13 3 -14 14 -5 13 11 12 18 -6 49 l-20 37
21 -25 c29 -34 47 -65 32 -56 -16 10 -14 -9 3 -23 11 -9 14 -9 13 1 -1 34 5
43 27 44 22 2 25 -3 28 -46 1 -27 0 -46 -4 -43 -5 2 -8 0 -8 -5 0 -6 8 -13 17
-16 14 -6 15 -9 4 -15 -11 -7 -6 -30 21 -115 l34 -107 26 20 c14 12 40 21 58
21 42 0 120 -20 120 -31 0 -5 5 -9 11 -9 8 0 8 5 -1 15 -7 8 -11 15 -9 16 24
5 51 4 55 -3 3 -4 10 -8 16 -8 6 0 3 10 -8 23 -10 12 -2 6 19 -12 20 -19 37
-30 37 -24 0 7 -4 15 -10 18 -5 3 -10 13 -10 22 0 13 3 13 15 3 13 -11 14 -7
11 28 -2 22 -7 46 -12 53 -5 8 -3 10 6 4 7 -4 25 -35 40 -68 l27 -60 5 49 c6
62 51 164 89 200 22 21 43 30 87 35 84 11 152 10 152 -1 0 -5 -7 -7 -15 -3
-17 6 -122 -12 -167 -29 -18 -7 -28 -18 -28 -32 0 -11 -7 -30 -15 -40 -17 -23
-20 -14 -5 15 6 10 8 19 6 19 -9 0 -36 -59 -35 -77 0 -16 1 -16 10 2 7 15 7
12 2 -10 -13 -52 -8 -138 11 -174 l18 -34 18 23 c10 13 16 31 13 39 -3 10 -1
12 4 6 4 -5 22 -10 38 -10 27 0 30 -4 33 -34 3 -27 6 -31 14 -20 7 10 8 5 4
-17 -3 -19 0 -39 9 -50 14 -18 14 -18 15 6 1 14 7 39 15 55 l14 30 -6 -39 c-4
-28 -3 -37 6 -32 7 5 11 -2 11 -18 0 -14 5 -28 10 -31 6 -4 10 7 10 25 0 18 4
29 10 25 6 -3 10 -24 10 -46 0 -22 5 -39 11 -39 6 0 9 -7 6 -15 -4 -8 -2 -17
4 -20 5 -4 9 -12 8 -18 -3 -25 2 -44 15 -62 13 -18 13 -16 6 20 -4 22 -13 62
-20 88 -7 26 -10 50 -7 53 2 3 8 -11 11 -30 4 -18 14 -40 23 -47 15 -13 16
-11 10 19 -4 18 -2 32 3 32 6 0 10 -6 10 -12 0 -10 3 -9 9 1 6 10 11 2 15 -25
11 -63 26 -76 26 -23 0 49 29 149 62 214 12 22 48 80 81 129 88 132 111 188
110 266 l-1 65 13 -40 c18 -56 18 -12 0 55 -8 30 -13 56 -11 58 5 4 33 -83 39
-118 3 -17 5 -13 6 15 l3 40 10 -30 c5 -16 11 -59 13 -95 2 -57 -1 -73 -29
-125 -17 -33 -32 -64 -34 -70 -4 -11 51 48 81 86 35 47 15 5 -35 -73 -29 -44
-53 -86 -53 -92 0 -6 -7 -10 -15 -9 -9 2 -22 -7 -29 -20 -13 -21 -13 -21 4 -7
17 14 18 13 11 -10 -8 -27 -15 -140 -9 -140 2 0 13 21 24 46 11 26 22 44 25
41 3 -3 -6 -28 -21 -57 -14 -28 -24 -57 -22 -63 3 -7 16 13 30 43 29 62 34 63
12 1 -23 -66 -8 -47 34 42 21 45 48 91 60 102 16 14 12 3 -13 -34 -20 -29 -36
-63 -36 -75 0 -11 -9 -34 -20 -51 -11 -16 -20 -34 -20 -39 0 -9 52 66 93 134
15 25 39 59 53 75 31 36 22 17 -22 -45 -43 -61 -66 -109 -59 -120 9 -15 26 -1
23 18 -2 9 2 16 9 15 6 -2 46 34 89 80 96 103 81 71 -21 -43 -42 -47 -81 -94
-86 -105 -6 -12 0 -8 17 10 15 16 33 30 40 31 17 3 120 94 117 104 -1 4 15 22
35 41 l37 34 -29 -32 c-45 -50 -18 -39 35 13 33 33 49 42 54 33 5 -7 4 -10 -2
-6 -5 3 -43 -28 -83 -68 -85 -86 -86 -100 -2 -23 l57 52 -58 -60 c-32 -33 -55
-63 -52 -67 3 -4 2 -5 -2 -2 -9 7 -63 -45 -63 -61 0 -6 -7 -15 -16 -18 -9 -4
-14 -9 -10 -13 3 -3 -1 -18 -10 -32 -13 -22 -11 -21 10 4 14 17 31 30 38 30 7
0 13 7 13 15 0 8 5 15 12 15 6 0 15 4 20 9 5 5 3 6 -4 2 -16 -9 -17 6 -1 22
16 16 33 15 19 -1 -6 -8 -8 -17 -5 -20 4 -4 -1 -19 -10 -34 -17 -28 -17 -28 2
-6 11 12 24 18 31 14 7 -5 -4 -19 -33 -40 -25 -17 -48 -36 -52 -42 -3 -6 16 6
44 25 56 41 74 46 46 14 -10 -13 -12 -18 -4 -12 19 14 150 74 150 69 0 -2 -37
-26 -82 -54 -76 -46 -138 -94 -138 -107 0 -3 12 3 28 13 15 11 40 25 56 32 26
11 28 10 16 -3 -17 -22 -9 -20 41 9 24 14 49 25 54 25 6 0 -10 -12 -35 -27
-41 -24 -117 -83 -107 -83 3 0 30 11 62 25 32 14 60 24 63 21 2 -3 -7 -11 -22
-17 -27 -13 -37 -35 -11 -25 8 3 15 1 15 -4 0 -6 -6 -10 -12 -11 -7 0 -23 -2
-36 -5 -14 -2 -21 0 -17 6 4 6 -1 7 -11 3 -13 -5 -14 -8 -5 -11 10 -3 7 -10
-10 -24 -13 -11 -18 -16 -10 -12 8 4 44 9 80 10 45 2 58 1 41 -5 -14 -5 -36
-6 -50 -4 -20 4 -22 2 -10 -6 8 -6 10 -11 4 -11 -5 0 -19 -7 -30 -15 -17 -13
-13 -13 31 0 59 17 76 19 55 4 -11 -7 4 -8 50 -3 64 7 131 7 138 -1 2 -2 -38
-7 -88 -11 -84 -6 -90 -8 -75 -23 13 -14 17 -14 25 -2 7 12 12 12 23 3 7 -7
17 -9 20 -5 4 3 7 1 7 -5 0 -6 8 -13 18 -15 18 -5 -28 -10 -85 -10 -18 1 -33
-4 -33 -9 0 -5 9 -6 20 -3 11 4 20 2 20 -4 0 -6 12 -12 28 -12 15 -1 -2 -6
-38 -12 l-65 -11 40 -7 c39 -6 39 -6 -15 -8 -50 -3 -52 -4 -25 -12 17 -5 40
-10 52 -11 17 -2 19 -5 11 -15 -16 -20 -3 -27 60 -34 l57 -6 -65 -2 c-36 -2
-59 -5 -52 -8 27 -11 -2 -22 -46 -17 -39 4 -44 3 -28 -7 11 -6 29 -13 40 -14
64 -7 63 -7 36 -15 l-25 -7 25 -11 c14 -6 20 -11 14 -11 -7 -1 -31 8 -55 19
-47 21 -74 26 -65 11 4 -5 0 -12 -6 -15 -7 -3 -3 -3 9 0 13 3 31 0 40 -6 15
-9 14 -10 -7 -5 -24 6 -23 5 5 -14 l30 -21 -28 0 c-16 0 -38 5 -50 11 -19 9
-18 7 3 -10 l25 -20 -25 5 c-22 4 -23 3 -5 -5 11 -6 36 -17 55 -25 35 -14 34
-14 -29 -9 -44 3 -61 1 -57 -6 4 -6 16 -11 26 -11 10 0 22 -4 25 -10 3 -5 1
-10 -5 -10 -6 0 -8 -4 -5 -10 3 -5 2 -10 -4 -10 -5 0 -11 4 -13 10 -1 5 -18
14 -36 20 -46 13 -27 -10 28 -35 22 -10 38 -20 36 -22 -3 -3 -72 25 -109 45
-5 2 -3 -4 3 -14 7 -11 38 -32 71 -48 32 -17 57 -31 55 -33 -3 -4 -72 23 -99
38 -11 6 -21 8 -24 5 -9 -9 27 -57 37 -51 6 3 8 0 5 -7 -8 -20 103 -130 168
-166 31 -18 57 -34 57 -36 0 -8 -82 12 -93 23 -6 6 -18 11 -27 11 -9 0 -25 9
-35 20 -19 21 -7 28 13 8 7 -7 12 -8 12 -2 0 10 -36 44 -46 44 -3 0 -2 -6 2
-12 5 -9 2 -8 -9 1 -10 8 -15 16 -12 19 5 5 -52 81 -88 116 -24 23 -22 17 20
-55 18 -30 44 -66 58 -79 14 -13 25 -28 25 -33 0 -18 31 -46 45 -41 7 3 15 1
18 -3 11 -17 -45 -8 -58 10 -11 16 -14 16 -28 3 -13 -14 -19 -11 -50 23 -20
22 -38 37 -41 33 -3 -3 -6 -1 -6 4 0 16 -29 51 -30 36 0 -8 26 -41 58 -75 97
-104 101 -116 8 -27 -79 76 -85 80 -61 42 14 -24 24 -46 22 -48 -3 -3 -15 11
-27 31 -12 20 -24 34 -27 31 -7 -7 29 -86 39 -86 4 0 8 -5 8 -11 0 -5 -4 -7
-10 -4 -5 3 -10 1 -10 -4 0 -29 -23 -4 -54 57 -41 78 -48 69 -11 -14 26 -59
32 -80 15 -54 -8 12 -12 12 -18 2 -6 -9 -14 1 -26 32 -22 57 -41 72 -21 17 23
-65 75 -147 144 -225 23 -25 24 -27 5 -18 -12 6 -35 28 -51 48 -22 28 -32 34
-38 24 -6 -9 -4 -11 5 -5 10 6 12 4 7 -8 -4 -10 -2 -16 6 -14 7 1 11 -4 9 -11
-1 -8 2 -11 7 -7 6 3 18 -7 28 -22 10 -15 22 -31 28 -35 5 -4 11 -13 11 -20 1
-7 2 -19 3 -26 0 -7 6 -10 13 -6 7 4 8 3 4 -5 -5 -7 3 -29 18 -52 15 -21 22
-39 17 -39 -4 0 -27 30 -50 68 -22 37 -41 63 -41 59 0 -9 39 -81 65 -121 8
-12 13 -25 10 -28 -3 -2 4 -13 15 -23 11 -10 20 -13 20 -7 0 6 -4 14 -10 17
-5 3 -10 11 -10 17 0 5 8 0 19 -13 30 -37 14 -56 -20 -23 -16 15 -29 23 -29
17 0 -6 7 -16 15 -23 8 -7 15 -18 15 -24 0 -6 -11 3 -25 19 -25 31 -33 51 -15
40 16 -10 12 0 -41 97 -64 119 -82 138 -29 31 22 -45 40 -84 40 -88 0 -14 -22
9 -31 32 -5 14 -12 23 -16 20 -3 -4 9 -29 27 -56 38 -60 35 -93 -3 -36 -15 22
-27 35 -27 30 0 -15 51 -88 72 -103 10 -8 30 -31 43 -53 28 -43 35 -68 8 -29
-25 38 -66 80 -77 80 -6 0 0 -7 12 -16 12 -8 22 -20 22 -26 0 -6 -7 -5 -17 3
-13 10 -11 3 6 -26 56 -94 82 -149 112 -237 27 -80 32 -107 32 -193 l0 -100
16 65 c9 36 22 75 29 88 17 30 70 62 102 61 22 0 22 -2 -8 -13 -34 -12 -33
-12 22 -12 31 0 60 -4 65 -9 7 -7 -7 -9 -39 -7 -27 2 -57 -1 -67 -7 -15 -9
-12 -10 13 -5 43 8 96 -19 139 -69 19 -22 35 -45 35 -50 0 -6 -13 9 -30 31
-36 50 -94 82 -130 71 -24 -7 -24 -7 5 -8 27 -1 105 -43 105 -57 0 -7 -38 14
-44 25 -3 5 -25 9 -48 9 l-43 0 33 -9 c40 -12 42 -21 3 -13 -16 3 -39 1 -51
-6 -15 -8 -20 -8 -16 -1 4 6 2 11 -4 11 -5 0 -22 -25 -36 -55 -26 -55 -27 -63
-10 -145 3 -14 -3 0 -14 30 l-20 55 4 -58 c2 -31 1 -59 -4 -62 -7 -4 -25 70
-21 88 1 5 -3 6 -9 2 -18 -11 -22 23 -6 47 19 27 22 175 5 229 -24 74 -61 170
-65 166 -2 -2 9 -42 25 -90 24 -71 29 -99 26 -164 -2 -73 -2 -74 4 -18 l8 60
1 -71 c2 -53 -2 -75 -13 -84 -16 -13 -19 -91 -5 -145 7 -28 8 -27 10 15 l3 45
4 -38 c3 -21 0 -44 -5 -50 -6 -7 -11 -37 -12 -67 -4 -90 3 -111 10 -30 l6 75
2 -67 c1 -38 6 -68 12 -68 6 0 10 -5 10 -11 0 -5 -4 -7 -10 -4 -5 3 -10 1 -10
-4 0 -6 7 -11 15 -11 9 0 12 -6 8 -17 -3 -10 24 11 61 47 36 35 66 61 66 57 0
-4 -30 -40 -67 -81 -38 -40 -76 -88 -86 -107 -11 -19 -12 -26 -4 -16 59 71
110 126 117 124 5 -1 32 20 60 47 29 27 48 42 44 33 -12 -19 -114 -111 -114
-102 0 4 -25 -23 -55 -61 -30 -38 -55 -74 -55 -80 0 -7 -7 -14 -15 -18 -18 -6
-20 -32 -4 -42 8 -4 9 1 4 17 -4 16 -3 20 3 11 7 -10 16 -3 36 30 15 24 39 59
54 80 28 37 94 97 98 88 4 -6 64 64 98 114 14 21 26 36 26 32 0 -14 -29 -63
-44 -75 -19 -16 -21 -35 -3 -25 10 6 10 4 0 -7 -22 -22 -14 -33 8 -13 20 18
20 18 -2 -21 l-22 -40 38 35 c53 49 74 101 76 185 1 64 2 66 9 30 5 -22 6 -58
3 -80 -3 -22 -2 -37 2 -33 4 4 11 51 15 105 l7 98 2 -84 c2 -121 -21 -183 -94
-261 -23 -25 -49 -56 -59 -70 -9 -13 -16 -19 -16 -13 0 7 5 15 10 18 6 3 10
11 10 17 0 6 -10 3 -22 -8 -20 -17 -19 -15 2 12 14 17 27 27 28 22 4 -10 34
26 51 62 11 23 10 22 -15 -5 -29 -32 -76 -43 -66 -15 5 13 4 13 -13 0 -10 -8
-20 -14 -22 -12 -1 1 -3 -1 -2 -4 0 -3 -20 -28 -46 -55 -28 -30 -43 -54 -39
-62 4 -6 4 -9 -1 -5 -10 9 -28 -10 -49 -51 -23 -44 -17 -47 14 -5 34 45 46 43
14 -3 -14 -20 -24 -46 -23 -58 3 -21 -20 -165 -26 -165 -5 0 1 96 9 140 8 44
2 33 -29 -55 -22 -65 -23 -68 -4 -45 16 19 19 20 12 5 -4 -11 -8 -56 -7 -100
0 -44 -3 -69 -6 -55 -6 22 -8 19 -15 -19 -4 -25 -13 -51 -21 -58 -7 -8 -11
-21 -8 -31 5 -13 4 -14 -4 -3 -7 10 -11 10 -17 1 -4 -7 -1 -16 6 -22 11 -7 11
-8 -1 -6 -16 3 -60 -27 -74 -50 -14 -23 89 39 117 71 19 22 26 26 21 12 -10
-27 -34 -55 -49 -55 -26 0 -35 -25 -18 -49 9 -13 16 -37 15 -52 0 -19 3 -27
10 -23 7 5 8 2 3 -5 -4 -7 -21 -21 -39 -32 -17 -10 -25 -19 -18 -19 19 0 50
18 96 53 29 23 35 26 26 10 -20 -32 -80 -66 -161 -93 -41 -13 -77 -29 -81 -35
-4 -5 -8 -6 -8 -2 0 4 -9 3 -21 -3 -35 -19 -16 -20 71 -5 46 8 85 13 87 11 2
-2 -22 -11 -54 -20 -32 -9 -65 -21 -73 -27 -12 -9 -11 -10 4 -5 58 19 178 47
188 44 7 -3 -16 -12 -51 -22 -81 -23 -73 -32 9 -11 34 9 67 14 73 12 6 -2 -19
-12 -56 -22 -37 -10 -70 -22 -73 -26 -3 -5 -17 -6 -32 -3 -15 3 -38 0 -52 -6
-22 -9 -20 -10 15 -5 56 7 14 -10 -47 -19 -46 -7 -176 -81 -163 -94 3 -3 24 8
48 25 42 30 108 48 215 58 29 3 62 9 72 15 10 5 31 9 47 9 20 -1 22 -3 8 -6
-43 -9 -74 -26 -68 -36 4 -6 0 -8 -11 -4 -25 10 -159 -19 -203 -43 -21 -12
-30 -19 -20 -16 11 4 31 9 45 13 23 5 24 4 11 -9 -8 -9 -18 -13 -23 -10 -5 3
-14 -1 -20 -9 -6 -8 -24 -21 -41 -29 -46 -23 -111 -92 -123 -131 -6 -19 -9
-56 -8 -84 2 -27 -2 -56 -8 -64 -6 -8 -6 -12 -1 -9 6 3 10 -7 11 -23 2 -42
-11 -36 -33 17 l-20 45 -6 -70 c-4 -38 -4 -78 -1 -88 3 -10 -3 -3 -14 16 l-19
34 -7 -59 c-5 -44 -12 -64 -29 -77 l-22 -18 28 7 c41 9 32 -11 -10 -23 l-38
-10 43 -2 c23 0 42 4 42 9 0 17 22 11 49 -12 l26 -23 -23 26 c-13 15 -19 30
-14 33 6 3 12 -1 16 -9 5 -15 28 -22 24 -7 -1 4 3 18 10 32 6 14 18 44 28 67
10 23 21 40 26 37 4 -3 11 2 14 11 5 11 10 13 19 5 8 -7 15 -7 19 -1 3 5 0 11
-6 13 -7 3 4 4 24 4 21 -1 38 -2 38 -3 0 -1 -10 -12 -22 -24 -13 -12 -17 -19
-10 -15 14 8 17 -10 2 -19 -17 -11 -11 -25 8 -18 14 5 15 4 6 -8 -6 -8 -9 -34
-6 -58 l4 -44 29 74 c16 41 29 77 29 82 0 4 -12 0 -27 -10 -27 -16 -27 -15 5
18 17 19 32 43 32 52 0 27 27 74 52 91 37 27 44 18 10 -12 -28 -22 -35 -37
-42 -87 -5 -33 -18 -84 -29 -113 -30 -75 -25 -89 5 -17 27 62 54 103 35 52
-16 -41 -13 -54 5 -31 15 18 15 18 9 -11 l-6 -30 35 40 c20 22 35 43 36 48 0
4 5 7 10 7 13 0 -6 -34 -42 -78 -16 -18 -28 -38 -28 -45 0 -6 8 0 17 13 9 14
34 44 55 67 21 24 38 48 38 54 0 7 3 10 6 7 3 -3 -1 -21 -9 -41 l-15 -34 47
24 46 25 -39 -36 c-42 -39 -42 -46 2 -19 22 14 20 9 -13 -27 -22 -25 -31 -37
-19 -27 11 9 25 17 31 17 6 0 16 7 23 16 8 8 23 20 34 26 12 5 1 -8 -23 -31
l-44 -41 41 14 c22 8 54 21 70 30 17 9 37 16 44 16 7 -1 -14 -14 -46 -30 -32
-15 -68 -37 -78 -48 -14 -14 -1 -10 49 14 37 18 84 35 103 38 38 5 39 6 -51
-31 -19 -8 -49 -25 -65 -38 l-29 -25 50 24 c51 24 66 29 120 41 43 9 20 -8
-40 -30 -27 -10 -76 -36 -107 -58 -61 -42 -82 -65 -25 -27 53 36 140 72 182
77 35 3 30 0 -30 -22 -38 -14 -74 -30 -80 -36 -7 -8 -4 -8 12 0 28 14 55 15
33 1 -25 -16 7 -12 80 10 70 21 130 26 130 10 0 -5 -16 -10 -34 -10 -38 0
-193 -53 -222 -76 -12 -8 0 -6 30 6 56 23 75 20 24 -4 -18 -9 -46 -28 -63 -42
-25 -21 -26 -22 -4 -10 14 9 48 18 75 21 l49 5 -57 -17 c-66 -21 -89 -38 -38
-30 19 3 53 2 75 -2 l40 -9 -45 -1 c-67 -2 -88 -20 -25 -22 l50 -2 -60 -12
-60 -13 87 1 c48 0 91 -2 94 -6 4 -4 -21 -7 -56 -7 -72 0 -74 -7 -3 -20 l48
-9 -62 2 c-59 2 -72 -5 -28 -16 11 -3 -5 -5 -35 -6 l-55 -2 54 -19 c65 -24 78
-34 31 -25 -19 3 -46 2 -59 -2 -20 -8 -16 -11 38 -28 34 -10 61 -22 61 -27 0
-5 -8 -7 -17 -5 -10 3 -40 8 -68 11 l-50 5 40 -14 c22 -7 47 -14 56 -14 8 -1
24 -8 35 -16 18 -14 17 -14 -9 -5 -42 15 -57 11 -19 -6 36 -16 44 -28 10 -15
-33 12 -118 22 -93 11 13 -6 15 -9 5 -9 -8 -1 2 -12 23 -26 49 -34 47 -40 -5
-15 l-43 21 25 -22 c14 -12 39 -32 55 -46 26 -21 27 -23 5 -12 -14 6 -45 25
-70 41 -44 29 -44 28 15 -28 33 -31 53 -53 45 -49 -8 5 -40 24 -70 43 l-55 33
45 -42 c45 -42 42 -43 -15 -6 -24 15 -21 11 13 -23 23 -23 42 -44 42 -48 0 -3
-5 -1 -12 6 -15 15 -31 16 -22 0 4 -7 3 -8 -5 -4 -6 4 -9 11 -6 16 3 4 -12 20
-33 36 -34 25 -35 25 -16 3 12 -13 22 -37 22 -52 l0 -29 -32 31 c-20 20 -36
27 -44 22 -11 -7 -8 -19 13 -62 30 -59 23 -60 -9 -2 -26 45 -59 55 -50 15 4
-23 1 -21 -16 11 -11 20 -22 37 -24 37 -2 0 2 -21 10 -47 21 -69 16 -86 -7
-26 -25 65 -42 69 -37 8 4 -50 -5 -48 -20 5 -6 21 -11 27 -11 15 -1 -11 -6
-27 -12 -35 -8 -12 -9 -10 -4 8 4 12 2 22 -4 22 -5 0 -12 -12 -14 -27 -2 -18
-5 -9 -6 22 -2 28 -5 44 -8 36 -4 -10 -7 -10 -13 -1 -5 8 -14 -7 -25 -39 -9
-28 -18 -51 -20 -51 -2 0 -3 27 -1 61 l2 61 -24 -39 c-13 -21 -21 -29 -18 -18
22 83 21 84 -23 35 -23 -25 -37 -35 -31 -23 5 12 14 33 20 48 9 24 7 23 -28
-11 -20 -20 -50 -43 -67 -51 -25 -13 -23 -9 13 22 23 20 47 46 53 58 11 20 11
20 -22 -1 -74 -47 -100 -57 -108 -43 -5 8 -14 10 -20 7 -6 -4 -11 -5 -11 -2 0
2 27 21 60 41 33 20 60 38 60 41 0 2 -27 -9 -59 -26 -62 -31 -155 -51 -185
-40 -15 5 -16 8 -4 17 7 6 22 13 33 15 11 2 -6 4 -37 5 -39 0 -55 -3 -51 -11
4 -6 -1 -5 -10 3 -24 19 -10 34 26 27 34 -7 140 24 192 56 35 21 30 23 -16 5
-19 -7 -58 -13 -86 -13 -57 1 -75 -13 -20 -15 l32 -1 -40 -13 c-36 -11 -44
-10 -80 8 -22 11 -67 28 -100 38 -33 10 -51 18 -40 18 24 0 92 -13 120 -24 14
-5 17 -5 10 2 -16 16 -76 33 -136 38 -30 2 -48 2 -41 -1 6 -3 12 -12 12 -20 0
-7 12 -17 28 -20 15 -4 33 -11 40 -17 8 -6 30 -11 50 -12 26 0 37 -5 37 -15 0
-8 -7 -13 -15 -11 -8 2 -28 5 -44 7 -16 2 -34 8 -40 13 -18 14 -59 25 -52 13
3 -6 1 -14 -5 -18 -7 -4 -9 -3 -5 4 4 7 -6 10 -26 10 -18 0 -42 1 -53 2 -17 2
-17 3 5 11 35 12 -73 1 -125 -13 -22 -6 -50 -12 -63 -14 -21 -2 -92 -49 -92
-60 0 -2 12 -2 28 1 26 5 26 5 5 -6 -13 -7 -23 -16 -23 -21 0 -5 13 -2 30 7
17 9 55 15 92 15 90 0 167 -39 232 -116 48 -57 48 -58 8 -20 -23 22 -51 41
-64 42 -33 5 -49 9 -81 22 -35 15 -40 15 -32 2 3 -5 1 -10 -4 -10 -6 0 -11 5
-11 11 0 8 -22 9 -72 5 -102 -8 -113 -10 -111 -23 2 -7 -14 -16 -35 -20 -50
-10 -52 -10 -54 -13 -2 -1 -13 -4 -25 -5 -15 -2 -20 2 -16 12 3 9 -16 -1 -42
-22 -27 -20 -68 -46 -91 -57 -23 -10 -45 -26 -48 -34 -3 -8 -11 -14 -17 -14
-21 0 19 36 68 61 39 20 163 128 163 142 0 2 -20 10 -46 17 -49 14 -52 13
-146 -84 -15 -15 -28 -24 -28 -20 0 5 26 35 58 68 63 65 52 66 -17 2 -24 -23
-49 -40 -55 -38 -7 1 -21 -8 -32 -20 -19 -23 -19 -23 2 -6 28 25 41 23 19 -2
-10 -12 -24 -19 -31 -16 -14 5 -84 -56 -108 -95 -9 -14 -14 -34 -10 -43 3 -9
1 -16 -6 -16 -6 0 -8 6 -5 12 4 7 0 4 -9 -6 -8 -10 -13 -23 -9 -29 3 -6 2 -7
-4 -4 -5 3 -23 -12 -39 -33 -16 -22 -33 -40 -38 -40 -4 0 -28 -13 -52 -30 -24
-16 -44 -26 -44 -22 0 4 9 13 21 20 42 27 11 21 -42 -7 -30 -16 -70 -32 -89
-35 -25 -5 -17 1 30 21 68 29 124 63 116 70 -2 2 -21 -6 -43 -20 -47 -29 -64
-36 -132 -52 -47 -11 -56 -11 -69 2 -10 10 -18 11 -25 4 -23 -23 -27 -9 -7 21
l22 33 -32 -34 c-22 -23 -35 -30 -39 -22 -4 6 -15 9 -24 5 -13 -5 -16 -2 -11
10 4 9 1 16 -6 16 -7 0 -10 7 -6 15 8 23 -11 18 -28 -7 -19 -27 -32 -18 -16
11 7 14 7 21 0 21 -5 0 -10 -4 -10 -9 0 -5 -11 -19 -24 -32 -19 -18 -22 -28
-16 -55 4 -19 17 -50 29 -70 12 -19 19 -40 16 -44 -3 -5 2 -22 11 -37 10 -18
11 -22 2 -11 -14 17 -16 17 -34 -3 -19 -21 -19 -22 4 -15 13 5 22 3 22 -3 0
-6 -4 -11 -10 -11 -5 0 -7 -7 -3 -16 3 -9 9 -12 12 -7 3 4 12 9 20 11 14 3 22
10 116 96 28 26 67 56 88 67 46 24 49 18 5 -8 -48 -29 -205 -169 -219 -196
-11 -20 -10 -20 24 6 55 42 68 32 17 -14 l-45 -41 40 23 c22 12 58 36 80 52
32 23 29 19 -16 -24 -74 -71 -96 -103 -41 -60 l43 33 -18 -35 c-10 -19 -21
-33 -24 -31 -4 2 -18 -5 -30 -17 -13 -11 -18 -18 -12 -14 7 3 22 8 33 10 11 2
33 13 49 24 16 12 33 21 37 21 4 0 19 10 33 23 14 12 20 14 13 5 -7 -9 -38
-35 -68 -59 -30 -23 -52 -44 -49 -47 3 -3 -1 -12 -8 -20 -8 -10 2 -8 30 7 62
31 65 26 8 -13 -28 -18 -54 -32 -60 -29 -5 2 -2 -2 8 -10 25 -21 21 -27 -15
-27 -31 -1 -32 -1 -14 -15 19 -14 18 -15 -10 -15 -28 -1 -28 -1 -10 -15 20
-15 20 -15 0 -15 -18 -1 -18 -2 4 -19 36 -31 25 -36 -13 -7 -22 17 -32 21 -29
11 3 -8 9 -15 13 -15 4 0 13 -12 20 -27 l13 -28 -24 20 c-12 11 -17 13 -10 5
13 -15 17 -34 4 -26 -4 2 -8 -4 -8 -14 0 -10 5 -18 11 -17 5 1 10 -5 10 -13 0
-8 -7 -14 -16 -14 -19 2 -15 -28 8 -61 23 -35 14 -36 -17 -3 l-30 33 16 -55
c9 -30 18 -58 20 -62 2 -4 0 -9 -6 -13 -5 -3 -10 3 -10 14 0 11 -3 22 -7 24
-10 6 -9 -138 1 -181 6 -25 4 -32 -8 -32 -8 0 -17 12 -20 28 -2 15 -3 -8 -2
-50 3 -68 1 -76 -11 -60 -13 15 -14 14 -9 -14 3 -18 8 -45 11 -60 l6 -29 -15
30 -14 30 -2 -55 -2 -55 -13 35 -13 35 -1 -37 c-1 -26 -6 -38 -15 -38 -8 0
-17 -6 -19 -12 -3 -7 -6 7 -7 32 l-1 45 -15 -35 c-11 -26 -17 -31 -24 -21 -4
8 -6 20 -4 26 3 7 -2 15 -11 19 -13 5 -15 1 -11 -17 3 -12 3 -16 0 -8 -5 11
-8 11 -15 0 -5 -9 -7 4 -4 31 3 25 2 59 -4 75 -5 17 -10 22 -10 13 -1 -10 -5
-18 -10 -18 -12 0 -21 91 -14 136 5 29 3 35 -7 29 -10 -6 -12 -1 -7 23 4 18 9
47 12 64 5 33 5 33 -15 -7 -19 -38 -20 -30 -5 24 5 16 4 21 -4 17 -15 -9 -14
-2 4 41 23 54 17 54 -11 0 -13 -26 -27 -47 -29 -47 -3 0 1 12 8 28 8 15 17 41
20 57 5 21 -1 15 -19 -22 -15 -29 -30 -53 -34 -53 -4 0 3 21 16 47 31 61 31
82 -1 46 l-25 -28 17 35 c9 19 23 49 31 65 l15 30 -29 -25 c-16 -14 -23 -18
-16 -10 18 21 15 34 -5 19 -10 -7 -2 5 17 26 21 24 25 32 10 20 l-24 -20 18
28 17 28 -23 -15 c-13 -8 -29 -12 -36 -8 -8 6 3 17 34 37 63 40 66 51 4 20
-28 -14 -59 -24 -68 -22 -12 3 -10 5 6 6 12 0 22 5 22 10 0 5 12 12 28 16 25
7 24 9 -23 21 -33 9 -39 12 -18 10 18 -1 30 1 27 6 -3 4 -12 8 -20 8 -8 0 -13
4 -9 9 3 5 -5 12 -17 14 -15 3 -8 5 17 7 l40 2 -55 19 -55 19 45 -5 45 -6 -33
21 c-18 11 -30 25 -27 30 3 5 -4 14 -16 20 -11 7 -18 14 -16 17 3 2 17 -3 32
-13 20 -13 23 -19 13 -26 -9 -7 -8 -8 5 -4 10 3 26 6 34 6 9 0 -3 14 -26 31
-24 17 -40 33 -37 36 3 4 14 -1 23 -9 37 -31 47 -30 15 2 -38 38 -35 52 4 21
15 -11 31 -21 37 -21 10 0 -9 20 -83 83 l-45 39 54 -36 c71 -48 85 -46 23 4
-60 47 -74 65 -38 49 14 -7 23 -16 20 -20 -2 -4 4 -13 15 -18 25 -14 34 -14
26 -1 -4 6 1 7 11 3 11 -4 15 -3 10 5 -3 6 -2 13 4 17 5 3 10 1 10 -4 0 -6 5
-11 10 -11 6 0 10 10 10 21 0 18 2 19 15 9 12 -10 15 -10 15 1 0 7 9 22 20 34
23 25 44 85 29 85 -5 0 -9 -10 -9 -22 0 -13 -7 -32 -15 -42 -8 -11 -15 -15
-15 -9 0 7 5 15 11 18 6 4 8 13 5 21 -3 7 4 34 15 60 11 25 19 48 16 50 -2 3
-10 -8 -16 -25 -7 -16 -26 -42 -44 -57 l-31 -29 22 29 c12 16 22 35 22 42 0 8
4 14 9 14 17 0 23 40 11 76 -9 27 -15 32 -25 24 -7 -6 -11 -19 -8 -29 3 -10
-5 -28 -19 -42 -13 -14 -20 -20 -15 -15 4 6 7 17 7 25 0 11 -5 9 -20 -7 -12
-12 -26 -22 -33 -21 -9 0 -9 2 0 5 7 3 9 12 6 20 -3 8 1 14 10 14 8 0 20 6 26
14 12 15 5 46 -11 46 -6 0 -5 -6 2 -15 10 -13 8 -21 -3 -12 -2 1 -11 -4 -20
-11 -9 -8 -20 -11 -24 -9 -5 3 -33 -5 -63 -19 -30 -13 -63 -23 -74 -24 -10 0
-52 16 -93 35 -41 19 -79 35 -83 35 -5 0 -22 12 -39 26 -17 14 -31 21 -31 15
0 -6 11 -18 25 -27 34 -22 23 -31 -12 -10 l-28 17 23 -20 c13 -11 36 -30 50
-41 26 -21 26 -21 2 -9 -82 40 -139 102 -146 157 -4 31 -21 82 -28 82 -2 0 -2
-9 1 -20 8 -29 -6 -25 -17 5 -5 14 -26 35 -46 47 -22 13 -31 24 -24 28 7 4 -3
15 -27 29 -38 21 -38 21 -13 0 15 -13 25 -33 26 -50 1 -32 -8 -31 -13 2 -4 26
-54 70 -72 63 -8 -2 -22 3 -32 12 -21 19 -26 39 -6 28 8 -5 8 -2 -2 9 -15 18
-26 23 -16 7 3 -5 2 -10 -4 -10 -6 0 -15 9 -21 20 -6 11 -15 20 -21 20 -5 0
-2 -12 7 -27 l16 -28 -25 28 c-14 15 -31 27 -37 27 -6 0 16 -31 50 -69 41 -46
70 -71 90 -75 17 -3 30 -10 30 -15 0 -6 -12 -6 -30 -1 l-31 9 22 -35 c12 -19
19 -38 15 -41 -3 -3 -8 2 -12 11 -3 9 -10 14 -14 11 -5 -3 -11 3 -14 13 -4 11
-18 24 -32 31 -15 6 -24 14 -21 18 4 3 2 15 -4 26 -8 15 -8 18 1 12 8 -5 11
-3 8 6 -3 8 -12 14 -20 14 -8 0 -32 14 -54 30 l-38 29 28 -37 c16 -20 25 -37
22 -37 -4 0 5 -11 19 -25 30 -30 34 -46 5 -20 -11 10 -20 14 -20 9 0 -5 -7 -1
-14 9 -13 17 -15 17 -31 -5 -10 -13 -15 -16 -12 -6 6 18 -21 29 -55 23 -17 -4
-18 -2 -6 12 12 15 10 16 -14 9 -16 -3 -28 -2 -28 3 0 5 -13 11 -29 13 -17 2
-28 1 -25 -4 3 -4 0 -8 -5 -8 -6 0 -11 3 -11 8 0 4 -13 7 -29 7 -16 0 -27 -3
-25 -6 2 -4 -4 -9 -14 -12 -9 -2 -26 -8 -37 -12 -11 -3 -7 1 8 10 15 9 25 20
22 25 -11 18 -60 10 -99 -16 -27 -19 -40 -23 -46 -15 -5 8 -18 0 -39 -26 -30
-36 -31 -37 -19 -8 6 17 23 43 37 59 l26 29 -32 -22 c-18 -12 -35 -26 -38 -31
-3 -5 -20 -19 -38 -30 -19 -13 -7 3 30 38 48 47 74 64 125 80 104 34 140 36
194 13 26 -12 48 -20 50 -18 2 1 -8 16 -22 32 -14 17 -22 23 -18 15 6 -12 4
-12 -12 1 -10 9 -26 20 -34 24 -13 8 -13 7 0 -10 14 -17 13 -18 -25 -11 -22 4
-71 21 -110 36 -38 16 -61 23 -51 15 11 -8 15 -15 9 -15 -5 0 -18 9 -28 20
-11 13 -29 19 -49 19 -27 -2 -28 -2 -6 -6 31 -6 46 -18 22 -19 -24 -1 -173
-31 -194 -39 -32 -12 -19 6 15 21 45 21 77 40 90 53 6 6 27 11 47 11 31 0 56
-5 145 -25 11 -3 2 4 -20 14 -42 20 -192 30 -181 12 3 -5 -18 -15 -47 -22 -32
-8 -45 -15 -33 -17 16 -3 14 -7 -13 -18 -18 -8 -43 -11 -56 -8 -13 3 -26 0
-30 -6 -5 -9 -1 -10 15 -5 15 5 20 4 16 -4 -4 -6 0 -11 10 -11 29 0 9 -10 -32
-16 -93 -13 -167 -15 -194 -5 -39 13 -38 6 3 -19 17 -11 25 -20 17 -20 -8 0
-31 10 -50 22 -19 12 -44 27 -55 33 -11 6 -33 20 -50 30 -18 11 -9 -2 25 -34
53 -50 42 -54 -25 -7 -16 11 -25 13 -18 5 7 -8 8 -20 4 -28 -6 -9 -11 -10 -15
-2 -4 6 -17 16 -28 22 l-21 12 21 -37 c25 -43 20 -46 -14 -9 l-24 26 15 -36
c21 -51 19 -68 -5 -29 -11 17 -25 32 -31 32 -11 0 -10 -9 5 -55 4 -11 -4 0
-19 25 l-25 45 4 -45 4 -45 -14 33 c-18 40 -28 41 -22 3 2 -17 1 -28 -4 -25
-4 3 -8 14 -8 24 0 13 -5 17 -15 14 -9 -4 -15 0 -16 7 -1 8 -5 3 -9 -11 -8
-24 -8 -24 -9 -2 -1 32 -21 27 -22 -5 -1 -21 -4 -17 -11 17 -10 41 -11 43 -21
23 -11 -24 -30 -33 -21 -10 3 8 -2 14 -11 14 -8 0 -15 -4 -15 -9 0 -4 -4 -8
-10 -8 -5 0 -7 8 -3 18 3 9 -20 -10 -52 -43 -61 -64 -62 -59 -1 18 40 50 41
60 4 27 -58 -51 -112 -93 -97 -75 9 11 19 28 22 38 6 15 4 16 -16 7 -20 -10
-20 -10 2 8 14 11 30 18 37 15 7 -2 15 0 19 6 4 7 0 8 -12 4 -12 -5 -7 7 16
37 34 43 34 44 5 19 -16 -14 -51 -43 -79 -64 l-50 -39 49 54 c27 30 60 65 73
78 40 37 21 34 -33 -4 -27 -20 -58 -40 -69 -45 -12 -6 -10 -2 5 8 14 10 38 30
55 46 l30 28 -45 -24 c-25 -13 -57 -31 -72 -41 -16 -10 -28 -16 -28 -13 0 3
39 33 88 67 89 63 81 71 -18 19 -52 -27 -50 -23 16 29 l29 22 -35 -13 c-19 -8
-41 -12 -49 -9 -9 3 -11 0 -6 -8 6 -9 4 -11 -5 -5 -10 6 -9 11 5 22 23 16 2
17 -28 1 -19 -10 -20 -9 -9 4 7 9 24 19 39 23 14 3 23 8 21 11 -3 2 -41 -9
-84 -26 -112 -44 -113 -44 -76 -21 19 12 63 33 98 47 35 15 62 30 59 34 -3 5
5 6 17 4 13 -2 17 -1 9 2 -10 5 -6 10 15 19 26 11 21 12 -46 9 -46 -2 -70 0
-61 5 8 5 32 8 54 6 21 -1 33 1 27 5 -7 4 -10 12 -7 17 7 10 -97 -2 -116 -14
-6 -3 -7 -1 -3 5 4 7 15 12 24 12 9 1 28 7 42 15 27 14 21 20 -30 28 -18 3
-14 5 15 7 l40 3 -50 7 -50 7 49 1 c61 2 52 14 -17 23 -50 6 -49 6 23 8 71 2
74 2 50 16 l-25 15 30 -6 c17 -4 50 -16 74 -26 35 -15 41 -15 31 -3 -7 8 -16
15 -21 15 -17 0 -99 56 -93 63 4 4 -2 7 -14 7 -12 0 -22 4 -22 9 0 13 51 0 57
-15 3 -8 12 -14 19 -14 8 0 33 -9 54 -20 22 -11 40 -18 40 -15 0 5 -68 50
-110 72 -14 7 -18 13 -10 13 8 -1 26 -7 40 -15 39 -22 49 -17 12 7 -32 20
-111 44 -180 55 -18 3 -34 9 -37 13 -7 12 62 33 91 27 13 -2 24 0 24 4 0 5 8
9 18 9 15 0 15 -2 2 -11 -12 -8 -11 -9 6 -4 12 3 41 -2 63 -11 23 -9 44 -14
47 -12 7 8 -111 58 -158 67 -31 6 -36 9 -18 11 14 1 29 2 35 0 5 -1 23 -2 40
-2 16 -1 35 -6 40 -13 6 -6 34 -21 64 -33 39 -16 50 -18 41 -7 -7 8 -18 15
-25 15 -7 0 -18 7 -25 15 -8 9 -21 13 -34 10 -17 -5 -18 -4 -6 4 13 9 12 12
-6 17 -12 3 -43 16 -70 29 l-49 24 50 -5 c28 -2 65 -9 83 -15 53 -18 59 -4 8
20 -26 13 -45 25 -42 28 8 8 134 -56 139 -71 3 -8 16 -20 29 -27 22 -12 23
-11 6 8 -21 23 -24 37 -5 27 6 -4 3 2 -7 14 -22 25 -15 42 9 22 8 -7 15 -9 15
-4 -1 13 -56 84 -62 79 -3 -3 -13 5 -24 17 l-19 23 23 -19 c12 -11 22 -14 22
-8 0 6 -4 14 -10 17 -5 3 -10 12 -10 18 0 7 9 1 20 -13 24 -30 25 -24 5 23 -8
20 -14 51 -14 69 1 28 3 25 13 -19 6 -30 26 -71 45 -97 38 -51 46 -56 38 -26
-7 29 -2 25 23 -15 12 -20 28 -42 35 -49 8 -7 23 -28 34 -47 12 -19 21 -31 21
-28 0 14 -32 82 -60 128 -17 26 -30 54 -30 62 0 8 21 -21 47 -63 26 -42 49
-75 51 -73 2 2 -1 13 -8 24 -18 34 -3 24 26 -16 14 -21 23 -29 19 -18 -4 11
-8 25 -8 32 0 7 -5 10 -10 6 -5 -3 -6 3 -3 15 4 11 2 23 -3 26 -6 4 -8 14 -5
24 5 14 4 14 -4 3 -10 -14 -15 -2 -36 92 -11 46 -24 30 -15 -18 10 -52 25 -85
48 -102 9 -6 13 -14 10 -17 -15 -16 -49 34 -64 93 -9 36 -24 71 -33 79 -16 13
-16 13 1 8 9 -3 17 -1 17 4 0 5 8 7 18 4 14 -5 15 -4 2 5 -8 6 -24 11 -35 12
-16 0 -14 3 8 11 22 8 32 7 45 -5 9 -8 22 -13 28 -10 6 2 16 -8 22 -22 15 -33
15 -48 1 -39 -7 4 -10 1 -7 -7 3 -8 11 -13 18 -11 10 2 11 0 2 -10 -7 -9 -7
-25 -1 -48 l9 -35 -4 37 c-4 31 -2 36 12 31 9 -3 23 -10 29 -16 9 -7 13 -5 13
6 0 9 5 19 12 23 6 4 8 3 4 -4 -3 -6 4 -18 16 -26 22 -16 48 -22 35 -9 -4 3 1
12 10 18 14 11 20 10 30 -4 7 -9 12 -11 12 -6 1 6 -8 21 -19 35 l-19 25 -28
-25 c-21 -20 -20 -16 7 16 19 22 40 38 45 36 6 -3 7 -2 3 3 -4 4 -3 16 2 26
26 48 7 154 -28 154 -7 0 -17 7 -22 15 -18 28 -10 0 11 -42 15 -30 19 -50 14
-75 -7 -36 -44 -83 -67 -83 -7 0 -2 7 10 16 33 23 54 69 46 101 -13 54 -62
112 -104 124 -22 7 -40 18 -40 26 0 17 -79 17 -148 -1 -29 -7 -55 -10 -57 -6
-9 14 74 30 161 31 l89 1 -55 15 c-44 12 -68 13 -121 4 -37 -6 -75 -14 -85
-18 -11 -3 -16 -3 -12 2 4 4 43 18 85 31 l78 23 -62 0 c-49 1 -63 4 -63 16 0
8 -9 15 -21 15 -11 0 -18 4 -14 10 3 5 11 7 18 5 7 -2 53 -6 102 -8 54 -4 79
-2 63 3 -32 9 -147 19 -236 20 -40 0 -61 4 -57 10 3 6 35 10 70 10 67 0 95 6
95 22 0 5 -29 8 -65 7 -36 -1 -69 1 -73 5 -4 5 0 7 8 6 58 -8 62 14 5 24 -16
2 6 3 50 2 48 -2 70 0 55 4 -14 5 -40 8 -59 9 -38 1 -111 20 -126 33 -10 9 43
2 89 -13 16 -5 41 -9 55 -9 21 0 23 2 11 10 -17 12 21 6 74 -11 16 -5 43 -9
60 -8 25 1 18 5 -34 21 -36 11 -69 24 -75 29 -12 12 42 6 79 -10 41 -17 44 -6
5 15 -18 9 -40 23 -48 32 -22 21 -39 77 -34 105 4 19 -3 30 -26 46 -17 12 -36
32 -42 44 l-10 22 18 -21 c22 -27 57 -38 79 -26 14 8 13 12 -9 38 -13 16 -27
39 -31 52 -4 12 -11 22 -16 22 -8 0 -16 32 -25 103 -11 84 -63 207 -87 207 -7
0 -6 -6 4 -17 15 -19 38 -69 38 -81 -1 -8 -47 78 -50 93 -5 21 -66 93 -139
163 l-76 74 70 -57 c39 -31 79 -67 89 -78 18 -21 19 -21 11 -2 -4 11 -9 36
-10 56 -1 20 -6 42 -9 48 -4 6 -3 11 2 11 6 0 5 10 -1 24 -8 17 -15 22 -24 15
-8 -7 -10 -5 -6 10 3 13 -5 34 -24 58 -49 62 -57 92 -11 38 69 -80 152 -155
166 -150 7 3 11 1 7 -4 -9 -16 35 -80 51 -74 12 4 11 9 -3 33 -9 16 -21 28
-27 27 -6 -1 -10 5 -8 14 1 9 -5 22 -13 29 -13 11 -14 10 -9 -6 5 -13 -5 -8
-29 15 -37 35 -44 59 -7 26 38 -35 20 -9 -22 30 -32 31 -38 34 -25 14 9 -15
13 -29 10 -33 -10 -10 -33 45 -25 60 13 23 133 -102 181 -188 22 -40 41 -68
41 -63 0 6 -18 43 -40 83 -22 39 -35 72 -30 72 5 0 11 8 13 18 2 9 3 6 1 -8
-1 -14 3 -32 9 -41 9 -12 12 15 14 125 1 99 -1 136 -8 126 -11 -15 -4 254 6
271 3 4 2 27 -2 51 l-7 43 -7 -40 c-4 -22 -7 -73 -8 -114 0 -40 -3 -76 -7 -80
-11 -11 3 372 15 403 15 36 25 28 11 -8 -7 -20 -7 -25 2 -20 8 5 9 2 4 -11
-19 -51 -26 -109 -15 -119 8 -8 10 -8 6 0 -3 6 1 35 9 65 27 95 27 96 15 79
-10 -13 -11 -13 -11 0 0 8 5 22 10 30 8 13 10 13 10 0 0 -8 21 26 46 75 25 50
51 96 57 104 7 9 8 12 1 9 -16 -10 -94 -145 -95 -165 0 -16 -1 -15 -8 2 -5 11
-5 25 -1 30 8 10 25 41 71 123 l21 37 -25 -26 c-25 -26 -81 -110 -80 -119 1
-3 -12 -30 -28 -60 -15 -30 -28 -50 -29 -43 0 6 9 28 19 50 11 21 31 63 45 94
14 30 37 66 51 79 13 12 22 27 19 31 -3 5 -1 9 4 9 5 0 12 8 16 18 3 9 10 27
16 40 6 15 6 21 0 17 -6 -3 -10 -10 -10 -15 0 -8 -66 -80 -74 -80 -3 0 11 26
30 57 42 70 45 93 4 32 -36 -53 -100 -124 -100 -110 0 6 13 25 29 43 15 18 34
44 41 58 11 22 8 21 -26 -10 -35 -31 -34 -30 7 15 45 49 84 105 74 105 -3 0
-24 -17 -47 -37 l-42 -38 29 40 c42 59 107 125 117 119 4 -3 5 2 2 11 -6 14
-14 10 -45 -21 -22 -21 -39 -33 -39 -28 0 6 12 21 26 35 29 27 84 107 84 122
0 6 -22 -21 -49 -59 -26 -38 -56 -75 -65 -83 -10 -9 -13 -17 -7 -20 6 -4 -12
-26 -39 -49 -27 -24 -47 -37 -44 -30 2 7 20 24 39 38 41 30 47 50 8 25 -22
-14 -20 -9 13 26 81 87 182 234 170 247 -3 3 -6 0 -6 -6 0 -7 -5 -12 -10 -12
-7 0 -7 6 0 19 7 15 7 22 -2 27 -7 4 -10 3 -5 -1 8 -10 -9 -39 -71 -114 -54
-66 -68 -81 -78 -81 -5 0 -3 5 4 12 7 7 12 18 12 26 0 20 40 73 50 67 9 -5 23
11 26 30 2 16 55 90 63 88 4 -1 8 10 9 25 2 22 -3 18 -29 -23 -30 -47 -67 -94
-140 -175 -17 -19 -35 -42 -40 -50 -4 -8 -11 -11 -15 -7 -4 4 12 27 35 51 24
25 40 49 36 55 -4 7 -1 10 7 9 8 -2 12 5 11 17 -1 11 11 36 26 55 15 19 33 46
40 60 11 23 11 24 -3 5 -42 -57 -82 -104 -89 -104 -4 -1 3 14 16 32 39 52 42
65 6 22 -18 -22 -56 -62 -82 -90 -41 -42 -44 -44 -18 -11 36 47 33 60 -6 25
-22 -20 -21 -17 5 14 18 21 29 43 26 49 -5 7 -2 8 7 3 8 -5 11 -5 7 0 -4 4 2
21 13 36 19 26 19 28 2 22 -14 -5 -13 0 7 23 14 16 31 33 38 37 6 4 12 13 12
20 0 7 -15 -4 -33 -23 -51 -57 -73 -84 -59 -76 6 4 12 3 12 -1 0 -18 -25 -33
-56 -33 -18 0 -49 -9 -68 -21 -52 -30 -67 -18 -20 16 65 49 88 76 72 87 -10 6
-8 8 6 6 13 -2 34 17 69 62 l51 65 -50 -46 c-27 -25 -79 -60 -116 -77 -89 -42
-98 -40 -19 4 35 19 70 41 77 49 8 7 17 15 21 17 5 2 21 18 38 36 22 25 25 31
11 26 -14 -5 -17 -4 -12 4 4 7 16 12 27 12 10 0 19 5 19 10 0 16 -13 12 -65
-23 -47 -32 -111 -54 -99 -36 3 5 9 9 14 9 10 0 110 61 110 67 0 2 -9 -1 -20
-7 -11 -6 -26 -8 -32 -4 -7 4 -8 3 -4 -4 5 -8 2 -10 -8 -6 -23 9 -20 12 24 24
39 11 54 27 25 27 -8 0 -11 -5 -8 -11 3 -6 0 -5 -7 1 -12 11 -11 16 6 29 10 8
14 13 8 10 -22 -11 -94 -24 -94 -17 0 5 18 13 41 20 23 7 38 15 35 18 -3 3
-19 1 -35 -5 -19 -7 -33 -7 -36 -1 -4 5 0 9 8 9 8 0 25 9 38 20 l24 20 -35 -6
c-19 -3 -43 -7 -52 -9 -11 -2 -15 2 -11 11 3 8 8 12 12 10 3 -2 24 7 46 20 43
26 41 33 -3 10 -34 -17 -92 -28 -92 -18 0 4 19 13 43 19 23 7 51 18 62 26 18
14 14 15 -45 12 -36 -1 -81 -6 -100 -9 -27 -5 -23 -2 20 16 l55 23 -55 4 -55
4 69 11 c53 8 70 15 72 29 2 13 -6 17 -34 19 -36 1 -36 1 8 8 30 5 37 8 20 10
-22 2 -20 4 10 11 25 5 13 7 -40 4 -74 -4 -75 -4 -21 6 61 10 77 18 40 20 -13
1 -40 2 -59 3 -19 1 -52 -3 -74 -11 -49 -17 -55 -16 -31 1 11 7 35 17 52 20
54 12 51 28 -3 22 l-49 -6 38 15 c24 9 46 11 60 6 12 -4 42 -11 67 -15 54 -7
34 8 -24 18 -21 4 -50 12 -65 18 l-26 11 25 7 c40 13 -100 -2 -152 -15 -27 -7
-48 -11 -48 -9 0 12 54 26 164 43 116 17 132 18 197 4 39 -8 73 -12 76 -10 2
3 -25 15 -61 27 -71 23 -87 35 -33 25 l32 -6 -25 16 c-25 16 -25 16 15 10 l40
-6 -33 22 c-18 12 -31 24 -28 26 3 3 15 -2 28 -11 36 -25 46 -18 13 9 -32 26
-28 33 8 13 20 -10 21 -10 8 5 -7 10 -19 17 -26 17 -7 0 -19 7 -26 17 -13 15
-12 15 6 6 11 -6 38 -18 60 -28 22 -10 47 -23 56 -29 8 -6 -5 9 -30 33 l-46
43 38 -21 c50 -28 47 -19 -8 19 -25 17 -45 37 -45 45 0 8 -5 15 -11 15 -5 0
-7 -4 -4 -10 4 -6 -1 -7 -11 -3 -12 4 -14 8 -5 11 9 3 8 9 -5 23 -18 21 -6 27
14 7 7 -7 12 -9 12 -4 0 4 15 -3 33 -15 31 -22 31 -21 -8 21 -22 24 -33 38
-24 32 9 -7 23 -11 30 -10 7 2 13 -4 14 -12 0 -8 8 -15 17 -15 9 0 20 -4 25
-9 5 -5 2 -6 -7 -1 -13 8 -13 7 -1 -8 8 -10 16 -15 19 -12 3 3 13 -2 23 -11 9
-8 23 -16 31 -18 7 -1 20 -6 28 -11 13 -8 13 -7 1 8 -7 9 -18 14 -23 11 -5 -3
-12 3 -15 15 -3 12 -11 21 -17 21 -7 0 -23 12 -37 27 -22 25 -22 26 -1 9 38
-32 34 -12 -5 25 -26 24 -34 28 -29 14 4 -11 5 -17 3 -15 -2 3 -26 29 -53 59
-46 52 -47 53 -11 27 20 -16 37 -25 37 -20 0 5 23 -14 52 -41 l51 -50 -38 48
c-20 26 -35 47 -32 47 3 0 27 -21 53 -47 l46 -48 -31 41 c-17 23 -31 46 -31
51 0 4 -16 26 -35 48 -73 82 -54 77 36 -10 70 -68 82 -71 19 -5 -3 3 -13 16
-24 30 -10 14 11 -6 48 -45 41 -43 64 -76 60 -85 -3 -8 -2 -11 2 -7 4 4 18
-11 32 -34 13 -22 26 -38 29 -35 3 3 0 12 -7 21 -7 8 -9 15 -5 15 4 0 3 6 -2
13 -5 6 -10 23 -11 37 l-1 25 14 -25 c11 -20 14 -21 15 -7 0 10 4 16 9 12 6
-3 7 9 4 31 -7 45 11 39 21 -6 3 -18 10 -29 16 -25 6 3 13 -1 17 -10 5 -15 7
-15 14 -2 6 10 0 35 -16 71 -14 31 -23 56 -20 56 2 0 18 -27 36 -60 18 -33 34
-59 36 -57 8 8 -27 98 -60 156 -21 34 -37 64 -37 67 0 2 -11 23 -25 47 l-26
42 32 -35 31 -35 -32 60 c-22 42 -26 52 -11 35 20 -23 20 -21 -4 35 -20 48
-21 55 -6 36 l19 -25 -4 30 -5 29 16 -30 15 -30 -4 30 c-3 17 -8 38 -11 48 -4
10 -3 17 4 17 6 0 11 -5 11 -11 0 -27 28 22 39 69 7 28 15 52 17 52 2 0 1 -26
-2 -59 -11 -102 0 -138 88 -283 106 -174 145 -259 160 -349 11 -72 12 -73 24
-44 13 29 13 30 14 5 1 -22 3 -21 15 10 l13 35 1 -30 c1 -24 3 -27 12 -15 14
21 1 -64 -17 -110 l-14 -35 21 24 c11 14 23 37 26 53 3 15 10 28 15 28 6 0 8
-10 5 -21 -3 -12 -2 -18 2 -13 18 20 31 80 31 142 0 47 3 63 11 55 14 -14 31
-80 30 -115 0 -15 4 -30 8 -33 5 -2 9 1 8 8 -1 36 4 46 19 40 13 -5 15 -2 9
17 -5 15 -4 20 4 16 7 -5 9 -1 5 8 -3 9 -2 16 4 16 5 0 12 9 15 20 3 11 0 20
-6 20 -8 0 -8 3 0 11 8 8 8 20 1 40 -12 36 -3 79 17 79 8 0 30 -14 47 -31 30
-28 33 -29 45 -13 12 17 13 17 14 -2 0 -10 7 2 14 28 7 25 11 68 9 95 l-4 48
20 -40 20 -40 -4 60 c-4 40 -15 79 -35 118 -17 33 -24 54 -15 46 25 -21 54
-85 67 -151 9 -43 17 -62 29 -64 12 -1 15 3 11 14 -4 12 -3 14 5 7 6 -6 13
-20 15 -32 5 -36 17 -39 17 -5 0 18 5 32 11 32 6 0 9 -7 5 -15 -3 -8 -3 -21 0
-29 5 -12 10 -12 31 -1 20 11 29 11 51 -1 23 -12 30 -11 60 6 41 24 124 27
146 5 17 -17 30 -20 21 -4 -4 5 0 18 8 27 23 25 53 103 52 135 -1 16 4 27 12
27 7 0 13 5 13 11 0 5 -4 7 -10 4 -6 -4 -11 6 -11 22 -1 15 -2 41 -3 56 -1 16
2 31 6 33 4 3 8 -8 8 -25 0 -16 5 -33 11 -37 8 -4 9 1 4 17 -7 22 -6 23 9 10
16 -13 16 -12 4 15 -7 16 -17 32 -21 35 -5 4 -5 9 1 13 6 3 15 -8 21 -24 11
-33 36 -43 26 -10 -4 11 -2 20 4 20 6 0 11 -5 11 -11 0 -8 5 -7 15 1 13 11 14
10 10 -3 -4 -8 -2 -18 4 -21 6 -4 38 35 74 91 35 54 71 104 81 112 10 8 13 17
7 20 -5 4 6 24 26 46 l35 40 -27 -38 c-29 -40 -27 -61 2 -35 25 21 50 29 118
39 l60 8 -63 -3 c-34 -1 -59 1 -55 5 5 4 41 9 80 11 63 3 70 5 55 16 -9 7 -28
10 -40 7 -16 -4 -21 -2 -17 6 5 8 -2 9 -26 4 -24 -4 -30 -3 -19 4 27 18 -15
24 -49 6 -17 -9 -31 -11 -31 -5 0 20 -17 9 -43 -27 -15 -21 -27 -31 -27 -24 0
23 96 109 132 120 25 7 28 9 10 10 -35 1 -103 -23 -98 -35 4 -11 -32 -39 -41
-31 -11 12 20 48 57 67 22 11 40 23 40 25 0 3 -21 -6 -47 -19 -52 -26 -85 -54
-121 -101 l-23 -30 15 31 c8 18 13 41 11 53 -3 14 1 21 12 21 13 0 13 -3 2
-17 -7 -11 -5 -9 7 2 10 11 25 25 33 32 11 10 9 12 -10 11 -13 -1 -31 -6 -39
-12 -8 -6 -2 4 15 22 20 23 49 39 89 50 34 10 69 28 84 44 19 20 32 25 52 21
29 -5 36 5 62 97 11 42 12 43 15 15 2 -16 6 -50 10 -75 5 -40 7 -42 14 -20 6
20 7 21 8 5 1 -18 3 -17 25 7 12 15 26 25 29 22 3 -3 18 1 34 10 19 11 23 15
11 16 -10 0 -18 4 -18 10 0 13 36 31 46 22 5 -4 2 2 -6 12 -14 18 -13 19 7 14
14 -4 24 -1 27 9 3 8 1 11 -4 8 -6 -3 -10 -1 -10 5 0 7 -7 10 -15 6 -24 -9
-17 10 9 24 15 7 36 10 52 6 l28 -7 -25 21 -24 21 25 -6 c23 -6 24 -5 7 9 -16
12 -16 17 -5 35 7 12 17 21 21 21 5 0 7 6 5 12 -3 7 5 17 16 23 20 10 35 64
38 133 1 26 13 29 27 5 8 -15 10 -11 11 18 0 20 7 42 14 49 8 6 20 28 27 48 6
20 18 48 25 62 17 32 84 206 84 219 0 5 6 16 13 23 23 24 77 154 78 189 1 19
3 25 6 14 2 -11 11 -45 20 -75z m1071 -312 c15 -29 22 -33 57 -33 22 0 44 -6
48 -12 4 -7 18 -13 30 -14 l22 0 -23 -9 c-12 -5 -25 -15 -27 -23 -3 -8 -20
-12 -43 -11 -60 2 -72 -5 -73 -40 -1 -29 -2 -27 -15 15 -15 48 -30 59 -83 59
-32 0 -17 14 31 29 31 10 38 18 44 47 7 39 9 39 32 -8z m-2817 -124 c51 -15
209 -110 209 -126 0 -13 -17 -9 -30 7 -7 8 -18 15 -25 15 -7 0 -18 7 -25 15
-7 8 -16 12 -21 9 -5 -3 -28 6 -51 19 -33 19 -65 26 -138 32 -136 11 -170 12
-170 3 0 -5 -5 -8 -11 -8 -5 0 -7 5 -4 11 10 15 -50 3 -163 -33 -52 -16 -96
-27 -99 -24 -3 3 5 10 18 15 l24 10 -25 0 c-14 0 -36 -6 -50 -15 l-25 -15 25
6 c23 6 24 5 7 -9 -11 -8 -25 -12 -32 -10 -7 3 -24 0 -37 -6 -22 -11 -22 -11
-3 5 11 9 19 20 18 24 -2 8 75 33 152 50 22 5 31 9 19 10 -11 1 -55 -8 -98
-19 -43 -12 -80 -19 -83 -17 -8 8 162 50 257 63 114 16 285 10 361 -12z m3825
11 c49 -9 123 -25 164 -36 88 -23 245 -99 245 -118 0 -7 11 -19 25 -26 40 -22
14 -17 -31 6 -23 11 -38 16 -34 10 11 -18 -5 -12 -43 17 -20 15 -33 21 -28 15
4 -8 2 -13 -4 -13 -6 0 -9 -4 -5 -9 3 -6 -25 5 -62 24 -112 55 -186 76 -283
78 -49 1 -87 4 -85 7 2 3 -38 4 -88 3 -121 -3 -207 -27 -361 -101 -5 -3 -5 1
-1 8 8 13 97 55 160 76 28 9 33 13 17 13 -12 1 -39 -6 -59 -14 -20 -8 -38 -13
-40 -11 -8 8 154 69 202 76 87 13 219 11 311 -5z m-3296 -126 c0 -38 59 -104
103 -114 l32 -7 -35 -8 c-38 -9 -100 -72 -100 -102 0 -9 -4 -20 -10 -23 -5 -3
-10 3 -10 13 0 41 -55 112 -87 112 -23 0 -14 21 15 32 37 14 63 51 69 99 6 44
23 43 23 -2z m-605 -469 c94 -48 96 -66 4 -34 -140 49 -243 35 -421 -54 -5 -2
-8 1 -8 6 0 5 23 19 50 31 28 12 50 24 50 26 0 11 -116 -45 -170 -82 -22 -15
-22 -13 5 17 33 36 21 33 -40 -14 l-40 -30 30 32 c29 32 207 127 255 136 14 2
68 3 121 2 87 -1 102 -5 164 -36z m3910 21 c116 -36 253 -110 240 -130 -2 -5
2 -14 11 -21 8 -7 25 -27 37 -44 15 -22 16 -27 4 -17 -20 16 -23 2 -4 -19 10
-12 9 -12 -5 -1 -13 10 -18 10 -18 2 0 -6 -15 5 -32 26 -65 74 -90 96 -98 82
-5 -7 -5 -19 -2 -28 5 -14 4 -14 -11 -2 -10 8 -15 16 -12 19 3 3 -5 12 -17 20
-14 8 -16 11 -5 8 10 -3 16 -2 13 3 -3 5 -17 9 -31 9 -25 0 -25 -1 -8 -22 l18
-21 -22 19 c-13 10 -20 22 -17 27 8 13 -28 26 -66 24 -19 -1 -29 0 -22 2 21 8
13 26 -10 20 -12 -3 -30 -1 -41 5 -53 28 -193 12 -253 -28 -45 -31 -44 -13 1
22 80 61 235 81 350 45z m-644 -89 c52 -25 111 -79 140 -126 28 -46 23 -55
-10 -16 l-29 35 11 -42 c8 -30 8 -48 0 -65 -11 -22 -12 -22 -12 9 -1 43 -83
150 -137 180 -22 12 -65 29 -95 38 l-54 15 70 -3 c48 -2 85 -10 116 -25z
m-2611 -262 c44 -22 54 -35 46 -55 -4 -11 -10 -11 -30 -2 -13 6 -22 15 -20 19
3 5 -5 8 -17 8 -25 0 -89 -56 -89 -76 0 -7 -5 -16 -12 -20 -7 -5 -8 -3 -3 6 5
8 4 11 -3 6 -6 -3 -10 -14 -10 -24 0 -21 -12 -94 -19 -104 -2 -5 1 -8 6 -8 6
0 11 -10 11 -22 0 -21 0 -21 -16 -2 -11 14 -14 15 -11 3 3 -9 1 -22 -4 -30 -6
-10 -9 -2 -10 26 -1 22 -5 54 -9 70 l-8 30 -1 -29 c-2 -47 -22 -16 -23 35 -1
54 7 96 23 117 12 16 12 16 -5 0 -10 -9 -25 -38 -32 -65 l-13 -48 0 39 c-2
114 135 184 249 126z m2455 1 c36 -16 88 -61 71 -61 -3 0 0 -16 8 -35 10 -22
12 -44 7 -57 -7 -18 -9 -15 -14 21 -7 59 -27 78 -22 22 3 -23 7 -46 10 -51 3
-6 1 -18 -4 -27 -9 -16 -10 -15 -11 6 0 13 -3 21 -7 18 -6 -7 -9 -37 -13 -147
l-3 -65 -10 48 c-6 26 -14 47 -19 47 -4 0 -8 12 -9 28 0 15 -3 21 -6 14 -6
-17 25 -139 44 -171 9 -14 28 -37 42 -50 15 -13 19 -21 10 -18 -9 3 -21 1 -26
-4 -15 -15 -60 43 -74 94 -12 41 -14 93 -9 193 2 53 -22 120 -40 109 -6 -4 -7
1 -3 11 5 13 3 16 -10 11 -10 -4 -16 -2 -14 6 4 20 -62 21 -84 1 -10 -9 -19
-13 -20 -8 0 5 -4 0 -9 -11 -8 -20 -9 -20 -9 1 -1 23 42 68 79 83 39 15 101
12 145 -8z m-4042 -2626 c42 -17 73 -54 83 -98 6 -28 8 -30 15 -12 6 16 8 13
9 -15 3 -41 2 -49 -15 -155 -11 -68 -13 -73 -14 -35 -2 69 -27 210 -40 223 -8
8 -8 1 -1 -24 6 -18 9 -47 9 -64 -1 -19 -3 -23 -6 -10 -2 11 -6 30 -9 42 -5
26 -34 44 -86 53 -33 6 -40 4 -66 -24 -16 -17 -34 -40 -40 -51 -10 -17 -11
-17 -12 -3 0 10 14 33 31 53 17 19 27 35 22 35 -14 0 -48 -40 -72 -85 -14 -25
-19 -31 -15 -15 19 76 74 125 139 125 24 0 41 3 38 8 -2 4 2 7 9 8 7 0 -1 7
-19 15 -17 7 -34 18 -37 23 -4 6 -18 6 -37 1 -26 -8 -29 -7 -19 5 16 19 87 19
133 0z m-151 -746 c2 -5 10 -11 19 -12 9 -2 31 -15 48 -30 18 -15 37 -25 41
-22 5 3 17 -6 26 -20 9 -14 21 -25 26 -25 5 0 -9 22 -31 49 -23 27 -41 52 -41
55 0 19 92 -74 115 -115 14 -27 30 -49 34 -49 4 0 8 -13 8 -30 0 -16 -4 -27
-9 -24 -5 4 -6 -9 -3 -30 8 -41 -13 -142 -26 -129 -6 6 -3 25 6 47 9 21 14 41
11 44 -3 3 -11 -9 -17 -26 -6 -18 -15 -30 -20 -27 -4 3 -4 17 1 31 18 46 9 60
-12 19 -18 -35 -22 -37 -28 -20 -4 11 -5 36 -3 55 6 44 -29 141 -64 178 -24
26 -24 26 -9 2 53 -80 76 -174 50 -206 -14 -18 -15 -17 -9 12 12 62 -26 159
-87 226 -38 41 -50 58 -40 58 6 0 12 -5 14 -11z m4555 -3790 c6 -6 29 -11 51
-12 29 -1 44 -6 47 -18 4 -11 13 -15 31 -11 24 4 25 3 15 -17 -10 -19 -9 -21
11 -21 21 -1 22 -2 6 -14 -10 -7 -18 -16 -18 -20 0 -3 8 -6 18 -6 16 -1 16 -1
0 -14 -13 -10 -15 -15 -6 -24 9 -9 9 -12 -1 -12 -8 0 -11 -6 -7 -15 4 -10 -1
-15 -16 -15 -18 0 -19 -2 -7 -17 13 -15 12 -16 -9 -10 -35 8 -118 -37 -130
-71 l-9 -27 -14 30 c-9 19 -26 33 -46 39 -18 5 -33 15 -33 23 0 10 -5 11 -19
3 -30 -16 -49 -12 -27 5 18 14 17 15 -22 15 l-42 0 16 25 c15 23 15 25 0 25
-21 0 -9 30 13 30 13 1 13 3 -4 16 -16 12 -17 16 -6 23 11 7 11 10 0 15 -8 3
-1 4 16 2 31 -4 30 -2 -22 31 -15 10 -11 10 17 2 47 -12 50 -12 43 8 -4 11 -3
14 5 9 7 -4 22 0 34 8 12 9 35 16 50 16 21 0 28 5 28 19 0 11 3 28 7 38 6 14
9 11 14 -15 4 -19 11 -38 16 -43z m-3307 21 c11 -11 31 -20 44 -20 13 0 29 -7
36 -15 7 -8 17 -12 23 -8 7 4 8 0 4 -11 -6 -16 -3 -17 20 -12 25 6 26 5 8 -5
-30 -18 -31 -19 -15 -30 13 -8 13 -10 0 -19 -8 -5 -10 -10 -5 -10 6 0 3 -5 -5
-10 -13 -9 -13 -11 0 -20 12 -8 11 -10 -7 -10 -13 0 -22 -5 -20 -12 1 -6 -29
-23 -68 -37 -57 -22 -78 -25 -115 -19 -25 5 -64 11 -87 14 -24 4 -40 11 -37
16 4 6 -2 8 -15 4 -58 -17 -65 -16 -31 3 26 15 30 20 16 21 -19 0 -19 0 -1 13
16 13 15 14 -16 9 -33 -4 -33 -3 -14 12 19 15 18 15 -15 11 l-35 -5 35 12 c34
11 35 11 10 18 l-25 8 25 1 c20 1 22 3 10 11 -12 8 -12 10 5 10 18 0 18 2 -5
20 l-25 20 28 -10 c37 -13 44 -13 29 2 -16 16 -15 29 2 22 7 -3 40 4 72 15 54
18 90 25 137 30 9 0 26 -8 37 -19z m1649 -682 c1 -31 4 -36 18 -31 13 5 15 2
11 -15 -8 -29 8 -38 17 -9 4 13 8 17 12 9 2 -6 -3 -42 -13 -80 -9 -37 -18 -99
-18 -139 0 -40 -3 -67 -7 -62 -9 15 -19 -53 -20 -136 -2 -120 -15 -130 -22
-16 -3 56 -10 108 -15 115 -14 17 -41 152 -46 226 -3 45 -3 53 2 25 7 -38 8
-36 15 34 8 81 15 100 28 80 7 -11 9 -10 9 4 0 9 -4 17 -10 17 -5 0 -10 7 -10
16 0 8 4 13 9 10 5 -3 12 4 16 17 l7 22 8 -25 c4 -14 8 -42 9 -62z"/>
<path d="M6077 8883 c-4 -6 -4 -18 -1 -27 3 -9 1 -16 -5 -16 -6 0 -11 -4 -11
-10 0 -5 6 -7 14 -4 8 3 17 0 21 -7 12 -19 16 -69 5 -69 -6 0 -10 5 -10 12 0
6 -3 9 -6 5 -8 -7 18 -77 26 -72 4 2 6 -6 6 -18 -1 -12 4 -22 11 -22 6 0 15
-4 20 -9 5 -5 3 -6 -4 -2 -19 11 -16 -2 7 -26 11 -12 20 -18 20 -14 0 5 7 3
15 -4 12 -10 15 -10 15 0 0 9 3 10 14 1 7 -6 21 -9 30 -5 9 3 16 1 16 -6 0 -6
-4 -8 -10 -5 -6 3 -7 -1 -4 -10 5 -13 11 -10 30 12 23 27 24 27 41 10 14 -14
15 -17 3 -12 -12 4 -16 -3 -18 -31 -2 -23 1 -33 8 -29 6 4 8 16 4 28 -6 19 -5
20 10 8 9 -7 16 -19 16 -27 0 -7 4 -15 8 -18 9 -5 9 6 -3 72 -6 32 -10 40 -17
30 -8 -10 -9 -9 -5 3 3 9 -1 26 -9 38 -19 27 -39 28 -24 2 16 -32 12 -31 -20
1 -16 16 -30 35 -30 41 0 6 6 3 13 -8 15 -19 42 -12 31 8 -3 7 6 -1 20 -18 42
-48 56 -81 60 -141 6 -80 14 -77 18 7 2 61 0 77 -19 104 -28 42 -90 88 -106
79 -6 -4 -9 -4 -5 1 11 12 -11 35 -28 28 -8 -3 -14 0 -14 7 0 6 -4 8 -10 5 -5
-3 -10 1 -10 10 0 25 -55 76 -74 69 -11 -4 -19 2 -24 17 -5 13 -11 18 -15 12z"/>
<path d="M5278 8315 c-2 -2 -52 -6 -113 -9 -98 -6 -234 -28 -436 -71 -36 -7
-108 -32 -160 -54 -52 -23 -99 -41 -105 -41 -22 0 -114 -43 -109 -50 6 -10
-24 -22 -36 -14 -5 3 -9 1 -9 -4 0 -5 -20 -17 -45 -28 -25 -10 -45 -22 -45
-27 0 -4 -4 -6 -9 -3 -5 3 -11 -1 -15 -9 -3 -8 -15 -15 -26 -15 -11 0 -20 -4
-20 -8 0 -14 -81 -62 -92 -55 -7 3 -8 1 -4 -5 7 -11 -6 -17 -27 -13 -5 1 -6
-2 -3 -7 3 -5 -7 -15 -22 -21 -23 -11 -115 -77 -148 -106 -6 -5 -27 -23 -47
-39 -22 -18 -33 -35 -29 -44 3 -10 1 -13 -6 -8 -25 15 -10 -13 24 -47 40 -39
60 -46 343 -121 192 -51 336 -114 440 -192 32 -24 62 -44 66 -44 35 0 265
-266 265 -307 0 -11 9 -29 19 -40 11 -12 17 -24 14 -27 -4 -3 -1 -6 5 -6 6 0
9 -7 5 -17 -4 -9 -2 -14 3 -11 5 4 10 -4 11 -15 0 -12 13 -60 27 -107 39 -124
56 -240 57 -370 0 -167 -18 -217 -124 -351 -46 -57 -100 -117 -121 -132 -20
-16 -34 -32 -31 -37 2 -4 -3 -14 -13 -21 -15 -13 -16 -12 -3 4 20 25 6 21 -41
-13 -50 -37 -69 -39 -31 -4 l28 25 -30 -17 c-16 -10 -38 -24 -48 -32 -9 -9
-19 -13 -22 -11 -2 3 30 32 72 64 96 76 172 160 212 234 36 68 39 88 11 63
-12 -9 -24 -17 -28 -17 -11 -1 -225 -84 -247 -97 -19 -11 -19 -10 -1 18 l19
29 -33 -30 c-26 -24 -30 -26 -21 -8 19 37 78 78 148 103 105 39 186 83 201
110 21 41 9 200 -22 289 -25 70 -36 124 -15 72 5 -13 12 -21 15 -18 3 3 -3 23
-14 44 -11 21 -25 52 -33 68 -7 17 -30 59 -51 94 -21 34 -38 68 -38 75 0 7 -4
6 -9 -2 -6 -10 -14 1 -27 37 -10 28 -22 51 -26 51 -11 0 -10 -2 7 -43 21 -51
18 -59 -6 -17 l-20 35 5 -79 c4 -43 7 -104 8 -135 l1 -56 8 50 c5 31 6 9 2
-60 -6 -138 -24 -254 -51 -323 -11 -29 -20 -61 -20 -70 2 -29 -64 -176 -91
-202 -14 -14 -48 -58 -76 -99 -60 -88 -124 -163 -134 -156 -4 2 -23 -11 -41
-30 -18 -19 -36 -32 -40 -30 -4 3 -25 -14 -47 -38 -44 -47 -97 -94 -74 -64 25
32 -3 17 -45 -24 -22 -22 -48 -41 -57 -43 -9 -1 -38 -23 -66 -49 -33 -31 -59
-47 -76 -47 -18 0 -24 4 -20 13 4 6 -3 0 -15 -15 -32 -42 -194 -147 -206 -135
-3 3 26 26 65 51 86 57 156 133 190 206 l26 55 3 385 c2 212 -1 601 -6 865
-10 562 -5 532 -111 594 -79 47 -113 81 -140 141 -19 44 -19 44 -15 10 5 -33
0 -41 -110 -153 -64 -65 -123 -132 -132 -150 -9 -18 -26 -42 -38 -54 -29 -29
-46 -51 -46 -58 0 -4 -7 -14 -16 -23 -32 -31 -122 -179 -177 -288 -85 -170
-134 -294 -177 -451 -49 -179 -68 -303 -76 -508 -9 -218 6 -350 62 -540 3 -11
8 -42 11 -68 3 -28 12 -51 19 -54 8 -3 14 -9 14 -14 0 -22 88 -189 93 -177 4
8 6 7 6 -5 1 -10 6 -15 11 -12 10 6 14 -7 11 -32 -1 -7 7 -13 17 -13 14 0 21
-9 26 -31 3 -17 10 -28 16 -24 5 3 12 -6 16 -20 3 -14 13 -25 21 -25 9 0 13 6
10 14 -3 8 1 17 9 20 13 5 15 -1 11 -29 -3 -19 0 -38 5 -41 6 -4 8 2 6 12 -2
11 3 25 12 32 10 9 10 11 1 6 -10 -5 -12 -3 -7 5 6 9 12 8 26 -4 16 -15 18
-14 23 7 4 12 3 25 -1 28 -12 8 -6 54 7 58 8 3 6 9 -6 19 -10 8 -13 12 -7 9
18 -9 32 31 64 179 34 160 59 249 66 242 3 -3 -2 -40 -11 -83 -27 -129 -18
-425 16 -559 16 -60 32 -109 41 -120 4 -5 8 -17 8 -28 0 -11 4 -15 12 -11 8 5
9 0 6 -14 -4 -12 -3 -22 1 -22 8 0 32 -57 36 -88 5 -34 87 -193 102 -199 7 -3
13 -11 13 -18 0 -7 7 -18 15 -25 8 -7 12 -16 9 -21 -3 -5 -1 -9 5 -9 5 0 26
-27 46 -61 39 -67 59 -91 69 -82 3 4 6 0 6 -8 0 -11 2 -11 9 -1 6 10 13 6 26
-15 28 -42 37 -52 83 -98 23 -23 42 -47 42 -55 0 -7 3 -11 6 -7 8 8 34 -18 34
-34 0 -9 4 -8 15 1 12 10 15 9 15 -4 0 -9 8 -20 18 -23 9 -4 25 -16 36 -27 10
-12 22 -20 27 -19 5 2 9 -2 9 -7 0 -5 3 -9 8 -8 25 8 142 -65 142 -89 0 -9 86
-57 105 -58 6 0 16 -4 23 -8 6 -5 16 -6 21 -2 5 3 16 -2 25 -10 8 -8 36 -17
61 -20 26 -2 53 -9 61 -16 8 -6 17 -9 21 -6 3 4 12 -1 18 -10 11 -15 15 -15
29 -4 12 10 16 10 16 1 0 -7 6 -10 14 -7 7 3 23 -1 35 -9 11 -8 21 -12 21 -8
0 5 5 3 12 -4 15 -15 74 -16 83 -2 3 5 11 10 16 10 6 0 8 -4 5 -8 -3 -5 1 -9
9 -9 8 0 12 4 9 9 -3 4 -1 8 4 8 6 0 13 -7 16 -16 3 -9 13 -14 20 -11 8 3 17
1 20 -6 3 -9 5 -9 5 1 1 6 6 12 12 12 5 0 8 -3 6 -7 -3 -5 6 -8 19 -8 13 0 24
4 24 9 0 5 6 3 14 -3 11 -10 16 -9 24 5 8 15 9 15 15 0 6 -14 11 -15 28 -5 15
8 19 8 15 0 -4 -6 0 -11 9 -11 9 0 13 4 10 10 -4 6 1 7 11 3 13 -5 16 -3 11
10 -3 9 -3 16 1 16 19 -3 25 2 12 11 -8 5 -11 13 -6 17 10 10 37 -26 30 -41
-3 -6 6 2 20 17 22 23 26 25 26 10 1 -16 2 -16 12 2 7 11 12 22 11 25 0 8 31
29 38 24 4 -2 10 3 13 12 4 9 2 13 -5 8 -6 -3 -3 5 6 20 10 14 13 26 9 26 -5
0 2 10 16 21 16 13 21 22 13 25 -8 4 -10 16 -6 35 4 22 2 29 -10 29 -24 0 -29
17 -10 35 14 14 14 18 2 26 -8 5 -10 9 -5 9 5 0 2 8 -5 17 -8 9 -9 14 -3 10 7
-4 17 0 24 8 7 8 18 15 26 15 7 0 14 14 16 32 2 17 10 33 18 36 11 3 12 2 4
-8 -13 -13 -7 -53 6 -45 4 3 21 -2 36 -10 16 -8 25 -15 21 -15 -5 0 -1 -7 7
-16 9 -8 16 -22 16 -30 0 -8 4 -13 9 -9 5 3 13 0 17 -6 4 -7 3 -9 -2 -6 -6 3
-16 2 -24 -4 -12 -7 -11 -9 5 -10 11 0 14 -3 8 -6 -7 -2 -13 -14 -13 -26 0
-18 2 -19 10 -7 5 8 10 10 10 5 0 -6 -7 -20 -15 -33 -14 -18 -14 -21 -1 -16
11 4 13 0 9 -16 -4 -15 -2 -21 8 -18 8 2 15 -1 16 -7 0 -5 -3 -9 -8 -8 -5 2
-9 -4 -9 -12 0 -8 6 -15 14 -15 15 0 42 -57 38 -80 -2 -12 -1 -13 6 -1 11 15
32 7 32 -12 0 -7 -4 -6 -10 3 -6 9 -10 10 -10 3 0 -16 23 -29 27 -16 5 14 46
4 56 -14 7 -11 12 -11 23 -2 10 8 14 8 14 0 0 -6 4 -11 10 -11 5 0 7 8 4 18
-5 16 -5 16 6 0 6 -10 18 -18 25 -18 8 0 15 -4 15 -9 0 -5 19 -3 43 3 60 18
117 26 117 17 0 -9 96 -8 105 1 3 3 19 4 35 2 16 -2 32 1 35 6 3 5 13 6 22 3
11 -4 14 -2 11 8 -5 16 29 56 39 45 5 -4 -1 -14 -11 -22 -11 -7 -17 -16 -14
-19 8 -8 114 35 137 56 11 11 24 18 28 17 14 -5 53 28 45 38 -4 4 0 3 8 -3 21
-15 50 -1 84 41 22 29 31 34 42 25 10 -8 14 -8 14 -1 0 6 7 9 15 6 13 -5 19 5
17 28 -1 3 5 9 14 12 8 3 12 2 9 -4 -3 -6 -1 -10 5 -10 6 0 13 7 16 15 4 8 12
15 20 15 8 0 14 6 14 13 0 7 10 17 23 22 13 6 23 20 24 35 2 43 3 45 14 27 8
-13 15 -15 28 -7 10 5 21 6 25 3 3 -3 6 -1 6 5 0 7 6 12 13 12 7 0 20 8 29 18
28 30 66 62 73 62 12 0 85 77 85 90 0 11 19 35 30 38 24 5 40 16 40 28 0 7 6
17 13 21 7 4 23 23 36 41 12 18 26 30 31 27 5 -3 14 5 21 17 7 13 23 33 36 45
12 12 23 25 23 29 0 3 14 23 30 44 17 21 30 43 30 48 0 6 6 17 13 24 14 16 87
162 87 176 0 6 5 12 10 14 6 2 24 57 42 123 29 113 31 131 32 307 1 103 4 178
8 168 10 -28 30 -157 35 -230 3 -36 9 -68 15 -71 5 -4 11 -40 11 -82 1 -41 5
-70 10 -64 4 7 5 -4 2 -24 -5 -25 -2 -39 8 -47 12 -10 15 -9 13 5 -1 13 5 17
24 15 17 -1 21 1 11 7 -9 6 -10 11 -2 15 6 4 11 4 11 0 0 -3 7 -1 15 6 21 18
19 35 -2 19 -16 -13 -17 -12 -5 3 8 10 19 16 24 15 6 -1 13 4 16 12 3 9 0 11
-9 6 -8 -4 -2 3 12 16 45 41 93 119 161 259 88 179 93 200 150 545 21 127 -7
525 -48 690 -30 118 -124 364 -200 522 -68 143 -198 341 -263 403 -15 14 -20
21 -11 16 8 -5 -3 8 -26 30 -22 21 -31 32 -21 24 21 -16 -139 147 -186 189
l-26 24 -36 -28 c-20 -15 -34 -30 -31 -33 7 -7 -24 -42 -37 -42 -5 0 -3 8 4
18 12 14 10 14 -8 -2 -12 -10 -21 -23 -20 -28 1 -6 -4 -13 -12 -16 -10 -3 -11
0 -5 9 7 12 5 12 -9 0 -19 -15 -23 -26 -5 -15 7 5 8 3 4 -5 -5 -7 -15 -10 -23
-7 -8 3 -12 2 -9 -2 2 -4 -29 -23 -70 -41 -55 -25 -72 -37 -62 -43 9 -7 6 -8
-10 -5 -12 3 -20 1 -16 -4 5 -8 -12 -13 -43 -12 -7 1 -10 -3 -8 -8 3 -4 -21
-16 -52 -26 -32 -10 -59 -21 -61 -25 -2 -4 -9 -5 -16 -2 -22 8 -67 -15 -65
-33 3 -35 -3 -48 -11 -23 -8 24 -15 -173 -15 -402 0 -53 -2 -95 -5 -93 -3 2
-5 -13 -6 -33 l-1 -37 14 33 c17 43 56 65 183 106 58 19 114 38 125 42 19 7
19 6 3 -12 -9 -10 -17 -23 -18 -29 -1 -5 -4 -12 -7 -15 -4 -3 -3 1 1 8 4 6 3
12 -3 12 -5 0 -14 -6 -18 -13 -4 -8 -35 -31 -68 -51 -75 -48 -110 -80 -126
-117 -6 -17 -14 -28 -16 -25 -3 2 1 14 7 26 6 12 9 24 7 27 -11 10 -36 -56
-51 -128 -16 -84 -20 -66 -6 29 5 35 6 71 3 79 -14 37 -25 -41 -30 -227 -4
-116 -9 -187 -14 -175 -7 17 -5 -276 2 -312 3 -17 41 -7 170 46 141 57 211 98
289 168 77 70 126 147 147 230 19 74 21 79 28 72 2 -3 -2 -35 -10 -71 -46
-223 -233 -393 -560 -511 -82 -29 -90 -34 -93 -60 -2 -16 4 -39 13 -53 14 -22
14 -26 0 -40 -8 -8 -15 -21 -16 -27 0 -7 -7 11 -15 38 -20 67 -35 96 -47 88
-6 -4 -8 0 -4 10 8 20 -17 23 -59 6 -54 -20 -164 -48 -159 -40 2 5 15 11 27
14 13 3 61 19 108 36 l85 31 -1 37 c-22 601 -21 790 5 1128 10 131 10 215 1
215 -3 0 -32 -11 -65 -25 -33 -13 -98 -36 -145 -50 -47 -14 -91 -29 -98 -34
-11 -6 -14 -68 -15 -287 -1 -158 -4 -244 -7 -199 -6 72 -7 66 -11 -70 -2 -82
-3 -204 -2 -270 1 -84 -1 -107 -7 -75 -6 37 -7 30 -8 -45 0 -89 -14 -231 -24
-241 -3 -3 -9 41 -14 98 -6 79 -9 95 -15 68 -3 -19 -7 -26 -8 -15 -1 11 -6 61
-12 110 -6 52 -11 261 -10 497 l1 406 -38 -10 c-69 -19 -159 -65 -203 -104
-41 -37 -42 -38 -21 -8 12 18 55 49 99 73 43 23 67 39 53 36 -100 -26 -187
-108 -214 -203 -9 -32 -16 -69 -16 -83 0 -13 -5 -31 -10 -39 -13 -20 -13 45 0
128 22 131 88 221 203 276 79 37 279 106 308 106 11 0 19 4 19 9 0 6 55 22
122 38 84 19 131 35 150 51 15 13 41 27 58 32 29 8 30 8 24 -17 -6 -23 -5 -25
12 -19 10 5 59 19 108 32 194 53 292 94 419 176 l67 44 -77 75 c-43 41 -108
97 -144 124 -37 28 -67 55 -68 60 -2 9 -27 26 -61 40 -24 10 -52 27 -107 68
-29 21 -62 40 -74 42 -13 3 -25 9 -28 13 -11 17 -125 69 -261 120 -150 56
-349 107 -455 117 -38 3 -101 11 -140 16 -58 8 -389 11 -397 4z m157 -710 c17
-21 44 -44 60 -51 17 -7 24 -13 18 -14 -7 0 -27 -16 -45 -37 -18 -20 -41 -44
-51 -53 -10 -9 -18 -33 -19 -54 -1 -42 -8 -40 -17 6 -4 20 -15 37 -28 42 -12
6 -26 26 -32 48 -10 33 -16 38 -42 38 -18 0 -28 4 -24 10 3 6 15 10 25 10 11
0 33 18 51 40 18 22 35 37 40 35 4 -3 11 14 15 37 8 42 8 43 13 12 4 -17 20
-48 36 -69z m66 -609 c10 -38 25 -133 34 -210 15 -140 26 -212 46 -313 9 -47
13 -52 42 -59 87 -18 179 -92 213 -171 10 -22 17 -68 17 -110 1 -40 6 -73 10
-73 10 0 0 -52 -12 -60 -4 -3 -18 -22 -30 -44 -45 -72 -115 -95 -178 -56 -65
39 -107 142 -138 340 -9 58 -24 116 -32 129 -11 17 -12 26 -4 34 13 13 14 76
2 95 -6 11 -21 12 -61 5 l-53 -8 -28 -105 c-16 -58 -41 -148 -56 -200 -14 -52
-32 -122 -39 -155 -15 -75 -16 -45 -4 111 7 88 23 173 58 315 27 107 69 275
92 374 24 99 49 193 57 208 23 46 45 31 64 -47z m-557 -1330 c35 -22 46 -53
46 -127 0 -97 -38 -158 -110 -176 -32 -9 -35 -12 -32 -44 5 -49 37 -136 67
-181 22 -34 30 -38 65 -38 l41 0 -3 290 c-3 284 -3 290 17 292 27 2 71 -1 123
-8 68 -9 70 -19 73 -317 1 -179 5 -257 13 -257 14 0 9 553 -5 558 -5 2 -9 10
-9 18 0 13 70 15 539 12 297 -2 537 -6 534 -10 -2 -5 -17 -8 -34 -8 l-29 0 0
-285 0 -285 60 0 c33 0 60 4 60 8 0 5 -10 46 -21 92 -45 176 -10 379 73 430
45 27 56 25 24 -5 -47 -44 -69 -109 -74 -217 -5 -117 20 -217 69 -273 28 -31
37 -35 80 -35 27 0 49 2 49 4 0 2 -7 20 -15 39 -23 55 -20 84 10 89 22 5 24 2
19 -18 -4 -14 3 -41 16 -69 l22 -45 54 0 54 0 0 285 0 285 -47 0 c-78 0 -92
-7 -104 -54 -19 -71 -22 -72 -32 -17 -14 84 -12 86 206 88 l182 2 -3 -297 c-2
-163 -4 -297 -6 -299 -1 -2 -109 -4 -238 -5 -223 -3 -237 -2 -259 17 -19 17
-22 18 -16 3 5 -14 1 -18 -16 -19 -12 0 -573 -2 -1246 -5 -1109 -3 -1227 -2
-1258 13 -18 8 -40 25 -48 37 -31 44 -11 141 39 191 35 35 51 31 24 -5 -16
-22 -23 -48 -26 -94 -4 -58 -2 -66 25 -96 32 -36 37 -37 242 -32 108 2 113 3
99 20 -44 52 -138 266 -138 314 0 18 17 34 72 68 97 61 118 72 118 63 0 -4
-34 -30 -75 -58 -41 -27 -71 -52 -66 -55 4 -3 10 -23 13 -45 7 -49 50 -159 96
-242 30 -56 37 -63 64 -63 l30 0 -37 42 c-75 88 -120 235 -81 267 14 12 16 9
16 -30 0 -53 39 -140 78 -177 15 -15 41 -44 56 -64 27 -36 31 -38 86 -38 l57
0 7 62 c4 34 6 159 5 279 l-2 217 -60 7 c-32 3 -62 3 -66 0 -3 -4 -8 -112 -11
-240 -4 -168 -9 -238 -17 -247 -10 -10 -13 23 -15 163 -4 247 -2 284 17 316
l16 28 258 -1 c229 0 262 -2 285 -18z m-346 -711 c54 -23 82 -53 82 -89 0 -43
-19 -72 -21 -31 0 17 -3 25 -5 19 -3 -6 -19 2 -37 21 -38 38 -103 53 -145 33
-23 -11 -27 -20 -27 -53 l0 -40 92 -45 c131 -64 183 -120 183 -198 0 -52 -57
-132 -94 -132 -6 0 2 9 18 20 37 24 65 75 64 115 0 28 -1 28 -7 -7 -11 -52
-37 -87 -79 -105 -47 -21 -166 -23 -184 -4 -11 11 -9 12 12 7 22 -6 21 -5 -5
10 -16 9 -41 25 -54 36 -15 11 -32 16 -44 12 -14 -4 -18 -2 -15 7 8 25 37 21
79 -13 35 -28 49 -33 94 -33 56 0 107 26 113 58 4 18 -54 63 -170 132 -67 40
-79 51 -89 86 -14 44 -1 104 32 150 39 55 132 75 207 44z m787 -19 c44 -24 62
-58 51 -101 l-7 -28 -25 36 c-30 45 -71 67 -124 67 -50 0 -83 -29 -78 -68 2
-23 17 -34 89 -72 143 -75 179 -113 179 -192 0 -36 -4 -48 -15 -48 -8 0 -15
-2 -15 -4 0 -2 -3 -13 -6 -23 -6 -16 -5 -16 10 2 17 20 17 20 6 -3 -7 -13 -14
-21 -17 -19 -2 3 -20 -5 -38 -17 -39 -27 -100 -26 -198 1 -72 20 -54 37 19 18
28 -7 64 -11 80 -8 35 7 74 40 74 64 0 20 -49 59 -98 79 -18 7 -31 15 -28 17
2 3 14 0 25 -7 12 -6 21 -8 21 -5 0 2 -26 18 -59 34 -106 54 -136 122 -92 209
48 95 146 122 246 68z m434 5 c49 -25 63 -50 59 -99 l-3 -37 -18 33 c-26 47
-72 72 -134 72 -58 0 -83 -17 -83 -55 0 -28 29 -50 115 -89 84 -38 124 -72
147 -124 23 -52 20 -124 -6 -151 -16 -15 -17 -15 -10 4 7 20 7 20 -14 1 -12
-10 -19 -22 -17 -26 7 -11 -16 -27 -50 -35 -29 -7 -29 -7 -10 8 19 15 17 15
-22 5 -26 -6 -61 -7 -90 -2 l-48 8 40 7 c22 3 31 7 19 8 -11 0 -41 14 -66 30
-33 21 -53 27 -74 23 -26 -5 -28 -4 -15 11 19 24 47 21 86 -8 41 -32 88 -46
126 -38 32 6 79 45 79 65 0 14 -186 141 -207 141 -6 0 -11 3 -10 6 0 3 -9 22
-21 41 -12 19 -22 30 -22 25 0 -6 7 -22 16 -35 l16 -25 -21 24 c-25 28 -29
107 -7 149 18 34 53 68 86 81 35 15 111 6 159 -18z m461 7 c93 -48 154 -200
131 -329 -6 -35 -15 -65 -21 -67 -6 -2 -8 -8 -4 -13 3 -5 2 -8 -3 -7 -5 2 -26
-16 -47 -39 -40 -45 -83 -63 -148 -63 -30 0 -45 8 -87 49 -59 58 -81 119 -81
227 0 80 18 141 56 192 56 73 125 90 204 50z m-2252 -1 c10 -12 105 -257 136
-352 23 -71 73 -154 99 -165 15 -6 -11 -9 -82 -9 -87 -1 -102 1 -87 12 16 12
15 17 -15 85 l-32 72 -61 0 c-34 0 -66 -4 -73 -8 -6 -4 -20 -30 -31 -57 -11
-28 -23 -58 -27 -67 -5 -13 -2 -18 11 -18 11 0 14 -3 9 -9 -15 -14 -149 -26
-141 -12 4 6 16 11 26 11 13 0 27 14 39 38 20 39 112 277 157 405 13 38 27 73
30 78 8 13 30 11 42 -4z m1012 5 c0 -4 -6 -14 -12 -20 -10 -10 -14 -78 -16
-252 -3 -216 -5 -240 -20 -242 -9 -1 10 -4 43 -8 45 -5 25 -7 -75 -7 -74 0
-122 2 -105 6 26 5 31 12 38 51 9 49 2 435 -9 463 -5 15 2 17 75 17 45 0 81
-4 81 -8z m1611 -34 c18 -24 49 -59 69 -78 20 -19 49 -59 65 -87 15 -29 33
-53 40 -53 6 0 17 -12 24 -27 l12 -28 -21 25 c-14 16 -9 2 12 -37 l33 -62 3
190 c2 185 3 189 23 189 17 0 19 -3 10 -14 -8 -9 -11 -86 -9 -257 l3 -243 25
-13 25 -13 -27 0 c-14 0 -34 -3 -42 -6 -12 -5 -15 -2 -10 10 4 10 1 16 -9 16
-21 0 -79 67 -187 220 -51 72 -94 130 -97 130 -4 0 0 -69 13 -233 4 -43 1 -79
-6 -98 -12 -27 -15 -29 -69 -28 -31 1 -45 4 -31 6 54 10 53 8 46 267 -4 131
-10 245 -13 252 -4 11 6 14 40 14 41 0 48 -4 78 -42z"/>
<path d="M5411 6722 c-18 -81 -34 -158 -37 -171 -5 -23 -4 -23 43 -16 26 4 50
8 52 10 3 4 -19 318 -23 322 -2 2 -17 -63 -35 -145z"/>
<path d="M5605 6203 c1 -146 5 -184 19 -210 20 -39 29 -43 16 -7 -19 49 -9 49
18 -1 33 -60 67 -77 106 -52 87 58 75 262 -23 370 -32 36 -99 76 -127 77 -7 0
-10 -59 -9 -177z"/>
<path d="M4760 5385 l0 -285 55 0 c30 0 55 2 55 4 0 3 -9 20 -20 39 -11 18
-29 60 -41 93 -19 53 -21 79 -19 247 1 163 -1 187 -14 187 -14 0 -16 -34 -16
-285z"/>
<path d="M5270 5603 l0 -68 59 -3 c58 -3 59 -2 63 26 2 15 2 47 0 70 l-4 42
-59 0 -59 0 0 -67z"/>
<path d="M5440 5385 l0 -285 83 0 83 0 0 283 -1 282 -82 3 -83 3 0 -286z"/>
<path d="M5657 5663 c-4 -3 -7 -132 -7 -285 l0 -278 60 0 60 0 0 233 c0 127
-3 256 -6 285 l-7 52 -47 0 c-26 0 -50 -3 -53 -7z"/>
<path d="M5811 5385 l4 -285 23 0 22 0 0 273 c0 278 -2 297 -38 297 -12 0 -14
-45 -11 -285z"/>
<path d="M5900 5385 l0 -285 65 0 65 0 0 285 0 285 -65 0 -65 0 0 -285z"/>
<path d="M6770 5525 l0 -146 58 3 57 3 0 140 0 140 -57 3 -58 3 0 -146z"/>
<path d="M4592 5523 l3 -138 54 -3 c36 -2 57 1 63 10 5 7 8 70 7 141 l-2 127
-64 0 -64 0 3 -137z"/>
<path d="M4846 5629 c-3 -17 -6 -80 -6 -140 l0 -109 29 0 c43 0 86 41 100 95
23 93 -22 185 -92 185 -19 0 -26 -7 -31 -31z"/>
<path d="M5071 5568 c0 -51 4 -113 7 -138 l7 -45 48 0 47 0 0 117 c0 114 -1
117 -26 137 -15 12 -40 21 -55 21 l-29 0 1 -92z"/>
<path d="M6080 5519 l0 -140 53 3 52 3 1 138 2 137 -54 0 -54 0 0 -141z"/>
<path d="M5272 5443 l3 -67 57 -4 56 -3 4 61 c3 58 1 63 -20 71 -13 5 -41 9
-63 9 l-40 0 3 -67z"/>
<path d="M4597 5353 c-4 -3 -7 -62 -7 -130 l0 -123 60 0 60 0 0 130 0 130 -53
0 c-30 0 -57 -3 -60 -7z"/>
<path d="M5073 5347 c-3 -4 -1 -62 2 -127 l8 -120 48 0 49 0 0 124 0 124 -51
4 c-28 1 -53 -1 -56 -5z"/>
<path d="M6080 5231 l0 -131 50 0 c61 0 64 6 58 152 l-3 103 -53 3 -52 3 0
-130z"/>
<path d="M6770 5230 l0 -131 58 3 57 3 3 128 3 127 -61 0 -60 0 0 -130z"/>
<path d="M5270 5225 l0 -125 60 0 60 0 0 125 0 125 -60 0 -60 0 0 -125z"/>
<path d="M6184 4920 c-23 -9 -54 -47 -54 -65 0 -5 4 -3 10 5 16 26 22 3 11
-52 -42 -227 -9 -357 83 -334 42 10 56 56 56 183 -1 125 -19 215 -51 249 -25
26 -25 26 -55 14z"/>
<path d="M4118 7403 c20 -8 14 -26 -8 -20 -11 3 -18 1 -15 -3 3 -5 1 -10 -5
-12 -7 -2 -8 -172 -3 -513 9 -573 1 -996 -20 -1130 -8 -49 -13 -91 -12 -93 1
-2 19 20 39 49 21 28 58 76 83 108 120 146 245 366 299 525 34 96 64 280 64
383 0 283 -93 496 -267 609 -54 35 -66 48 -35 37 61 -22 175 -131 221 -213 40
-72 40 -55 0 21 -42 78 -88 129 -157 176 -54 37 -160 84 -185 82 -8 0 -8 -2 1
-6z"/>
<path d="M8108 5703 c-99 -126 -118 -156 -112 -179 6 -22 -4 -63 -28 -127 -8
-22 -13 -25 -20 -15 -8 10 -9 9 -5 -3 3 -9 1 -22 -4 -30 -7 -12 -9 -12 -9 1 0
8 -6 4 -13 -10 -20 -38 -26 -66 -16 -81 6 -9 9 -2 9 23 0 20 5 40 11 44 7 4 9
0 6 -12 -3 -11 -9 -42 -12 -71 -4 -28 -13 -60 -22 -70 -14 -17 -14 -16 -8 7
13 56 14 60 4 54 -6 -3 -8 -8 -5 -11 3 -3 -2 -20 -12 -37 -9 -17 -17 -35 -17
-41 0 -5 -4 -16 -8 -22 -16 -25 3 -12 37 24 l34 38 -5 -30 c-3 -17 -11 -37
-17 -46 -6 -8 5 1 25 22 20 21 36 44 37 51 1 7 6 36 11 63 5 28 10 64 10 80 0
25 -1 27 -10 12 -5 -9 -7 -22 -4 -27 3 -6 2 -10 -4 -10 -5 0 -12 -10 -14 -22
-2 -13 -2 -3 0 21 3 24 13 60 24 80 10 20 19 43 19 53 0 9 5 20 10 23 6 3 10
14 10 24 0 50 34 124 81 178 46 52 86 113 75 113 -2 0 -28 -30 -58 -67z"/>
<path d="M2711 5683 c36 -38 67 -86 91 -138 43 -95 60 -149 29 -95 -26 45 -26
38 0 -29 11 -30 18 -63 15 -74 -3 -12 0 -17 8 -14 20 8 40 -9 32 -28 -5 -14
-9 -15 -21 -5 -8 7 -15 8 -15 2 0 -5 7 -15 15 -22 12 -10 15 -10 15 0 0 10 3
10 15 0 13 -11 14 -7 11 28 -2 22 -13 66 -25 97 -12 31 -17 53 -11 50 14 -9
13 -3 -10 50 -24 56 -25 66 -5 39 22 -29 17 -5 -9 45 -21 40 -24 42 -39 26 -9
-9 -17 -13 -17 -8 0 11 -115 133 -125 133 -4 0 16 -26 46 -57z"/>
<path d="M3639 3631 c14 -9 12 -10 -74 -26 -11 -2 -31 -4 -45 -5 -16 -2 -5 -7
30 -15 l55 -13 -70 -2 c-68 -2 -69 -2 -35 -13 35 -12 35 -12 -27 -15 -35 -2
-63 -7 -63 -13 0 -5 -12 -7 -27 -3 -22 4 -24 3 -13 -5 25 -17 120 -34 133 -23
7 5 24 12 39 16 15 3 33 12 40 20 13 13 166 55 205 57 13 0 12 3 -7 10 -16 7
-26 7 -28 0 -2 -5 -28 1 -58 15 -55 24 -81 31 -55 15z"/>
<path d="M7095 3624 c-27 -7 -70 -16 -95 -22 l-45 -10 50 0 c60 1 185 -34 197
-55 5 -10 19 -14 40 -11 52 5 140 22 173 33 27 9 25 10 -20 8 -27 -1 -75 0
-105 2 l-55 4 60 12 c46 10 52 13 27 14 -21 1 -31 5 -26 12 3 6 22 9 40 7 19
-2 30 0 25 5 -13 13 -210 14 -266 1z"/>
<path d="M4702 3268 c24 -29 54 -75 68 -102 27 -51 59 -81 127 -115 52 -26 94
-26 153 0 39 17 41 18 14 15 -17 -2 -41 -9 -52 -15 -11 -6 -33 -10 -49 -10
-21 1 -23 3 -8 6 11 3 24 9 30 14 5 5 16 9 25 9 22 0 36 12 44 36 5 16 2 23
-14 27 -17 4 -18 2 -9 -15 10 -18 9 -20 -6 -15 -9 4 -21 7 -26 7 -5 0 -42 28
-82 63 -106 91 -122 99 -38 18 41 -39 71 -71 68 -71 -9 0 -41 26 -111 91 -64
58 -91 75 -101 59 -3 -5 -19 4 -35 20 -47 48 -45 35 2 -22z"/>
</g>
</svg>
