<?xml version="1.0" standalone="no"?>
<!DOCTYPE svg PUBLIC "-//W3C//DTD SVG 20010904//EN"
 "http://www.w3.org/TR/2001/REC-SVG-20010904/DTD/svg10.dtd">
<svg version="1.0" xmlns="http://www.w3.org/2000/svg"
 width="945.000000pt" height="945.000000pt" viewBox="0 0 945.000000 945.000000"
 preserveAspectRatio="xMidYMid meet">
<metadata>
Created by potrace 1.16, written by Peter Selinger 2001-2019
</metadata>
<g transform="translate(0.000000,945.000000) scale(0.100000,-0.100000)"
fill="#000000" stroke="none">
<path d="M1050 4725 l0 -4725 3675 0 3675 0 0 4725 0 4725 -3675 0 -3675 0 0
-4725z m3767 4118 c24 -29 99 -92 166 -140 223 -160 366 -313 427 -459 66
-158 111 -374 78 -374 -11 0 -17 15 -22 52 -10 76 -72 260 -117 352 -48 97
-179 263 -198 251 -5 -2 -15 3 -22 13 -13 16 -13 16 6 2 19 -14 19 -14 6 2 -7
10 -17 16 -21 13 -8 -5 -123 75 -135 94 -3 6 -10 9 -15 6 -11 -7 -112 60 -104
68 3 3 -14 26 -39 51 -25 25 -58 66 -73 91 l-27 46 -24 -43 c-13 -24 -41 -60
-61 -81 -38 -40 -207 -173 -277 -218 -95 -62 -217 -195 -265 -289 -13 -25 -42
-103 -66 -175 -23 -71 -43 -119 -43 -105 -1 20 -3 22 -12 10 -17 -25 -1 43 37
160 63 190 156 300 429 507 161 122 220 183 263 275 l17 36 24 -46 c13 -26 43
-71 68 -99z m-65 -58 c10 -13 22 -24 26 -22 4 1 8 -2 9 -6 2 -14 56 -68 78
-79 14 -6 12 -3 -5 11 -14 11 -20 21 -14 21 14 0 46 -35 38 -43 -3 -3 7 -14
23 -24 36 -23 54 -45 48 -60 -2 -7 1 -12 8 -10 7 1 12 -5 13 -13 0 -8 7 -28
13 -45 7 -16 15 -58 18 -92 5 -56 2 -71 -37 -162 -32 -77 -52 -109 -86 -141
-45 -42 -89 -64 -108 -56 -6 2 -3 5 7 5 10 1 15 6 12 12 -4 6 -1 9 6 7 26 -5
77 35 113 90 20 30 36 60 36 66 0 6 -9 -2 -20 -19 -32 -49 -23 -13 11 39 24
38 29 55 23 79 l-6 31 -18 -46 c-23 -60 -59 -120 -70 -113 -4 3 -14 -3 -21
-13 -13 -15 -12 -16 4 -3 9 7 17 9 17 5 0 -5 -9 -15 -21 -22 -12 -8 -18 -9
-14 -3 9 15 -5 13 -35 -4 -14 -8 -29 -14 -35 -14 -5 0 1 6 15 14 30 17 24 19
-19 4 -44 -15 -105 9 -156 61 -21 21 -43 36 -48 33 -6 -3 -7 -1 -3 6 4 6 -2
23 -13 37 -16 20 -21 41 -21 88 0 43 -3 57 -10 46 -14 -22 -11 -88 5 -135 8
-21 12 -41 10 -44 -8 -8 -28 54 -36 109 l-7 55 2 -69 c1 -38 0 -64 -2 -58 -2
7 -7 10 -11 8 -4 -3 -7 3 -8 12 -10 173 2 215 96 317 25 27 35 41 21 30 l-25
-20 19 22 c10 13 23 20 28 17 5 -3 34 22 65 55 31 34 58 61 60 61 3 0 14 -11
25 -25z m309 -855 c433 -57 698 -130 970 -266 120 -60 342 -188 414 -240 l61
-43 49 30 c28 16 88 41 135 56 76 25 100 28 220 27 113 0 152 -5 235 -27 129
-34 339 -60 435 -54 l75 4 -35 -16 c-27 -12 -66 -16 -180 -15 -124 0 -167 5
-295 33 -141 30 -259 41 -303 27 -11 -4 -57 -13 -103 -20 -46 -8 -112 -27
-147 -43 l-63 -28 79 -53 c94 -63 232 -187 232 -210 0 -8 3 -13 6 -9 8 8 55
-48 58 -69 1 -8 7 -19 12 -22 6 -4 19 -20 31 -37 11 -16 -32 22 -96 85 -64 63
-161 149 -216 191 -155 117 -176 123 -30 8 110 -87 166 -140 158 -152 -3 -6
-2 -7 4 -4 6 4 21 -5 34 -20 13 -14 18 -23 10 -18 -9 5 -12 3 -9 -6 3 -8 10
-13 16 -12 5 1 16 -5 24 -14 11 -14 11 -16 -1 -9 -9 6 -12 5 -9 -5 3 -8 10
-13 15 -12 6 1 23 -12 39 -30 16 -17 21 -25 12 -18 -10 7 -18 10 -18 6 0 -5
-30 21 -68 56 -141 134 -262 233 -417 341 -79 55 -156 99 -110 63 11 -8 72
-52 135 -96 63 -45 131 -95 150 -113 153 -135 180 -161 180 -168 0 -5 -5 -6
-12 -2 -7 4 -8 3 -4 -4 4 -6 13 -9 21 -5 14 5 20 -7 16 -30 -1 -5 3 -6 8 -3
10 6 34 -18 25 -26 -2 -3 8 -16 23 -30 15 -13 35 -32 43 -43 18 -25 -36 23
-170 150 -108 103 -240 207 -368 290 -99 64 -462 240 -472 229 -4 -5 -15 -27
-24 -49 -14 -36 -14 -38 0 -20 8 11 19 27 25 35 15 26 28 -7 16 -41 -12 -31
-31 -42 -20 -11 4 12 -1 10 -15 -7 -12 -13 -22 -18 -22 -11 0 10 -3 10 -14 1
-10 -8 -16 -9 -21 -1 -3 5 -2 10 4 10 6 0 8 7 5 15 -3 8 8 31 25 52 17 20 27
40 23 44 -8 8 -261 97 -383 134 -47 14 -158 41 -248 59 -89 17 -159 35 -155
39 4 4 -4 7 -17 7 -20 0 -21 -2 -9 -11 12 -9 11 -10 -5 -4 -23 7 -505 8 -609
1 -39 -3 -62 -3 -51 0 11 3 27 8 35 11 30 10 120 14 400 15 251 1 300 -1 410
-20 191 -33 176 -25 -35 20 -136 29 -226 42 -317 47 -131 6 -182 20 -87 23
103 3 215 -3 333 -18 110 -13 159 -14 104 -1 -30 7 -222 35 -318 46 -57 6 -66
9 -35 11 l40 3 -35 7 -35 7 41 2 c23 0 111 -8 195 -19z m-601 -16 c0 -1 -78
-17 -172 -35 -165 -32 -213 -52 -70 -30 37 6 77 8 90 5 13 -4 22 -2 22 5 0 6
8 11 18 11 15 0 15 -2 2 -11 -11 -8 -8 -9 15 -5 17 3 55 8 85 11 30 2 44 2 30
-1 -14 -3 -126 -26 -250 -50 -222 -44 -304 -64 -297 -71 2 -2 36 3 74 11 132
28 273 47 294 41 16 -6 20 -4 13 6 -6 11 -4 11 10 -1 16 -13 4 -17 -121 -41
-297 -59 -738 -226 -979 -372 -141 -84 -146 -87 -165 -87 -5 0 -7 -5 -3 -12 5
-7 3 -8 -6 -3 -11 7 -10 11 4 19 10 6 34 21 53 34 19 12 50 29 69 37 19 8 34
17 34 20 0 3 -9 1 -21 -5 -11 -7 -23 -9 -26 -7 -3 3 10 13 28 23 18 9 46 30
62 45 16 16 33 26 39 23 7 -4 8 -2 4 4 -8 13 -57 -14 -195 -107 -49 -33 -91
-57 -95 -54 -3 4 -6 0 -6 -7 0 -7 -3 -10 -7 -7 -3 4 -15 0 -25 -10 -10 -9 -18
-12 -18 -7 0 5 9 15 20 22 12 7 18 16 15 21 -7 12 22 34 35 26 6 -4 9 -1 8 5
-3 14 76 71 190 138 39 24 72 45 72 48 0 3 -17 -4 -37 -17 -21 -12 -54 -31
-73 -42 -65 -38 -174 -111 -258 -175 -46 -35 -87 -61 -90 -57 -3 3 3 12 14 19
10 8 19 20 19 28 1 7 6 12 12 11 6 -1 29 14 50 35 122 118 439 300 716 411
147 58 455 134 613 150 73 7 204 11 204 5z m320 -220 c0 -19 -9 -52 -20 -73
-19 -38 -19 -39 1 -92 11 -30 52 -121 91 -202 65 -135 71 -155 74 -221 4 -93
37 -232 69 -296 l25 -50 51 33 c74 51 333 126 432 127 41 1 41 1 17 14 -14 8
-34 16 -45 17 -11 2 -23 8 -26 12 -18 24 -183 25 -329 1 -58 -9 -50 -1 25 24
57 19 58 21 24 21 -20 1 -61 10 -91 20 -30 10 -73 22 -94 25 -22 3 -40 5 -41
6 -2 0 -3 5 -3 10 0 18 84 11 181 -16 55 -15 141 -29 209 -34 106 -7 125 -12
245 -60 72 -29 140 -53 152 -54 11 0 19 -4 17 -7 -2 -3 8 -11 21 -17 19 -9 25
-9 25 1 0 6 9 1 19 -12 12 -15 23 -21 31 -16 8 5 11 4 7 -2 -11 -18 89 -74
160 -90 100 -23 171 -64 278 -164 l50 -47 125 23 c122 23 291 61 294 67 19 34
87 104 112 114 48 20 113 15 126 -9 6 -12 6 -17 0 -13 -5 3 -24 -17 -42 -44
-36 -56 -68 -85 -119 -106 -18 -8 -34 -14 -35 -14 0 0 -1 15 -2 34 0 37 12 46
69 46 27 0 45 14 95 74 35 42 17 45 -26 4 -20 -19 -50 -38 -67 -42 -71 -16
-82 -25 -106 -89 -12 -34 -30 -76 -41 -93 -10 -17 -45 -94 -78 -170 -33 -77
-65 -140 -72 -142 -8 -1 -22 4 -33 12 -18 13 -22 8 -72 -88 -29 -55 -65 -126
-79 -156 -15 -30 -32 -66 -39 -80 -7 -14 -30 -72 -50 -130 -21 -58 -48 -127
-62 -153 l-24 -48 31 -25 c44 -38 143 -191 175 -271 23 -60 33 -73 64 -88 20
-9 68 -38 106 -64 115 -78 183 -107 380 -157 126 -32 176 -57 293 -146 52 -39
121 -86 155 -104 34 -19 55 -34 46 -34 -9 0 -72 -24 -140 -54 -93 -41 -145
-57 -208 -66 -46 -6 -89 -9 -96 -6 -23 8 -205 -43 -202 -57 1 -5 -5 -12 -13
-14 -13 -4 -13 -3 0 6 19 14 0 14 -36 1 -15 -6 -29 -9 -31 -6 -3 2 20 12 51
22 31 10 51 21 46 24 -6 4 26 21 71 39 80 32 123 37 58 6 -19 -8 -25 -12 -14
-9 11 3 61 10 110 16 100 10 193 35 303 80 l74 31 -65 27 c-36 15 -103 55
-149 88 -46 34 -104 70 -129 81 -45 20 -129 38 -129 28 0 -3 24 -16 53 -30 65
-30 219 -146 211 -159 -3 -5 -11 -5 -19 2 -8 6 -19 10 -27 9 -26 -3 -38 1 -38
15 0 8 -4 18 -10 21 -6 4 -7 -1 -3 -11 5 -14 3 -15 -18 -4 l-24 11 25 -20 c30
-25 14 -28 -20 -4 -14 10 -25 16 -25 14 0 -20 -247 71 -355 130 -34 18 -45 22
-30 10 21 -17 22 -21 7 -21 -10 0 -15 -5 -12 -10 5 -8 11 -8 19 0 10 7 39 -2
109 -35 53 -25 135 -56 182 -70 74 -21 182 -67 118 -50 -33 9 -37 -12 -6 -29
26 -14 20 -15 -87 -12 -63 3 -104 1 -90 -3 l25 -8 -30 -7 c-72 -18 -161 -50
-177 -63 -9 -8 -23 -13 -30 -10 -12 4 81 52 147 75 49 17 3 13 -56 -5 -30 -9
-62 -16 -72 -15 -9 0 -15 -3 -12 -7 2 -5 -8 -14 -23 -20 -36 -15 -84 -60 -77
-71 3 -6 -1 -7 -9 -4 -10 4 -16 1 -16 -8 0 -14 -106 -108 -221 -194 -69 -51
-87 -61 -219 -113 -50 -19 -74 -34 -71 -43 2 -7 4 -21 5 -30 0 -9 4 -16 9 -15
14 3 143 -230 181 -328 19 -49 52 -130 72 -180 20 -49 36 -98 37 -107 1 -9 4
-15 7 -13 8 5 45 -66 42 -78 -1 -4 4 -20 12 -36 12 -23 12 -28 1 -28 -7 0 -11
7 -7 15 3 10 1 13 -7 8 -6 -4 -10 -4 -9 1 2 7 -8 27 -72 143 -11 19 -35 80
-54 135 -43 127 -84 223 -131 305 -20 36 -34 58 -31 50 34 -102 47 -168 61
-295 8 -82 21 -178 28 -212 14 -66 13 -78 -4 -40 -8 19 -9 19 -5 -8 3 -16 8
-41 11 -55 3 -14 -1 -8 -9 12 -17 44 -40 172 -56 313 -20 180 -37 247 -98 379
l-36 78 -48 -6 c-121 -16 -453 -48 -550 -53 -95 -5 -106 -7 -99 -22 34 -64 41
-374 12 -516 -13 -65 -15 -92 -7 -98 20 -13 163 -56 242 -72 44 -8 176 -19
294 -24 237 -10 305 -23 347 -69 14 -15 30 -27 36 -27 5 0 11 -8 13 -17 2 -15
-3 -14 -34 6 -87 54 -152 67 -392 76 -148 6 -242 14 -275 24 -81 25 -63 10 22
-17 43 -14 87 -28 98 -30 16 -4 15 -5 -5 -6 -14 0 -43 4 -65 10 -87 23 -271
83 -282 92 -15 11 -10 22 -57 -146 -34 -122 -143 -385 -173 -417 -12 -13 -13
-13 -8 5 7 20 7 20 -9 0 -9 -11 -15 -24 -12 -31 2 -6 -2 -11 -10 -11 -10 0 -7
12 12 44 14 24 22 47 19 53 -3 5 4 7 15 5 11 -2 18 0 15 5 -3 5 4 28 15 50 11
22 20 46 18 53 -1 7 7 30 19 52 28 55 40 102 13 52 -12 -21 -42 -60 -68 -85
-26 -26 -64 -68 -86 -94 -22 -27 -43 -45 -50 -41 -6 3 -8 3 -4 -2 10 -10 -70
-105 -85 -102 -7 1 -11 -6 -11 -16 2 -14 -1 -15 -13 -6 -11 10 -13 10 -11 0 2
-8 -5 -15 -14 -16 -30 -5 -21 9 50 77 89 88 221 233 250 275 27 39 120 253
128 292 5 24 -2 30 -122 91 -172 88 -319 185 -377 249 l-47 54 -48 -50 c-66
-68 -281 -208 -445 -288 -31 -16 -57 -35 -57 -43 0 -17 105 -264 128 -302 28
-44 103 -131 227 -261 111 -116 207 -234 175 -214 -10 6 -12 4 -7 -8 11 -28 0
-19 -24 21 -13 20 -71 87 -129 147 -220 231 -273 291 -287 328 -9 21 -17 36
-19 34 -3 -2 9 -37 25 -78 41 -103 48 -150 11 -72 -16 34 -31 72 -34 85 -2 12
-16 50 -29 83 -14 33 -37 99 -52 147 l-27 86 -45 -19 c-25 -10 -49 -17 -54
-13 -5 3 -9 1 -9 -5 0 -6 -7 -7 -17 -4 -9 4 -14 2 -10 -3 3 -5 -2 -10 -11 -11
-9 -1 -60 -13 -112 -27 -127 -34 -149 -32 -32 3 51 16 96 32 100 36 4 5 -2 5
-13 1 -44 -16 -179 -27 -321 -25 -83 1 -155 0 -160 -3 -5 -3 -34 -2 -64 2
l-55 6 55 7 c30 3 129 8 220 11 91 3 204 12 252 21 96 17 257 71 264 89 3 7
-3 45 -11 86 -31 147 -28 388 6 519 3 11 -11 13 -66 12 -38 -1 -178 9 -310 23
-353 38 -314 41 -346 -24 -49 -96 -87 -229 -100 -347 -8 -69 -16 -110 -22
-106 -6 4 -8 -6 -4 -28 5 -27 4 -30 -4 -16 -22 38 23 314 64 394 10 18 17 36
17 40 0 4 -25 -39 -56 -97 -31 -58 -62 -109 -68 -115 -7 -5 -20 -23 -30 -40
-15 -27 -16 -27 -10 -5 3 14 48 104 99 200 l93 175 -30 10 c-16 6 -26 14 -21
18 4 5 0 5 -10 1 -10 -3 -17 -1 -17 5 0 6 -5 11 -11 11 -13 0 -179 77 -179 83
0 6 33 1 60 -11 97 -40 180 -71 206 -76 30 -7 32 -4 97 96 73 115 143 205 248
320 39 43 68 78 64 78 -14 0 -74 -36 -130 -78 -33 -25 -82 -55 -110 -68 -49
-23 -125 -32 -125 -15 0 5 17 11 38 15 47 8 130 46 207 96 65 42 141 77 130
61 -8 -14 1 -14 23 0 17 11 14 16 -31 58 -63 58 -162 187 -284 368 l-95 141
-42 -15 c-22 -8 -48 -16 -56 -18 -40 -6 -69 -18 -64 -26 3 -5 -3 -6 -12 -2
-13 5 -15 3 -9 -7 5 -8 4 -11 -2 -7 -6 4 -27 0 -46 -8 -20 -8 -43 -12 -51 -9
-21 8 -168 -64 -275 -134 -105 -70 -156 -91 -336 -137 -166 -43 -184 -51 -285
-126 -78 -57 -166 -109 -186 -109 -5 0 7 10 26 21 19 12 69 49 110 83 107 87
169 121 263 146 45 12 114 31 152 43 39 12 74 20 78 19 14 -4 117 49 165 86
25 19 72 50 103 69 52 30 61 40 98 116 44 92 122 213 171 265 l31 34 -40 86
c-22 48 -50 119 -62 157 -11 39 -25 74 -30 79 -5 6 -9 17 -9 25 0 26 17 -6 41
-79 21 -63 75 -180 88 -190 3 -3 19 -32 34 -64 38 -79 51 -63 32 39 -9 44 -22
125 -31 180 -8 55 -24 136 -35 180 -21 83 -80 207 -87 185 -3 -8 -10 -4 -18
11 l-13 24 -1 -23 c0 -13 -4 -20 -10 -17 -6 4 -7 11 -4 17 4 6 2 8 -3 5 -14
-9 -26 7 -49 65 -20 49 -34 62 -34 30 0 -10 -5 -23 -11 -29 -8 -8 -8 -21 2
-50 7 -21 12 -42 11 -46 -1 -4 3 -18 10 -30 10 -20 10 -21 -5 -8 -9 7 -26 40
-38 72 -12 33 -26 59 -31 59 -14 0 -40 70 -33 88 3 9 3 13 -1 9 -4 -4 -21 23
-37 60 -16 38 -43 87 -59 111 l-30 44 32 -17 c17 -9 82 -22 145 -30 63 -8 124
-17 137 -20 13 -2 36 -7 51 -9 16 -3 34 -10 41 -15 16 -13 225 -101 241 -101
7 0 20 27 30 61 9 34 25 81 36 105 17 42 17 44 1 35 -10 -5 -24 -6 -31 -1 -10
6 -7 10 10 15 13 4 47 30 74 59 56 58 146 127 220 170 28 16 70 44 94 63 l44
33 -34 -6 c-19 -4 -42 -11 -51 -15 -27 -14 -34 -10 -12 6 16 13 13 13 -21 0
-22 -9 -58 -24 -80 -32 -22 -9 -47 -22 -55 -28 -8 -7 -35 -23 -60 -35 -25 -13
-76 -52 -115 -87 -38 -35 -100 -82 -137 -104 -37 -23 -88 -59 -112 -80 -43
-38 -47 -39 -68 -25 -13 8 -85 26 -160 41 -75 14 -169 37 -209 50 -40 14 -74
25 -76 25 -2 0 16 -39 40 -87 24 -49 61 -131 82 -183 21 -52 45 -102 52 -111
18 -21 16 -29 -6 -29 -14 0 -33 33 -81 143 -56 127 -102 241 -117 289 -3 11
-34 27 -83 43 -74 25 -132 66 -116 82 4 5 30 8 58 8 48 0 51 -1 111 -67 61
-66 63 -68 147 -88 47 -11 134 -29 194 -40 l109 -20 46 43 c90 84 179 135 287
166 38 10 107 42 154 70 94 56 264 131 380 167 52 17 100 24 156 24 57 0 105
7 165 26 46 14 117 28 157 31 l72 6 0 36 c0 46 25 111 98 259 33 64 64 138 72
164 11 43 11 49 -9 76 -33 47 -26 108 18 154 15 16 18 15 44 -13 19 -20 27
-40 27 -65z m-90 -113 c-8 -5 -76 -14 -150 -20 -166 -13 -289 -38 -479 -97
-187 -58 -342 -119 -506 -199 -255 -124 -690 -436 -699 -500 -2 -11 -6 -18 -9
-15 -3 3 -23 -11 -43 -30 -26 -24 -19 -12 24 40 61 76 106 117 264 247 259
211 686 418 1083 523 138 37 563 79 515 51z m380 -12 c333 -44 849 -249 1164
-461 157 -106 412 -334 446 -399 11 -20 11 -22 -1 -12 -8 6 -18 12 -24 12 -5
1 -10 7 -10 14 0 6 -7 12 -15 12 -8 0 -15 5 -15 10 0 19 -41 58 -160 154 -224
180 -326 247 -544 356 -145 73 -298 134 -496 198 -197 65 -328 93 -515 112
-100 11 -123 14 -129 21 -8 8 200 -4 299 -17z m-510 -69 c-14 -4 -38 -8 -55
-9 -16 -1 -43 -8 -58 -16 -15 -8 -55 -20 -89 -26 -44 -9 -56 -14 -43 -19 15
-5 11 -9 -20 -14 -75 -14 -279 -77 -395 -123 -320 -125 -631 -303 -860 -492
-25 -20 -65 -52 -90 -70 -44 -32 -44 -32 10 20 31 30 100 86 155 126 55 39
114 84 130 98 l30 27 -35 -23 c-19 -13 -71 -50 -115 -83 -44 -33 -106 -80
-138 -104 -82 -61 -89 -48 -10 18 297 247 550 400 877 527 246 95 371 129 616
166 14 3 45 4 70 5 36 0 40 -2 20 -8z m572 -20 c355 -68 873 -292 1125 -487
34 -27 94 -73 135 -105 114 -88 218 -188 190 -183 -13 2 -56 32 -95 66 l-72
63 65 -67 c35 -37 61 -67 58 -67 -7 0 -192 143 -216 166 -88 89 -412 272 -710
403 -91 40 -406 136 -530 161 -39 8 -58 16 -51 21 15 9 -6 19 -86 43 l-50 15
70 -5 c39 -3 114 -14 167 -24z m-2627 -2 c-27 -4 -60 -6 -72 -3 -12 3 -37 -4
-55 -14 -53 -31 -242 -73 -353 -78 -93 -5 -182 7 -247 32 -17 7 -17 5 -3 -29
18 -42 18 -46 5 -46 -5 0 -10 11 -10 24 0 14 -5 28 -11 31 -6 4 -8 13 -5 21 3
7 -5 20 -17 29 -31 22 -8 19 75 -11 67 -25 81 -26 178 -21 67 4 154 19 240 40
105 26 156 33 230 33 83 0 89 -1 45 -8z m5087 -313 c-8 -88 -17 -163 -21 -167
-3 -4 -1 61 5 145 7 83 11 153 9 155 -1 1 -29 -1 -61 -4 l-59 -7 40 -13 c30
-10 32 -12 10 -9 -230 35 -247 34 -317 -15 -70 -50 -94 -102 -85 -181 9 -74
36 -119 87 -146 107 -57 248 1 280 115 14 53 13 177 -2 190 -7 5 -39 17 -72
26 -79 23 -67 29 19 10 39 -9 76 -16 84 -17 11 0 13 -22 8 -123 -8 -150 -19
-181 -64 -175 -7 1 -13 -2 -13 -7 0 -14 -74 -51 -117 -58 -93 -15 -200 53
-222 141 -24 95 -10 150 56 222 55 60 77 66 243 64 80 -1 159 2 175 7 17 5 30
9 31 8 0 -1 -6 -73 -14 -161z m-2257 115 c6 -4 18 -7 27 -7 22 0 98 -33 98
-43 0 -5 8 -11 18 -15 9 -3 2 10 -18 31 l-35 36 33 -16 c18 -9 36 -15 41 -12
4 3 20 -2 36 -10 15 -8 53 -22 84 -31 62 -18 384 -178 389 -193 2 -6 8 -10 14
-10 5 0 34 -17 64 -37 36 -25 54 -45 54 -59 0 -12 10 -25 25 -32 33 -15 23
-39 -23 -52 -30 -8 -39 -7 -48 5 -6 8 -17 15 -25 15 -11 0 -11 -2 1 -11 12 -8
10 -9 -7 -4 -16 4 -23 2 -23 -8 0 -7 -6 -14 -12 -14 -7 0 -25 -3 -41 -6 -18
-4 -25 -2 -21 5 5 7 0 9 -14 6 -21 -6 -27 10 -8 23 4 4 3 10 -3 13 -6 4 -11 3
-11 -2 0 -6 -7 -13 -16 -16 -8 -3 -12 -2 -9 4 6 10 -24 29 -55 35 -10 2 -36
15 -59 29 -23 15 -62 33 -87 42 -25 8 -60 24 -77 35 -18 11 -40 22 -49 25 -10
4 -18 12 -18 19 0 15 -27 28 -41 19 -5 -3 -9 0 -9 6 0 6 -12 23 -27 37 -16 14
-20 20 -10 13 9 -7 17 -9 17 -4 0 4 11 -3 25 -16 35 -33 31 -19 -6 21 -17 19
-28 27 -24 19 3 -8 0 -6 -9 4 -8 10 -13 22 -11 27 12 19 -114 96 -195 120
l-45 13 35 6 c35 6 56 3 75 -10z m-1211 -21 c-3 -5 -10 -9 -16 -9 -5 0 -32
-11 -60 -25 -55 -28 -62 -30 -53 -15 10 16 -1 11 -16 -7 -8 -9 -9 -14 -4 -11
6 4 17 3 24 -2 11 -6 7 -13 -15 -31 -64 -54 -75 -69 -69 -92 4 -14 3 -18 -3
-9 -11 16 -84 23 -79 8 2 -6 11 -10 20 -10 18 2 31 -22 17 -31 -6 -4 -10 -1
-10 5 0 6 -10 8 -24 4 -17 -4 -28 0 -36 13 -10 15 -11 15 -6 1 3 -11 -3 -24
-17 -33 -20 -15 -20 -16 -2 -13 34 5 22 -26 -15 -40 -19 -8 -42 -15 -52 -16
-9 -1 -23 -8 -32 -15 -11 -9 -16 -10 -16 -2 0 6 -4 11 -10 11 -5 0 -10 -11
-10 -25 0 -19 -5 -25 -21 -25 -16 0 -20 4 -15 18 7 16 6 16 -10 0 -13 -13 -22
-14 -40 -6 -18 9 -30 6 -58 -10 -30 -18 -36 -19 -47 -6 -9 11 -9 14 0 14 7 0
9 5 5 11 -4 8 -9 8 -17 0 -17 -17 -27 -13 -27 9 0 11 -4 20 -9 20 -5 0 -11 7
-14 14 -4 10 -1 13 9 9 7 -3 14 -9 14 -13 0 -4 7 -10 14 -13 11 -4 13 -1 9 10
-5 12 -1 14 16 8 20 -6 22 -5 12 13 -7 14 -8 23 -1 27 6 4 8 11 5 16 -4 5 -2
9 4 9 18 0 22 -19 5 -28 -10 -6 -13 -12 -6 -16 6 -3 13 -2 17 4 3 5 18 10 32
10 21 0 23 2 13 15 -10 11 -9 18 3 30 10 9 18 11 22 5 3 -5 11 -10 16 -10 6 0
8 4 4 9 -3 6 3 15 14 21 17 9 19 8 15 -5 -4 -8 -1 -15 6 -15 6 0 10 8 8 18 -3
12 -12 16 -33 15 -29 -2 -29 -1 9 17 21 11 45 25 54 32 8 7 17 12 18 11 2 -1
23 6 46 17 23 10 47 16 52 12 6 -3 4 -8 -4 -10 -8 -3 -17 -9 -20 -13 -3 -5
-16 -10 -28 -12 -31 -5 -38 -16 -8 -13 15 2 30 -3 34 -11 12 -20 62 21 57 46
-2 14 3 17 24 16 20 -1 27 3 27 17 0 10 -7 18 -16 19 -34 1 68 31 115 34 28 1
66 9 85 18 56 25 108 29 94 6z m3256 -39 c44 -22 80 -80 80 -128 0 -41 -26
-88 -62 -114 -18 -12 -29 -17 -25 -12 4 7 -14 10 -53 8 -33 -2 -60 1 -60 5 0
5 -11 11 -25 13 -13 3 -22 1 -19 -3 3 -5 1 -9 -4 -9 -13 0 -49 45 -45 57 2 6
-1 14 -6 18 -22 13 -12 82 15 115 57 67 134 86 204 50z m-5207 -13 c48 -20 89
-85 81 -126 -9 -43 -44 -67 -75 -51 -19 11 -21 10 -16 -4 5 -13 0 -15 -31 -12
l-37 4 30 -13 c24 -11 26 -14 9 -15 -26 0 -114 55 -114 72 0 10 -2 10 -8 1 -4
-7 -9 7 -10 31 -1 36 4 49 26 71 27 28 75 54 100 55 7 0 27 -6 45 -13z m5123
-649 c-4 6 -5 12 -3 12 11 0 57 -82 51 -92 -5 -7 -3 -8 6 -3 10 6 12 4 7 -9
-4 -9 -3 -15 2 -12 8 5 132 -205 190 -321 46 -91 142 -347 138 -364 -3 -11 -2
-17 3 -14 12 7 19 -32 11 -61 -5 -21 -12 -9 -40 73 -82 236 -150 376 -356 731
-5 10 -22 33 -37 53 -37 48 -35 60 4 23 17 -16 28 -23 24 -16z m-344 -193
c205 -271 356 -597 437 -946 23 -96 45 -278 38 -305 -3 -12 -5 -7 -6 12 -2 48
-48 290 -67 348 -47 147 -103 296 -162 426 -69 155 -221 417 -302 525 -28 37
-50 68 -50 71 0 7 63 -67 112 -131z m323 17 c74 -102 123 -187 166 -290 22
-53 44 -105 49 -114 5 -10 7 -25 4 -35 -5 -15 -4 -16 6 -3 10 13 11 11 7 -8
-3 -12 -1 -20 3 -17 5 3 23 -39 41 -92 17 -54 34 -104 37 -112 4 -10 1 -12 -7
-6 -10 6 -12 0 -7 -26 4 -19 -11 14 -33 72 -101 274 -170 433 -228 520 -14 21
-22 43 -17 50 4 7 3 9 -4 5 -12 -7 -38 32 -33 53 1 7 -2 10 -8 6 -7 -4 -8 0
-4 11 4 12 3 15 -6 10 -6 -4 -11 -4 -10 1 3 19 -2 34 -10 28 -5 -3 -12 -1 -15
4 -4 5 1 8 9 7 8 -1 35 -30 60 -64z m37 49 c2 7 14 -5 27 -26 14 -25 17 -34 7
-26 -9 8 -16 9 -16 3 0 -12 30 -38 30 -26 0 5 5 1 11 -9 5 -9 7 -22 3 -29 -4
-6 -3 -8 3 -5 9 6 133 -197 133 -217 0 -4 17 -48 39 -99 21 -51 42 -103 45
-117 7 -24 6 -24 -9 3 -9 15 -18 27 -21 27 -3 0 -2 -6 2 -12 5 -9 4 -10 -4 -3
-6 6 -26 46 -45 90 -52 121 -180 371 -221 430 -13 20 -15 26 -4 17 12 -10 17
-10 20 -1z m-441 -83 c18 -29 74 -116 125 -193 50 -77 117 -196 149 -265 113
-245 197 -551 210 -765 5 -84 -5 -61 -21 50 -7 45 -8 47 -13 20 -8 -37 -16
-25 -26 35 -12 78 -71 280 -118 405 -85 227 -192 444 -296 598 -59 89 -69 110
-39 77 13 -14 34 -34 48 -45 l24 -20 -19 30 c-10 17 -24 40 -30 52 -7 13 -14
20 -17 17 -4 -3 -9 0 -14 7 -4 8 -3 10 4 5 15 -9 15 -1 2 25 -21 39 -1 17 31
-33z m-170 -396 c20 -18 45 -35 55 -36 12 -2 18 -10 16 -21 -2 -10 1 -14 8
-10 6 3 9 3 8 -2 -2 -4 5 -19 15 -33 17 -24 17 -24 17 35 0 33 3 71 6 85 4 20
3 22 -5 10 -12 -17 -13 -4 -2 25 14 35 24 -39 16 -120 -5 -56 -3 -80 9 -102 8
-17 29 -90 46 -163 19 -82 45 -164 69 -215 52 -108 59 -140 64 -267 3 -88 2
-103 -8 -84 -7 12 -15 65 -20 117 -6 88 -47 249 -63 249 -4 0 -8 -27 -9 -60
-1 -32 -9 -76 -18 -96 -8 -20 -15 -44 -15 -53 0 -9 -7 -29 -15 -45 -8 -15 -15
-33 -15 -38 0 -5 -7 -16 -15 -25 -8 -8 -12 -19 -9 -25 4 -6 2 -8 -3 -5 -11 7
23 136 53 204 8 17 14 63 14 105 0 63 -5 82 -33 138 -33 66 -112 170 -152 202
-19 15 -24 15 -28 3 -3 -7 -2 -29 4 -47 5 -18 9 -44 9 -58 0 -15 19 -64 41
-111 37 -75 83 -199 76 -206 -2 -1 -25 43 -52 98 -27 55 -51 96 -53 89 -2 -6
-14 8 -25 32 -27 55 -105 129 -174 166 -37 20 -50 31 -40 35 20 7 74 -20 141
-72 29 -23 56 -41 59 -41 10 0 8 50 -4 95 -14 50 -61 102 -116 126 -24 10 -43
23 -43 28 0 16 49 -5 95 -41 l40 -31 -30 32 c-16 18 -66 57 -109 87 -46 31
-72 54 -61 54 25 0 101 -45 150 -88 l39 -36 7 25 7 24 2 -25 c1 -14 2 -30 1
-35 0 -6 11 -19 26 -30 34 -25 98 -89 139 -141 l32 -39 -17 81 c-21 98 -47
144 -115 205 -28 26 -66 68 -85 95 l-34 49 34 -30 c19 -16 50 -45 70 -63z
m-3912 21 c-8 -10 -22 -25 -31 -33 -31 -28 -109 -125 -125 -154 -18 -35 -66
-196 -60 -203 3 -2 8 8 11 23 4 15 14 37 23 48 15 21 15 20 9 -6 -3 -14 -9
-34 -12 -45 -4 -10 8 3 26 29 17 27 63 81 101 122 38 41 69 81 69 90 0 9 5 16
10 16 6 0 10 -5 10 -11 0 -6 17 2 38 18 74 59 65 45 -50 -73 -118 -121 -192
-210 -204 -247 -5 -16 -8 -17 -16 -6 -7 10 -8 5 -4 -16 5 -23 4 -27 -5 -15 -8
12 -9 8 -5 -18 3 -18 2 -31 -2 -28 -4 2 -7 -38 -7 -89 0 -61 -3 -86 -8 -72 -5
12 -6 49 -3 82 3 41 2 53 -4 38 -14 -35 -20 -27 -9 13 6 19 8 41 6 47 -2 7 -7
-4 -11 -23 -4 -19 -22 -64 -39 -100 -27 -56 -32 -80 -37 -170 -8 -154 -28
-175 -26 -29 l1 114 49 105 c35 75 55 136 71 220 13 63 33 137 44 163 12 27
21 55 21 63 0 9 4 13 8 10 4 -2 23 17 41 44 19 27 37 48 41 45 4 -2 22 11 40
30 35 36 63 49 39 18z m4187 -140 c-8 -19 9 -33 39 -33 16 0 17 2 5 10 -8 5
-11 12 -7 17 9 8 28 -17 21 -28 -2 -4 0 -10 6 -14 5 -3 10 -14 10 -23 0 -13
-2 -13 -14 3 -13 18 -14 18 -9 -7 3 -18 10 -25 19 -21 8 3 14 -1 14 -8 0 -11
2 -11 8 -1 6 9 17 -3 36 -38 16 -28 26 -53 23 -56 -2 -3 -14 15 -26 38 -12 24
-19 33 -16 21 4 -15 2 -23 -7 -23 -9 -1 -7 -5 5 -14 9 -7 17 -17 17 -21 0 -5
10 -19 22 -32 19 -21 20 -23 4 -23 -15 0 -16 -3 -6 -15 12 -15 4 -20 -22 -16
-13 2 -9 -16 7 -29 20 -17 19 -36 -2 -45 -15 -5 -16 -4 -5 6 19 20 14 31 -10
27 -18 -2 -22 1 -20 16 3 15 1 16 -11 5 -12 -11 -12 -16 0 -27 17 -17 17 -23
-1 -16 -13 5 -36 46 -36 66 0 5 -12 19 -26 30 -14 12 -23 27 -20 35 3 8 2 11
-4 8 -11 -7 -24 56 -18 90 3 13 1 22 -3 19 -5 -3 -9 -11 -9 -19 0 -8 -4 -16
-9 -20 -6 -3 -6 6 -1 23 4 16 4 36 -1 43 -12 20 -11 52 2 44 6 -4 8 -14 4 -22
-4 -13 -3 -14 9 -4 9 8 13 24 11 42 -3 21 1 29 12 29 10 0 13 -6 9 -17z
m-4001 -122 c-80 -39 -112 -62 -161 -112 -69 -73 -144 -204 -170 -297 -20 -73
-29 -77 -14 -6 36 164 69 231 163 328 57 57 109 89 197 117 94 31 89 20 -15
-30z m442 -853 c7 -5 16 -7 22 -4 5 4 22 -5 38 -19 24 -22 25 -25 7 -20 -14 3
-21 1 -21 -9 0 -11 6 -12 26 -4 17 6 27 6 29 -1 2 -6 8 -8 13 -5 10 6 122 -46
115 -53 -2 -3 -14 1 -27 7 -12 7 -34 13 -48 14 -14 1 -37 6 -51 10 -23 7 -23
6 5 -14 17 -12 23 -19 15 -17 -101 35 -120 33 -76 -8 24 -23 25 -25 7 -25 -29
0 -36 -18 -9 -22 13 -3 -4 -8 -37 -13 -43 -6 -94 -3 -185 10 -69 10 -132 20
-140 22 -52 15 55 -33 131 -58 112 -38 153 -36 257 10 95 42 114 36 26 -8 -90
-45 -172 -52 -264 -23 -74 23 -240 97 -197 87 19 -4 26 -2 22 5 -8 13 -7 13
62 -5 31 -8 75 -15 98 -14 36 1 33 3 -40 23 -78 23 -79 23 -45 31 30 7 32 9
15 15 -11 4 -23 3 -27 -4 -4 -6 -10 -8 -13 -5 -3 4 -34 1 -68 -7 -34 -7 -63
-11 -65 -10 -1 2 56 22 128 45 169 55 254 68 288 47 7 -4 16 -6 19 -3 13 14
-45 29 -98 25 -63 -5 -70 0 -17 11 38 8 88 3 105 -11z m-1937 -53 c35 -18 40
-28 8 -16 -27 10 -68 2 -68 -13 1 -6 15 -20 32 -31 17 -11 34 -27 36 -35 4
-12 3 -13 -10 -2 -13 10 -15 9 -11 -12 3 -13 0 -27 -6 -30 -6 -4 -11 -16 -11
-27 0 -11 -4 -17 -10 -14 -5 3 -10 -2 -10 -12 0 -11 -3 -14 -8 -7 -7 12 -52
11 -72 -1 -6 -4 -23 4 -37 16 l-26 24 19 -30 18 -30 -27 24 c-27 25 -35 55
-18 66 12 7 10 45 -2 45 -5 0 -6 -7 -3 -16 5 -13 4 -14 -7 -6 -8 7 -18 8 -23
4 -5 -4 2 6 16 23 77 90 149 117 220 80z m6648 -26 c24 -22 30 -25 17 -9 -14
18 -10 16 15 -7 44 -41 81 -99 57 -90 -11 4 -14 2 -10 -8 3 -8 8 -13 12 -11 4
3 7 -6 6 -18 0 -29 -24 -58 -42 -52 -8 3 -11 1 -8 -4 7 -11 3 -12 -35 -15 -14
-1 -36 -6 -50 -10 l-25 -8 25 22 c14 12 21 21 15 20 -5 -1 -17 -1 -25 0 -13 1
-13 2 0 11 10 6 3 7 -24 3 -28 -4 -37 -3 -32 5 4 8 -3 16 -18 22 -14 5 -26 14
-26 20 0 5 -5 10 -11 10 -5 0 -7 -5 -3 -12 4 -7 3 -8 -4 -4 -18 11 -14 50 6
77 11 13 19 32 19 42 0 19 -12 23 -22 7 -11 -17 -23 -11 -18 9 7 28 42 41 96
37 38 -2 56 -10 85 -37z m-2474 -740 c89 -15 229 -90 281 -150 12 -13 1 -8
-25 12 -25 20 -52 39 -60 43 -8 4 -3 -2 13 -14 15 -12 25 -26 22 -30 -3 -5 0
-12 6 -16 8 -5 9 -3 4 7 -8 12 -6 12 8 0 18 -15 23 -26 7 -16 -16 10 -12 -7 8
-29 9 -11 -5 -1 -33 23 -27 24 -49 48 -47 53 1 5 -2 7 -8 3 -5 -3 -23 3 -39
14 -42 30 -153 81 -163 75 -4 -3 -8 0 -8 5 0 6 -3 10 -7 9 -12 -3 -153 23
-153 28 0 6 119 -5 194 -17z m-1703 -89 c-18 -17 -39 -30 -45 -30 -7 0 -21 -7
-32 -16 -10 -8 -13 -13 -6 -9 6 3 12 3 12 0 0 -3 -20 -15 -45 -26 -25 -11 -45
-24 -45 -29 0 -15 10 -12 65 15 l49 26 -34 -36 c-64 -66 -174 -146 -227 -165
-61 -21 -67 -18 -20 10 17 11 26 20 18 20 -8 0 -2 9 12 21 17 13 26 29 25 44
-2 23 -3 23 -23 8 -11 -9 -46 -44 -78 -77 -49 -52 -55 -56 -37 -24 49 85 205
226 237 214 8 -3 12 -2 9 2 -7 12 101 45 117 36 6 -4 9 -3 4 1 -4 5 10 16 30
26 52 24 53 23 14 -11z m1658 -15 c78 -26 164 -72 211 -112 17 -14 30 -22 30
-18 0 4 7 2 15 -5 8 -7 15 -19 15 -27 0 -8 11 -29 24 -46 42 -58 40 -63 -5
-12 -71 81 -84 92 -130 115 -54 27 -45 16 15 -19 61 -36 156 -157 141 -181 -3
-6 -1 -10 4 -10 6 0 11 -4 11 -10 0 -5 -19 5 -43 23 -23 17 -79 47 -125 66
-88 36 -181 109 -167 132 5 7 4 10 -1 7 -5 -3 -18 6 -29 21 -11 16 -13 21 -4
14 9 -7 18 -10 21 -7 4 3 20 -2 37 -10 17 -9 34 -17 38 -17 17 -2 82 -40 129
-74 l49 -36 -42 38 c-22 21 -75 56 -118 77 -77 40 -137 86 -113 86 7 1 0 7
-17 15 -47 21 -25 17 54 -10z m-49 -92 c0 -11 106 -113 118 -113 5 0 19 -9 32
-20 12 -11 27 -17 33 -13 6 4 7 1 2 -7 -6 -10 -4 -12 9 -7 9 4 15 3 12 -2 -3
-4 12 -16 34 -26 22 -10 37 -22 33 -28 -3 -6 -1 -7 5 -3 14 8 50 -9 75 -36 18
-18 18 -19 -10 -12 -128 29 -199 60 -261 115 -44 38 -101 112 -74 95 6 -4 12
-3 12 3 0 5 -5 13 -10 16 -10 6 -50 79 -50 91 0 4 9 -5 20 -19 11 -14 20 -29
20 -34z m-734 -213 c48 -69 71 -121 89 -195 11 -48 12 -70 5 -75 -6 -4 -11
-31 -12 -61 -1 -57 -34 -153 -50 -143 -5 3 -8 0 -7 -7 3 -14 -27 -79 -37 -79
-2 0 3 15 12 33 10 17 18 41 19 52 2 11 12 56 24 99 11 44 21 98 21 121 0 62
-42 181 -100 281 -52 91 -71 144 -22 64 15 -25 41 -66 58 -90z m-152 -167 c-4
-65 -2 -84 16 -118 l20 -40 -6 57 c-7 79 3 128 28 128 16 0 18 -5 13 -37 -4
-31 -2 -28 13 17 15 44 21 51 27 36 15 -34 10 -136 -10 -208 -6 -22 -5 -22 9
2 8 14 13 32 10 41 -2 9 1 23 9 31 7 7 12 19 9 27 -3 8 0 11 6 7 7 -4 13 8 15
31 3 21 3 -5 1 -57 -2 -52 -7 -108 -12 -125 -16 -53 -72 -156 -82 -150 -6 3
-10 -5 -10 -19 0 -14 -4 -26 -8 -26 -9 0 -48 81 -44 93 1 4 -3 7 -9 7 -5 0 -8
4 -5 9 3 5 -4 35 -15 67 -11 33 -22 95 -25 139 l-4 80 13 -48 c19 -66 28 -69
20 -9 -5 44 11 142 23 142 2 0 1 -35 -2 -77z m2740 -932 c12 -13 26 -19 37
-16 12 4 22 -2 30 -17 l12 -23 -24 20 -23 20 17 -27 c9 -16 25 -40 35 -55 23
-36 32 -260 11 -268 -42 -15 -194 -34 -197 -25 -2 5 -19 10 -38 10 -24 0 -43
9 -66 31 l-33 31 31 -22 c25 -17 46 -22 101 -22 38 0 89 6 114 12 24 7 53 13
63 14 11 0 22 8 24 16 5 13 3 13 -13 0 -16 -14 -17 -13 -12 5 32 114 -4 249
-86 321 -23 20 -33 32 -22 26 11 -6 29 -20 39 -31z m-5334 -108 c0 -13 3 -13
25 1 31 20 41 21 25 1 -18 -22 2 -44 23 -26 11 9 17 8 26 -2 6 -8 7 -18 3 -22
-4 -5 1 -5 11 -2 13 5 17 1 17 -18 0 -14 5 -25 10 -25 13 0 -18 -61 -39 -77
-19 -15 -120 -13 -118 2 1 5 -11 10 -28 10 -30 0 -30 0 -33 65 -2 46 1 61 8
50 9 -13 10 -13 11 0 1 8 1 19 0 24 -1 5 6 17 15 27 18 20 44 15 44 -8z m5322
0 c14 -16 33 -52 42 -81 15 -47 15 -55 1 -81 -17 -35 -56 -65 -65 -51 -3 5
-11 5 -20 0 -42 -27 -99 -2 -141 60 -33 48 -36 62 -13 53 12 -4 14 0 8 21 -7
29 6 51 40 67 16 8 15 6 -4 -10 -14 -11 -22 -23 -18 -26 8 -9 59 36 52 46 -7
11 41 23 66 16 11 -3 18 -1 14 4 -12 20 14 7 38 -18z m-2834 -1327 c-17 -95
22 -179 110 -239 41 -29 41 -29 71 -11 17 10 31 22 31 27 0 4 5 5 12 1 7 -4 8
-3 4 4 -4 7 -1 12 8 12 42 0 113 157 95 210 -6 16 -9 35 -6 42 6 17 27 -59 27
-98 0 -67 -13 -98 -65 -151 -28 -29 -50 -55 -47 -57 2 -3 -10 -12 -28 -21 -18
-9 -34 -14 -38 -11 -3 3 -1 6 4 6 6 0 19 7 30 14 17 13 14 13 -21 2 -33 -12
-42 -12 -60 0 -12 8 -25 12 -28 9 -4 -3 -4 -2 -1 2 3 4 -9 12 -27 18 -18 6
-35 18 -38 26 -4 12 -2 12 15 0 10 -8 7 -3 -7 11 -55 55 -72 95 -66 156 4 49
25 118 33 110 1 -2 -3 -29 -8 -62z m149 48 c-3 -3 21 -20 54 -36 36 -18 59
-36 59 -46 0 -15 2 -15 10 -2 8 12 10 11 10 -6 0 -12 3 -37 6 -55 3 -21 2 -29
-3 -22 -6 9 -12 3 -21 -20 -10 -29 -10 -30 3 -13 8 11 15 15 15 9 0 -6 -7 -16
-15 -23 -8 -7 -15 -9 -15 -4 0 4 -10 -2 -22 -13 -55 -49 -82 -48 -136 6 -17
17 -28 31 -26 31 3 0 -2 10 -10 22 -21 29 -19 74 5 123 10 22 16 29 13 15 -6
-23 -6 -24 12 -10 10 8 25 23 32 33 7 9 18 17 24 17 6 0 9 -3 5 -6z"/>
<path d="M4560 8385 c0 -7 4 -25 10 -40 7 -17 7 -24 0 -20 -15 9 -12 -8 6 -33
8 -12 19 -20 24 -17 4 3 14 -3 21 -13 13 -16 12 -16 -6 -2 -14 10 -13 6 5 -14
38 -42 77 -59 125 -54 46 6 101 41 111 70 3 10 9 16 14 13 5 -3 12 0 16 6 5 8
3 9 -6 4 -10 -6 -12 -4 -7 8 13 35 20 90 10 84 -6 -4 -13 -21 -17 -39 -4 -21
-18 -43 -38 -59 -47 -36 -68 -46 -33 -14 20 17 26 28 17 31 -6 3 -10 10 -6 15
3 5 0 9 -5 9 -6 0 -11 -5 -11 -10 0 -6 -13 -8 -31 -5 -17 3 -46 6 -65 7 -18 1
-31 5 -29 9 6 9 -22 6 -31 -4 -4 -4 6 -22 22 -40 l29 -32 -35 31 c-19 18 -43
30 -53 29 -9 -2 -15 1 -11 6 3 5 10 6 16 3 8 -5 9 -1 3 12 -4 10 -10 29 -12
41 -6 25 -33 40 -33 18z"/>
<path d="M4706 7468 c-10 -29 -40 -97 -67 -150 -88 -176 -124 -319 -41 -163
27 50 56 102 66 117 10 15 28 57 41 95 13 37 26 61 29 53 30 -85 50 -129 86
-186 23 -36 50 -86 61 -111 11 -25 22 -44 24 -41 10 10 -30 118 -85 228 -31
63 -63 133 -70 155 -19 60 -24 60 -44 3z"/>
<path d="M4449 7050 c-42 -10 -91 -22 -109 -29 -18 -6 -45 -11 -59 -12 -20 -1
-16 -3 14 -10 43 -10 167 -60 162 -65 -2 -2 -30 6 -63 18 -45 16 -90 22 -194
26 -132 4 -156 1 -242 -31 -59 -21 -57 -28 5 -21 48 6 61 4 78 -12 15 -14 36
-19 74 -19 38 0 51 -3 48 -12 -3 -8 4 -13 18 -13 39 -1 154 -45 204 -79 25
-17 47 -31 49 -31 2 0 17 30 34 68 26 58 70 229 60 236 -2 1 -37 -5 -79 -14z"/>
<path d="M3885 6856 l-67 -43 89 -7 c83 -7 95 -5 153 18 35 14 71 26 79 27 24
1 -140 48 -170 49 -9 0 -46 -20 -84 -44z"/>
<path d="M4699 6848 c-17 -39 -68 -98 -189 -223 -160 -164 -168 -174 -218
-278 -53 -110 -115 -257 -110 -262 2 -1 48 -26 102 -55 201 -106 318 -189 400
-282 47 -54 59 -52 63 8 1 17 26 80 56 140 30 60 59 125 65 144 16 54 23 151
13 190 l-9 35 -2 -35 c-8 -131 -21 -208 -37 -222 -14 -11 -15 -10 -9 12 6 19
5 21 -3 10 -6 -8 -11 -22 -11 -31 0 -9 -10 -24 -22 -35 -21 -19 -21 -19 -14 1
16 42 17 49 1 22 -9 -15 -20 -25 -25 -22 -4 3 -12 -9 -16 -27 l-7 -33 -13 30
c-7 17 -13 39 -14 50 -1 22 -27 62 -35 54 -2 -3 0 -20 5 -39 5 -19 8 -36 5
-38 -11 -11 -40 78 -52 158 l-12 85 3 -82 c1 -45 -1 -88 -5 -94 -4 -7 -8 -3
-8 12 -1 13 -4 59 -7 103 -5 70 1 119 22 182 3 11 -3 6 -14 -10 -12 -16 -26
-60 -32 -96 -17 -102 0 -181 70 -315 80 -153 83 -177 9 -65 -65 99 -138 259
-157 345 -19 87 -22 116 -12 110 5 -3 11 12 13 32 2 21 3 10 0 -24 -3 -58 10
-95 20 -56 3 10 6 0 7 -22 l2 -40 13 53 c18 72 56 175 70 187 7 6 24 31 38 56
14 25 33 51 41 58 8 7 12 20 9 28 -4 11 -2 14 5 9 8 -4 16 2 21 16 6 13 10 17
10 10 1 -7 5 -10 11 -7 5 3 7 0 4 -8 -2 -7 3 -22 13 -33 10 -11 15 -15 11 -10
-5 6 -8 17 -8 26 0 8 12 -3 25 -25 14 -22 23 -46 20 -53 -3 -7 0 -10 5 -7 6 3
13 -2 17 -12 3 -10 15 -30 25 -45 27 -38 68 -164 68 -207 0 -27 3 -32 10 -21
25 38 -10 204 -59 284 -26 42 -27 54 -2 32 20 -18 90 -216 92 -258 0 -13 7 0
14 27 12 47 13 48 13 15 0 -43 -35 -185 -37 -150 -2 15 -14 -13 -31 -68 -16
-52 -47 -124 -72 -163 -66 -108 -98 -163 -98 -173 0 -5 22 15 50 43 59 61 157
126 335 223 71 39 132 73 134 75 9 7 -32 111 -96 242 l-65 134 -147 147 c-105
103 -160 166 -190 218 -24 40 -44 72 -45 72 -2 0 -13 -24 -27 -52z"/>
<path d="M5385 6881 l-50 -18 55 -29 c45 -23 67 -28 120 -27 36 0 75 4 88 9
21 9 19 12 -33 43 -67 40 -113 46 -180 22z"/>
<path d="M5600 6875 c14 -15 50 -45 80 -66 30 -21 90 -66 133 -99 59 -45 77
-55 72 -39 -5 15 -4 19 5 14 6 -4 9 -17 6 -28 -6 -25 47 -97 72 -97 10 0 31
-10 47 -21 17 -12 21 -18 10 -14 -11 4 -34 13 -51 19 -18 6 -40 18 -50 26 -14
12 -13 8 4 -17 29 -41 62 -137 61 -177 0 -26 -2 -28 -9 -11 -5 11 -9 16 -10
10 -1 -5 -8 14 -15 42 -8 29 -23 70 -34 91 -28 55 -122 163 -135 155 -6 -3 -8
-3 -4 2 9 9 -62 91 -75 87 -5 -1 -6 1 -3 6 9 15 -81 34 -133 27 l-50 -7 102
-69 c56 -38 118 -83 137 -100 l35 -31 -34 17 c-18 9 -32 13 -30 8 2 -4 17 -32
32 -61 25 -49 64 -228 52 -241 -6 -5 -9 6 -30 94 -20 85 -73 188 -122 239 -53
55 -165 124 -210 131 -26 4 -64 -2 -123 -20 -47 -14 -93 -27 -103 -30 -10 -2
-35 -14 -55 -26 l-37 -21 25 22 c37 32 137 76 203 90 31 6 57 13 57 15 0 1
-29 14 -64 28 l-64 26 -58 -18 c-61 -19 -179 -74 -188 -89 -2 -4 10 -35 29
-68 19 -32 55 -97 80 -144 43 -80 50 -87 93 -103 78 -27 173 -89 235 -151 l58
-59 87 26 c48 14 148 42 222 60 122 31 377 130 404 157 16 16 -49 73 -178 156
-29 18 -29 18 -22 -4 11 -34 -11 -26 -30 11 -17 31 -17 32 2 18 10 -8 -8 13
-42 48 -33 34 -67 63 -76 64 -8 2 -30 15 -47 30 -18 15 -43 27 -57 27 -22 0
-132 42 -199 78 l-30 15 25 -28z"/>
<path d="M4070 6818 l-54 -22 39 -8 c67 -13 156 -41 162 -51 3 -6 1 -7 -6 -3
-6 4 -56 14 -111 21 -116 17 -133 13 -233 -52 -99 -66 -166 -163 -201 -295
l-15 -53 0 41 c-1 48 24 139 48 174 35 50 34 54 -2 23 -44 -39 -71 -44 -37 -8
28 30 169 128 248 172 l57 32 -73 1 c-57 0 -83 -5 -120 -24 -52 -26 -242 -214
-242 -238 0 -8 -13 -45 -30 -81 -16 -37 -30 -75 -30 -86 0 -21 34 -33 286
-100 l151 -40 50 48 c60 58 203 148 259 163 36 10 45 18 66 62 14 28 51 94 82
146 l56 95 -22 17 c-41 32 -172 81 -223 85 -35 2 -67 -4 -105 -19z"/>
<path d="M6010 6718 c30 -24 82 -64 115 -88 33 -25 78 -59 99 -77 43 -35 56
-39 73 -22 32 32 -187 186 -317 224 -18 6 -9 -6 30 -37z"/>
<path d="M3405 6728 c-93 -40 -265 -162 -265 -188 0 -4 12 -11 26 -14 22 -6
34 -1 63 27 20 19 70 57 111 85 148 101 174 137 65 90z"/>
<path d="M6724 6611 c-19 -17 -172 -61 -267 -76 -100 -16 -159 -34 -171 -54
-9 -15 6 -14 67 4 29 8 93 19 143 24 50 5 108 17 129 25 21 9 39 16 41 16 2 0
-12 -25 -32 -55 -59 -93 -111 -238 -94 -265 11 -17 34 20 60 95 11 32 47 110
81 173 56 106 67 135 43 113z"/>
<path d="M4160 6379 c-41 -23 -95 -56 -120 -74 -50 -37 -106 -93 -99 -99 7 -6
149 -76 174 -86 23 -9 25 -5 60 101 20 60 45 130 55 154 11 25 16 45 12 45 -4
0 -41 -19 -82 -41z"/>
<path d="M5264 6267 l51 -153 93 42 c52 23 96 45 100 48 10 10 -59 75 -133
126 -60 40 -147 90 -158 90 -1 0 20 -69 47 -153z"/>
<path d="M3220 6142 c32 -67 50 -149 84 -393 26 -184 53 -278 109 -381 23 -41
37 -58 52 -58 11 0 99 9 195 21 96 11 237 23 313 26 l139 6 -9 56 c-15 101 -8
446 11 545 9 49 14 92 9 96 -13 13 -138 48 -226 64 -94 17 -159 23 -412 36
-107 5 -200 15 -230 24 -27 9 -53 16 -57 16 -3 0 6 -26 22 -58z m520 -162 c14
-7 26 -13 28 -12 10 7 29 -5 83 -55 34 -32 65 -56 68 -54 16 12 71 -109 100
-221 18 -68 39 -145 48 -171 8 -27 13 -51 10 -54 -9 -9 -38 57 -64 146 -28 99
-71 199 -93 221 -11 10 -11 12 -1 5 12 -9 12 -7 2 13 -7 12 -16 20 -21 17 -5
-3 -12 0 -16 6 -5 8 -3 9 6 4 8 -5 11 -3 8 6 -3 8 -12 14 -21 14 -8 0 -39 20
-69 44 -51 42 -140 91 -165 91 -6 0 -14 4 -17 8 -8 13 87 7 114 -8z m-140 -50
c39 0 139 -36 183 -67 45 -32 131 -137 152 -187 20 -46 19 -56 -3 -31 -9 11
-28 29 -42 40 l-25 20 20 -24 c11 -13 19 -25 17 -27 -1 -2 11 -31 28 -64 17
-33 26 -60 20 -60 -5 0 -10 3 -10 8 0 4 -18 8 -40 9 -48 2 -51 -4 -10 -19 17
-5 35 -18 40 -28 9 -16 6 -16 -45 -1 -34 10 -49 19 -42 24 7 5 3 6 -10 2 -55
-15 -215 108 -274 212 -42 73 -72 172 -57 190 6 7 6 13 1 13 -5 0 -18 7 -29
15 -14 11 -3 9 40 -5 33 -11 71 -20 86 -20z"/>
<path d="M6210 6183 c-29 -9 -125 -18 -270 -24 -124 -5 -270 -16 -325 -24 -99
-14 -272 -59 -288 -75 -5 -4 -1 -45 9 -91 14 -65 18 -130 19 -289 0 -113 -4
-231 -8 -262 l-8 -58 93 0 c51 0 190 -11 308 -25 118 -14 227 -25 242 -25 23
0 33 10 64 67 78 139 92 195 124 496 11 113 49 261 76 303 9 13 15 24 13 23
-2 -1 -24 -8 -49 -16z m-301 -167 c-2 -3 -47 -18 -99 -35 -52 -17 -121 -47
-152 -68 -64 -41 -72 -56 -12 -22 l39 23 -30 -30 c-16 -16 -34 -28 -40 -25 -5
2 -7 1 -3 -4 9 -10 -23 -35 -35 -28 -4 3 -2 12 5 21 12 15 11 16 -4 3 -10 -7
-16 -16 -14 -20 3 -4 -10 -26 -28 -48 -32 -41 -52 -88 -96 -227 -20 -67 -56
-146 -65 -146 -2 0 1 15 6 33 5 17 26 93 45 167 38 145 68 220 103 260 13 14
19 18 15 10 -4 -8 13 4 37 27 35 33 159 102 159 89 0 -2 22 2 50 8 53 12 126
19 119 12z m80 -73 c-43 -167 -136 -306 -243 -366 -23 -13 -81 -36 -127 -52
-46 -15 -101 -36 -122 -47 -22 -11 -41 -17 -43 -15 -3 3 15 15 40 27 53 25 64
38 42 46 -13 5 -11 13 16 48 l32 41 -48 -45 c-40 -37 -47 -41 -41 -21 5 18 4
22 -5 16 -9 -5 -11 -4 -6 4 4 6 11 9 15 6 8 -5 31 18 46 45 5 8 -4 4 -20 -10
l-27 -25 21 35 c26 44 27 63 1 30 -24 -30 -26 -20 -5 21 9 16 13 35 9 41 -4 6
-3 8 4 5 6 -4 24 15 41 43 18 30 50 62 76 79 24 15 41 31 37 35 -4 4 -2 6 3 4
6 -1 28 5 50 14 22 9 70 24 108 34 37 9 67 21 67 26 0 5 4 7 9 4 5 -4 20 -2
33 3 43 18 47 14 37 -26z m-29 -212 c-34 -69 -36 -75 -15 -67 27 10 -34 -70
-87 -115 -56 -47 -259 -131 -346 -143 -26 -4 -63 -10 -82 -13 -62 -10 -27 5
95 42 173 53 275 121 361 241 24 34 44 65 44 70 0 5 10 24 21 43 18 30 22 32
30 18 7 -12 1 -33 -21 -76z"/>
<path d="M4146 5990 c-25 -109 -38 -346 -26 -474 6 -61 13 -112 15 -114 2 -3
30 19 62 47 110 99 309 217 438 261 l50 17 -38 34 c-99 88 -357 250 -459 288
-27 10 -27 10 -42 -59z m215 -206 c25 -23 24 -84 -3 -84 -5 0 -17 -8 -26 -17
-16 -16 -16 -16 1 -10 10 4 17 2 17 -6 0 -7 7 -3 15 7 8 11 15 15 15 10 0 -36
-77 -47 -109 -15 -37 37 -53 79 -40 104 7 12 17 26 23 30 17 12 86 0 107 -19z"/>
<path d="M5170 6001 c-58 -31 -141 -79 -185 -105 -84 -51 -215 -151 -215 -165
0 -4 19 -13 41 -20 124 -37 347 -171 451 -269 l56 -53 9 58 c12 88 9 389 -5
468 -18 95 -31 145 -40 144 -4 0 -54 -26 -112 -58z m35 -216 c32 -31 32 -74 0
-109 -33 -35 -106 -38 -129 -4 -23 33 -20 87 6 115 30 32 90 32 123 -2z"/>
<path d="M4780 5661 c38 -34 197 -121 185 -101 -5 8 -3 11 6 8 8 -3 13 -10 12
-16 -2 -7 4 -9 14 -5 11 4 14 2 9 -5 -8 -13 43 -41 63 -34 8 3 11 0 7 -6 -9
-14 32 -42 52 -35 9 4 13 2 9 -4 -4 -6 14 -26 40 -46 77 -55 81 -54 21 3 -31
29 -55 57 -53 61 3 4 -3 6 -12 5 -10 0 -18 5 -18 12 0 17 -25 31 -42 25 -8 -3
-13 0 -11 8 2 9 -4 13 -16 11 -10 -2 -15 1 -12 7 10 16 -46 41 -67 30 -12 -7
-25 -5 -44 6 -16 9 -19 13 -8 10 31 -11 40 -11 40 0 0 6 -6 9 -12 9 -7 -1 -11
2 -8 6 5 9 -117 66 -160 75 l-30 6 35 -30z"/>
<path d="M4579 5651 c-82 -36 -209 -113 -203 -123 4 -7 2 -8 -5 -4 -14 9 -144
-81 -136 -94 3 -5 0 -12 -6 -16 -8 -4 -9 -3 -5 4 11 17 -9 15 -24 -3 -7 -8 -9
-15 -4 -15 4 0 2 -6 -4 -12 -7 -7 -18 -13 -24 -13 -6 0 -13 -7 -15 -15 -4 -12
-3 -12 5 -1 7 10 11 10 14 1 3 -10 9 -10 26 -1 13 7 20 16 18 20 -3 4 0 8 7 8
7 0 77 44 156 99 80 54 151 98 159 96 8 -2 11 1 7 7 -4 7 0 8 11 4 13 -5 16
-3 11 9 -8 22 2 29 24 17 14 -7 25 -6 39 4 18 13 18 14 1 28 -15 14 -21 14
-52 0z"/>
<path d="M4709 5634 c-13 -14 -81 -54 -151 -90 -71 -36 -181 -101 -246 -145
-64 -43 -122 -79 -129 -79 -7 0 -13 -1 -13 -2 0 -2 7 -41 15 -88 8 -47 15
-102 15 -122 0 -24 5 -38 13 -38 7 0 12 -14 13 -33 0 -18 10 -53 22 -78 21
-42 24 -45 57 -41 l35 4 -25 24 c-14 13 -25 31 -25 40 0 10 -7 26 -17 36 -15
17 -14 18 18 19 l34 1 -30 13 c-17 8 -23 14 -13 15 9 0 46 -16 83 -36 36 -20
69 -33 72 -30 4 3 1 6 -6 6 -7 0 -10 4 -7 8 5 9 -66 82 -118 120 -21 16 -24
22 -12 22 30 0 73 -28 115 -76 32 -37 41 -42 41 -27 0 11 -16 41 -36 67 -37
49 -51 86 -31 86 6 0 37 -27 68 -60 48 -52 56 -57 54 -35 -2 14 1 25 7 25 6 0
5 6 -2 15 -7 9 -10 18 -6 22 3 3 6 0 7 -8 0 -8 4 -5 8 6 10 24 -4 31 -131 65
-49 12 -88 27 -88 31 0 5 -7 5 -17 2 -10 -4 -14 -2 -10 4 9 15 80 15 71 0 -4
-7 -4 -9 1 -5 4 4 15 2 24 -5 14 -10 14 -10 4 4 -13 16 -8 29 9 29 5 0 6 -6 2
-12 -5 -7 6 -1 23 13 17 14 60 36 95 49 64 23 64 23 189 170 17 21 20 22 14 5
-12 -38 -80 -143 -89 -138 -5 4 -6 1 -2 -5 4 -6 1 -22 -5 -34 -20 -36 -38
-127 -28 -134 5 -3 9 -2 8 3 -4 15 13 43 26 43 8 0 22 -11 33 -25 17 -21 21
-22 26 -9 3 9 3 21 -1 26 -3 7 -1 8 5 4 8 -5 12 6 12 36 1 24 9 60 19 81 l18
39 11 -29 c29 -76 34 -110 29 -177 -6 -67 -5 -69 8 -39 23 53 75 124 87 117
21 -13 -20 81 -67 156 -13 19 -26 49 -29 65 -6 27 -5 28 6 10 20 -34 88 -117
88 -108 0 4 4 3 8 -2 13 -19 68 -54 93 -59 13 -3 51 -19 83 -36 50 -25 68 -30
105 -25 49 6 146 33 121 34 -8 1 -66 36 -130 79 -63 43 -169 107 -235 141 -66
34 -132 75 -147 90 l-26 29 -23 -24z"/>
<path d="M3219 5496 c-69 -80 -199 -290 -187 -302 2 -2 35 9 74 25 38 15 113
42 167 60 53 18 97 37 97 43 0 9 -81 165 -104 199 -10 14 -16 11 -47 -25z"/>
<path d="M6182 5503 c-6 -15 -31 -65 -57 -111 -31 -57 -42 -84 -33 -86 129
-41 279 -92 301 -103 15 -7 27 -11 27 -8 0 3 -14 34 -31 68 -44 87 -111 185
-157 230 l-39 39 -11 -29z"/>
<path d="M3965 5333 c-22 -2 -132 -12 -245 -23 -113 -11 -220 -21 -237 -22
-18 -1 -33 -4 -33 -6 0 -11 52 -100 100 -172 58 -86 252 -334 270 -345 6 -3
10 4 10 16 0 57 95 328 147 419 14 25 43 66 65 93 l39 47 -38 -2 c-21 -1 -56
-3 -78 -5z m-139 -166 c54 -46 19 -138 -50 -136 l-31 1 30 8 c23 6 25 8 8 9
-33 2 -53 12 -53 27 0 8 -5 13 -11 12 -6 -2 -16 5 -22 14 -9 14 -6 23 16 46
15 16 24 31 20 35 -3 4 10 7 30 7 23 0 45 -8 63 -23z"/>
<path d="M5418 5277 c85 -111 199 -383 205 -486 1 -23 4 -41 7 -41 6 1 112
139 218 284 78 107 157 234 150 241 -7 7 -549 65 -609 65 -14 0 -8 -13 29 -63z
m327 -103 c23 -21 27 -31 22 -61 -8 -46 -31 -71 -73 -79 -69 -13 -111 46 -80
111 29 60 84 73 131 29z"/>
<path d="M4082 5153 c-39 -82 -90 -195 -112 -252 -23 -57 -48 -117 -56 -133
l-15 -29 41 21 c52 27 52 18 -1 -13 -40 -24 -41 -25 -20 -37 12 -6 19 -15 16
-21 -4 -5 -11 -6 -17 -3 -5 4 -4 -4 3 -17 7 -13 31 -74 54 -135 23 -62 73
-169 111 -238 l69 -127 35 6 c29 4 31 3 13 -5 -13 -5 -23 -11 -23 -13 0 -6
228 -136 297 -171 29 -14 78 -36 109 -47 32 -12 76 -39 99 -60 l42 -38 33 34
c19 19 58 44 87 55 71 27 197 90 319 161 55 33 106 59 113 59 7 0 10 4 6 9 -3
5 -30 13 -60 16 -31 4 -58 12 -62 18 -4 6 2 8 18 4 13 -4 40 -10 60 -13 l36
-6 -13 78 c-16 91 -38 161 -70 226 -19 36 -28 45 -43 41 -28 -7 -22 -41 11
-55 15 -7 30 -19 33 -26 4 -11 -7 -13 -52 -8 -32 3 -73 10 -91 15 -29 9 -33 8
-28 -5 3 -9 6 -18 6 -20 0 -3 4 -3 9 0 4 3 17 -1 27 -9 19 -15 19 -15 0 -8
-15 5 -17 3 -11 -8 12 -19 -15 1 -67 50 -40 37 -44 37 -28 -3 12 -33 5 -34
-13 -1 -12 23 -13 17 -14 -65 l-1 -90 81 -25 c45 -14 89 -30 97 -35 32 -20 0
-18 -80 5 -47 14 -92 25 -100 25 -10 0 -20 -21 -30 -65 l-16 -65 21 20 c12 11
25 17 28 13 4 -3 7 -2 7 4 0 14 46 33 80 33 17 0 30 -5 30 -11 0 -6 -7 -8 -16
-5 -9 3 -12 2 -9 -4 4 -6 -7 -13 -24 -16 -17 -4 -31 -11 -31 -16 0 -6 -9 -8
-19 -5 -15 4 -18 1 -13 -12 5 -14 3 -14 -10 -3 -14 11 -17 10 -23 -8 -3 -11
-10 -18 -14 -16 -4 3 -14 -5 -22 -16 -8 -12 -29 -37 -48 -57 l-34 -36 47 87
c25 47 46 97 46 111 0 28 -17 46 -42 42 -9 -2 -19 4 -23 13 -5 13 -7 12 -19
-4 -14 -18 -15 -18 -21 9 -8 30 -24 37 -24 10 0 -10 -3 -33 -7 -51 -5 -25 -10
-32 -22 -27 -8 3 -19 0 -24 -7 -5 -8 -8 1 -8 25 0 41 -5 45 -31 21 -16 -14
-18 -14 -29 5 -9 17 -15 19 -30 11 -28 -15 -26 -75 5 -136 28 -55 31 -68 13
-61 -7 2 -13 10 -13 18 0 8 -12 19 -27 26 -16 7 -28 19 -28 28 0 9 -4 13 -10
10 -5 -3 -10 -1 -10 5 0 6 -4 8 -10 5 -5 -3 -23 1 -40 10 -16 8 -32 14 -35 13
-2 -2 -15 6 -27 17 -34 28 -63 33 -123 20 -25 -6 83 48 201 100 27 12 30 18
26 45 -4 30 -5 30 -28 15 -13 -8 -36 -22 -51 -32 l-28 -16 26 24 c29 27 36 64
10 54 -11 -4 -10 0 4 15 10 12 20 34 21 50 2 26 0 29 -17 19 -11 -6 -53 -16
-94 -23 l-75 -13 7 26 c3 14 9 28 12 31 3 3 7 12 9 20 2 8 0 12 -4 8 -4 -4
-13 -3 -21 3 -19 17 -88 -137 -97 -216 -12 -115 -24 -124 -19 -15 4 75 10 111
22 125 8 11 9 15 2 8 -20 -17 -57 23 -40 44 7 7 9 16 5 20 -3 3 -6 1 -6 -5 0
-7 -4 -12 -10 -12 -5 0 -7 6 -4 14 3 8 0 17 -7 22 -8 4 -10 3 -5 -4 4 -7 5
-12 3 -12 -3 0 -15 19 -27 42 -12 23 -29 47 -37 54 -9 6 -13 16 -9 22 4 7 26
2 67 -14 90 -37 139 -41 164 -14 l19 21 -29 -6 c-24 -5 -27 -4 -15 5 12 9 8
10 -17 5 -45 -9 -41 0 10 27 30 16 37 23 24 26 -9 2 -15 7 -13 10 2 4 -21 6
-52 4 -35 -1 -80 5 -116 16 l-59 19 54 8 c30 4 68 9 84 12 17 2 40 5 53 6 12
1 20 7 18 12 -2 6 16 9 47 6 l50 -3 -44 55 c-62 78 -99 83 -216 31 -29 -12
-53 -20 -53 -16 0 15 19 36 26 29 4 -4 17 -1 28 7 12 7 51 23 89 36 37 12 67
24 67 25 0 1 -12 23 -26 49 -14 25 -22 51 -18 58 23 40 -14 -11 -50 -68 -23
-37 -49 -68 -59 -70 -15 -2 -14 4 7 39 14 22 32 49 40 58 8 10 12 20 9 22 -2
3 3 17 13 32 15 22 16 42 11 137 -4 62 -10 115 -15 120 -4 4 -40 -58 -80 -139z"/>
<path d="M5215 5284 c-22 -8 -48 -13 -58 -10 -9 2 -15 0 -12 -4 3 -5 -9 -13
-27 -18 -178 -52 -188 -56 -188 -75 0 -10 8 -26 18 -35 10 -10 12 -13 5 -8
-17 11 -16 -4 1 -27 14 -17 16 -17 37 12 12 17 26 28 30 25 5 -3 6 1 3 9 -3 8
2 20 11 27 8 7 15 9 15 5 0 -4 11 0 24 8 40 27 26 -4 -33 -72 -29 -33 -51 -61
-48 -61 3 0 29 20 58 45 59 50 66 53 64 26 -1 -11 -32 -44 -73 -76 -40 -31
-72 -58 -72 -60 0 -2 28 9 62 25 37 17 71 27 83 24 14 -4 16 -3 7 4 -11 7 -10
10 3 16 24 9 27 8 19 -6 -5 -8 -2 -9 10 -5 10 4 21 7 24 7 4 0 0 5 -8 10 -11
7 -2 10 33 10 38 0 47 3 47 18 1 28 17 145 25 175 8 32 0 33 -60 11z"/>
<path d="M5282 5229 c-14 -82 -16 -189 -3 -189 5 0 14 -14 20 -31 6 -18 29
-60 51 -95 27 -43 36 -64 27 -68 -7 -4 -2 -4 11 -2 12 2 20 0 16 -5 -3 -5 3
-9 12 -9 10 0 14 -3 11 -6 -4 -4 10 -15 31 -26 46 -23 91 -57 75 -58 -6 0 -18
6 -25 13 -23 22 -70 49 -75 43 -3 -3 -13 2 -22 12 -9 9 -23 19 -31 21 -8 2
-46 12 -85 22 -72 19 -119 25 -98 11 8 -5 6 -13 -7 -29 -9 -12 -19 -21 -21
-20 -3 1 1 -2 7 -7 9 -7 5 -15 -12 -29 -13 -10 -24 -22 -24 -27 0 -9 128 -22
207 -21 29 0 53 -4 53 -9 0 -15 -65 -39 -123 -45 -99 -12 -101 -12 -83 -40 19
-29 20 -36 4 -30 -19 7 -68 14 -68 11 0 -2 15 -15 34 -30 l34 -26 82 25 c83
25 111 36 165 69 l30 18 -30 -26 c-47 -42 -53 -45 -59 -39 -3 4 -6 1 -6 -6 0
-7 -4 -9 -10 -6 -6 3 -7 -1 -4 -9 4 -9 -1 -18 -10 -22 -9 -3 -13 -10 -10 -15
3 -5 0 -9 -6 -9 -6 0 -8 -5 -4 -12 4 -7 3 -8 -4 -4 -7 4 -12 1 -12 -8 0 -8
-16 -42 -36 -75 -27 -45 -33 -64 -26 -78 5 -10 12 -45 16 -78 14 -134 13 -134
98 21 42 76 92 185 112 241 19 56 42 116 51 133 8 16 13 30 9 30 -4 0 -2 6 5
13 6 8 7 17 1 23 -5 5 -30 63 -55 128 -34 88 -183 405 -199 423 -1 1 -7 -29
-14 -68z"/>
<path d="M5980 5182 c-64 -102 -275 -384 -319 -426 l-30 -29 89 -96 c117 -127
186 -215 262 -333 72 -112 62 -109 198 -57 131 50 194 95 357 254 155 151 255
225 302 225 20 0 8 10 -52 45 -42 25 -77 48 -77 51 0 3 16 -3 36 -15 19 -12
44 -21 55 -21 10 0 19 -4 19 -10 0 -5 7 -6 17 -3 9 4 14 2 11 -3 -4 -5 6 -10
20 -11 23 -1 20 2 -18 22 -24 12 -51 20 -60 17 -8 -3 -12 -1 -7 3 9 10 -71 57
-84 49 -5 -3 -6 -11 -2 -17 8 -14 -105 85 -236 207 -53 48 -130 108 -171 132
-73 43 -216 104 -242 104 -7 0 -38 -40 -68 -88z m328 -244 c29 -11 51 -22 49
-24 -2 -3 -28 4 -56 16 -28 11 -62 20 -74 19 -12 0 7 -11 43 -24 37 -13 56
-24 45 -26 -45 -5 -95 -4 -95 2 0 4 -35 10 -77 13 -43 4 -86 10 -97 13 -12 3
-16 1 -12 -6 5 -7 -2 -11 -18 -11 -44 0 -125 -37 -212 -97 -47 -32 -95 -64
-107 -72 -37 -25 -2 8 101 92 94 78 105 83 250 117 29 7 75 9 105 6 37 -4 48
-3 37 4 -23 16 54 1 118 -22z m-61 -96 c76 -30 193 -86 193 -93 0 -4 -13 -9
-30 -12 -27 -6 -36 -20 -31 -49 1 -11 -66 -43 -128 -62 -76 -22 -167 -20 -246
5 -36 12 -63 24 -61 26 3 3 27 -3 55 -12 28 -9 59 -14 68 -12 13 3 11 5 -7 7
-14 1 -43 10 -65 20 l-40 18 40 -2 c22 -1 50 -8 62 -14 12 -7 32 -12 45 -11
15 0 18 3 8 6 -8 3 -28 11 -45 18 -16 7 -41 17 -55 22 l-25 11 35 10 35 10
-35 2 c-19 1 -27 4 -17 7 9 2 15 8 12 13 -3 5 4 11 15 15 11 3 20 10 20 15 0
5 -8 6 -17 3 -16 -6 -16 -5 -4 10 19 24 11 28 -33 16 -21 -6 -40 -8 -43 -5 -3
3 6 8 21 12 14 3 23 10 20 15 -3 5 2 6 10 3 8 -3 23 0 33 6 16 10 16 11 1 6
-30 -9 -20 3 14 17 39 16 123 7 195 -21z m-514 -156 c23 -12 71 -42 107 -65
87 -56 153 -74 275 -74 74 0 117 6 165 21 40 13 68 18 74 12 13 -13 -34 -30
-109 -40 -33 -4 -50 -8 -38 -9 32 -2 37 -18 5 -20 -82 -5 -162 -2 -202 9 -67
18 -159 65 -215 110 -27 22 -65 47 -82 55 -18 9 -33 18 -33 20 0 9 11 5 53
-19z"/>
<path d="M3732 4598 c-109 -123 -168 -200 -245 -319 l-56 -87 47 -5 c159 -20
594 -58 599 -54 3 4 -14 28 -37 54 -23 26 -60 79 -82 116 -48 82 -117 271
-126 346 l-7 54 -93 -105z"/>
<path d="M5616 4613 c-39 -168 -116 -327 -212 -440 l-37 -43 34 0 c18 0 87 7
154 15 130 16 422 45 450 45 14 0 13 7 -11 48 -53 92 -125 189 -235 317 -61
72 -114 131 -118 133 -4 1 -15 -33 -25 -75z"/>
<path d="M3861 4650 c-1 -22 47 -156 92 -261 28 -64 88 -160 96 -154 5 2 15
-3 22 -13 13 -15 12 -16 -3 -3 -32 24 -19 -4 17 -39 19 -19 35 -29 35 -22 0 7
-4 12 -8 12 -5 0 -9 6 -9 13 0 13 -102 207 -109 207 -3 0 3 -14 11 -31 9 -17
14 -33 12 -36 -8 -7 -59 110 -61 139 0 14 -4 24 -7 22 -4 -2 -19 26 -34 64
-15 37 -30 72 -35 77 -4 6 -10 19 -13 30 -4 17 -5 16 -6 -5z"/>
<path d="M5248 4104 c-16 -8 -28 -19 -28 -25 0 -6 -4 -8 -8 -5 -5 3 -24 -5
-43 -18 -51 -35 -247 -131 -304 -150 -49 -16 -88 -36 -72 -36 5 0 17 5 28 10
10 6 19 8 19 6 0 -3 -17 -14 -37 -25 -57 -30 -15 -26 90 9 108 37 249 108 297
150 19 17 30 29 24 26 -6 -3 -11 1 -11 8 0 8 6 12 14 9 7 -3 13 1 13 8 0 10 2
11 8 2 5 -8 17 -2 40 18 24 22 28 29 15 29 -10 -1 -30 -8 -45 -16z"/>
<path d="M4218 4078 c12 -13 20 -28 17 -31 -3 -4 -2 -5 2 -2 3 3 12 -4 20 -15
7 -10 20 -17 27 -14 8 3 17 0 22 -7 5 -8 3 -10 -6 -4 -9 5 -11 4 -6 -4 8 -13
66 -44 66 -35 0 3 14 -6 31 -21 18 -14 38 -24 45 -21 8 3 14 1 14 -5 0 -6 5
-7 10 -4 6 3 10 3 10 -2 0 -17 153 -68 178 -58 16 6 16 7 -1 20 -11 8 -26 11
-35 8 -9 -4 -13 -2 -9 4 4 6 -17 20 -51 34 -66 26 -198 92 -292 145 -56 32
-62 34 -42 12z"/>
<path d="M4136 4064 c-15 -51 -24 -240 -16 -341 7 -95 31 -221 46 -245 16 -26
524 287 524 323 0 5 -15 9 -34 9 -36 0 -184 48 -251 82 -62 32 -186 117 -226
155 -33 31 -38 33 -43 17z m222 -230 c28 -20 31 -93 5 -116 -21 -18 -94 -18
-115 0 -18 14 -21 68 -7 94 20 37 80 48 117 22z"/>
<path d="M5275 4044 c-127 -110 -269 -184 -433 -228 l-84 -22 73 -57 c87 -66
204 -137 352 -213 123 -63 111 -67 138 51 16 69 18 408 3 467 l-9 36 -40 -34z
m-93 -213 c38 -19 52 -64 32 -103 -8 -16 -18 -27 -21 -24 -3 3 0 14 8 23 13
17 13 17 -7 1 -24 -21 -84 -24 -102 -6 -7 7 -12 29 -12 49 0 31 5 40 33 57 17
10 34 18 37 18 3 -1 17 -8 32 -15z"/>
</g>
</svg>
