<?xml version="1.0" standalone="no"?>
<!DOCTYPE svg PUBLIC "-//W3C//DTD SVG 20010904//EN"
 "http://www.w3.org/TR/2001/REC-SVG-20010904/DTD/svg10.dtd">
<svg version="1.0" xmlns="http://www.w3.org/2000/svg"
 width="1080.000000pt" height="1080.000000pt" viewBox="0 0 1080.000000 1080.000000"
 preserveAspectRatio="xMidYMid meet">
<metadata>
Created by potrace 1.16, written by Peter Selinger 2001-2019
</metadata>
<g transform="translate(0.000000,1080.000000) scale(0.100000,-0.100000)"
fill="#000000" stroke="none">
<path d="M1200 8465 c0 -1284 3 -2335 8 -2335 4 0 54 47 111 104 58 58 108
103 113 100 4 -3 8 3 8 13 0 15 2 16 10 3 8 -13 10 -13 10 1 0 16 15 33 70 79
14 12 19 19 13 15 -7 -3 -13 -2 -13 3 0 5 17 18 38 27 44 21 55 35 40 52 -15
19 2 16 24 -4 18 -16 19 -16 25 5 6 25 40 30 45 7 7 -34 178 -202 264 -259 49
-33 101 -68 116 -78 32 -21 42 -23 32 -5 -4 7 -3 9 2 4 5 -5 9 -13 9 -17 0 -5
9 -16 20 -25 11 -9 14 -13 6 -9 -9 4 -12 2 -9 -7 3 -8 -1 -22 -10 -31 -16 -19
-4 -25 16 -8 8 7 9 7 3 -1 -5 -6 -7 -19 -4 -28 4 -14 3 -14 -6 -1 -6 8 -11 11
-11 6 0 -5 -8 -2 -17 6 -10 8 -30 18 -45 22 -25 6 -108 89 -108 108 0 5 12 -5
26 -22 15 -17 29 -29 31 -26 3 3 20 -6 38 -19 34 -26 80 -34 73 -12 -3 6 -31
28 -64 47 -57 34 -161 108 -233 167 -56 46 -99 73 -120 76 -11 2 -23 6 -26 8
-3 3 -33 2 -66 -3 -60 -8 -64 -11 -151 -93 -49 -47 -94 -82 -100 -79 -6 4 -8
2 -5 -3 4 -6 -31 -48 -78 -94 -81 -78 -85 -85 -85 -125 0 -39 5 -48 52 -91 29
-26 65 -60 80 -74 15 -15 29 -25 31 -23 2 3 35 -24 73 -59 97 -89 128 -108
187 -117 l52 -8 -53 -1 c-71 -1 -111 19 -174 88 -28 31 -56 56 -62 56 -6 0
-11 7 -11 15 -1 8 -6 14 -11 13 -6 -1 -42 29 -80 68 -37 38 -72 69 -76 69 -5
0 -8 -1343 -8 -2985 l0 -2985 4200 0 4200 0 0 2981 c0 1973 -3 2987 -10 2999
-7 13 -7 21 0 25 5 3 10 26 10 50 0 43 -2 46 -145 186 -79 78 -142 146 -139
151 3 4 0 7 -8 6 -7 -2 -12 3 -10 10 1 6 -6 12 -15 12 -13 0 -14 3 -5 12 10
10 45 -21 167 -142 l155 -155 0 2333 0 2332 -266 0 c-174 0 -263 -3 -259 -10
3 -5 2 -10 -4 -10 -5 0 -13 5 -16 10 -10 16 -3432 14 -3438 -2 -4 -10 -6 -10
-6 0 -1 9 -391 12 -1917 12 -1814 0 -1918 -1 -1930 -17 -13 -17 -13 -17 -14 0
0 16 -20 17 -275 17 l-275 0 0 -2335z m6429 2264 c100 -21 250 -134 361 -270
105 -129 170 -275 154 -347 -4 -20 -7 -46 -6 -57 1 -11 4 -46 5 -78 2 -32 8
-61 13 -65 25 -16 33 -49 23 -86 -6 -21 -8 -43 -6 -49 2 -7 10 7 16 30 6 23
16 45 21 48 6 3 18 24 29 47 11 25 21 36 26 29 13 -21 10 -274 -5 -365 -10
-63 -20 -96 -34 -110 -15 -15 -16 -18 -3 -13 12 5 17 1 17 -13 0 -21 -20 -39
-21 -18 0 7 -9 -16 -19 -52 -10 -35 -16 -69 -13 -74 4 -5 1 -6 -4 -3 -6 4 -31
-25 -56 -63 -26 -38 -73 -98 -104 -133 -66 -72 -133 -173 -105 -158 39 22 123
113 147 161 15 29 40 71 56 94 29 39 30 40 23 11 -3 -16 -7 -32 -6 -35 1 -55
17 -53 94 16 l63 56 3 -40 c2 -23 -2 -51 -9 -64 -11 -20 -19 -58 -22 -96 0 -7
-14 -28 -31 -47 -17 -18 -53 -59 -79 -89 -29 -34 -53 -54 -60 -50 -7 4 -9 3
-4 -1 8 -9 -40 -65 -56 -65 -5 0 -38 -20 -73 -46 -35 -25 -64 -42 -64 -39 0 7
-32 -10 -100 -54 -30 -19 -58 -34 -62 -33 -3 1 -12 -6 -20 -16 -12 -16 -11
-16 7 -2 19 14 19 14 6 -2 -7 -10 -17 -15 -23 -12 -14 9 -233 -138 -251 -169
l-17 -28 33 21 32 22 -35 -31 c-56 -50 -64 -56 -76 -53 -6 1 -19 -8 -30 -20
-19 -23 -19 -23 2 -5 11 9 23 14 26 11 8 -7 52 21 106 68 24 20 79 58 123 84
43 25 102 67 130 92 29 26 46 37 38 24 -8 -12 -17 -22 -20 -22 -4 0 -19 -17
-34 -37 l-28 -38 44 40 c24 22 46 42 49 45 38 36 164 88 180 73 3 -2 -19 -25
-48 -50 -60 -52 -183 -200 -153 -183 12 6 21 14 21 18 0 4 20 18 44 30 54 29
83 59 145 148 26 38 57 74 70 80 12 7 28 17 34 23 27 27 24 7 -5 -32 -143
-191 -177 -223 -293 -283 -81 -42 -221 -124 -284 -166 -24 -16 -45 -27 -48
-25 -3 4 93 80 161 127 43 29 76 58 76 66 0 4 8 17 17 28 10 12 2 6 -18 -11
-34 -32 -59 -42 -59 -24 0 5 7 14 15 21 8 7 15 17 15 22 0 10 -179 -141 -200
-169 -8 -10 4 -2 25 18 22 19 57 44 79 55 21 10 40 25 43 32 7 17 23 15 23 -3
0 -8 -21 -24 -46 -35 -25 -12 -65 -39 -88 -61 -24 -21 -45 -36 -48 -34 -5 6
-58 -58 -58 -70 0 -3 11 2 24 12 13 10 21 25 19 33 -4 13 -4 13 6 0 8 -12 5
-19 -16 -35 -15 -11 -28 -18 -28 -15 -1 3 -28 -19 -61 -48 -84 -76 -137 -106
-161 -91 -18 11 -18 13 9 41 41 45 34 52 -15 15 -28 -21 -44 -41 -45 -57 -6
-68 -65 -191 -146 -305 -32 -44 -65 -88 -73 -97 -8 -9 -12 -21 -9 -26 3 -5 -2
-16 -12 -23 -14 -11 -15 -11 -5 1 9 10 10 17 2 27 -17 20 -26 16 -38 -18 -14
-41 -14 -52 2 -43 10 7 -36 -61 -52 -76 -4 -3 -15 -17 -26 -31 -11 -14 1 -4
26 22 25 25 55 50 67 53 20 7 20 6 -4 -41 -30 -56 -81 -113 -103 -114 -12 0
-12 -2 -3 -6 7 -3 41 16 75 43 34 26 56 41 50 34 -7 -8 -13 -21 -13 -30 0 -21
-107 -151 -121 -147 -6 1 -13 -6 -14 -16 -2 -10 -12 -25 -22 -32 -29 -22 -130
-75 -142 -75 -20 0 -245 -100 -265 -118 -19 -17 -19 -16 0 17 23 40 84 79 181
115 37 14 64 25 59 25 -24 2 -137 -34 -176 -55 l-45 -25 30 26 c24 21 165 95
180 95 13 0 117 51 113 55 -2 3 -56 -18 -118 -45 -62 -27 -115 -48 -117 -46
-2 2 20 21 49 42 74 53 79 58 33 39 -22 -9 -57 -33 -79 -53 -24 -23 -34 -29
-28 -16 6 11 18 27 27 34 26 21 203 294 255 393 26 48 49 84 53 81 3 -3 6 2 6
12 -1 28 22 106 38 129 7 11 13 14 13 7 0 -25 15 -11 17 16 1 15 8 54 16 87
11 51 11 63 0 73 -7 7 -13 18 -13 25 0 7 8 3 16 -8 10 -12 18 -16 21 -9 2 7
22 41 43 77 22 36 40 70 40 74 0 12 -85 93 -140 134 -25 19 -76 59 -115 90
-79 63 -114 84 -132 81 -7 -2 -13 2 -13 8 0 13 -125 95 -178 117 -20 8 -55 23
-77 33 -74 33 -160 66 -222 84 -34 11 -60 22 -58 27 6 9 114 -21 171 -46 104
-48 307 -147 317 -155 7 -6 50 -35 96 -66 46 -30 88 -59 95 -65 6 -5 40 -32
76 -61 36 -28 93 -78 127 -111 35 -32 67 -56 72 -53 4 3 14 20 21 38 6 18 21
51 33 72 l20 39 -29 24 c-100 82 -275 207 -370 264 -237 143 -353 196 -533
245 -147 39 -150 39 -196 -10 -22 -24 -51 -63 -64 -87 l-24 -44 23 20 c12 11
30 36 40 56 10 19 27 42 37 49 17 14 17 14 1 -6 -32 -37 -19 -37 21 -1 46 41
24 44 236 -28 143 -48 221 -82 212 -92 -3 -3 -30 7 -61 21 -30 14 -60 26 -66
26 -5 0 -18 4 -28 9 -33 17 -97 40 -132 47 -19 3 -39 10 -45 14 -5 4 -24 11
-41 14 -27 6 -35 1 -72 -38 -23 -25 -42 -50 -42 -55 0 -6 -6 -11 -14 -11 -8 0
-42 -36 -76 -80 -34 -43 -70 -82 -80 -85 -9 -3 -26 -15 -35 -26 -10 -11 -64
-33 -119 -51 -105 -32 -190 -69 -202 -89 -3 -6 13 0 37 14 45 26 309 117 338
117 22 -1 -42 -34 -115 -59 -160 -56 -189 -70 -279 -136 -52 -38 -97 -77 -100
-85 -6 -18 -62 -56 -76 -52 -6 1 -8 -1 -5 -6 3 -5 -15 -18 -39 -29 -25 -12
-46 -16 -48 -10 -1 5 -11 2 -20 -7 -9 -10 -17 -14 -17 -10 0 3 -6 1 -14 -5 -7
-6 -21 -8 -30 -5 -17 6 -45 -20 -45 -41 -1 -5 8 1 18 14 10 13 23 21 28 18 12
-8 117 20 158 40 47 25 94 65 116 101 11 17 25 32 31 32 5 0 29 16 52 35 56
45 161 94 227 104 29 5 55 14 57 20 2 6 8 11 13 11 22 0 110 63 105 76 -3 7 0
16 6 20 7 4 8 3 4 -4 -4 -7 -3 -12 3 -12 15 0 62 61 55 72 -4 6 -3 8 2 5 5 -3
21 9 34 26 51 65 96 106 123 113 27 6 26 3 -20 -42 -28 -28 -62 -76 -77 -109
-39 -86 -95 -140 -172 -165 -35 -11 -69 -20 -76 -20 -26 0 -339 -175 -365
-204 -25 -28 -25 -29 -3 -10 25 20 77 47 95 48 6 1 30 15 55 32 51 36 148 94
156 94 3 0 3 -4 0 -8 -3 -5 9 -6 27 -3 l32 5 -30 6 -30 5 41 13 c23 6 51 12
62 12 11 0 22 4 24 9 2 5 21 13 43 16 47 9 41 -4 -7 -15 -29 -7 -26 -8 20 -8
29 1 48 4 41 8 -8 6 -8 9 0 14 6 4 16 4 22 1 5 -4 47 17 92 46 59 37 92 53
119 53 20 1 34 4 32 7 -6 11 24 31 35 25 6 -4 8 -13 4 -21 -7 -19 4 -19 23 -1
12 12 10 16 -16 28 -17 7 -30 16 -30 20 0 3 29 -8 65 -25 35 -17 63 -33 60
-35 -2 -2 -13 1 -24 7 -16 9 -26 8 -46 -5 -14 -9 -28 -14 -31 -11 -12 12 -114
-49 -114 -68 0 -5 9 0 20 10 11 10 20 15 20 11 0 -10 -42 -45 -55 -46 -5 0 -3
5 5 10 8 5 11 10 6 10 -15 0 -77 -42 -71 -48 3 -3 11 0 17 6 14 14 48 16 48 3
0 -5 -8 -7 -19 -4 -10 3 -22 -1 -27 -8 -5 -9 -2 -10 11 -5 15 5 16 4 5 -9 -13
-16 -35 -21 -26 -6 11 17 -20 19 -70 5 l-49 -14 53 4 c29 3 50 1 48 -3 -3 -4
-34 -11 -68 -14 -35 -4 -92 -12 -128 -19 l-65 -13 104 -3 c144 -4 195 13 262
86 27 30 48 60 46 66 -3 10 16 36 27 36 9 0 7 -46 -4 -75 -5 -14 -31 -49 -57
-77 -60 -64 -35 -51 47 25 34 31 67 57 73 57 7 0 7 -4 -1 -12 -7 -7 -12 -16
-12 -21 0 -12 45 18 85 54 l29 28 -28 10 c-15 6 -36 11 -47 11 -10 0 -19 5
-19 10 0 13 7 13 56 -6 30 -11 47 -13 60 -6 15 9 13 12 -17 27 -33 17 -94 62
-74 54 75 -29 105 -43 105 -49 0 -5 18 -11 40 -15 22 -4 38 -12 37 -18 -1 -6
7 -13 18 -15 11 -2 24 -8 29 -12 12 -12 -36 0 -51 13 -7 5 -22 7 -33 4 -12 -3
-18 -1 -14 5 4 6 -1 8 -11 6 -10 -1 -20 -9 -23 -17 -3 -9 0 -11 9 -5 12 7 12
5 0 -9 -7 -9 -22 -17 -32 -17 -35 0 -28 -18 14 -35 23 -9 82 -42 130 -73 75
-47 91 -54 105 -44 10 7 34 20 55 29 27 12 36 21 32 32 -4 11 0 10 17 -4 13
-11 25 -22 28 -24 3 -2 -6 0 -20 4 -14 4 -22 4 -18 0 5 -5 -11 -17 -33 -27
-41 -18 -41 -19 -24 -38 10 -11 23 -17 29 -13 6 3 8 3 4 -1 -6 -7 39 -52 172
-174 25 -23 41 -42 35 -42 -5 0 -64 51 -130 114 -115 110 -121 113 -145 101
-14 -7 -34 -22 -44 -34 -16 -18 -17 -21 -3 -21 18 0 204 -145 227 -177 8 -12
42 -51 74 -88 52 -57 57 -68 45 -80 -13 -13 -20 -7 -59 41 -46 58 -218 226
-277 271 l-32 25 -43 -30 c-45 -30 -113 -58 -103 -42 10 16 -5 12 -41 -11 -47
-29 -124 -34 -240 -16 -54 9 -141 19 -192 22 -83 6 -96 4 -127 -15 -19 -12
-35 -23 -35 -26 0 -4 62 3 100 13 33 8 70 5 163 -13 78 -16 153 -41 145 -50
-3 -2 -27 3 -54 11 -102 31 -84 12 21 -22 88 -28 126 -35 190 -35 44 0 93 5
109 11 17 7 48 9 79 5 l50 -7 -99 -24 c-100 -24 -214 -28 -259 -8 -11 4 4 -11
33 -34 55 -45 63 -54 35 -44 -12 5 -14 3 -8 -7 5 -9 4 -11 -4 -6 -6 4 -8 12
-5 18 4 7 2 8 -4 4 -7 -4 -29 6 -49 22 -42 33 -104 58 -191 78 l-57 13 50 -5
c28 -2 64 -7 80 -9 25 -4 27 -4 9 4 -33 14 -175 33 -214 28 -30 -3 -29 -4 12
-5 26 -1 50 -7 54 -13 4 -8 -1 -9 -17 -4 -32 11 -229 13 -235 3 -3 -4 5 -8 17
-8 17 0 20 -4 16 -21 -4 -17 -2 -19 11 -13 29 14 194 16 257 4 97 -19 173 -61
268 -151 69 -64 100 -85 145 -101 34 -11 44 -17 23 -13 -18 3 -42 5 -51 5 -10
0 -40 16 -67 35 l-48 36 48 -46 c27 -25 45 -45 40 -45 -15 0 -67 39 -98 73
-16 18 -25 26 -19 18 24 -36 44 -71 40 -71 -2 0 -23 26 -47 57 -24 31 -76 80
-116 110 -91 67 -109 70 -22 3 59 -45 178 -185 166 -196 -4 -4 -100 97 -115
121 -15 24 -80 63 -126 75 -27 7 -81 14 -121 14 -40 1 -71 4 -69 7 2 4 -14 9
-36 11 -37 3 -38 2 -23 -14 17 -19 73 -38 113 -38 43 0 133 -49 179 -98 l45
-47 -33 47 c-19 25 -46 52 -62 59 -17 6 -28 14 -25 16 2 3 14 -1 26 -7 12 -6
24 -9 27 -7 9 10 -42 31 -117 48 -41 10 -64 17 -50 18 39 1 175 -26 201 -39
28 -15 79 -60 79 -71 0 -5 11 -20 25 -35 14 -15 25 -33 25 -41 0 -8 4 -12 9
-9 5 3 15 -2 22 -12 13 -15 12 -16 -3 -3 -11 8 -18 9 -18 3 0 -6 4 -13 9 -16
5 -3 11 -15 14 -27 3 -12 2 -18 -2 -13 -9 10 -79 115 -101 151 -8 13 -31 34
-49 46 -19 12 -32 16 -27 9 4 -7 2 -12 -4 -12 -7 0 3 -17 21 -37 18 -21 63
-84 100 -140 36 -57 70 -99 74 -95 5 4 5 2 1 -5 -3 -6 16 -41 43 -77 28 -36
46 -66 41 -66 -11 0 -69 71 -109 135 -18 28 -34 48 -38 46 -8 -5 -113 101
-113 114 1 5 28 -19 61 -54 34 -35 56 -54 50 -42 -14 26 -100 108 -105 101 -2
-3 -28 18 -57 45 -35 33 -70 55 -99 64 -25 7 -59 19 -76 26 -43 18 -64 4 -28
-19 14 -10 23 -13 19 -6 -5 8 -3 11 6 8 8 -3 14 -9 14 -15 0 -6 9 -19 21 -29
33 -30 144 -160 144 -169 0 -5 -14 4 -32 21 l-32 29 31 -40 c17 -22 38 -55 47
-73 10 -19 20 -32 22 -29 3 2 -5 21 -17 41 -12 20 -19 39 -16 42 5 5 87 -149
87 -163 -1 -4 -12 12 -25 37 -31 58 -32 47 -1 -22 13 -30 27 -77 30 -104 5
-43 3 -39 -22 38 -26 77 -75 178 -88 178 -2 0 5 -18 16 -40 30 -59 23 -73 -8
-14 -15 28 -39 66 -54 86 -38 47 -35 62 3 18 54 -61 18 -8 -47 71 -67 81 -105
114 -169 147 l-40 20 25 11 c22 8 23 10 5 10 -12 1 -26 -4 -33 -11 -9 -9 2
-21 51 -51 65 -41 137 -104 137 -121 0 -5 -12 2 -27 15 -54 50 -153 107 -205
119 -68 16 -93 29 -55 30 15 0 27 5 27 10 0 16 -43 11 -85 -10 -49 -25 -81
-25 -128 -1 -20 10 -58 22 -83 26 -44 6 -45 7 -24 18 13 7 30 23 38 37 l16 25
-27 -24 c-15 -14 -64 -37 -110 -53 l-82 -28 104 4 104 4 94 -46 c78 -37 96
-43 104 -31 5 8 9 10 9 4 0 -5 16 -10 35 -11 20 0 41 -6 48 -14 10 -10 7 -11
-15 -6 -42 10 -34 -1 18 -24 26 -11 81 -50 123 -86 l76 -66 -88 86 c-48 47
-86 86 -83 86 3 0 24 -10 47 -22 129 -67 205 -230 218 -473 6 -113 9 -125 44
-195 35 -70 112 -170 131 -170 5 0 2 8 -5 18 -13 15 -12 16 3 4 10 -8 16 -19
15 -25 -1 -6 8 -12 21 -13 13 -1 29 -7 35 -14 10 -10 7 -10 -13 0 -17 8 -8 -5
28 -42 28 -29 52 -58 52 -62 0 -5 11 -23 23 -40 25 -33 45 -112 25 -100 -8 5
-9 1 -5 -10 4 -10 10 -30 14 -44 5 -23 -1 -19 -35 23 -42 50 -53 72 -29 60 6
-4 1 3 -13 14 -17 14 -20 21 -10 21 12 1 10 5 -5 18 -26 23 -57 81 -49 93 3 5
2 8 -3 7 -4 -1 -22 11 -39 27 -17 17 -49 45 -72 62 -82 66 -132 196 -132 348
0 96 -31 233 -66 292 -37 64 -44 59 -10 -9 27 -54 31 -74 34 -166 3 -75 0
-123 -13 -174 -26 -109 -24 -172 9 -245 16 -35 32 -63 37 -63 4 0 -4 21 -18
47 -21 37 -27 62 -29 127 -3 67 -2 73 5 36 14 -72 37 -118 99 -192 31 -38 67
-84 80 -101 12 -17 22 -25 22 -18 0 8 15 -1 33 -20 17 -20 23 -24 12 -10 -11
14 -40 46 -64 71 -64 65 -123 149 -115 162 4 6 3 8 -3 5 -11 -7 -37 47 -48 97
-8 36 4 136 16 136 5 0 9 -22 9 -48 0 -55 28 -146 62 -201 13 -20 23 -43 23
-51 0 -8 7 -15 15 -15 8 -1 14 -6 13 -13 -2 -7 1 -12 6 -12 5 0 33 -24 64 -52
55 -53 117 -160 131 -225 6 -27 4 -34 -20 -49 -16 -11 -47 -18 -80 -18 -50 -1
-66 -8 -45 -20 4 -3 7 -29 4 -58 -2 -36 0 -48 6 -39 8 12 15 13 35 3 20 -9 24
-8 20 1 -3 8 4 13 17 14 12 1 27 7 33 14 8 8 -3 10 -47 7 -32 -3 -53 -2 -46 2
8 6 8 9 0 14 -6 4 -11 12 -11 19 0 8 3 8 12 -1 7 -7 27 -12 45 -12 27 0 35 5
43 26 6 14 14 22 20 19 5 -3 10 1 10 9 0 16 19 23 21 9 8 -73 8 -111 1 -128
-6 -11 -15 -49 -21 -85 -29 -173 -187 -357 -396 -461 -44 -22 -87 -47 -95 -56
-14 -15 -13 -15 10 -1 35 21 72 29 64 15 -3 -7 3 -1 14 12 16 19 25 22 48 17
33 -9 104 -79 104 -104 0 -14 -2 -14 -9 -3 -7 10 -9 7 -8 -12 1 -14 5 -23 8
-21 3 2 11 -12 17 -31 8 -28 7 -35 -4 -35 -8 0 -11 -6 -8 -15 4 -8 1 -15 -5
-15 -6 0 -11 5 -11 10 0 6 -4 10 -9 10 -5 0 -8 -7 -7 -16 0 -10 -8 -18 -22
-20 -38 -7 -70 -33 -74 -64 -3 -17 1 -31 8 -34 17 -7 86 43 78 56 -4 7 -3 8 4
4 6 -4 19 1 29 11 10 10 41 33 70 51 28 18 57 40 65 49 12 15 11 15 -8 3 -22
-14 -59 -7 -50 9 4 5 0 16 -8 24 -8 8 -16 29 -18 47 -2 23 -9 34 -21 36 -11 1
-20 4 -21 6 -38 52 -63 99 -55 103 5 4 9 2 9 -4 0 -6 14 -30 31 -55 28 -39 34
-43 46 -30 8 8 21 14 28 14 8 0 30 10 50 22 l37 21 24 -29 24 -29 -6 31 c-4
20 -1 34 6 39 9 5 10 1 5 -14 -4 -13 -2 -21 5 -21 7 0 10 -6 7 -14 -3 -8 0
-17 7 -19 20 -8 69 49 104 118 36 70 42 58 10 -18 -34 -80 -80 -147 -139 -203
-107 -102 -207 -183 -214 -176 -5 4 -5 2 -2 -5 4 -7 -14 -27 -45 -50 -87 -63
-190 -161 -243 -232 -50 -66 -115 -189 -118 -223 -1 -12 -5 -14 -13 -7 -6 5
-9 20 -7 33 6 31 -55 153 -108 216 -23 28 -44 48 -47 45 -3 -2 12 -23 32 -45
20 -22 36 -43 36 -48 0 -4 -18 13 -40 38 -22 25 -38 49 -37 54 3 10 -94 103
-143 136 -35 24 -179 144 -235 197 -17 15 -43 36 -58 46 -15 9 -27 23 -27 30
0 7 -12 29 -26 48 -14 19 -34 52 -45 74 l-20 40 21 -25 c11 -14 39 -52 62 -85
55 -82 65 -88 90 -63 18 18 18 21 3 44 -18 29 -14 30 23 7 l27 -18 -16 25 c-9
14 -25 25 -35 25 -11 0 -22 4 -25 9 -4 4 -16 3 -28 -3 -17 -10 -25 -9 -36 3
-19 19 -20 32 -1 17 15 -13 15 -13 63 67 7 12 19 22 25 22 6 0 3 -9 -7 -20
-10 -11 -16 -22 -14 -23 61 -49 89 -48 125 5 21 30 30 37 32 24 3 -12 7 -14
16 -7 9 8 13 6 13 -5 0 -11 -7 -14 -21 -10 -21 5 -48 -22 -51 -49 -1 -5 -6
-23 -13 -38 -7 -16 -12 -39 -12 -51 0 -27 -17 -44 -57 -55 l-28 -8 35 -15 c41
-18 50 -15 50 15 0 16 3 18 9 9 4 -7 6 -25 3 -40 -3 -15 -1 -24 3 -20 5 5 15
-1 22 -12 8 -11 19 -17 25 -14 6 4 8 2 5 -3 -9 -14 56 -71 99 -89 72 -30 85
-23 132 74 23 48 42 99 42 113 0 32 -38 91 -66 103 -11 5 -28 22 -36 37 -15
26 -15 28 0 32 9 2 2 2 -16 0 -22 -3 -32 -1 -27 6 3 6 2 11 -4 11 -5 0 -12 -6
-14 -12 -4 -9 -6 -8 -6 2 -1 8 -26 26 -56 39 -30 13 -55 27 -55 31 0 5 -37 46
-82 92 -133 134 -197 286 -198 468 l0 55 19 -29 c14 -21 28 -29 56 -32 21 -2
40 -5 42 -8 12 -11 -11 -26 -40 -26 -29 -1 -30 -2 -14 -14 13 -11 15 -15 5
-19 -7 -3 4 -3 25 0 41 6 45 0 20 -31 l-17 -21 21 20 c17 15 23 34 25 78 2 33
9 64 16 70 7 5 18 20 24 31 9 17 8 19 -3 9 -7 -7 -21 -13 -30 -13 -10 0 -20
-4 -23 -9 -4 -5 4 -7 16 -4 19 4 20 3 8 -6 -35 -25 -150 -1 -150 32 0 18 33
69 61 94 53 48 141 114 163 123 13 4 38 28 57 52 l34 43 -30 -23 c-16 -13 -75
-59 -130 -103 -55 -43 -104 -79 -108 -79 -19 0 59 94 109 131 29 23 54 43 54
45 0 2 -17 -6 -37 -17 l-38 -21 30 26 c23 20 26 26 13 26 -10 0 -25 -12 -35
-27 -10 -16 -30 -41 -45 -58 -43 -46 -125 -188 -123 -213 1 -12 -1 -20 -4 -17
-2 3 -10 -7 -17 -22 -12 -28 -12 -28 -11 -3 0 14 5 31 11 39 9 12 8 13 -6 9
-27 -11 -27 0 1 75 29 77 41 96 109 166 23 24 42 46 42 49 0 6 110 122 113
119 1 0 17 10 35 23 19 14 34 23 35 21 1 -2 13 1 27 9 36 18 23 7 -41 -37 -57
-38 -159 -128 -159 -140 0 -4 10 3 23 14 12 11 36 25 52 31 19 7 23 11 11 11
-16 1 -16 3 -5 17 7 8 29 24 48 35 20 11 65 38 100 60 35 22 73 42 83 44 10 2
23 7 30 11 7 4 1 -7 -13 -25 -13 -18 -33 -47 -44 -65 -11 -19 -24 -35 -30 -36
-5 -2 -19 -6 -30 -11 -50 -19 -61 -22 -80 -20 -15 1 -17 0 -6 -7 10 -7 2 -14
-30 -26 -29 -11 -35 -15 -16 -12 15 2 27 -1 27 -5 0 -5 4 -9 10 -9 5 0 9 5 7
12 -1 7 7 13 19 14 36 2 117 56 190 126 40 37 76 68 82 68 19 0 110 90 142
140 18 28 30 57 26 66 -3 8 -2 13 3 9 23 -13 25 133 3 171 -10 16 -11 11 -12
-27 0 -109 -73 -245 -161 -304 -38 -25 -91 -36 -106 -22 -3 4 -11 3 -17 -1 -6
-5 -33 -21 -61 -37 -39 -22 -47 -24 -35 -9 8 10 -9 -1 -38 -25 -29 -24 -55
-41 -57 -39 -3 3 37 47 88 99 70 71 101 111 125 162 18 37 32 74 32 81 0 8 5
18 10 21 15 10 12 -20 -9 -75 -23 -61 -17 -66 9 -7 32 71 44 169 30 239 -13
66 -7 87 12 42 7 -17 11 -71 10 -133 -2 -133 -22 -179 -122 -275 -38 -37 -70
-70 -70 -72 0 -3 27 14 61 37 67 45 111 106 134 183 20 66 20 245 1 291 -21
50 -9 43 14 -7 51 -111 6 -337 -84 -433 -19 -19 -30 -35 -26 -35 14 0 89 96
104 132 38 91 50 296 20 366 -18 44 -12 51 11 15 26 -39 32 -216 11 -293 -17
-66 -13 -78 10 -24 18 42 25 236 11 286 -6 22 -4 26 7 22 29 -11 39 -62 33
-157 -8 -123 -19 -151 -95 -252 -35 -47 -62 -89 -59 -91 3 -3 13 6 23 21 10
16 20 22 24 15 4 -6 19 5 36 27 46 58 52 73 9 25 -54 -62 -54 -45 -1 26 57 74
61 87 80 213 15 100 15 104 -4 137 -11 18 -15 30 -9 27 6 -4 19 -21 30 -39 10
-17 19 -26 19 -20 0 6 -22 43 -50 83 -45 65 -47 70 -20 51 17 -12 37 -35 46
-51 9 -17 19 -27 26 -23 8 5 9 1 5 -10 -4 -9 -3 -15 2 -12 19 12 42 -47 48
-122 5 -65 2 -90 -17 -151 -13 -40 -34 -87 -46 -105 -12 -17 -43 -60 -67 -96
-24 -36 -54 -73 -65 -84 -12 -10 -19 -24 -15 -30 3 -6 3 -8 -1 -5 -9 9 -179
-83 -184 -99 -3 -10 3 -10 31 2 20 8 38 12 41 8 16 -15 203 119 192 137 -3 4
16 33 40 65 24 33 44 65 44 73 0 7 9 27 21 45 19 29 19 23 1 -21 -4 -10 -1
-12 8 -6 9 5 11 4 6 -4 -4 -6 -12 -8 -18 -5 -7 4 -8 2 -4 -4 4 -6 -9 -35 -29
-64 -34 -50 -16 -35 33 28 21 27 21 26 -3 -24 -31 -63 -81 -115 -166 -172 -71
-47 -149 -118 -149 -135 1 -5 13 4 28 20 15 17 37 39 50 49 23 20 23 20 16 0
-4 -10 -14 -29 -22 -42 -8 -12 -13 -25 -10 -27 3 -3 16 15 29 40 13 25 27 45
30 45 12 0 -5 -55 -20 -67 -9 -6 -13 -15 -8 -19 4 -4 7 -1 7 7 0 12 2 12 9 0
6 -10 12 -4 21 23 6 20 9 43 7 50 -3 8 1 22 8 33 11 14 14 15 15 3 0 -10 5 -7
16 8 8 12 20 20 25 16 6 -3 13 2 15 12 6 20 54 61 54 46 0 -5 -8 -20 -19 -33
-43 -56 -47 -111 -25 -304 4 -27 3 -47 -1 -43 -9 8 -35 -16 -35 -32 0 -6 6
-18 14 -26 13 -12 15 -10 21 16 9 40 24 38 19 -2 -2 -18 -1 -26 3 -18 3 8 10
17 14 20 8 6 4 28 -25 135 -27 100 -22 152 24 241 22 42 34 71 25 64 -22 -19
-18 -3 9 33 27 37 69 115 73 138 1 8 9 42 18 74 29 112 14 202 -50 300 -45 70
-95 126 -106 119 -4 -2 -11 1 -15 7 -5 8 -3 9 7 4 8 -5 11 -4 6 0 -4 5 -17 10
-30 12 -12 2 -26 8 -31 13 -6 6 -14 10 -19 10 -5 0 6 -19 24 -42 54 -71 55
-75 3 -20 -46 49 -53 53 -114 61 -36 4 -85 6 -110 5 -42 -3 -43 -3 -15 7 17 5
59 7 95 5 53 -4 59 -3 35 5 -16 6 -66 8 -110 5 -49 -3 -72 -1 -60 4 11 5 31 9
44 9 13 1 21 4 18 8 -11 11 -92 4 -137 -12 l-42 -15 19 32 c10 17 25 33 33 36
9 3 5 -6 -9 -22 -14 -14 -20 -26 -14 -26 15 0 46 37 39 48 -7 12 39 26 73 23
16 -2 21 1 16 10 -5 7 -4 10 2 6 11 -7 107 16 141 35 12 6 20 18 18 25 -4 8 3
13 17 14 12 0 16 3 9 6 -8 3 -36 -7 -63 -21 -27 -15 -77 -32 -111 -37 -76 -12
-136 -45 -169 -93 -13 -19 -26 -33 -30 -30 -4 2 -6 -4 -5 -12 0 -9 -8 -18 -18
-20 -10 -1 -26 -10 -35 -19 -15 -16 -14 -17 9 -6 24 12 24 12 5 -4 -31 -26
-59 -39 -50 -25 9 15 -27 5 -65 -17 -21 -12 -20 -10 5 12 17 14 50 37 75 50
64 34 41 31 -29 -4 -70 -36 -110 -79 -140 -155 -13 -31 -29 -55 -35 -53 -6 2
-17 34 -24 71 -25 123 20 272 97 323 26 18 48 23 97 23 l64 0 0 38 c0 41 -14
71 -27 58 -4 -5 -2 -11 5 -13 6 -3 12 -20 12 -39 0 -36 5 -35 -82 -25 -5 1 -9
18 -9 39 -2 34 -2 34 -6 7 -5 -34 -20 -55 -38 -55 -14 0 -8 42 21 160 20 79
42 123 89 175 30 33 33 34 16 8 -12 -17 -21 -37 -21 -44 0 -7 17 13 37 44 21
30 41 53 44 51 4 -2 17 8 28 23 13 18 21 23 21 13 0 -13 2 -13 9 -1 7 10 4 19
-7 29 -16 12 -15 13 4 9 15 -3 33 8 63 39 l42 44 -51 -20 c-28 -11 -60 -20
-71 -20 -12 0 -94 -37 -182 -81 -156 -78 -265 -147 -372 -232 -123 -99 -295
-286 -295 -320 0 -9 9 -31 19 -49 11 -18 30 -60 42 -93 22 -58 159 -298 207
-362 13 -18 22 -33 19 -33 -2 0 -25 12 -51 26 -25 14 -46 23 -46 20 0 -2 21
-17 48 -31 26 -14 62 -46 80 -70 34 -47 40 -63 19 -49 -7 5 -2 0 12 -11 38
-31 78 -69 61 -58 -8 5 -53 24 -100 42 -47 17 -105 41 -129 52 -24 11 -45 18
-47 16 -4 -4 111 -58 217 -101 37 -15 77 -38 90 -52 28 -30 25 -30 -42 0 -63
27 -169 59 -176 53 -2 -3 38 -19 89 -36 51 -17 113 -44 137 -60 40 -27 42 -29
21 -36 -21 -7 -21 -8 9 -26 18 -11 29 -23 26 -28 -3 -5 1 -12 7 -14 17 -7 -31
-10 -111 -7 -44 1 -61 -1 -57 -9 4 -6 19 -11 34 -11 36 0 171 -26 202 -39 22
-10 21 -10 -13 -6 -22 3 -36 1 -33 -4 7 -11 -107 -20 -114 -9 -3 4 -51 11
-106 17 -56 6 -109 13 -118 17 -26 10 -13 28 30 41 23 7 30 12 18 12 -53 2
-178 60 -134 62 10 0 8 4 -5 9 -46 20 32 9 115 -16 47 -14 106 -27 132 -29 26
-2 71 -6 100 -10 44 -6 51 -5 40 6 -8 9 -41 14 -89 16 -42 1 -79 6 -82 11 -3
5 -35 14 -71 21 -93 18 -190 64 -190 91 0 11 101 -6 203 -34 54 -15 103 -26
110 -23 10 3 -128 46 -163 50 -8 1 -17 4 -20 7 -16 17 -62 40 -70 35 -5 -3
-12 0 -16 6 -5 8 -3 9 7 4 8 -5 -20 27 -62 71 -93 96 -139 149 -139 159 0 5 9
0 20 -10 25 -22 26 -13 3 23 l-17 27 22 -19 c12 -11 22 -15 22 -11 0 4 9 0 20
-10 11 -10 20 -23 20 -29 0 -6 -9 0 -20 14 -11 14 -20 20 -20 14 0 -6 9 -19
20 -29 11 -10 20 -15 20 -10 0 4 12 -1 28 -10 l27 -18 -30 34 c-16 19 -50 55
-74 82 -34 35 -41 47 -28 47 11 0 16 5 12 13 -3 6 2 1 12 -13 10 -14 42 -50
71 -80 l54 -55 -52 65 c-29 35 -59 80 -67 98 -15 35 -15 125 -1 116 5 -3 6
-13 4 -22 -3 -10 -1 -24 5 -32 8 -12 9 -10 4 8 -10 35 3 26 25 -18 11 -22 23
-40 25 -40 3 0 -16 41 -41 92 -50 100 -71 168 -83 268 -8 65 -8 65 -10 15 0
-27 6 -75 14 -105 21 -79 31 -200 16 -201 -6 -1 -17 -2 -23 -3 -7 -1 -23 9
-35 22 -31 34 -29 23 7 -38 16 -27 26 -50 21 -50 -4 0 -13 -11 -19 -25 l-12
-26 -42 22 c-24 12 -46 27 -50 33 -4 6 -11 11 -17 11 -5 0 -17 9 -27 20 -11
12 -16 16 -12 10 3 -5 6 -13 5 -17 -3 -11 125 -98 144 -98 10 0 21 -4 24 -10
3 -5 1 -10 -5 -10 -6 0 -8 -4 -5 -10 3 -5 2 -10 -3 -10 -12 0 -22 -35 -13 -47
3 -5 26 -24 51 -43 69 -52 70 -55 5 -21 -101 52 -125 68 -117 76 4 5 1 5 -6 1
-7 -4 -25 0 -40 9 -25 15 -25 14 3 -9 17 -14 59 -41 95 -60 64 -34 135 -98
123 -110 -4 -3 -13 0 -22 8 -9 7 -27 17 -41 20 -23 6 -23 6 -5 -5 11 -6 31
-19 45 -27 14 -9 28 -17 32 -17 8 0 58 -69 58 -79 0 -11 -70 3 -108 23 -75 38
-271 172 -293 199 -19 25 -66 42 -52 19 4 -6 -29 -8 -95 -5 -93 5 -107 8 -184
46 -46 22 -98 54 -117 69 l-33 29 38 -4 c22 -2 36 -1 32 3 -3 4 -9 5 -12 3 -3
-1 -11 5 -18 14 -11 15 -22 16 -73 9 -33 -5 -62 -7 -64 -5 -9 8 87 25 118 21
69 -10 106 -17 120 -22 7 -3 57 -8 110 -11 53 -2 112 -8 131 -11 19 -4 42 -8
51 -8 8 -1 24 -7 35 -13 15 -9 16 -11 3 -12 -9 0 -19 3 -22 6 -3 4 -37 8 -74
10 -38 1 -59 -1 -48 -5 48 -18 101 -44 106 -53 4 -6 12 -2 18 11 13 23 50 28
69 9 8 -8 12 -8 12 -1 0 6 -22 25 -48 42 -45 28 -56 31 -133 31 -94 0 -167 21
-225 65 -48 36 -161 147 -165 162 -2 7 -37 19 -77 28 -40 8 -91 24 -114 35
-50 24 -68 25 -68 5 0 -8 12 -18 27 -21 16 -4 34 -12 42 -18 11 -8 13 -8 8 0
-8 13 169 -38 184 -53 7 -7 6 -12 -6 -17 -9 -3 -18 0 -21 9 -4 10 -21 15 -54
15 -44 0 -48 -2 -43 -21 3 -11 29 -34 59 -51 56 -31 71 -62 37 -75 -15 -6 -14
-7 3 -13 32 -12 -129 -43 -193 -38 l-56 5 39 -20 38 -19 -25 -13 c-27 -14 -76
-21 -99 -13 -40 14 -170 42 -205 45 -49 4 -88 -4 -80 -17 14 -22 -27 -7 -85
31 -68 46 -129 117 -165 191 -29 60 -26 60 110 12 55 -19 136 -48 180 -63 125
-45 123 -44 95 -26 -18 12 -20 15 -5 10 104 -33 144 -47 165 -59 14 -8 48 -17
75 -20 l50 -6 -45 14 c-196 61 -407 155 -580 257 -65 38 -221 171 -259 220
-18 23 -19 32 -10 58 6 17 15 31 19 31 4 0 34 -20 67 -44 32 -24 95 -62 140
-85 45 -22 117 -61 160 -87 116 -69 192 -105 248 -120 44 -12 48 -11 31 1 -11
8 -23 15 -28 15 -30 0 -440 272 -518 344 -25 23 -90 77 -144 121 -185 147
-284 252 -271 287 3 8 -12 52 -35 98 -38 80 -54 160 -31 160 5 0 75 -78 154
-172 163 -196 246 -278 278 -278 11 0 53 -20 93 -43 39 -24 103 -62 141 -85
39 -22 90 -59 115 -81 57 -51 246 -159 291 -166 32 -6 31 -4 -16 20 -79 42
-235 137 -241 147 -4 5 14 -1 37 -13 24 -12 102 -42 173 -66 149 -50 153 -52
135 -65 -11 -7 -10 -8 4 -4 10 3 41 -6 70 -20 l52 -25 -30 25 c-38 33 -29 39
28 22 26 -8 47 -12 47 -9 0 9 -128 61 -190 77 -139 35 -403 184 -608 343 -97
76 -232 224 -285 314 -46 79 -103 248 -93 275 7 17 13 14 49 -27 166 -184 260
-283 321 -337 108 -96 306 -222 432 -276 131 -56 154 -70 154 -97 0 -13 4 -18
12 -13 7 5 9 2 5 -9 -7 -18 18 -44 27 -28 4 5 -4 26 -16 47 -18 30 -19 37 -6
32 11 -5 15 -2 14 10 -3 20 -115 84 -134 77 -7 -3 -11 -1 -8 3 3 4 -32 30 -77
57 -126 74 -338 237 -433 331 -135 136 -220 258 -269 389 -32 84 -67 258 -59
294 9 41 26 81 34 81 4 0 15 -26 24 -59 31 -111 145 -311 253 -446 56 -69 291
-279 366 -327 60 -38 100 -82 102 -111 1 -12 7 -23 13 -25 7 -2 12 -8 12 -13
0 -5 12 -23 28 -39 15 -16 37 -42 49 -58 36 -47 105 -88 237 -138 66 -26 133
-58 147 -71 22 -20 30 -23 45 -13 15 9 27 8 57 -5 21 -8 36 -19 33 -23 -3 -5
12 -8 31 -8 31 0 37 -3 38 -23 2 -30 103 -118 183 -160 39 -20 24 -4 -20 22
-43 26 -170 147 -154 147 5 0 1 9 -9 20 -10 11 -22 17 -28 13 -6 -3 -7 -1 -3
5 7 11 -62 62 -84 62 -15 0 -111 49 -135 69 -13 10 -11 6 5 -13 14 -16 21 -27
15 -24 -61 35 -195 121 -228 148 -23 18 -69 65 -102 102 -93 108 -97 111 -122
139 -14 15 -25 33 -26 40 -2 8 -6 20 -11 27 -4 7 -6 15 -4 17 5 5 199 -194
259 -265 25 -30 59 -62 75 -70 16 -8 31 -17 34 -20 57 -57 43 -31 -31 53 -121
139 -121 140 -72 131 49 -8 339 -191 412 -259 30 -27 51 -44 47 -37 -4 6 -4
12 1 12 14 -1 88 -61 88 -72 0 -6 8 -12 19 -14 10 -1 34 -18 53 -36 l35 -33
-15 31 c-15 29 -47 63 -47 50 0 -14 -87 54 -141 110 -104 110 -180 164 -375
271 -121 66 -201 129 -271 215 -172 212 -183 229 -183 296 l0 44 67 -59 c99
-86 220 -174 158 -116 -71 67 -102 115 -41 64 18 -15 18 -15 9 4 -26 50 -43
97 -38 105 2 4 -10 41 -29 81 -18 41 -39 99 -46 129 -7 30 -18 61 -24 69 -15
19 -15 386 0 401 8 8 18 -6 37 -52 14 -35 28 -76 32 -92 5 -22 9 -26 15 -17 7
12 9 12 13 0 5 -18 -1 19 -10 50 -3 13 -2 22 3 18 5 -3 10 9 11 26 1 17 6 33
11 36 8 5 42 95 42 110 0 3 -7 -4 -16 -15 -15 -18 -15 -17 -8 11 3 17 8 44 10
60 2 17 12 58 23 93 22 70 19 82 -5 22 -15 -38 -34 -46 -34 -14 0 8 4 12 10 9
5 -3 7 0 4 8 -5 15 59 183 77 201 5 6 9 17 9 25 1 33 103 153 183 217 114 90
174 118 265 123 95 4 150 -16 194 -72 l33 -41 -50 34 c-45 32 -56 35 -120 35
-54 0 -81 -6 -120 -25 -73 -35 -192 -159 -243 -253 -43 -79 -92 -209 -92 -246
0 -11 -5 -32 -12 -48 -12 -31 -18 -50 -22 -73 -1 -8 -13 -48 -25 -88 -13 -40
-21 -76 -17 -79 3 -3 1 -14 -4 -24 -6 -10 -6 -20 -1 -23 5 -3 12 1 15 10 5 13
9 14 21 4 13 -11 14 -10 9 4 -3 9 -2 16 4 16 5 0 13 -54 17 -121 6 -100 9
-119 22 -115 32 12 51 -12 63 -81 8 -48 8 -69 1 -71 -6 -2 -11 -22 -10 -45 l1
-42 16 37 c10 21 20 38 24 38 18 0 25 -62 16 -146 -9 -81 -8 -93 10 -134 l21
-45 1 45 1 45 14 -30 14 -30 -5 30 c-12 69 -28 124 -34 120 -4 -3 -5 8 -2 23
6 31 2 37 52 -96 32 -82 43 -91 60 -46 5 13 20 28 32 33 13 5 44 28 71 51 90
80 306 235 439 316 243 149 482 258 723 332 152 47 478 122 532 123 21 0 45 3
54 7 26 11 298 342 395 482 33 46 64 85 69 86 6 2 39 -38 75 -88 89 -126 198
-265 297 -379 81 -94 84 -97 135 -103 158 -21 419 -84 608 -146 369 -122 717
-318 1088 -613 109 -87 112 -91 113 -131 1 -24 4 -31 6 -18 3 13 9 22 15 20 7
-3 26 38 44 90 18 52 36 98 41 102 4 5 8 -23 9 -61 1 -65 -6 -83 -22 -58 -3 6
-1 15 6 19 9 5 9 9 1 14 -18 12 -21 -16 -7 -79 l13 -60 16 54 c12 40 15 75 11
140 -5 74 -3 90 14 114 l19 28 7 -40 c3 -22 10 -42 15 -46 6 -3 8 34 4 97 -5
95 -4 104 15 121 27 25 54 18 71 -18 18 -36 3 -144 -33 -244 -52 -142 -95
-270 -122 -356 -25 -83 -32 -95 -91 -154 -34 -35 -63 -66 -63 -68 0 -2 24 14
53 37 30 22 59 40 65 40 6 0 14 5 18 12 5 7 3 8 -6 3 -9 -5 -11 -4 -6 3 4 7
14 12 21 12 8 0 22 15 31 33 l17 32 -22 -19 c-28 -25 -27 -12 9 74 17 40 30
78 30 84 0 13 45 136 71 191 51 112 89 212 96 254 6 43 7 44 13 16 4 -16 2
-36 -3 -42 -5 -7 -6 -21 -2 -30 6 -15 11 -11 26 22 l18 40 1 -32 c0 -43 14
-42 44 5 36 58 46 106 45 222 -1 88 -3 100 -11 73 -6 -19 -18 -33 -27 -34 -10
0 -12 -2 -3 -6 17 -7 15 -43 -3 -43 -10 0 -15 -10 -16 -27 0 -25 -1 -26 -9 -8
-5 11 -12 38 -16 60 -5 34 -8 37 -15 20 -8 -16 -9 -15 -5 9 2 16 0 43 -5 60
-6 17 -14 45 -19 61 -49 169 -73 235 -82 229 -6 -4 -8 -3 -5 3 10 16 -30 148
-69 226 -57 114 -120 201 -183 256 -82 71 -139 95 -226 95 -74 0 -102 -10
-147 -52 -31 -28 -38 -19 -10 13 65 77 151 100 271 74z m-3189 -159 c0 -16 5
-32 12 -36 8 -5 9 -2 4 12 -6 16 -4 16 14 -3 11 -13 25 -23 30 -23 4 0 16 20
26 45 9 25 18 44 19 43 2 -2 0 -33 -4 -70 l-7 -67 31 5 c28 5 27 4 -9 -13
l-39 -19 34 -39 c24 -27 28 -35 13 -27 -11 6 -26 18 -34 26 -7 9 -17 16 -23
16 -5 0 -2 -10 9 -22 17 -21 16 -21 -9 1 -19 17 -27 20 -27 10 0 -11 -2 -11
-8 -2 -6 10 -12 10 -28 -2 -27 -20 -40 -19 -21 3 10 10 17 25 17 32 0 10 -4 9
-12 -3 -11 -15 -13 -11 -14 28 0 25 4 45 9 45 5 0 7 22 5 50 -3 27 -1 47 4 44
4 -3 8 -18 8 -34z m1873 -38 c35 -13 43 -7 53 46 10 51 24 37 24 -23 0 -46 3
-55 18 -55 14 0 15 -2 2 -10 -13 -9 -13 -10 0 -10 11 -1 9 -6 -7 -19 -24 -20
-31 -43 -12 -38 6 1 18 -9 26 -23 l15 -25 -22 25 c-13 15 -20 18 -17 9 4 -13
1 -15 -14 -12 -11 3 -22 10 -25 15 -3 5 -14 2 -25 -8 -18 -16 -19 -16 -19 6 0
21 -1 22 -17 8 -10 -9 -29 -21 -43 -28 -22 -12 -23 -11 -13 2 7 8 10 18 6 21
-3 4 3 10 13 13 44 16 45 25 8 55 -31 25 -33 29 -16 29 19 0 21 5 17 53 -4 50
-4 51 7 16 8 -26 19 -39 41 -47z m-3933 -77 c0 -3 -7 -22 -15 -42 -9 -20 -27
-80 -41 -132 -69 -255 -29 -598 104 -895 57 -127 59 -133 53 -195 l-6 -64 -56
60 c-30 33 -84 103 -119 156 -35 53 -67 94 -71 92 -9 -6 -49 74 -49 98 0 9 -4
18 -9 21 -16 10 22 -112 54 -174 8 -15 11 -30 8 -34 -4 -3 -2 -6 4 -6 6 0 16
-15 24 -32 13 -35 67 -118 84 -130 6 -4 6 -8 2 -8 -5 0 16 -29 47 -64 31 -35
56 -66 56 -70 0 -34 -132 91 -223 213 -201 267 -271 561 -191 803 22 68 33 67
27 -1 -6 -60 11 -136 28 -126 5 4 9 32 9 63 1 112 89 294 200 413 48 51 80 73
80 54z m6170 -82 c92 -105 153 -236 174 -371 12 -81 14 -85 24 -59 18 43 14
106 -13 182 -16 46 42 -38 61 -88 26 -71 27 -320 1 -417 -35 -131 -143 -317
-268 -462 -50 -58 -156 -144 -165 -135 -4 3 33 48 80 100 105 113 120 134 122
168 1 15 11 45 23 66 20 38 53 131 65 188 4 18 -11 -3 -37 -50 -68 -126 -157
-255 -216 -315 l-54 -55 -9 45 c-10 56 -3 92 33 155 61 109 121 301 149 477
16 101 14 330 -4 418 -8 41 -26 108 -40 149 -14 41 -26 79 -26 83 0 15 56 -29
100 -79z m387 -834 c31 -59 -5 -259 -72 -404 -39 -87 -166 -256 -265 -355 -79
-78 -221 -191 -352 -279 -76 -50 -212 -121 -234 -121 -6 0 -23 -11 -38 -25
-15 -14 -21 -25 -14 -25 80 0 359 135 509 247 90 67 237 208 314 303 21 25 67
76 102 114 56 59 67 66 75 52 7 -12 3 -43 -12 -99 -25 -93 -56 -160 -108 -232
-52 -74 -208 -238 -277 -294 -52 -42 -285 -181 -400 -239 -72 -36 -202 -83
-240 -86 -37 -2 -80 -40 -68 -58 2 -5 1 -8 -4 -7 -4 1 -29 -7 -55 -19 -53 -23
-163 -46 -184 -38 -8 3 -13 0 -11 -7 1 -7 -5 -11 -13 -9 -8 2 -12 0 -7 -4 4
-4 -1 -16 -10 -26 -9 -10 -18 -28 -20 -38 -2 -16 2 -19 20 -16 12 3 28 5 35 5
7 1 11 5 8 10 -3 5 25 22 63 39 38 17 71 38 74 46 4 9 13 16 22 16 8 0 38 11
67 25 28 14 59 25 67 25 17 1 89 29 266 104 118 50 128 47 24 -9 -71 -38 -73
-42 -9 -20 53 19 63 19 30 0 -14 -8 -19 -14 -12 -15 7 0 56 37 109 81 69 58
125 95 197 130 116 56 252 133 280 157 10 9 70 82 134 162 122 153 181 220
194 220 28 0 -8 -155 -59 -252 -46 -87 -93 -141 -201 -226 -48 -38 -136 -113
-197 -167 -119 -106 -416 -309 -533 -364 -40 -19 -72 -41 -72 -47 0 -8 22 0
58 20 31 17 76 39 99 49 22 9 70 34 106 56 36 22 114 65 173 97 60 31 136 74
170 95 33 22 64 39 67 39 4 0 12 -11 17 -25 14 -36 -5 -61 -121 -164 -71 -63
-130 -103 -218 -151 -84 -45 -115 -67 -104 -71 14 -5 12 -7 -9 -12 -15 -4 -33
-13 -40 -20 -7 -8 -27 -17 -43 -20 l-30 -7 28 15 c49 28 29 24 -60 -12 -138
-55 -246 -94 -273 -98 -14 -3 -38 -9 -55 -15 -25 -8 -20 -9 28 -5 31 3 88 17
125 32 37 15 73 26 81 25 8 -2 10 1 6 8 -5 9 -1 10 15 5 17 -5 21 -4 15 6 -6
9 -4 11 8 6 19 -7 139 30 228 71 56 26 129 52 217 77 l22 6 -25 -37 c-36 -53
-31 -59 21 -24 25 18 48 29 51 26 3 -3 -17 -19 -43 -35 -57 -35 -58 -36 -87
-81 -31 -47 -129 -124 -207 -163 -96 -47 -44 -48 72 -1 128 52 254 127 308
184 39 41 232 205 258 219 13 7 31 10 40 6 14 -5 14 -3 -1 13 -17 18 -15 21
33 68 72 69 74 71 97 78 35 11 37 -30 3 -99 -51 -105 -179 -230 -353 -346
-141 -94 -338 -198 -432 -229 -22 -8 -58 -13 -80 -13 l-40 1 35 -7 35 -6 -32
-12 c-18 -7 -33 -9 -33 -5 0 4 -4 2 -8 -4 -13 -20 -107 -62 -188 -85 -56 -15
-115 -22 -204 -24 -69 -2 -115 -1 -102 1 24 6 27 16 12 44 -12 23 -25 19 170
51 74 13 167 25 205 29 l70 5 -53 6 c-34 4 -83 0 -140 -12 -112 -24 -257 -35
-266 -21 -4 6 2 8 16 4 13 -3 19 -1 15 5 -4 6 3 13 15 16 17 5 19 9 10 20 -10
12 -1 15 55 21 123 12 289 38 363 58 36 10 130 54 130 62 0 8 -70 4 -75 -4 -4
-6 -15 -8 -26 -5 -10 3 -29 8 -40 11 -12 3 -19 2 -16 -2 3 -5 -5 -10 -16 -10
-12 -1 -51 -6 -87 -12 -54 -8 -58 -10 -25 -11 40 -1 40 -1 15 -16 -46 -27 -52
-28 -60 -14 -5 7 -6 17 -4 21 3 4 -12 8 -33 8 -21 0 -47 8 -58 16 -14 11 -15
15 -5 13 8 -1 22 0 30 4 8 3 22 8 30 10 8 3 -10 6 -40 6 -30 1 -91 9 -135 18
l-80 18 50 10 50 11 -78 13 c-47 8 -75 16 -71 23 3 5 16 7 27 4 12 -3 26 2 34
12 8 9 12 11 8 5 -4 -9 2 -13 20 -13 14 0 23 4 20 10 -3 5 6 12 20 16 13 3 22
10 19 15 -3 5 6 13 20 19 32 12 34 30 4 23 -16 -3 -10 4 17 22 l40 26 -35 -6
c-29 -5 -24 0 30 27 36 18 66 39 68 46 2 9 -7 7 -26 -7 -27 -19 -170 -71 -196
-71 -6 0 -36 -25 -66 -56 -67 -69 -148 -130 -204 -155 -23 -10 -84 -25 -134
-33 -50 -8 -101 -20 -112 -26 -11 -6 -24 -9 -29 -6 -4 3 -23 -6 -42 -20 -19
-14 -71 -48 -117 -75 -46 -27 -94 -57 -108 -65 -13 -9 -24 -12 -24 -8 0 5 20
22 45 39 32 22 43 35 40 50 -2 11 -4 26 -4 33 -1 7 -5 10 -11 7 -5 -3 -10 3
-10 13 0 14 12 25 40 36 22 9 40 21 40 27 0 5 5 7 10 4 6 -3 10 -2 10 4 0 6
17 19 38 30 20 10 57 37 82 59 27 23 53 38 65 36 11 -2 35 10 55 27 27 23 29
28 10 18 -14 -6 -31 -17 -39 -23 -8 -6 -21 -11 -30 -11 -9 0 -32 -12 -51 -27
-60 -45 -199 -128 -215 -128 -20 0 -13 31 17 75 21 29 20 29 -16 -4 -20 -19
-36 -30 -36 -25 0 6 5 15 10 20 6 6 12 21 15 33 5 28 24 53 35 46 5 -3 12 0
16 6 4 8 3 9 -4 5 -17 -10 -15 9 1 23 8 6 18 7 22 3 5 -4 5 -2 2 4 -4 6 7 26
23 44 17 19 30 40 30 47 0 7 5 13 10 13 6 0 10 6 10 13 0 6 14 32 30 57 16 25
30 53 30 62 0 9 7 24 16 32 8 9 12 16 8 16 -3 0 -1 7 6 15 9 11 9 15 1 15 -7
0 -9 5 -5 11 5 8 8 8 13 0 6 -8 19 -7 48 3 69 24 97 43 189 121 81 69 239 163
252 150 3 -3 -1 -5 -9 -5 -10 -1 -9 -4 4 -11 13 -8 22 -7 32 1 8 6 20 8 26 4
8 -4 9 -3 5 4 -4 7 -3 12 3 12 5 0 16 6 23 13 7 8 42 24 76 36 88 30 192 85
221 115 13 15 27 26 33 26 5 0 7 4 3 9 -6 10 43 61 58 61 5 0 7 5 5 12 -2 6 6
22 18 35 13 14 21 30 18 37 -6 16 28 49 98 94 73 48 238 193 331 291 142 152
267 369 301 524 8 33 26 31 43 -4z m-2877 -724 c19 -7 64 -22 100 -35 191 -65
589 -301 751 -445 20 -18 42 -34 49 -37 8 -2 10 -9 7 -15 -5 -8 -16 -4 -33 12
-15 14 -30 22 -35 19 -5 -3 -9 -1 -9 3 0 5 -7 18 -16 29 -8 10 -12 13 -9 6 12
-22 -25 1 -59 37 -17 17 -81 61 -143 97 -62 37 -110 70 -108 75 6 9 -46 39
-70 39 -8 0 -15 5 -15 10 0 6 -5 10 -11 10 -7 0 -46 21 -88 46 -43 26 -128 63
-196 86 -66 22 -138 49 -159 59 -30 14 -43 16 -53 7 -7 -6 -17 -8 -20 -4 -4 4
-1 11 7 17 16 10 54 4 110 -16z m-4195 -564 c61 -53 80 -91 45 -91 -27 0 -25
-8 8 -44 33 -37 20 -28 -86 58 -88 72 -109 109 -77 132 20 15 42 4 110 -55z
m7210 38 c9 -27 -21 -71 -69 -102 -22 -14 -57 -39 -76 -54 l-35 -27 25 29 c14
16 32 35 40 42 8 7 -13 1 -47 -12 -71 -28 -92 -32 -49 -9 20 11 25 18 16 24
-16 10 156 141 175 133 8 -2 17 -13 20 -24z m-108 -212 c-3 -8 -21 -17 -40
-21 -19 -4 -41 -14 -48 -22 -11 -14 -10 -19 8 -34 28 -22 21 -31 -67 -97 -104
-78 -157 -113 -164 -106 -12 12 -6 25 9 20 8 -4 17 -1 21 5 4 7 3 8 -4 4 -13
-8 -15 -4 -6 18 3 8 12 12 19 10 9 -4 12 0 9 13 -4 13 11 32 50 67 31 27 53
53 49 59 -4 6 0 8 9 4 12 -4 14 -1 11 14 -3 10 -9 19 -14 19 -5 0 -9 4 -9 9 0
6 21 13 48 17 26 3 63 15 82 24 38 20 46 19 37 -3z m-7202 -38 c27 -25 33 -37
29 -55 -5 -18 5 -35 46 -79 29 -30 59 -55 67 -55 25 0 60 -26 197 -146 138
-120 194 -154 356 -217 73 -29 119 -40 170 -42 19 -1 73 -7 120 -14 47 -7 112
-16 145 -20 33 -5 75 -14 93 -19 18 -6 30 -7 27 -1 -17 27 69 -5 94 -35 11
-13 11 -16 0 -16 -11 0 -11 -2 1 -10 30 -19 -97 -8 -290 25 -27 5 -31 4 -19
-4 13 -8 225 -48 274 -52 6 0 1 -4 -10 -9 -11 -5 -14 -9 -7 -9 6 -1 12 -8 12
-16 0 -9 13 -18 33 -22 31 -7 31 -7 7 -14 -23 -7 -23 -7 7 -8 17 -1 34 -4 37
-9 8 -13 -205 7 -285 27 -89 23 -286 98 -295 113 -4 7 7 8 32 4 80 -12 160
-16 132 -7 -14 5 -64 12 -110 16 -253 21 -709 310 -869 551 -43 65 -64 117
-55 139 8 22 23 18 61 -16z m3765 -203 c63 -11 180 -80 227 -134 49 -54 92
-239 93 -392 0 -61 35 -160 57 -160 7 0 13 -4 13 -8 0 -5 6 -17 14 -27 9 -13
7 4 -7 48 -14 46 -23 62 -27 51 -10 -28 -38 91 -44 188 -3 48 -10 108 -16 134
-22 96 -2 50 45 -103 26 -87 54 -200 62 -252 7 -51 21 -107 29 -123 18 -36 26
-71 15 -66 -26 10 -112 99 -105 109 4 7 3 9 -4 5 -19 -12 -52 122 -52 211 0
87 -33 220 -75 304 -42 81 -199 221 -222 198 -11 -11 -103 7 -103 20 0 7 58 5
100 -3z m304 -21 c54 -26 201 -213 182 -232 -3 -3 -11 6 -17 21 -9 20 -15 23
-21 14 -6 -9 -7 -6 -3 9 4 14 -2 30 -19 50 -16 18 -25 23 -26 13 0 -8 -19 4
-47 30 l-48 45 44 -47 c25 -26 47 -45 49 -43 7 7 32 -15 32 -27 0 -6 -8 -4
-17 3 -17 13 -17 12 -2 -6 9 -11 24 -41 34 -68 10 -26 20 -46 22 -44 2 3 -1
17 -7 32 -6 15 -9 30 -6 32 5 5 23 -53 66 -220 20 -81 40 -134 62 -165 23 -35
26 -42 9 -28 -37 34 -58 78 -86 181 -46 176 -117 296 -249 423 -24 23 -42 42
-40 42 18 0 95 -50 135 -87 27 -25 49 -41 49 -36 0 16 -73 84 -112 104 -21 11
-38 22 -38 25 0 3 3 3 8 1 4 -2 24 -12 46 -22z m-3982 -240 c15 -14 32 -25 37
-25 6 0 14 -8 19 -17 12 -23 7 -106 -7 -111 -5 -2 -8 -9 -5 -16 3 -8 -2 -16
-10 -19 -10 -4 -13 -13 -9 -23 5 -15 3 -14 -28 1 -66 34 -119 98 -119 146 0
20 3 21 54 15 30 -3 61 -9 70 -12 25 -9 19 8 -14 43 -46 49 -36 63 12 18z
m7136 4 c-10 -6 -18 -19 -18 -30 0 -19 4 -20 40 -14 46 8 71 -6 63 -35 -7 -26
-43 -58 -44 -39 0 8 -4 6 -9 -6 -5 -11 -9 -14 -9 -7 -1 8 -9 6 -23 -8 -23 -21
-44 -27 -33 -10 9 14 -5 12 -35 -5 -37 -21 -42 -18 -25 15 9 17 13 40 10 50
-8 26 47 95 77 97 20 2 21 1 6 -8z m-1316 -35 c77 -22 62 -37 -34 -37 -40 0
-61 -2 -45 -4 15 -2 27 -8 27 -12 0 -14 -36 -40 -71 -53 -19 -6 -56 -25 -83
-41 -42 -24 -66 -30 -150 -37 -56 -4 -103 -6 -105 -4 -2 1 12 7 30 13 33 9 33
9 7 10 -16 1 -28 6 -28 12 0 6 -23 -9 -50 -33 -140 -120 -324 -229 -384 -227
-17 0 -25 3 -18 6 6 2 9 9 6 15 -9 14 36 98 53 98 8 0 12 4 9 9 -8 13 20 34
109 83 44 24 105 61 135 81 65 44 82 46 105 11 9 -14 19 -23 22 -20 3 3 0 13
-8 22 -12 15 -11 16 10 9 16 -5 21 -4 17 4 -5 7 1 11 14 11 12 0 19 4 15 10
-6 9 4 12 145 49 41 11 86 24 100 30 38 15 107 13 172 -5z m1172 -10 c21 -8
21 -56 0 -97 -32 -62 -103 -113 -281 -203 -96 -48 -188 -90 -206 -95 -27 -7
-25 -8 13 -4 184 19 170 19 170 -4 0 -12 -20 -43 -45 -70 -46 -49 -38 -45
-395 -201 -183 -81 -210 -91 -267 -99 l-58 -9 70 -3 c137 -7 220 4 211 26 -2
7 1 18 7 23 23 17 437 155 445 148 5 -6 -91 -66 -115 -72 -13 -4 -23 -10 -23
-15 0 -16 43 -9 105 16 33 14 63 25 67 25 18 0 -8 -38 -40 -60 -20 -14 -64
-45 -97 -70 -33 -25 -81 -56 -107 -70 -26 -13 -49 -31 -50 -40 -2 -11 -16 -15
-48 -15 -25 -1 -81 -8 -125 -18 -44 -9 -108 -18 -141 -21 -34 -3 -104 -15
-155 -27 -76 -18 -109 -20 -182 -15 -108 8 -188 23 -202 37 -7 7 -4 8 10 3 15
-5 13 0 -9 19 l-28 26 38 -4 c22 -2 31 -2 22 1 -52 16 -2 24 155 25 145 2 160
3 97 10 -41 4 -121 5 -177 2 -71 -4 -103 -3 -103 5 0 6 5 14 10 17 6 4 8 11 5
16 -4 5 -1 9 6 9 7 0 5 8 -6 20 -16 18 -16 20 -2 20 10 0 17 4 17 9 0 4 28 12
63 17 60 8 60 8 20 12 -46 3 -53 12 -27 33 12 10 74 15 239 20 123 4 228 10
234 13 6 4 34 9 62 11 28 2 56 8 61 13 6 6 16 9 22 6 6 -2 22 5 36 16 l25 20
-28 0 c-16 0 -36 -4 -45 -9 -51 -27 -548 -56 -587 -34 -13 8 32 12 159 15 130
3 179 8 189 18 10 11 8 12 -8 5 -27 -10 -353 -18 -340 -8 11 9 18 29 19 56 0
21 13 24 126 32 47 3 93 8 103 11 38 11 13 20 -65 23 -46 1 -87 7 -93 12 -5 5
-17 9 -27 9 -10 0 -18 5 -18 10 0 6 -11 10 -24 10 -14 0 -28 5 -31 10 -4 7 52
10 162 10 99 0 207 6 263 15 52 9 147 22 210 31 213 28 267 42 384 102 61 31
116 55 122 54 7 -1 26 16 44 38 17 22 29 40 25 40 -8 0 -223 -93 -300 -130
-84 -40 -106 -45 -470 -111 -117 -21 -303 -30 -370 -19 l-40 7 43 2 c23 0 42
5 42 10 0 5 28 15 63 22 l62 14 -45 6 c-32 4 -17 6 53 7 121 2 218 22 361 73
61 23 156 54 211 70 102 30 125 40 320 134 61 30 117 56 125 59 22 7 66 7 84
0z m-6758 -30 c12 -2 71 -28 132 -57 61 -30 148 -65 194 -80 46 -14 173 -55
283 -91 164 -52 221 -66 315 -75 153 -16 161 -18 195 -47 l30 -25 -150 4
c-105 3 -189 12 -280 30 -71 14 -164 33 -206 41 -75 14 -114 28 -344 125 -66
28 -123 51 -127 51 -15 0 -8 -19 15 -41 29 -28 227 -126 292 -144 140 -40 541
-83 790 -85 104 -1 98 -15 -11 -29 l-69 -8 65 -2 c82 -3 55 -16 -54 -26 -46
-4 -74 -11 -69 -16 5 -5 50 -13 101 -18 109 -12 120 -16 90 -40 l-22 -18 30
-16 c28 -16 24 -16 -101 -18 -113 -2 -122 -3 -65 -9 36 -4 94 -9 130 -10 44
-1 59 -4 45 -9 -21 -9 -52 -8 -300 4 -115 6 -168 13 -228 32 -87 27 -111 26
-45 -1 24 -10 50 -22 59 -26 35 -18 135 -31 308 -40 101 -5 186 -12 189 -15 3
-3 -1 -12 -9 -19 -9 -9 -56 -18 -129 -25 l-115 -10 138 4 c110 3 137 1 137 -9
0 -8 -7 -17 -16 -20 -15 -6 -15 -8 0 -31 16 -24 16 -25 -9 -25 -15 0 -24 -4
-21 -9 3 -5 -54 -12 -127 -17 l-132 -9 155 -6 c85 -3 156 -7 158 -7 1 -1 -4
-15 -13 -32 -9 -16 -12 -30 -8 -30 4 0 -1 -6 -12 -14 -38 -26 -146 -30 -227
-7 -40 11 -116 25 -168 31 -228 23 -354 70 -515 191 -83 62 -95 74 -78 82 11
5 30 3 48 -4 17 -7 35 -13 40 -14 6 0 20 -6 32 -13 12 -7 29 -12 39 -12 25 0
1 25 -39 41 -18 7 -42 19 -55 28 -19 12 -21 16 -9 22 14 8 109 -22 237 -76 33
-14 90 -32 127 -41 91 -21 108 -31 66 -40 -18 -3 -31 -10 -28 -14 8 -14 143
-23 223 -15 84 8 79 15 -23 34 -33 6 -91 26 -130 45 -38 18 -86 39 -105 46
-111 40 -348 146 -367 164 -12 12 -29 38 -38 59 -21 50 -13 53 122 32 165 -25
198 -27 94 -4 -80 17 -239 81 -321 129 -8 5 -37 21 -64 36 -74 39 -104 64
-142 115 -38 52 -42 74 -17 101 14 15 25 18 53 13 19 -4 45 -9 56 -11z m5464
-142 c0 -8 -9 -30 -21 -48 -12 -19 -16 -34 -9 -34 7 0 8 -6 0 -19 -12 -24 -13
-34 -1 -27 5 3 11 -1 15 -9 3 -9 0 -15 -8 -15 -8 0 -23 -3 -33 -7 -16 -6 -16
-5 -4 10 10 12 1 10 -30 -7 -42 -23 -85 -31 -278 -53 l-55 -6 21 36 c19 31 20
40 10 66 -10 27 -8 33 13 57 19 20 21 26 8 21 -25 -9 -22 0 3 14 12 6 19 7 15
1 -10 -17 231 8 263 27 23 15 91 10 91 -7z m-4100 -11 c25 -6 79 -10 121 -11
88 0 112 -14 83 -48 -9 -11 -23 -18 -30 -15 -8 3 -14 0 -14 -6 0 -6 -8 -11
-17 -11 -10 0 -38 -7 -63 -15 l-45 -15 54 5 c30 3 66 8 80 11 22 5 30 -1 56
-43 16 -26 31 -51 33 -54 1 -3 -23 -2 -55 2 -32 4 -87 9 -123 13 -91 7 -32
-10 83 -25 84 -11 87 -12 71 -30 -25 -27 -79 -41 -137 -35 -37 3 -43 3 -22 -3
64 -18 122 -12 153 14 17 14 31 25 33 25 2 0 5 -18 6 -41 1 -22 7 -47 15 -56
11 -14 3 -15 -82 -8 -117 9 -208 34 -261 71 -73 50 -67 81 8 38 37 -21 44 -23
31 -8 -13 14 -14 23 -6 38 7 13 7 17 0 12 -6 -3 -17 -3 -26 0 -29 11 -16 20
27 17 l42 -3 -35 10 c-19 6 -54 20 -78 33 -35 18 -42 26 -38 43 4 13 -2 32
-14 47 -11 14 -20 35 -20 47 0 21 3 22 63 17 34 -3 82 -10 107 -16z m-1502
-99 c17 -9 32 -20 32 -24 0 -11 102 -57 134 -60 40 -4 43 14 5 36 -17 10 -28
20 -25 23 3 3 11 1 18 -5 7 -5 31 -15 53 -21 47 -13 67 -27 85 -60 11 -21 10
-26 -9 -41 -29 -21 -20 -60 17 -82 15 -9 41 -31 57 -48 29 -31 29 -31 5 -22
-79 31 -180 85 -210 113 -19 17 -72 56 -117 86 -87 57 -123 94 -123 125 0 20
-3 21 78 -20z m1818 6 c17 -13 58 -44 91 -69 34 -25 87 -56 119 -68 76 -29 87
-35 92 -49 2 -7 -8 -13 -25 -13 l-28 -2 28 -4 c20 -3 27 -9 23 -19 -3 -8 2
-23 12 -33 9 -10 18 -23 20 -29 3 -19 -93 -14 -178 8 -41 11 -86 20 -100 20
-45 0 -70 26 -70 72 l0 41 43 -6 c23 -3 53 -8 67 -12 14 -3 0 4 -30 16 -91 36
-140 93 -121 142 13 33 18 33 57 5z m3362 -4 c22 -47 -28 -99 -138 -143 -41
-17 -68 -31 -59 -31 9 0 32 6 50 14 70 28 85 28 98 0 6 -15 9 -34 6 -43 -7
-22 -56 -51 -87 -51 -12 0 -59 -9 -103 -20 -78 -19 -215 -27 -215 -12 0 4 16
18 34 32 19 14 32 27 29 30 -2 3 15 10 39 16 l43 12 -47 1 c-27 1 -48 5 -48
11 0 5 -8 7 -17 4 -51 -14 32 17 96 37 45 14 103 42 149 73 91 62 145 96 153
96 3 0 11 -12 17 -26z m1591 -14 c-37 -20 -68 -49 -53 -51 65 -8 73 -7 124 26
30 19 60 35 67 35 32 0 5 -35 -88 -117 -118 -104 -219 -170 -256 -170 l-27 0
30 21 c48 35 81 75 79 99 -2 12 -7 21 -13 20 -6 -2 -14 7 -17 18 -5 15 0 28
16 45 25 24 146 94 164 93 6 0 -6 -8 -26 -19z m-1979 -100 c-12 -17 -34 -37
-50 -45 -15 -8 -30 -19 -32 -25 -1 -5 -47 -21 -102 -34 -54 -13 -103 -29 -109
-35 -12 -12 -10 -12 108 17 125 31 145 35 145 23 0 -18 -59 -52 -123 -71 l-62
-18 43 -1 c26 -1 41 -5 37 -11 -3 -5 -1 -10 6 -10 9 0 10 -3 3 -10 -9 -9 -343
-41 -409 -39 -22 1 -7 9 55 30 47 15 94 28 105 29 11 0 27 5 35 11 23 16 -70
1 -137 -22 -71 -24 -73 -24 -42 5 36 33 57 43 114 52 43 7 46 9 22 13 -28 6
-27 7 25 33 97 49 148 68 251 94 56 14 106 30 112 35 21 21 25 7 5 -21z m690
0 c-35 -29 -36 -40 -1 -18 18 11 51 6 51 -9 0 -14 -94 -71 -135 -82 -49 -13
-235 -34 -242 -28 -2 3 2 20 10 38 7 19 12 40 9 47 -3 11 2 10 20 -2 13 -9 47
-18 74 -21 l49 -5 -50 14 c-27 8 -54 16 -60 16 -5 1 4 8 20 15 l30 14 -29 1
c-16 0 -27 2 -24 5 6 7 240 43 283 44 l29 1 -34 -30z m-3842 -146 c41 -8 90
-14 110 -14 33 0 72 -22 72 -42 0 -15 -67 -38 -112 -38 -32 0 -39 -3 -28 -10
8 -6 36 -8 64 -4 31 4 46 3 42 -4 -3 -5 2 -16 10 -23 15 -12 14 -14 -7 -20
-22 -7 -22 -7 5 -8 44 -2 22 -15 -37 -22 l-52 -6 65 -3 c65 -3 65 -3 19 -9
-26 -4 -76 -4 -112 -1 -55 4 -71 10 -96 34 -17 16 -28 33 -25 37 2 4 -5 13
-17 19 -17 10 -20 9 -13 -1 4 -7 -7 -3 -24 10 -39 27 -40 47 -7 83 28 30 31
40 13 33 -7 -2 -21 6 -30 19 l-17 24 52 -20 c29 -11 85 -26 125 -34z m3783 0
c14 -8 59 -74 59 -87 0 -3 -13 -8 -29 -12 -16 -3 -40 -15 -53 -27 -44 -39 -83
-66 -103 -71 -11 -3 0 -3 25 0 25 3 42 2 38 -2 -4 -5 -1 -13 7 -19 27 -21 20
-37 -20 -52 -77 -28 -167 -44 -233 -42 l-67 1 60 7 c50 5 53 7 20 8 -43 2 -87
21 -50 22 14 0 16 3 7 8 -7 5 -14 18 -17 30 -4 21 -1 22 103 24 l107 1 -93 7
c-50 4 -95 10 -99 13 -3 4 -2 7 4 7 6 0 9 11 8 25 -2 14 1 25 6 25 6 0 7 5 4
10 -3 6 -1 10 5 10 6 0 8 4 5 10 -4 6 30 8 92 5 l98 -4 -90 14 c-91 15 -128
36 -105 59 12 12 218 44 265 42 17 -1 37 -6 46 -12z m-3446 -29 c55 -14 112
-25 128 -25 39 0 93 -25 106 -48 9 -18 7 -21 -24 -26 -19 -4 -58 -4 -87 -2
-38 4 -46 3 -28 -3 14 -5 48 -9 75 -10 30 -1 61 -8 78 -20 l28 -18 -38 -6
c-107 -18 -263 17 -322 72 -31 29 -47 70 -37 96 7 19 3 19 121 -10z m3087 8
c53 -48 -13 -112 -162 -154 -75 -22 -188 -24 -240 -5 l-35 13 65 16 c45 10 56
16 35 16 -23 1 -31 6 -32 21 -1 13 2 18 10 13 9 -5 8 -2 0 9 -11 13 0 17 89
33 57 10 130 26 163 36 76 22 85 23 107 2z m-468 -108 c25 -11 27 -13 10 -18
-101 -28 -228 -39 -304 -26 -62 11 -102 28 -69 30 7 1 3 5 -11 9 -17 5 2 8 60
9 90 2 202 11 209 17 7 6 72 -7 105 -21z m-2094 5 c0 -6 49 -8 124 -7 69 1
123 0 120 -4 -2 -4 -44 -14 -93 -23 -102 -19 -251 -19 -298 0 -34 13 -42 29
-20 37 23 10 167 7 167 -3z m-755 -95 c66 -2 99 -7 98 -14 -2 -6 1 -11 6 -11
4 0 8 -10 7 -22 -1 -22 -4 -23 -108 -23 -103 0 -107 1 -149 31 -62 45 -63 58
-3 50 27 -4 94 -9 149 -11z m564 6 c10 -6 6 -11 -15 -19 -29 -10 -29 -10 11
-12 l40 -1 -35 -18 c-19 -10 -69 -21 -110 -25 -41 -4 -108 -16 -148 -28 -68
-20 -74 -20 -90 -5 -25 26 -5 66 47 94 39 20 58 23 165 23 67 0 127 -4 135 -9z
m2618 -14 c35 -19 53 -44 53 -76 0 -18 -6 -21 -43 -21 -23 0 -51 6 -62 14 -12
8 -58 15 -115 18 -52 3 -122 13 -155 24 l-60 18 40 7 c22 3 34 7 28 8 -7 0
-13 7 -13 14 0 9 35 12 148 12 119 -1 153 -4 179 -18z m1703 -71 c0 -19 -39
-48 -181 -134 -154 -92 -168 -100 -151 -80 11 13 -2 15 -110 13 -240 -4 -419
-17 -402 -29 8 -6 16 -18 17 -26 6 -39 17 -42 126 -39 92 4 106 2 109 -12 8
-43 -205 -55 -348 -21 -101 24 -279 87 -294 103 -11 11 -2 11 69 -7 12 -3 9 1
-8 11 -37 21 -29 30 9 11 51 -26 300 -83 290 -67 -3 5 -36 14 -73 20 -89 16
-194 47 -218 65 -12 10 -15 15 -7 16 8 0 10 5 6 12 -5 8 -2 9 9 5 27 -10 20 1
-10 17 -37 20 -14 20 55 -1 156 -46 720 10 774 77 14 17 29 22 74 23 32 1 48
4 37 8 -17 7 -17 7 1 14 10 5 21 3 25 -2 3 -6 20 -14 38 -17 24 -6 44 0 90 23
67 35 73 36 73 17z m-6236 -26 c37 -14 69 -13 60 2 -5 8 -2 9 10 5 10 -4 27
-7 39 -8 21 0 21 -1 2 -8 -17 -7 -13 -10 24 -20 24 -7 60 -11 80 -9 26 2 36
-1 36 -11 0 -29 61 -52 162 -61 300 -26 420 -32 487 -26 80 7 129 0 123 -17
-2 -6 -17 -15 -33 -19 -36 -11 -540 -12 -614 -2 -30 5 -78 8 -107 8 -29 0 -50
3 -47 8 3 4 -1 6 -8 3 -15 -6 -282 117 -309 141 -10 9 -15 22 -13 29 5 13 51
7 108 -15z m1997 14 c18 -22 -7 -39 -96 -65 -38 -11 -108 -32 -153 -45 -46
-14 -93 -24 -105 -22 -27 4 -34 39 -13 61 9 9 16 20 16 25 0 22 32 32 136 45
154 20 199 20 215 1z m2417 1 c43 -5 56 -12 76 -38 13 -18 26 -47 29 -64 6
-30 4 -33 -19 -33 -14 0 -38 7 -52 15 -15 8 -72 24 -127 36 -105 22 -171 46
-209 76 -22 17 -19 18 113 16 75 -1 160 -5 189 -8z m489 -6 c-15 -9 -16 -12
-2 -25 8 -9 13 -19 11 -23 -2 -3 12 -17 32 -30 23 -15 32 -18 23 -8 -19 24 2
21 23 -2 19 -21 14 -41 -10 -41 -8 0 -32 10 -54 22 -38 22 -39 22 -103 5 -80
-21 -125 -22 -164 -2 -36 18 -51 45 -25 46 10 0 12 3 4 6 -33 13 9 23 98 23
69 0 103 4 112 13 15 16 37 25 58 26 11 0 11 -2 -3 -10z m-2853 -62 c-1 -13 2
-14 17 -6 18 9 23 5 20 -15 -1 -5 5 -4 13 4 29 24 16 -8 -23 -57 -65 -80 -116
-124 -162 -137 -32 -9 -50 -23 -68 -49 -26 -39 -50 -47 -71 -22 -18 22 1 56
67 122 l52 51 -85 -39 c-102 -48 -128 -48 -132 0 -4 41 23 73 76 90 95 30 278
79 287 77 6 -2 9 -10 9 -19z m2341 -56 c36 -16 62 -41 89 -88 10 -18 -30 -53
-59 -53 -14 0 -42 11 -63 23 -20 13 -48 29 -62 36 -23 11 -23 11 -7 -2 24 -19
87 -109 87 -123 0 -20 -38 -46 -58 -40 -10 4 -28 22 -38 41 -13 24 -29 38 -51
44 -18 5 -46 19 -62 30 l-29 21 16 -34 c9 -19 39 -52 66 -74 41 -34 53 -52 71
-107 13 -36 23 -68 23 -71 6 -29 47 -90 92 -134 30 -30 41 -45 24 -33 l-31 22
-9 -20 c-8 -18 -17 -6 -61 83 -58 117 -179 303 -188 289 -3 -5 5 -27 17 -47
12 -21 23 -45 25 -53 1 -7 9 -21 19 -30 9 -9 14 -10 10 -3 -16 29 4 9 25 -24
22 -36 33 -104 17 -104 -5 0 -6 -6 -1 -12 14 -23 12 -37 -5 -31 -8 4 -13 2
-10 -3 3 -5 13 -26 23 -46 9 -21 24 -38 31 -38 8 0 14 -5 14 -10 0 -16 -56 16
-79 46 -43 54 -82 152 -98 242 -14 78 -19 91 -38 96 -38 10 -190 204 -173 221
2 2 15 6 28 8 14 3 30 7 35 9 6 1 39 -26 74 -62 l63 -65 -56 64 c-31 36 -56
68 -56 72 0 4 18 6 39 5 22 0 37 3 34 8 -3 5 6 7 21 4 14 -3 26 -2 26 2 0 11
215 -37 265 -59z m-2210 -9 c-5 -13 -3 -13 12 -1 44 36 -39 -83 -104 -150 -40
-40 -73 -78 -73 -84 0 -6 7 -2 15 9 17 22 19 15 6 -18 -5 -13 -17 -50 -27 -83
-9 -33 -19 -54 -22 -47 -6 18 -22 14 -22 -6 0 -10 -4 -22 -9 -28 -4 -5 -16
-31 -26 -57 -23 -62 -33 -66 -33 -16 -1 36 15 90 51 179 6 14 11 30 12 35 0 6
7 9 14 7 7 -1 10 2 7 7 -3 5 3 19 13 33 17 21 17 26 5 43 -25 33 -16 53 62
132 42 43 73 71 69 63 -6 -11 -3 -10 10 2 14 13 22 15 32 6 8 -6 11 -18 8 -26z
m4653 -32 c8 0 10 5 6 13 -4 6 4 1 18 -13 13 -14 23 -28 21 -32 -2 -4 9 -8 24
-10 36 -4 46 -38 11 -38 -125 1 -222 -47 -380 -186 -16 -13 -29 -23 -30 -23
-5 3 -92 -44 -119 -63 -15 -11 -31 -18 -36 -15 -5 4 -10 0 -10 -7 0 -28 83 9
140 62 38 36 34 13 -7 -31 -18 -20 -32 -39 -30 -42 2 -3 1 -3 -2 0 -4 2 -19
-3 -34 -12 -51 -30 -115 13 -76 52 8 8 20 15 26 15 16 0 197 116 246 158 24
20 43 45 44 55 0 15 2 16 14 5 8 -7 12 -17 9 -21 -3 -5 3 -4 13 1 30 16 89 62
80 62 -4 0 -23 -12 -42 -26 -56 -43 -49 -22 18 50 42 44 65 63 72 56 5 -5 16
-10 24 -10z m-2866 -75 c13 -16 38 -46 56 -66 17 -20 32 -43 32 -52 0 -10 6
-13 19 -10 17 4 22 -4 36 -51 23 -79 15 -87 -20 -21 -17 30 -34 55 -38 55 -5
0 1 -17 14 -37 42 -70 69 -124 69 -137 0 -8 12 -39 26 -70 14 -32 24 -60 21
-63 -9 -8 -75 65 -103 113 -19 33 -84 187 -84 201 0 0 10 -1 21 -4 18 -5 20
-3 11 13 -6 11 -20 28 -32 39 -25 23 -46 60 -66 119 -12 36 -12 39 1 21 8 -11
25 -33 37 -50z m1033 8 c66 -35 250 -93 340 -109 83 -14 121 -14 303 -5 121 7
247 20 302 31 52 11 96 18 97 16 12 -12 -18 -39 -70 -64 -95 -46 -154 -63
-247 -72 -47 -5 -129 -14 -183 -20 -84 -10 -101 -9 -115 3 -11 10 -39 15 -75
16 -32 0 -63 4 -70 8 -6 4 -55 6 -108 5 -93 -3 -100 -1 -189 37 -104 46 -155
80 -163 111 -3 12 -1 20 5 18 5 -2 8 -6 6 -9 -4 -8 22 -39 33 -39 5 0 4 11 -1
25 -9 23 -8 25 9 15 11 -5 26 -7 34 -4 9 3 29 -2 46 -10 52 -27 49 -17 -4 13
-28 16 -58 37 -65 47 -14 16 -12 17 35 10 27 -5 63 -15 80 -23z m-3954 10
c-10 -4 -10 -7 -1 -13 13 -8 -105 -54 -195 -76 -76 -17 -281 -18 -315 -1 -30
15 -43 54 -14 43 66 -25 292 -8 434 33 60 17 124 27 91 14z m3768 -68 c18 -49
19 -49 127 -95 60 -26 132 -58 161 -73 62 -32 107 -37 53 -6 l-35 20 90 -6
c49 -4 112 -11 140 -17 144 -30 232 -37 220 -18 -10 16 31 12 112 -12 56 -16
79 -19 92 -11 19 12 81 -8 81 -25 0 -17 -74 -66 -102 -68 -49 -3 -133 -27
-143 -40 -14 -18 -109 -42 -185 -47 -97 -6 -186 9 -270 47 -41 19 -83 37 -92
40 -10 3 -18 13 -18 23 0 13 -3 14 -8 5 -9 -14 -105 19 -169 59 -36 22 -36 23
-12 31 19 7 21 11 9 18 -17 10 42 7 78 -4 39 -13 24 1 -31 27 -54 27 -122 87
-97 87 33 0 -3 12 -42 14 -65 3 -193 45 -229 75 -31 26 -31 27 -8 26 13 0 30
-4 38 -9 10 -7 12 -6 6 4 -5 9 -2 10 14 5 40 -12 159 -11 172 3 17 16 26 6 48
-53z m-3656 46 c4 -1 6 -7 5 -13 -2 -7 -32 -25 -68 -40 -63 -26 -64 -39 -1
-17 37 13 94 3 70 -12 -7 -5 -10 -9 -5 -9 5 0 1 -9 -8 -19 -17 -19 -17 -19 6
-15 12 2 -2 -8 -32 -23 -42 -21 -72 -28 -128 -29 -39 -2 -77 -6 -82 -9 -6 -3
-10 2 -10 13 0 25 37 57 83 72 21 6 36 14 33 17 -9 9 -81 -19 -106 -42 -26
-22 -116 -55 -154 -55 -11 0 -33 -6 -48 -14 -23 -12 -53 -12 -210 0 -232 17
-331 46 -392 113 -19 21 -19 21 0 21 10 0 64 -12 119 -25 97 -25 107 -25 325
-19 202 5 236 9 335 34 61 15 135 39 165 53 30 14 64 23 75 22 11 -2 23 -4 28
-4z m3470 -82 c87 -26 100 -37 116 -92 17 -56 22 -60 107 -108 41 -22 89 -52
107 -67 25 -21 28 -22 13 -4 -11 12 -17 22 -14 22 4 0 46 -18 95 -41 48 -23
111 -51 138 -64 28 -12 73 -26 100 -29 69 -10 225 -48 225 -55 0 -12 -68 -43
-121 -55 -43 -9 -72 -9 -144 1 -170 25 -215 44 -215 89 0 16 -1 16 -14 -1 -13
-18 -16 -17 -85 19 -39 20 -71 35 -71 32 0 -2 35 -26 78 -51 99 -60 144 -94
137 -105 -9 -14 23 -31 112 -60 52 -17 88 -34 88 -42 0 -7 -8 -12 -17 -10 -10
2 -18 -2 -18 -9 0 -16 -158 -2 -230 20 -120 37 -253 138 -324 246 -30 45 -31
54 -13 79 12 17 18 12 70 -57 49 -64 123 -136 163 -157 5 -3 -4 6 -20 20 -70
56 -176 184 -176 212 0 5 14 1 31 -8 20 -10 28 -11 24 -3 -6 9 -2 11 14 6 21
-5 22 -4 7 18 -11 17 -13 26 -4 31 7 4 8 3 4 -4 -3 -6 3 -16 14 -22 11 -6 20
-8 20 -4 0 3 6 2 13 -3 6 -6 21 -13 32 -16 14 -5 11 0 -10 18 -32 27 -51 33
-39 13 4 -8 3 -10 -2 -5 -5 5 -9 12 -9 16 0 19 -105 109 -140 121 -63 20 -148
66 -170 91 -17 19 -18 22 -2 16 17 -6 23 3 10 16 -3 4 -7 18 -8 31 l-1 24 29
-24 c16 -13 61 -33 100 -45z m2334 -69 c39 -32 92 -87 117 -120 46 -60 64 -97
25 -50 -16 19 -15 13 6 -23 l26 -48 -30 -38 c-42 -53 -72 -76 -41 -31 13 19
28 38 32 41 12 8 -2 66 -18 80 -8 6 -14 8 -14 3 0 -5 -18 19 -40 54 -26 40
-56 73 -87 93 -43 27 -54 30 -104 26 -31 -3 -69 -12 -85 -22 -16 -9 -20 -13
-9 -9 83 28 120 26 187 -8 37 -18 97 -92 85 -104 -3 -4 8 -30 24 -60 37 -65
34 -79 -29 -140 -69 -66 -120 -87 -193 -82 -72 5 -129 41 -176 112 -48 71 -41
125 26 201 l26 30 -33 -30 c-19 -16 -44 -50 -57 -75 -13 -25 -24 -38 -25 -30
0 9 9 33 20 54 10 22 17 42 15 46 -5 8 24 24 38 22 4 -1 6 2 5 6 -5 13 66 70
113 92 47 21 103 26 141 11 28 -10 131 -101 124 -109 -7 -7 26 -62 37 -62 5 0
-1 12 -13 27 -12 16 -17 29 -10 33 9 6 -77 96 -134 138 -36 27 -87 28 -145 2
-23 -11 -48 -17 -54 -13 -6 3 -7 1 -3 -5 4 -8 0 -12 -11 -12 -10 -1 -34 -14
-53 -30 -19 -17 -38 -30 -43 -30 -5 0 17 20 48 45 32 24 61 42 65 40 5 -3 11
2 14 11 4 9 13 14 21 10 8 -3 25 -1 37 4 13 5 41 9 64 9 35 1 49 -7 111 -59z
m-7523 5 c72 -56 52 -71 -34 -25 -29 15 -63 24 -95 24 -43 1 -56 -4 -92 -33
-24 -19 -50 -46 -59 -60 l-17 -26 21 19 c13 11 22 14 22 7 0 -7 18 3 40 20 22
18 38 35 35 37 -3 3 -18 -7 -33 -21 -41 -40 -52 -33 -12 8 31 32 70 49 54 24
-4 -8 1 -9 16 -4 78 25 154 -14 216 -110 11 -17 13 -26 5 -21 -10 7 -12 4 -6
-13 4 -14 -10 -4 -41 30 -51 54 -97 82 -152 92 -31 6 -39 2 -97 -54 -34 -34
-65 -59 -67 -58 -3 2 -17 -9 -31 -26 -21 -23 -26 -25 -21 -10 5 17 3 16 -16
-5 -31 -35 -14 -6 36 65 74 105 152 165 214 165 21 0 75 -26 120 -58 14 -10
21 -11 16 -4 -4 7 -26 27 -48 43 -23 16 -36 29 -31 29 6 0 31 -16 57 -35z
m1786 5 c-14 -11 -17 -18 -8 -14 13 4 15 1 11 -15 -4 -14 -28 -29 -83 -50 -43
-16 -98 -44 -121 -61 -135 -97 -350 -135 -519 -91 -41 11 -69 20 -61 20 11 1
10 5 -5 16 -18 13 -18 14 -1 15 10 0 16 3 14 8 -3 4 19 7 49 7 30 1 54 -1 54
-2 0 -2 -10 -8 -22 -13 -17 -6 0 -9 59 -9 87 -1 117 5 106 22 -4 6 3 8 20 3
52 -13 167 24 382 121 154 70 164 73 125 43z m3268 -17 c57 -6 120 -33 137
-59 24 -37 36 -114 19 -121 -24 -9 -227 159 -237 196 -5 19 -4 19 20 4 14 -9
41 -18 61 -20z m-122 -61 c28 2 84 -24 84 -40 0 -8 6 -12 13 -9 6 2 11 11 9
18 -1 8 9 2 22 -14 24 -26 44 -80 52 -139 l3 -28 -52 30 c-99 56 -130 88 -162
165 -14 32 -14 37 -2 27 8 -7 23 -11 33 -10z m-3090 -74 c-1 -7 -20 -32 -42
-54 -21 -23 -49 -56 -62 -73 -13 -17 -28 -31 -34 -31 -6 0 -32 -13 -58 -30
-26 -16 -60 -31 -76 -32 -16 0 -70 -14 -121 -30 -90 -28 -154 -31 -169 -7 -3
5 -13 9 -22 9 -15 0 -15 -2 -2 -10 24 -15 2 -12 -30 5 -17 9 -30 19 -30 23 0
7 110 35 213 53 26 4 96 30 155 57 131 60 158 69 147 51 -5 -8 3 -5 16 7 30
26 101 74 110 74 4 0 6 -6 5 -12z m-2230 -53 c-11 -29 6 -76 33 -90 14 -8 44
-30 66 -50 53 -49 79 -66 118 -76 32 -8 32 -8 2 -5 -16 2 -39 7 -50 11 -16 6
-18 5 -8 -5 20 -21 96 -24 134 -5 52 27 108 74 140 118 22 30 29 35 29 20 0
-10 -26 -47 -58 -80 -46 -48 -69 -64 -115 -79 -83 -26 -121 -11 -219 86 -84
83 -105 119 -88 151 13 22 25 26 16 4z m2310 -84 c-42 -56 -106 -118 -166
-157 -35 -23 -39 -29 -24 -34 13 -5 5 -9 -24 -14 -24 -3 -45 -13 -49 -22 -3
-8 -12 -13 -19 -10 -8 3 -14 1 -14 -5 0 -6 -7 -9 -15 -6 -8 4 -17 2 -20 -4 -4
-5 -11 -7 -16 -3 -6 3 -27 3 -46 -1 -27 -5 -33 -9 -22 -16 12 -7 12 -9 -1 -8
-8 0 -24 4 -35 9 -16 7 -17 9 -3 9 9 1 20 6 24 13 4 7 3 8 -4 4 -7 -4 -12 -2
-12 3 0 6 12 11 27 11 43 0 105 36 143 84 34 43 73 73 174 132 26 16 67 41 90
55 22 14 43 22 44 17 2 -4 -12 -30 -32 -57z m3445 -218 c52 -48 130 -119 172
-157 42 -38 77 -74 77 -80 0 -6 -7 -3 -15 8 -8 10 -19 15 -26 10 -9 -5 -4 -14
17 -32 l29 -25 -30 18 c-43 25 -85 67 -79 77 3 5 12 4 20 -3 7 -6 12 -14 10
-18 -3 -4 5 -7 16 -7 18 0 18 2 -7 23 -14 13 -31 20 -37 17 -5 -3 -23 6 -39
22 -30 29 -39 23 -14 -10 24 -32 17 -37 -19 -15 -71 42 -240 238 -222 257 3 2
29 -18 58 -44 58 -54 49 -35 -21 40 -68 73 -8 29 110 -81z m-2044 65 c41 -18
77 -61 89 -108 10 -35 9 -44 -5 -57 -9 -9 -16 -20 -16 -25 0 -13 -66 -68 -81
-68 -8 0 -14 4 -14 8 0 5 -11 14 -25 20 -20 9 -26 8 -33 -5 -6 -11 -11 -12
-16 -4 -4 6 -16 11 -27 11 -19 0 -22 19 -4 32 6 5 5 19 -3 40 -11 30 -9 38 15
88 16 31 39 60 53 67 31 16 33 16 67 1z m3634 -120 c-13 -58 -7 -77 8 -27 l9
34 1 -46 c1 -47 -43 -274 -60 -313 -8 -17 -8 -16 -4 8 13 62 16 124 7 130 -12
7 -32 -91 -25 -129 4 -24 2 -27 -7 -15 -8 12 -10 10 -5 -10 3 -16 -2 -35 -16
-55 -20 -28 -21 -29 -15 -5 17 73 106 492 107 507 1 12 3 10 6 -5 3 -12 0 -46
-6 -74z m-1817 -8 c24 -11 66 -44 93 -73 26 -28 51 -51 55 -49 4 1 25 -22 46
-51 22 -28 49 -60 60 -71 12 -10 19 -22 17 -27 -3 -4 0 -11 6 -15 8 -4 9 -3 5
4 -10 17 3 14 44 -8 28 -15 32 -20 18 -25 -26 -10 -115 12 -170 42 -27 15 -75
54 -106 88 -31 33 -59 59 -63 58 -7 -2 -45 42 -63 75 -16 27 3 9 29 -28 43
-62 41 -40 -3 31 -22 35 -43 78 -46 94 l-6 30 20 -27 c11 -14 40 -36 64 -48z
m-4821 -45 c4 -34 3 -43 -3 -30 -6 13 -8 2 -4 -35 8 -79 23 -153 35 -170 8
-12 9 -11 6 5 -3 11 -8 38 -11 60 -4 22 -9 54 -13 70 -3 17 -3 27 1 24 10 -10
56 -228 50 -243 -3 -7 4 -30 15 -50 11 -20 18 -43 14 -52 -4 -11 -2 -15 4 -11
7 4 17 -12 27 -40 18 -54 20 -75 5 -53 -8 12 -9 10 -5 -10 3 -14 6 -34 6 -45
0 -17 2 -18 10 -5 8 11 9 7 5 -15 l-5 -30 13 28 13 28 11 -36 c6 -19 8 -33 4
-30 -4 2 -8 -9 -8 -25 0 -16 4 -27 9 -24 4 3 8 3 8 0 0 -3 -5 -8 -10 -11 -12
-7 -66 107 -76 160 -3 19 -10 32 -15 30 -4 -3 -13 11 -18 32 -24 88 -30 117
-25 125 3 4 0 8 -6 8 -6 0 -9 4 -6 9 3 5 -3 40 -15 77 -12 37 -27 97 -35 133
l-14 66 5 -54 c2 -30 13 -87 24 -125 29 -106 54 -226 48 -232 -3 -3 -8 14 -12
38 -4 23 -13 59 -20 79 -39 109 -78 410 -55 424 6 3 10 -4 11 -17 0 -13 5 -32
10 -43 6 -14 7 -5 4 30 -7 65 10 29 18 -40z m6747 -112 c-33 -164 -55 -245
-113 -419 -80 -234 -136 -361 -260 -584 -37 -67 -191 -299 -262 -395 -78 -106
-253 -297 -389 -423 -123 -115 -446 -367 -446 -349 0 3 39 33 87 68 319 232
556 464 764 746 290 391 487 829 596 1321 41 186 58 212 23 35z m114 -14 c-26
-152 -88 -386 -143 -540 -102 -281 -313 -667 -499 -909 -168 -219 -433 -482
-646 -642 -189 -141 -498 -328 -541 -328 -11 1 10 14 46 29 85 37 412 253 554
367 209 166 519 499 664 713 153 224 333 576 405 791 25 74 50 142 55 150 4 9
12 31 16 50 4 19 22 96 40 170 18 74 38 161 45 193 19 92 22 60 4 -44z m-6896
-299 c139 -445 308 -771 566 -1095 53 -66 122 -154 155 -195 70 -89 222 -233
386 -365 143 -115 423 -303 552 -371 50 -27 90 -50 88 -52 -7 -7 -171 82 -292
159 -271 173 -438 303 -623 489 -74 73 -223 242 -264 299 -12 16 -54 73 -95
127 -79 105 -164 245 -260 429 -33 62 -62 110 -66 107 -3 -4 -3 2 1 12 5 13 4
17 -4 12 -8 -5 -10 -1 -5 10 4 11 2 15 -4 11 -9 -6 -76 149 -123 287 -23 67
-24 77 -9 56 9 -12 10 -12 5 3 -3 10 -6 24 -6 30 0 8 -3 8 -9 -1 -5 -8 -20 47
-39 145 -37 184 -41 243 -7 98 13 -55 37 -143 53 -195z m1662 -116 c0 5 11 -1
25 -14 14 -13 25 -28 25 -34 -1 -6 -10 0 -20 13 -11 13 -20 19 -20 14 0 -12
40 -49 48 -45 4 2 8 -2 11 -9 2 -7 -1 -9 -9 -4 -9 5 -11 4 -6 -4 4 -6 11 -9
15 -7 4 3 34 -26 66 -65 63 -75 203 -207 328 -308 78 -63 100 -86 50 -54 -26
17 -27 17 -20 0 14 -38 -159 96 -256 197 -99 104 -267 319 -267 342 0 4 7 -1
15 -12 8 -10 15 -15 15 -10z m3341 -20 c-27 -45 -27 -52 1 -28 25 22 21 13
-41 -76 -80 -117 -375 -391 -403 -374 -5 3 -16 0 -26 -8 -9 -7 -1 6 18 30 34
43 44 49 54 33 4 -5 -6 -19 -21 -31 -16 -12 -21 -18 -13 -14 34 16 50 37 40
50 -8 9 8 27 62 72 95 77 197 185 278 295 36 48 67 87 68 87 2 0 -5 -16 -17
-36z m-4275 -489 c209 -320 528 -654 846 -888 43 -31 80 -57 82 -57 10 0 172
-106 179 -117 7 -12 57 -41 74 -45 21 -4 142 -64 143 -70 1 -17 -193 79 -223
109 -12 13 -26 23 -32 23 -5 0 -37 18 -70 40 -33 23 -73 47 -90 55 -16 8 -50
31 -75 50 -25 19 -52 38 -60 42 -94 46 -511 458 -586 578 -11 17 -53 76 -96
131 -42 55 -95 132 -119 170 -49 80 -159 294 -159 309 0 5 33 -53 73 -130 41
-77 91 -167 113 -200z m-196 152 c0 -15 110 -197 173 -287 104 -147 250 -318
427 -501 106 -109 328 -292 453 -373 94 -62 112 -79 45 -43 -81 43 -153 94
-250 176 -53 45 -102 80 -109 79 -7 -2 -14 2 -15 7 0 6 -63 73 -140 150 -256
258 -469 535 -578 752 -49 98 -59 127 -26 78 11 -16 20 -34 20 -38z m3559
-344 c1 11 9 17 23 17 22 0 30 -6 97 -73 33 -34 62 -94 89 -187 3 -13 3 -13
-7 0 -8 11 -10 3 -6 -35 5 -50 5 -50 -20 25 -14 41 -23 86 -20 100 3 16 -2 34
-15 50 -17 22 -19 22 -14 4 3 -12 -1 -26 -10 -33 -12 -10 -14 -9 -9 10 4 15 3
20 -5 15 -7 -4 -12 -18 -12 -32 0 -14 -4 -22 -10 -19 -5 3 -10 16 -10 28 0 20
0 20 -15 1 -8 -10 -15 -28 -15 -39 -1 -19 -2 -19 -10 1 -5 12 -13 25 -19 29
-6 3 -11 25 -12 48 l-1 42 -9 -39 c-5 -22 -11 -42 -14 -44 -10 -10 -2 85 9 98
10 13 9 13 -6 1 -10 -7 -18 -28 -19 -45 -1 -17 -4 -42 -9 -56 -12 -39 -22 -3
-18 66 3 51 6 60 28 71 21 11 26 10 32 -5 6 -16 7 -16 7 1z m-1439 -18 c20
-53 -1 -113 -26 -73 -4 7 -3 8 4 4 14 -8 15 3 3 23 -10 16 -16 7 -26 -39 -7
-30 -9 -32 -16 -15 -6 15 -8 8 -9 -25 l-2 -45 -13 30 c-14 31 -46 41 -56 16
-3 -8 -12 3 -23 27 l-19 41 38 39 c33 36 42 40 87 40 42 0 51 -4 58 -23z m77
-303 c-18 -20 -23 -37 -8 -27 12 7 18 -17 20 -77 2 -62 25 -147 55 -207 14
-27 22 -51 19 -55 -3 -3 2 -15 12 -26 10 -11 14 -20 9 -20 -11 0 -54 62 -54
77 0 6 -7 16 -15 23 -9 7 -14 19 -11 25 2 7 0 17 -6 23 -6 6 -13 44 -16 84 -5
70 -6 72 -18 43 -20 -47 -17 -156 7 -225 29 -85 20 -93 -20 -16 l-34 66 7 136
6 137 -22 -19 -21 -19 19 29 c10 16 32 37 49 47 38 24 42 24 22 1z m1276 -97
c17 -53 25 -162 16 -203 -9 -39 -57 -127 -66 -119 -2 2 4 20 12 40 8 20 15 38
15 41 0 2 -28 -25 -62 -61 -35 -36 -81 -79 -103 -97 l-40 -31 20 31 c11 17 50
57 86 88 77 65 113 132 112 206 -1 43 -34 133 -53 145 -5 3 -7 12 -4 20 5 11
12 8 34 -13 15 -15 30 -37 33 -47z m-3123 -386 c0 -5 4 -8 9 -7 4 2 32 -17 62
-42 56 -47 100 -82 211 -168 62 -48 313 -212 325 -212 3 0 16 -9 30 -20 41
-32 21 -24 -74 31 -117 67 -327 207 -383 256 -25 21 -64 51 -87 67 -24 16 -67
55 -97 87 -30 32 -56 56 -59 53 -7 -7 -257 258 -251 267 5 9 314 -298 314
-312z m-1190 -195 c63 -112 114 -179 209 -278 121 -124 227 -195 486 -323 317
-157 511 -206 815 -207 194 0 257 10 445 69 60 19 111 33 112 31 2 -1 -20 -13
-47 -26 -28 -13 -50 -26 -50 -30 0 -4 -11 -12 -25 -18 -29 -13 -32 -34 -9 -53
9 -7 14 -22 11 -35 -3 -16 0 -20 13 -17 10 3 16 -2 16 -15 0 -20 -7 -22 -151
-58 -105 -25 -385 -31 -554 -10 -300 37 -578 149 -856 346 -322 229 -473 433
-492 667 -8 98 3 123 26 62 10 -26 33 -73 51 -105z m7371 13 c-29 -208 -154
-386 -421 -599 -69 -54 -237 -161 -319 -203 -89 -44 -230 -99 -326 -126 -183
-51 -509 -80 -697 -60 -124 12 -315 58 -322 77 -3 9 1 11 12 8 14 -5 13 -3 -2
10 -17 14 -18 16 -3 16 27 0 20 16 -15 34 -25 13 -27 16 -8 11 43 -12 63 -10
68 4 3 8 0 11 -7 7 -6 -4 -14 0 -17 9 -4 10 -13 14 -28 10 -16 -5 -18 -4 -6 4
12 8 12 13 -4 30 -15 16 -16 21 -5 21 8 0 -22 20 -67 43 -94 49 -220 138 -305
215 -60 54 -149 163 -153 185 -1 7 -5 19 -10 27 -4 8 7 -1 25 -20 167 -181
231 -238 359 -323 58 -38 107 -72 110 -77 11 -17 199 -83 288 -102 86 -17 124
-19 332 -14 129 2 249 7 265 10 28 6 28 5 -2 -4 -46 -15 -41 -20 15 -15 26 2
58 4 72 4 20 1 22 3 10 11 -11 7 -6 10 20 10 20 0 47 8 60 17 14 10 26 17 28
15 1 -1 18 5 38 13 20 8 42 15 48 15 7 0 6 3 -2 9 -17 10 103 65 121 55 6 -4
9 -3 4 1 -4 5 66 46 155 93 90 46 188 101 218 120 78 52 245 216 295 290 24
35 45 58 47 52 2 -7 15 4 28 23 13 20 27 34 31 32 7 -5 46 89 55 134 6 26 9
30 16 17 5 -10 5 -45 -1 -89z m-2568 18 c33 -38 53 -53 65 -49 13 4 14 3 4 -4
-10 -7 4 -25 58 -74 123 -113 236 -169 435 -218 90 -23 143 -30 215 -30 163 0
264 33 505 165 65 35 84 42 70 26 -15 -17 -16 -24 -6 -30 9 -6 4 -21 -22 -62
-51 -79 -137 -136 -297 -194 -71 -26 -81 -27 -200 -21 -230 10 -358 47 -539
153 -118 69 -247 195 -309 300 -64 109 -56 125 21 38z m26 -200 c70 -95 199
-217 281 -265 173 -101 274 -129 455 -128 108 0 175 -15 142 -33 -9 -6 -15
-14 -12 -20 9 -14 -117 -11 -226 6 -153 23 -323 93 -428 177 -22 18 -61 49
-87 68 -50 38 -140 140 -154 174 -5 12 -20 36 -34 55 -14 19 -26 41 -26 48 0
8 -8 30 -19 51 -40 79 -30 83 16 7 27 -44 68 -107 92 -140z m-3639 19 c0 -3
-4 -2 -10 1 -5 3 -10 4 -10 1 0 -3 10 -10 21 -17 16 -8 20 -8 14 1 -4 7 5 6
23 -4 16 -8 32 -23 36 -32 4 -9 12 -14 22 -10 8 3 12 2 9 -4 -6 -9 8 -14 28
-11 4 0 7 -3 7 -8 0 -13 130 -68 218 -93 119 -34 285 -31 417 6 54 15 116 36
137 47 43 22 71 25 43 5 -11 -8 -24 -12 -30 -8 -5 3 -4 -2 4 -12 8 -9 10 -16
5 -14 -14 4 -55 -22 -49 -32 3 -4 -5 -6 -17 -4 -13 2 -17 2 -10 -2 18 -9 15
-21 -9 -27 -15 -4 -19 -2 -15 8 3 9 0 12 -10 8 -7 -3 -14 -8 -14 -12 0 -3 -28
-5 -62 -4 -43 1 -57 -1 -43 -7 24 -10 18 -12 -55 -14 -30 0 -56 -5 -57 -9 -1
-5 -10 -15 -20 -23 -13 -10 -14 -13 -3 -11 8 2 12 2 7 0 -4 -3 -5 -9 -2 -14 4
-5 0 -6 -8 -3 -8 3 -18 1 -22 -5 -10 -18 -131 -12 -218 10 -90 22 -239 90
-304 138 -22 17 -51 50 -63 74 -12 23 -25 44 -29 47 -3 3 -12 15 -19 28 -11
20 -10 23 10 31 21 8 78 -10 78 -25z m-510 -95 c41 -28 112 -69 157 -92 45
-22 80 -44 77 -48 -2 -4 9 -12 26 -17 21 -8 28 -16 24 -26 -3 -9 -1 -16 5 -16
6 0 11 -7 11 -15 0 -8 6 -15 13 -16 45 -3 61 -7 65 -17 2 -7 12 -12 22 -12 10
0 25 -6 32 -13 7 -8 20 -17 28 -20 8 -4 -12 -5 -45 -3 -153 10 -379 127 -463
240 -42 56 -55 83 -46 97 9 15 15 12 94 -42z m4153 -456 c42 -85 97 -168 162
-243 42 -49 41 -48 -16 10 -72 74 -159 195 -200 280 -32 67 -61 159 -53 171 3
5 1 9 -3 9 -5 0 -9 8 -10 18 -1 29 -14 94 -24 119 -5 14 -9 32 -9 41 1 9 27
-62 59 -158 32 -96 74 -207 94 -247z m-213 202 c5 -11 21 -51 35 -89 14 -38
31 -74 39 -80 7 -6 48 -65 91 -131 124 -190 327 -382 545 -514 58 -35 119 -73
135 -83 l30 -20 -30 7 c-52 11 -247 110 -340 173 -82 55 -185 150 -263 242
-114 135 -265 437 -261 524 0 14 2 16 6 6 2 -8 9 -24 13 -35z m-106 -297 c109
-268 350 -519 639 -664 162 -82 287 -125 512 -177 l60 -14 -60 -12 c-47 -11
-99 -11 -255 -2 -107 6 -215 16 -240 22 -72 17 -259 98 -335 147 -76 48 -164
136 -165 165 0 10 -7 29 -16 42 -9 14 -14 32 -10 40 3 9 0 18 -7 21 -15 5 -20
44 -6 44 6 0 24 -13 42 -30 18 -16 38 -30 46 -30 8 0 11 -6 7 -16 -3 -9 -2
-12 5 -9 5 4 16 1 24 -5 8 -7 15 -9 15 -4 0 4 6 1 13 -8 6 -8 21 -18 32 -22
11 -4 -21 35 -71 86 -50 51 -111 122 -136 158 -57 80 -150 265 -183 363 -27
81 -32 172 -9 163 9 -3 14 2 15 12 0 9 11 -28 24 -83 13 -55 39 -139 59 -187z
m-91 -389 c59 -156 95 -199 302 -361 296 -233 419 -310 638 -398 433 -174 826
-223 1188 -150 142 29 274 83 466 190 147 82 193 102 193 84 0 -37 -172 -200
-302 -286 -127 -85 -317 -152 -515 -184 -208 -32 -586 -3 -828 65 -142 40
-309 103 -417 157 -60 30 -106 50 -102 43 5 -9 2 -11 -12 -6 -57 19 117 -83
246 -145 105 -50 287 -110 445 -148 129 -30 132 -36 11 -19 -239 33 -578 170
-778 314 -95 69 -371 343 -398 395 -10 19 -40 98 -68 175 -28 77 -62 169 -77
204 -15 35 -24 73 -22 83 3 10 2 16 -3 13 -8 -5 -20 19 -19 38 0 7 4 3 9 -8
14 -32 11 -1 -5 62 -8 31 -15 69 -14 83 0 14 9 -11 19 -55 10 -44 29 -110 43
-146z m1517 65 c133 -4 268 -2 354 5 140 12 176 10 115 -7 l-34 -9 33 -7 c27
-6 31 -10 21 -22 -6 -7 -9 -20 -6 -28 14 -35 -204 -82 -427 -92 -243 -11 -517
30 -670 99 -44 20 -48 24 -28 29 12 3 20 2 16 -3 -7 -12 3 -11 28 2 16 8 19 8
13 -1 -6 -9 -3 -9 12 -2 21 12 106 6 133 -8 10 -5 20 -7 22 -4 3 3 22 -3 41
-12 32 -15 41 -16 77 -4 22 7 40 19 40 27 0 7 9 13 19 13 11 0 23 5 27 12 4 6
3 8 -3 5 -6 -4 -24 0 -39 9 l-29 16 35 -6 c19 -4 132 -9 250 -12z m-4908 -108
c17 11 88 11 88 1 0 -4 20 -7 45 -6 24 2 48 0 51 -4 4 -4 2 -7 -4 -7 -7 0 -12
-4 -12 -10 0 -6 10 -5 25 2 19 9 34 8 65 -2 28 -9 79 -11 185 -8 80 3 145 2
145 -2 0 -21 -235 -27 -391 -11 -138 15 -277 43 -254 51 11 4 25 3 32 -2 7 -5
18 -6 25 -2z m1782 -141 c-4 -8 -9 -13 -14 -10 -4 2 -12 -7 -19 -21 -8 -19 -8
-23 0 -18 7 4 9 2 5 -7 -3 -8 -9 -22 -12 -31 -4 -10 -10 -18 -15 -18 -5 0 -9
-9 -9 -20 0 -11 -7 -20 -15 -20 -8 0 -17 -11 -21 -25 -3 -14 -10 -25 -16 -25
-5 0 -7 -8 -4 -18 4 -12 -3 -29 -19 -46 -14 -15 -25 -31 -25 -36 0 -12 -199
-214 -241 -245 -171 -125 -294 -191 -474 -254 -684 -240 -1328 -171 -1694 183
-71 69 -138 153 -128 162 2 2 44 -18 93 -46 116 -66 291 -152 378 -184 341
-129 825 -102 1281 71 214 81 362 166 559 317 43 34 109 84 146 113 37 29 94
76 126 106 47 43 103 83 121 87 1 0 0 -7 -3 -15z m-734 -140 c-7 -8 -9 -15 -5
-15 5 0 0 -9 -11 -21 l-19 -21 37 7 c56 11 117 12 112 3 -3 -4 3 -8 12 -8 15
0 15 -3 -4 -20 -28 -26 -28 -33 1 -26 12 3 6 -1 -13 -10 -80 -37 -330 -63
-505 -53 -55 3 -84 6 -65 8 19 1 44 6 55 11 17 7 16 9 -10 10 -17 1 12 11 70
25 104 24 205 58 296 99 65 30 65 30 49 11z m501 -302 c-41 -51 -156 -155
-250 -226 -93 -71 -342 -196 -471 -237 -100 -32 -248 -65 -256 -58 -2 3 35 15
83 28 301 79 569 226 818 449 50 45 94 81 98 81 4 0 -6 -17 -22 -37z m1897
-188 c-2 -6 -7 -9 -13 -7 -5 2 14 -20 43 -47 29 -28 59 -48 66 -45 7 3 16 -2
20 -11 4 -10 12 -15 22 -11 10 4 31 -9 57 -33 69 -65 112 -101 119 -101 4 0
14 -7 23 -16 8 -9 26 -17 39 -18 14 0 22 -6 19 -13 -12 -32 145 -147 294 -214
298 -136 577 -207 772 -196 116 6 166 19 262 67 l64 32 -35 -36 c-44 -46 -104
-80 -200 -114 -67 -23 -90 -26 -220 -26 -99 -1 -177 5 -245 18 -209 38 -487
147 -657 257 -142 93 -334 281 -427 418 -37 54 -40 63 -29 86 10 23 34 32 26
10z m-819 -112 c-3 -20 2 -34 10 -29 5 3 15 -2 22 -11 12 -14 12 -16 0 -9 -9
6 -12 4 -9 -5 3 -8 11 -14 19 -14 9 0 13 -9 11 -25 -1 -16 1 -20 6 -13 5 8 30
-22 75 -90 79 -121 103 -152 269 -339 145 -164 175 -200 156 -192 -7 3 -74 71
-148 151 -138 148 -263 306 -360 457 -30 47 -57 85 -60 85 -3 1 -23 -27 -45
-62 -67 -106 -184 -256 -323 -415 -74 -83 -136 -152 -138 -152 -11 0 6 21 130
164 74 84 158 187 187 227 29 41 63 86 77 101 13 14 21 31 17 37 -4 7 -1 10 7
9 7 -2 12 5 12 14 -1 10 3 16 10 15 6 -1 10 6 10 15 -1 10 3 16 10 15 6 -1 10
6 10 15 -1 10 2 15 7 12 5 -3 13 6 19 20 9 24 22 36 19 19z m10 -97 c26 -41
27 -53 4 -35 -16 13 -17 12 -5 -3 8 -10 17 -16 22 -15 4 1 29 -30 56 -70 49
-71 126 -165 262 -320 41 -46 71 -83 69 -83 -8 0 -323 352 -357 398 -17 24
-28 47 -25 53 4 5 3 8 -2 7 -4 -1 -18 3 -30 10 -21 11 -27 6 -100 -85 -127
-157 -211 -252 -316 -358 -122 -122 -78 -62 105 147 128 145 260 315 281 361
6 15 13 27 14 27 1 0 11 -15 22 -34z m862 -283 c40 -59 105 -146 144 -193 82
-98 118 -149 95 -136 -121 68 -257 186 -324 280 -41 58 -156 263 -156 279 0 4
11 7 25 7 18 0 29 -8 37 -25 6 -15 17 -24 25 -21 7 3 17 -3 23 -12 11 -16 11
-15 6 1 -20 63 -13 63 17 0 20 -39 68 -120 108 -180z m-761 2 c80 -88 221
-255 215 -255 -11 0 -67 56 -126 127 -34 40 -66 73 -71 73 -11 0 77 -105 137
-162 21 -21 34 -38 28 -38 -10 0 -81 76 -240 258 -49 55 -89 78 -110 63 -5 -3
-34 -37 -66 -74 -32 -38 -72 -81 -89 -95 -37 -31 108 143 167 200 l39 39 36
-43 c19 -24 55 -65 80 -93z m-150 44 c-12 -8 -9 -9 12 -5 22 5 32 0 57 -31 62
-77 133 -177 107 -154 -48 45 -27 5 35 -65 34 -38 17 -23 -37 33 -55 56 -110
107 -124 114 -25 12 -25 12 -7 -9 18 -20 18 -20 0 -16 -10 2 -29 -5 -43 -17
-19 -16 -21 -19 -6 -15 12 4 4 -8 -20 -31 -22 -21 -57 -56 -79 -78 -43 -44
-11 -2 44 58 19 20 30 37 24 37 -6 0 -43 -35 -82 -77 -39 -43 -71 -74 -71 -69
0 5 34 43 76 86 42 43 75 80 73 82 -7 9 28 48 43 48 10 0 18 5 18 11 0 5 -6 7
-12 3 -10 -5 -10 -4 -1 6 10 11 18 11 40 1 l28 -12 -25 21 c-30 24 -34 24 -55
4 -9 -9 -18 -14 -21 -11 -9 9 40 48 56 45 8 -2 37 -31 64 -65 53 -67 78 -79
31 -16 -43 58 -88 103 -102 103 -8 0 -61 -49 -120 -110 -58 -60 -109 -107
-114 -104 -5 3 -8 0 -7 -8 2 -7 -2 -12 -9 -11 -6 1 -17 -5 -25 -15 -12 -15
-11 -16 5 -3 9 7 17 10 17 6 0 -10 -63 -80 -74 -82 -5 -1 -12 -7 -17 -14 -4
-8 -11 -10 -14 -7 -12 12 58 102 137 176 43 41 101 103 129 138 28 35 58 64
67 64 15 0 15 -2 2 -11z m-2531 -187 c95 -62 161 -77 336 -77 149 1 214 12
424 71 17 5 22 4 17 -5 -4 -6 6 -24 24 -42 23 -23 36 -30 53 -25 58 16 67 14
17 -4 -197 -73 -529 -99 -679 -52 -41 13 -86 31 -100 40 -51 31 -161 116 -161
124 0 13 6 10 69 -30z"/>
<path d="M5369 10523 c-41 -60 -98 -130 -209 -258 -47 -55 -121 -144 -164
-197 -42 -54 -81 -98 -86 -98 -6 0 -10 -4 -10 -10 0 -5 10 -10 22 -10 12 0 19
3 15 6 -8 8 65 101 253 324 86 102 169 204 185 228 15 23 29 42 30 42 1 0 23
-30 48 -67 57 -83 122 -167 197 -253 31 -36 95 -114 144 -173 l87 -109 -38
-33 c-21 -19 -44 -34 -51 -35 -7 0 -10 -5 -7 -10 4 -6 1 -9 -5 -8 -7 2 -14 -5
-15 -15 -2 -10 -25 -42 -52 -70 -48 -51 -113 -139 -113 -152 0 -4 11 0 25 9
78 51 312 17 684 -100 382 -120 839 -373 1058 -585 52 -50 65 -59 80 -50 11 6
13 11 5 11 -8 0 -44 27 -80 60 -176 159 -501 358 -787 481 -222 95 -551 189
-788 224 -113 17 -118 17 -137 0 -11 -10 -22 -16 -25 -13 -3 2 11 19 30 36 41
38 53 39 211 11 516 -89 988 -300 1434 -640 64 -48 124 -97 134 -108 11 -12
25 -21 32 -21 34 0 -203 186 -406 319 -215 141 -529 289 -780 369 -108 34
-320 85 -427 103 -45 7 -79 19 -89 30 -15 17 -14 18 23 25 21 5 43 8 48 8 74
0 341 -63 537 -128 267 -87 580 -241 783 -385 97 -68 310 -230 338 -256 18
-17 27 -21 27 -12 0 19 -224 197 -380 301 -212 142 -485 277 -735 361 -162 56
-412 120 -528 136 -95 13 -101 20 -48 56 39 26 49 25 271 -29 186 -45 415
-118 559 -179 204 -87 517 -270 671 -393 36 -29 94 -72 130 -96 36 -23 77 -54
91 -67 22 -20 27 -21 32 -9 10 26 -190 184 -419 330 -170 109 -621 325 -710
340 -17 3 -50 13 -75 21 -151 53 -394 112 -487 117 -28 2 -48 6 -45 11 2 4 12
7 23 7 14 0 17 5 12 22 -4 17 -2 20 12 15 10 -4 15 -3 11 3 -3 6 -12 10 -19
10 -14 0 -42 28 -35 34 4 4 135 -20 290 -54 342 -74 745 -242 1051 -437 151
-96 359 -247 413 -300 32 -31 34 -32 40 -12 5 14 2 25 -6 30 -8 4 -74 52 -146
106 -271 201 -618 397 -863 486 -249 92 -596 182 -739 191 -52 4 -59 7 -92 48
-20 23 -83 99 -140 168 -108 130 -174 215 -223 288 -16 24 -33 45 -37 48 -4 2
-22 -17 -40 -43z"/>
<path d="M5374 10453 c-16 -21 -61 -72 -100 -113 -40 -41 -89 -97 -109 -125
l-36 -50 38 45 c21 24 83 92 138 150 l100 105 66 -70 c36 -38 91 -104 122
-145 31 -41 68 -90 83 -107 15 -18 24 -33 21 -33 -3 0 -45 46 -93 102 -101
116 -127 142 -168 164 -26 15 -29 14 -52 -7 -30 -28 -31 -18 -2 21 18 24 24
27 42 19 20 -10 20 -10 2 5 -26 21 -31 20 -51 -10 -9 -14 -56 -69 -105 -122
-49 -53 -115 -125 -146 -160 -32 -34 -60 -60 -63 -57 -2 3 13 25 35 48 21 24
2 5 -44 -42 -89 -91 -114 -124 -88 -119 18 4 237 -212 229 -225 -3 -6 -1 -7 4
-4 6 4 23 -10 39 -31 59 -78 108 -130 119 -126 10 4 29 -23 37 -54 2 -8 15 -2
36 18 18 16 30 34 27 40 -3 5 6 20 20 32 14 13 27 30 28 38 3 17 32 56 131
173 78 94 101 135 93 168 -4 13 -37 53 -74 89 -37 36 -58 54 -48 40 11 -14 41
-46 68 -72 26 -26 47 -55 47 -65 0 -28 -52 -105 -123 -182 -34 -37 -75 -84
-90 -104 -45 -59 -69 -71 -113 -57 -38 13 -147 117 -138 132 3 4 -1 5 -8 3
-15 -6 -69 55 -108 120 -13 22 -27 42 -30 45 -12 9 -30 48 -30 65 0 9 19 37
43 63 23 26 49 56 57 67 14 19 14 19 -2 6 -12 -9 -18 -10 -18 -2 0 6 11 16 24
21 13 5 46 35 72 67 78 93 140 153 157 153 20 0 88 -66 187 -180 41 -47 89
-101 108 -120 38 -40 66 -95 56 -112 -4 -7 -3 -8 4 -4 7 4 12 15 12 24 1 15 2
15 11 -1 8 -14 7 -22 -8 -33 -10 -9 -11 -12 -3 -8 13 7 13 5 1 -9 -14 -18 -36
-13 -25 6 4 7 1 6 -7 -2 -11 -10 -11 -15 -1 -18 6 -3 12 -9 12 -15 0 -6 -7 -8
-15 -4 -10 3 -34 -20 -76 -75 -33 -44 -81 -100 -107 -124 -26 -25 -42 -45 -36
-45 5 0 16 6 23 13 8 6 6 0 -4 -15 -9 -15 -21 -25 -26 -22 -5 3 -6 -2 -3 -11
4 -10 -3 -26 -17 -41 -13 -14 -23 -29 -23 -32 2 -11 -56 -92 -66 -92 -4 0 -33
35 -63 78 -54 76 -97 124 -97 106 0 -9 138 -196 164 -222 11 -11 16 -7 30 27
9 23 23 41 31 41 20 0 19 -2 -12 -55 -23 -38 -32 -45 -51 -42 -17 3 -20 1 -13
-6 6 -6 11 -15 11 -21 0 -20 -107 147 -183 288 -30 53 -35 72 -12 42 8 -11 15
-15 15 -9 0 6 -7 16 -15 23 -8 7 -15 9 -15 4 0 -5 -38 29 -84 76 -46 47 -92
92 -102 101 -10 9 -27 26 -36 38 -10 11 -25 21 -35 21 -15 0 -15 -2 2 -14 17
-12 15 -14 -26 -20 -259 -40 -518 -115 -819 -236 -123 -50 -179 -77 -200 -97
-8 -8 -64 -41 -125 -75 -183 -100 -530 -346 -559 -395 -5 -10 -4 -18 5 -23 8
-6 30 6 62 33 49 42 114 93 214 168 221 166 540 342 788 434 195 73 468 143
625 161 51 5 57 4 88 -24 l32 -29 -140 -22 c-443 -70 -917 -269 -1315 -552
-102 -73 -196 -145 -275 -212 -21 -18 -29 -32 -23 -38 6 -6 23 3 49 27 21 21
57 51 80 68 23 17 77 59 121 93 206 159 501 324 775 434 104 42 364 118 488
143 134 27 199 29 260 7 30 -11 50 -20 43 -20 -46 -3 -321 -56 -414 -80 -383
-99 -759 -282 -1116 -543 -103 -75 -241 -193 -236 -201 6 -10 20 0 119 87 158
137 389 287 634 410 266 135 521 222 790 269 223 40 253 42 267 18 14 -22 7
-24 -82 -36 -184 -24 -426 -82 -625 -150 -309 -105 -736 -347 -985 -558 -92
-78 -90 -76 -83 -83 4 -3 40 23 80 58 247 214 689 465 999 568 233 77 476 133
639 146 62 5 81 4 76 -4 -4 -7 -2 -12 5 -12 24 0 -3 -14 -49 -27 -26 -6 -94
-22 -152 -33 -207 -42 -407 -91 -495 -122 -93 -32 -327 -129 -360 -150 -41
-24 -24 -23 26 3 75 38 48 15 -33 -29 -44 -24 -76 -37 -72 -31 5 9 2 10 -10 6
-10 -4 -21 -7 -24 -7 -4 0 -1 -4 6 -9 11 -7 10 -9 -3 -14 -9 -4 -13 -3 -10 3
12 19 -11 10 -87 -35 -80 -46 -94 -52 -83 -35 12 19 -129 -71 -208 -134 -155
-122 -197 -158 -197 -169 0 -6 7 -1 16 11 8 12 20 22 25 22 5 0 0 -13 -12 -30
-12 -16 -26 -27 -30 -25 -4 3 -5 -4 -2 -15 3 -11 25 -32 49 -47 24 -16 44 -33
44 -38 0 -6 23 -33 51 -60 47 -46 152 -180 209 -267 28 -43 32 -44 51 -22 28
33 265 209 367 271 265 162 557 264 889 313 122 17 340 28 383 18 7 -2 17 8
21 22 4 16 7 19 8 8 1 -10 8 -18 16 -18 8 0 15 -6 15 -14 0 -9 7 -12 21 -9 16
4 20 2 17 -8 -3 -8 -15 -13 -27 -11 -19 2 -21 -1 -15 -20 4 -13 7 -45 6 -71
-2 -54 -44 -127 -106 -186 -20 -19 -36 -41 -36 -49 0 -8 -8 -21 -17 -29 -10
-8 -3 -6 16 4 30 16 137 111 139 123 1 3 10 26 21 51 12 25 28 75 37 110 17
70 64 219 69 219 2 0 1 -18 -2 -40 -3 -22 -3 -40 0 -40 9 0 77 141 77 159 0
14 1 14 10 1 6 -9 10 -10 10 -3 0 6 -5 15 -11 19 -14 8 -7 147 11 218 11 40
15 45 23 30 7 -13 7 -19 -2 -22 -8 -3 -9 -16 -5 -39 5 -26 4 -34 -5 -29 -8 5
-7 -1 1 -21 l13 -27 7 39 c4 22 4 0 2 -50 -6 -107 -19 -165 -39 -165 -26 0
-75 -121 -95 -236 -25 -135 -63 -217 -128 -275 -26 -22 -58 -45 -71 -50 -13
-5 -21 -12 -18 -16 10 -10 116 59 162 105 24 24 57 70 75 103 36 67 36 92 1
28 -28 -49 -37 -46 -16 4 8 20 15 46 15 57 0 20 16 28 22 10 5 -14 24 2 32 27
6 17 2 22 -16 25 -13 2 -24 11 -26 22 -3 14 0 17 11 13 9 -3 18 -1 21 6 3 9 7
9 14 -1 7 -11 10 -11 15 2 3 8 15 14 27 13 16 -1 20 -6 16 -23 -5 -18 -2 -20
18 -17 17 4 25 -1 29 -17 5 -19 2 -21 -18 -16 -13 3 -30 8 -38 12 -11 4 -16
-5 -22 -33 -10 -56 -67 -173 -104 -215 -18 -20 -53 -51 -78 -67 -26 -17 -44
-31 -41 -31 16 0 76 31 88 44 7 9 19 16 28 16 20 0 82 68 132 145 77 118 105
155 119 155 8 0 11 3 8 7 -4 3 3 11 15 17 35 17 87 94 94 136 5 30 10 37 23
33 13 -5 14 -3 4 8 -16 16 -17 29 -2 29 5 0 8 -4 5 -9 -4 -5 0 -12 6 -15 10
-3 8 -9 -5 -19 -13 -11 -15 -22 -11 -46 6 -27 1 -37 -42 -84 l-49 -52 50 -6
c28 -4 64 -8 80 -10 17 -2 33 -7 36 -11 3 -5 20 -10 38 -12 18 -2 37 -10 42
-17 4 -7 11 -11 14 -7 14 13 244 -95 411 -193 78 -45 286 -186 333 -225 9 -7
36 -29 60 -48 45 -34 45 -35 56 -13 7 12 17 21 24 19 7 -1 9 2 6 8 -8 13 79
148 100 157 8 3 13 8 10 13 -4 7 110 123 199 202 33 30 37 36 21 41 -13 6 -16
3 -11 -8 3 -10 2 -13 -5 -10 -5 4 -8 12 -6 18 4 14 7 11 -115 118 -98 86 -234
186 -243 178 -2 -3 36 -33 85 -68 49 -34 95 -70 102 -79 7 -8 -21 8 -62 37
-41 30 -99 69 -128 88 -31 20 -50 38 -46 45 5 8 1 9 -10 5 -11 -5 -15 -3 -10
5 5 8 2 9 -10 5 -9 -4 -15 -3 -12 2 3 5 -22 23 -57 41 -34 17 -70 38 -79 47
-9 8 -23 13 -30 10 -19 -6 -50 12 -42 25 5 8 1 9 -10 5 -9 -4 -14 -3 -11 2 7
12 -31 24 -46 15 -7 -4 -9 -3 -5 4 4 7 -15 17 -51 28 -32 10 -65 23 -73 30
-26 22 -179 76 -191 68 -7 -4 -9 -3 -5 4 4 6 -13 16 -41 26 -55 17 -398 101
-458 112 -22 4 -43 11 -46 16 -8 12 -125 31 -152 25 -12 -4 -26 -6 -30 -6 -12
1 -67 -52 -67 -65 0 -5 11 1 25 14 25 24 61 37 49 19 -3 -5 -9 -7 -14 -4 -5 3
-30 -19 -56 -49 -28 -33 -52 -52 -60 -49 -11 4 -6 16 18 48 18 23 55 71 81
106 48 64 48 64 7 19 -23 -25 -39 -38 -35 -30 23 45 89 126 173 213 101 105
100 102 64 176 -10 19 -24 37 -32 39 -9 3 -6 -5 9 -22 14 -14 22 -28 19 -32
-7 -6 -38 37 -63 86 -9 19 -30 49 -45 65 -15 17 -56 68 -90 115 -35 47 -81
101 -102 121 -21 19 -49 50 -62 67 l-23 32 -29 -37z m-262 -386 c-32 -32 -52
-61 -52 -75 0 -13 17 -46 38 -75 21 -29 46 -65 56 -80 10 -16 49 -60 87 -98
38 -38 75 -82 81 -97 6 -16 12 -22 15 -14 4 10 9 10 28 -2 12 -8 35 -16 51
-19 22 -3 20 -4 -6 -2 -19 1 -44 6 -54 10 -14 6 -17 5 -12 -3 20 -33 -11 -1
-99 101 -54 61 -103 114 -110 117 -8 3 -45 36 -84 73 l-71 69 37 44 c20 24 39
41 41 39 3 -2 -1 -12 -9 -22 -8 -10 10 6 39 35 29 28 58 52 65 52 6 0 -12 -24
-41 -53z"/>
<path d="M4785 9994 c-447 -84 -823 -236 -1247 -505 -132 -83 -388 -276 -388
-292 0 -7 5 -19 10 -27 9 -13 12 -13 23 0 6 8 55 51 107 95 322 273 773 516
1165 629 136 39 324 82 402 92 29 3 58 13 64 20 14 17 23 18 -136 -12z"/>
<path d="M2670 9226 c0 -4 12 -23 26 -41 14 -19 23 -38 20 -43 -3 -5 3 -21 14
-35 11 -14 20 -30 20 -35 0 -5 7 -15 15 -22 8 -7 13 -16 10 -20 -3 -5 17 -27
44 -49 51 -43 73 -53 50 -24 -17 22 99 -76 126 -107 11 -12 40 -36 65 -53 61
-41 135 -102 193 -156 53 -51 61 -44 18 15 -25 36 -204 194 -187 166 4 -7 3
-12 -2 -12 -10 0 -31 22 -29 30 2 8 -67 99 -76 100 -4 0 -1 -10 8 -23 13 -21
13 -23 -4 -24 -13 -1 -40 24 -79 71 -32 40 -85 99 -116 133 -30 33 -66 73 -78
89 -31 41 -38 49 -38 40z"/>
<path d="M5041 8939 c-299 -44 -546 -131 -804 -281 -120 -70 -360 -242 -405
-290 l-23 -25 21 -35 20 -35 43 41 c78 75 161 142 252 203 107 72 326 190 410
222 108 41 120 46 130 47 6 2 57 16 115 32 156 45 274 62 480 70 l185 7 2 33
1 32 -151 -1 c-91 -1 -202 -9 -276 -20z m299 -10 c-251 -20 -341 -32 -459 -60
-191 -47 -392 -120 -491 -178 -83 -49 -110 -63 -110 -57 0 3 29 22 65 44 36
21 62 42 58 45 -3 4 4 7 16 7 13 0 35 7 49 15 73 39 259 101 435 144 126 31
293 48 472 48 58 0 52 -1 -35 -8z"/>
<path d="M5015 8853 c-367 -80 -557 -161 -863 -365 -40 -26 -78 -45 -84 -42
-6 4 -8 2 -4 -4 4 -6 -26 -36 -71 -70 -43 -33 -90 -73 -106 -89 -25 -27 -26
-32 -16 -64 7 -19 13 -35 14 -37 2 -2 34 27 71 65 165 165 477 362 722 457 94
37 278 88 362 100 73 11 33 -9 -55 -27 -320 -67 -686 -249 -936 -464 -137
-119 -149 -132 -146 -168 2 -28 37 -78 37 -53 0 6 3 8 7 5 3 -4 17 3 30 15 24
23 32 44 11 32 -37 -23 133 151 206 211 47 39 84 76 81 82 -2 7 -1 12 3 11 4
-2 29 12 55 30 43 30 177 92 199 92 5 0 37 13 71 29 87 40 181 71 235 77 26 3
76 11 112 19 36 8 86 17 113 20 31 4 47 11 47 21 0 8 5 14 12 14 6 0 8 -3 5
-7 -4 -3 -2 -12 4 -19 13 -16 0 -20 -108 -34 -46 -6 -104 -17 -130 -25 -26 -8
-49 -12 -52 -10 -2 3 2 5 9 5 7 0 11 3 7 6 -6 6 -177 -49 -211 -68 -11 -6 -69
-28 -129 -50 -110 -39 -185 -76 -208 -104 -25 -31 4 -25 113 24 110 48 226 87
234 79 3 -2 -22 -12 -53 -22 -32 -10 -104 -40 -160 -66 -85 -39 -102 -51 -97
-66 4 -14 4 -15 -4 -4 -5 7 -15 10 -21 7 -6 -4 -14 0 -17 8 -9 24 -23 19 -17
-5 4 -15 2 -20 -7 -17 -8 2 -38 -19 -68 -46 -30 -28 -62 -51 -71 -51 -9 0 -16
-7 -16 -15 -1 -8 -6 -14 -12 -13 -12 3 -73 -62 -73 -77 0 -6 -8 -10 -17 -11
-12 0 -14 -2 -5 -6 10 -4 3 -16 -23 -43 l-36 -37 19 -32 c10 -17 22 -28 27
-23 5 4 5 2 1 -5 -8 -14 12 -104 27 -118 7 -7 8 -6 4 1 -18 33 171 236 334
359 71 53 151 100 258 153 86 41 158 79 159 84 2 4 8 6 13 3 14 -9 50 15 42
28 -5 9 -3 9 8 0 14 -11 42 -10 79 4 8 4 25 8 38 10 39 7 127 50 147 74 l20
22 -25 -7 c-29 -8 -146 -28 -175 -30 -22 -1 -33 16 -14 23 6 2 9 -1 5 -7 -4
-7 4 -8 26 -1 32 9 133 28 173 33 11 1 19 7 18 14 -2 7 4 12 13 12 9 0 12 -5
8 -12 -4 -7 -3 -8 5 -4 6 4 9 11 7 15 -3 4 8 18 25 30 16 12 27 27 23 33 -4 6
-3 8 3 5 6 -4 16 0 24 9 7 8 22 20 33 26 30 16 -122 -150 -168 -184 -21 -15
-35 -28 -31 -28 5 0 -9 -16 -31 -36 -37 -33 -37 -34 -6 -14 19 13 51 32 72 44
21 11 69 48 105 81 37 33 73 64 81 68 8 5 12 13 8 18 -3 5 0 8 7 7 7 -2 15 8
19 22 l6 25 8 -24 c8 -24 8 -24 43 15 l35 39 -32 -43 c-17 -23 -36 -40 -41
-36 -5 3 -9 0 -9 -7 0 -12 -59 -69 -72 -69 -5 0 -8 -5 -8 -11 0 -15 55 27 117
89 30 30 52 61 49 67 -2 7 2 22 10 34 13 19 13 21 0 21 -8 0 -18 -4 -21 -10
-3 -5 -43 -9 -88 -8 -54 1 -73 4 -57 8 26 8 -230 11 -265 3z m-131 -246 c7 -4
2 -9 -12 -13 -18 -5 -20 -9 -11 -20 7 -9 8 -14 1 -14 -5 0 -13 7 -16 16 -5 14
-8 14 -21 1 -8 -8 -65 -36 -127 -62 -214 -90 -389 -192 -479 -278 -108 -104
-191 -179 -179 -162 19 26 144 150 195 194 23 20 32 31 20 27 -16 -5 -16 -3 5
14 24 20 43 31 145 82 69 35 267 129 343 163 44 20 61 32 58 42 -4 10 -1 13
13 8 11 -3 22 -1 26 4 3 7 0 8 -9 5 -9 -3 -16 -1 -16 4 0 14 44 20 49 7 2 -5
9 -13 15 -18z"/>
<path d="M6106 8375 c-121 -115 -189 -144 -329 -145 -53 0 -97 -9 -189 -40
-67 -22 -127 -40 -133 -40 -7 0 -21 -8 -32 -17 -10 -10 -14 -16 -8 -13 5 3 24
7 40 9 17 1 71 16 120 33 85 28 96 29 200 24 61 -3 153 -13 205 -21 60 -10
116 -14 150 -10 57 7 200 61 200 76 0 9 -105 79 -118 79 -11 0 -68 48 -62 53
3 2 49 -25 104 -60 l98 -65 28 20 c15 12 40 24 54 28 14 3 29 10 32 15 9 14
-227 160 -258 159 -7 -1 -53 -39 -102 -85z"/>
<path d="M5656 8390 c-69 -9 -137 -30 -131 -40 5 -8 -45 -46 -56 -43 -4 1 -15
-8 -25 -20 -16 -18 -16 -20 -1 -8 30 24 18 0 -20 -40 -21 -21 -42 -43 -48 -49
-5 -6 -39 -39 -75 -72 -36 -33 -59 -57 -52 -54 6 4 12 2 12 -4 0 -13 51 12 69
34 19 23 5 20 -19 -4 -11 -11 -25 -20 -32 -20 -6 0 6 16 28 35 39 34 62 45 48
24 -4 -8 0 -8 15 0 25 14 29 33 4 24 -11 -4 -14 -3 -9 6 4 6 16 9 25 6 25 -8
57 5 40 16 -10 6 -9 9 6 14 11 4 33 14 49 22 16 9 54 29 85 45 31 16 45 26 31
23 -14 -4 -40 -16 -57 -27 -18 -11 -33 -16 -33 -12 0 4 -11 -3 -25 -16 -34
-32 -31 -20 5 21 16 19 32 42 35 51 3 9 15 20 27 24 15 4 17 8 8 14 -17 10 1
15 120 35 52 9 100 18 105 20 17 6 -66 3 -129 -5z"/>
<path d="M2866 8241 c-10 -16 13 -63 26 -55 10 6 10 4 2 -7 -9 -11 -7 -21 6
-42 16 -25 19 -27 27 -12 9 15 13 15 48 1 21 -9 46 -14 55 -11 9 3 25 -2 36
-11 18 -15 18 -15 -3 -5 -12 6 -25 11 -29 11 -10 0 66 -54 96 -69 20 -9 17 -5
-10 20 -30 27 -32 30 -11 24 18 -5 22 -4 16 5 -5 9 -4 11 4 6 6 -4 9 -11 6
-16 -3 -4 2 -11 11 -14 10 -4 13 -2 8 6 -4 7 6 3 22 -9 16 -11 44 -28 63 -38
l33 -17 -15 22 c-8 12 -24 28 -35 35 -40 29 -137 75 -157 75 -31 0 -117 43
-157 79 -20 17 -39 27 -42 22z"/>
<path d="M2920 7987 c14 -16 42 -38 62 -50 21 -11 40 -28 43 -38 3 -9 13 -20
21 -23 11 -4 13 -13 9 -27 -6 -17 -4 -21 7 -17 18 7 78 -17 78 -32 0 -5 7 -10
16 -10 8 0 12 -4 9 -10 -4 -6 15 -10 48 -10 61 0 86 -9 174 -63 74 -45 133
-67 193 -70 43 -3 46 -2 42 18 -3 17 -11 22 -34 23 -28 1 -29 0 -12 -13 18
-14 18 -14 -3 -15 -44 0 -124 39 -251 124 -76 51 -162 99 -208 117 -85 33
-154 69 -194 103 l-25 21 25 -28z"/>
<path d="M5210 7876 c0 -3 17 -14 38 -25 44 -22 182 -150 182 -168 0 -7 6 -13
14 -13 36 0 70 -95 82 -235 7 -75 8 -78 16 -41 12 57 -16 214 -44 243 -12 13
-19 26 -15 29 3 4 18 -7 32 -22 22 -25 25 -26 23 -9 -2 11 -23 39 -48 62 -48
44 -69 50 -30 8 13 -14 21 -27 18 -30 -3 -3 -21 16 -41 42 -19 26 -33 50 -31
53 3 2 9 -2 14 -10 5 -7 16 -15 25 -16 17 -3 55 -33 86 -69 10 -11 21 -17 25
-13 4 5 -1 17 -11 28 -41 45 9 16 72 -42 39 -37 58 -51 46 -33 -42 59 -133
130 -133 104 -1 -10 -4 -10 -13 3 -7 9 -44 32 -82 51 -39 19 -95 48 -125 65
-57 31 -100 47 -100 38z"/>
<path d="M5545 7628 c0 -13 8 -37 18 -55 20 -37 47 -158 47 -209 0 -21 4 -33
10 -29 6 4 10 -13 10 -45 0 -54 -27 -147 -59 -202 -26 -44 -103 -238 -99 -249
2 -5 14 19 27 53 13 35 46 108 72 164 67 139 83 213 69 316 -6 44 -9 82 -7 84
8 8 37 -101 43 -162 7 -66 -19 -210 -56 -320 -24 -68 -23 -64 -5 -64 8 0 23
-19 33 -42 11 -24 28 -51 38 -60 81 -73 115 -100 119 -96 7 6 -72 78 -85 78
-16 0 -57 72 -74 129 -17 58 -4 61 14 3 7 -20 17 -41 23 -47 7 -7 8 -4 2 10
-15 41 -25 91 -24 130 l1 40 13 -40 c23 -75 57 -138 95 -179 65 -70 108 -121
109 -128 1 -5 1 -15 1 -23 0 -8 21 -30 46 -50 51 -38 98 -46 108 -19 9 22 2
28 -13 11 -18 -23 -56 -8 -102 39 -24 24 -39 44 -34 44 15 -1 42 -24 41 -34
-1 -11 76 -56 86 -50 3 2 4 13 1 24 -3 11 -9 17 -14 14 -5 -3 -9 -2 -9 3 0 4
-22 18 -50 31 -75 34 -200 181 -234 276 -17 47 -25 83 -21 106 27 195 12 299
-67 450 -58 110 -74 132 -73 98z"/>
<path d="M5568 7395 c-6 -113 -20 -155 -79 -231 -22 -29 -58 -96 -80 -150 -35
-84 -42 -112 -44 -184 l-4 -85 9 70 c10 80 28 136 69 209 16 28 43 78 61 111
18 33 36 64 41 69 12 14 -64 -199 -99 -274 -30 -67 -69 -206 -59 -216 3 -3 8
14 12 37 4 24 11 50 16 59 11 20 106 261 130 330 42 123 57 248 40 325 -5 21
-9 -1 -13 -70z"/>
<path d="M5251 6881 c-9 -37 -16 -49 -22 -40 -8 12 -10 12 -18 1 -4 -8 -11
-13 -15 -13 -9 2 -105 -70 -148 -111 -46 -43 -62 -100 -53 -188 9 -85 65 -206
92 -198 5 2 25 -15 44 -37 18 -21 45 -50 59 -65 60 -61 59 -69 -2 -12 -36 34
-70 62 -75 62 -4 -1 10 -16 31 -35 22 -19 36 -35 31 -35 -4 0 4 -9 19 -21 31
-25 33 -36 5 -44 -11 -4 -18 -9 -16 -12 3 -2 14 0 25 6 16 8 21 6 29 -12 11
-24 83 -113 83 -103 0 4 -4 14 -9 24 -5 9 -14 30 -20 45 -6 15 -16 25 -21 22
-6 -3 -7 1 -4 9 3 9 8 16 10 16 2 0 17 -27 34 -60 17 -33 35 -60 40 -60 6 0
15 -10 21 -22 5 -13 16 -34 24 -48 l15 -25 0 25 c0 37 -85 182 -157 266 -35
41 -67 74 -71 74 -12 0 -64 51 -96 93 -33 44 -48 43 -17 -1 24 -35 27 -50 7
-33 -16 14 -56 95 -56 113 1 7 7 2 15 -12 22 -39 17 -15 -6 30 -17 33 -20 53
-17 113 4 74 32 142 48 116 5 -8 10 -5 14 9 4 12 22 31 39 43 18 12 44 34 60
47 31 30 36 19 7 -18 -28 -36 -25 -46 5 -13 l24 28 -5 -30 c-3 -25 -2 -27 7
-12 6 10 8 25 5 32 -3 8 -1 17 4 20 6 4 10 0 10 -7 0 -7 9 2 21 21 13 21 19
46 17 70 -3 36 -3 36 -17 -18z"/>
<path d="M5268 6834 c-5 -4 -8 -17 -8 -30 0 -12 -17 -57 -37 -100 -34 -71 -38
-87 -38 -159 0 -72 4 -86 34 -140 24 -42 28 -55 14 -42 -11 9 -23 14 -28 10
-4 -5 -5 -3 -1 4 9 16 -46 104 -62 98 -33 -12 -51 107 -28 180 3 11 0 7 -8
-10 -22 -44 -19 -109 5 -158 12 -23 57 -85 99 -137 81 -99 178 -247 190 -290
7 -25 7 -24 23 12 20 47 123 200 185 274 67 81 112 145 112 158 -1 6 -8 -1
-16 -16 -8 -16 -19 -28 -24 -28 -6 0 -10 -7 -10 -16 0 -11 -6 -15 -20 -11 -10
3 -24 -1 -31 -9 -6 -8 -15 -12 -19 -9 -4 2 -17 -15 -30 -38 -12 -23 -51 -92
-86 -153 -35 -61 -64 -117 -64 -125 0 -8 -27 36 -59 98 -32 61 -67 123 -78
137 -12 14 -24 42 -28 63 -4 21 -10 32 -14 25 -11 -18 -51 73 -51 117 0 49 35
165 55 181 8 7 15 22 16 34 1 14 4 10 11 -13 6 -23 6 -37 -1 -44 -14 -14 -14
-37 -1 -37 6 0 10 7 10 16 0 8 4 13 9 10 4 -3 6 9 4 27 -10 87 -19 128 -25
121z"/>
<path d="M5781 6443 c-19 -40 -37 -70 -41 -68 -4 3 -53 -39 -107 -93 -131
-128 -232 -293 -194 -316 6 -4 11 0 11 9 0 9 11 31 24 48 13 18 40 60 61 95
20 34 41 62 47 62 6 0 3 -10 -8 -23 -10 -13 -4 -8 13 11 18 19 30 39 27 44 -3
5 0 7 8 6 7 -2 12 2 11 8 -1 6 12 24 29 40 17 16 28 23 24 16 -7 -11 -4 -11
13 0 22 14 30 34 9 22 -7 -4 6 13 29 37 43 45 86 130 81 158 -2 9 -19 -17 -37
-56z"/>
<path d="M5220 5870 c22 -7 20 -8 -14 -9 -38 -1 -39 -1 -21 -21 20 -22 40 -27
29 -7 -9 15 33 -20 58 -48 9 -11 27 -49 39 -84 18 -52 20 -71 11 -105 l-10
-41 -1 57 c0 31 -5 59 -10 62 -5 4 -21 -15 -36 -41 -29 -52 -27 -60 23 -151
27 -47 42 -53 17 -6 -8 16 -15 36 -15 44 1 24 50 -38 50 -63 0 -18 2 -20 11
-7 9 13 10 12 5 -2 -5 -17 36 -102 55 -113 5 -4 9 -14 9 -23 0 -13 -5 -12 -20
8 l-20 25 13 -35 c6 -19 15 -37 18 -40 4 -3 8 -13 10 -23 3 -12 8 -5 16 20 11
35 10 36 -4 18 -15 -19 -15 -19 -8 10 8 35 54 117 90 160 19 22 24 24 19 10
-3 -11 4 -5 17 13 28 43 27 81 -5 128 -19 28 -23 42 -15 56 6 10 6 18 0 18
-13 0 -23 -48 -15 -72 4 -14 2 -18 -5 -14 -6 4 -11 23 -11 42 0 20 -4 43 -9
53 -13 23 11 70 66 131 24 27 39 51 34 54 -15 10 -94 -57 -118 -99 -17 -29
-23 -35 -23 -20 l-1 20 -11 -20 c-17 -28 -19 -40 -25 -123 -5 -68 -4 -74 13
-70 15 3 19 11 17 38 l-2 35 11 -29 c8 -22 8 -46 -1 -95 -19 -104 -31 -142
-43 -135 -7 5 -7 9 1 13 6 4 13 34 15 67 3 32 8 67 11 76 6 14 2 16 -18 12
l-25 -4 -4 104 c-3 100 -4 106 -35 143 -17 21 -36 37 -41 36 -5 -1 -22 11 -37
27 -18 19 -38 30 -54 29 l-26 -1 25 -8z"/>
<path d="M5613 5805 c-22 -19 -46 -48 -53 -65 -12 -29 -10 -37 28 -113 22 -45
43 -90 46 -99 6 -20 51 -25 61 -7 4 6 8 24 9 42 1 17 10 35 20 41 49 30 51 33
18 32 -18 0 -32 -4 -32 -8 0 -7 -34 -3 -50 7 -6 3 -7 -1 -4 -9 3 -9 2 -16 -3
-16 -12 0 -46 96 -40 112 3 7 6 4 6 -7 1 -26 33 -47 52 -33 11 8 10 9 -4 4
-14 -4 -22 3 -33 30 -15 35 -14 38 10 75 41 62 31 67 -31 14z"/>
<path d="M5065 5505 c16 -13 45 -32 65 -42 19 -10 37 -20 40 -23 3 -3 11 -5
18 -6 29 -2 35 -4 29 -10 -8 -8 26 -57 82 -120 41 -46 43 -46 22 -11 -12 20
-18 37 -12 37 12 0 79 -138 88 -181 6 -30 6 -29 36 32 20 40 59 90 111 143 44
44 81 84 82 89 1 4 2 14 3 23 0 8 5 13 10 10 5 -3 35 10 67 29 52 31 70 49 25
25 -32 -16 -91 -18 -106 -3 -12 12 -17 6 -36 -36 -12 -28 -28 -56 -35 -62 -9
-7 -12 -21 -9 -33 5 -17 4 -18 -4 -6 -10 13 -16 10 -41 -18 -30 -32 -41 -60
-18 -46 7 4 8 3 4 -5 -4 -6 -11 -9 -16 -6 -5 3 -11 1 -15 -5 -3 -5 -1 -10 5
-10 7 0 4 -12 -7 -30 -9 -16 -21 -30 -25 -30 -4 0 -16 17 -27 38 -27 52 -101
129 -101 106 0 -15 -3 -14 -17 6 -9 14 -20 27 -23 30 -11 8 -40 89 -40 110 0
23 -15 27 -24 5 -8 -22 -74 -19 -121 5 l-40 19 30 -24z"/>
<path d="M7900 8203 c-8 -3 -31 -19 -52 -35 -20 -15 -42 -26 -50 -23 -30 12
-140 -35 -253 -106 -64 -41 -124 -79 -133 -84 -10 -6 -35 -22 -57 -37 -48 -32
-155 -81 -155 -70 0 4 -7 -1 -15 -12 -7 -10 -18 -15 -24 -12 -10 6 -27 -31
-18 -40 3 -3 17 6 32 20 15 14 63 39 107 56 45 17 88 38 95 48 9 10 11 11 7 2
-4 -8 13 2 38 22 48 40 165 111 186 114 7 1 23 9 36 17 13 9 40 23 62 31 38
16 38 15 -23 -40 -35 -31 -63 -59 -63 -64 0 -4 10 -6 23 -5 31 3 31 3 17 20
-10 12 -10 15 0 15 8 0 22 7 32 17 22 20 143 69 192 78 20 4 36 13 36 20 0 7
3 21 7 31 5 13 3 15 -7 9 -10 -6 -12 -3 -8 13 4 12 5 22 5 21 -1 0 -9 -3 -17
-6z"/>
<path d="M7860 7970 c-41 -26 -118 -65 -170 -86 -52 -20 -122 -57 -154 -81
-82 -61 -184 -119 -253 -145 -62 -23 -87 -38 -62 -38 22 0 159 63 226 103 67
41 130 54 185 39 29 -8 38 -7 42 4 3 8 1 14 -4 14 -6 0 -10 9 -10 20 0 17 7
20 41 20 35 0 46 6 84 47 24 26 42 50 39 54 -2 4 4 10 13 13 17 6 114 86 103
85 -3 0 -39 -22 -80 -49z"/>
<path d="M9120 6210 c-85 -48 -174 -143 -152 -165 4 -3 7 -11 7 -16 0 -5 3 -8
7 -6 4 1 24 -14 45 -34 21 -20 51 -45 67 -57 16 -12 25 -22 20 -22 -5 0 -33
18 -62 40 -48 37 -59 28 -15 -12 26 -24 97 -52 100 -41 2 5 16 8 32 5 16 -2
44 4 62 13 33 16 33 16 17 -1 -24 -24 -114 -35 -155 -18 -18 7 -33 11 -33 8 0
-11 71 -34 105 -34 53 0 94 22 149 78 27 28 53 49 57 46 4 -2 11 1 15 7 5 8 3
9 -6 4 -9 -5 -10 -2 -6 13 15 46 -70 148 -156 188 l-33 15 35 -6 c23 -3 31 -2
24 5 -24 24 -69 21 -124 -10z"/>
<path d="M4065 1639 c-119 -77 -274 -157 -410 -211 -66 -27 -109 -46 -95 -43
109 24 279 69 296 77 11 5 38 25 59 44 21 18 42 31 48 27 6 -3 7 -1 3 5 -4 7
-1 12 9 12 9 0 13 5 10 10 -3 6 2 13 12 17 15 6 117 78 148 105 22 19 -5 5
-80 -43z"/>
</g>
</svg>
