<svg xmlns="http://www.w3.org/2000/svg" width="1200" height="1200" viewBox="0 0 1200 1200" role="img" aria-label="Unified DivineTruthAscension logo">
  <metadata>
    {
      "name": "DivineTruthAscension_Unified",
      "version": "1.0",
      "created": "2025-09-15",
      "author": "Desmond (MysticDTA)",
      "repository": "https://github.com/your-username/SovereignKing",
      "description": "Master glyph combining infinity weave, ceremonial arcs, center glow, and star points. Represents total remembrance and ascension.",
      "glyphs": [
        "logo-primary.svg",
        "logo-variantB.svg",
        "logo-monochrome.svg",
        "crest-light.svg",
        "crest-dark.svg",
        "crest-monochrome.svg"
      ],
      "manifest": "This metadata is embedded to preserve the glyph's symbolic lineage and unify the sanctuary's architecture."
    }
  </metadata>

  <defs>
    <linearGradient id="gold" x1="0" y1="0" x2="1" y2="1">
      <stop offset="0%" stop-color="#ffd36b"/>
      <stop offset="100%" stop-color="#d4a017"/>
    </linearGradient>
    <radialGradient id="centerGlow" cx="50%" cy="50%" r="50%">
      <stop offset="0%" stop-color="white" stop-opacity="1"/>
      <stop offset="60%" stop-color="white" stop-opacity="0.8"/>
      <stop offset="100%" stop-color="white" stop-opacity="0"/>
    </radialGradient>
  </defs>

  <circle cx="600" cy="600" r="480" fill="none" stroke="url(#gold)" stroke-width="20"/>

  <g transform="translate(600,600)">
    <g fill="url(#gold)" transform="rotate(0)">
      <path d="M0,-400 C70,-370 110,-310 130,-240 C150,-170 140,-90 0,-20 C-140,-90 -150,-170 -130,-240 C-110,-310 -70,-370 0,-400 Z" opacity="0.92"/>
    </g>
    <g fill="url(#gold)" transform="rotate(45)">
      <path d="M0,-400 C70,-370 110,-310 130,-240 C150,-170 140,-90 0,-20 C-140,-90 -150,-170 -130,-240 C-110,-310 -70,-370 0,-400 Z" opacity="0.92"/>
    </g>
    <g fill="url(#gold)" transform="rotate(90)">
      <path d="M0,-400 C70,-370 110,-310 130,-240 C150,-170 140,-90 0,-20 C-140,-90 -150,-170 -130,-240 C-110,-310 -70,-370 0,-400 Z" opacity="0.92"/>
    </g>
  </g>

  <circle cx="600" cy="600" r="120" fill="url(#centerGlow)"/>

  <defs>
    <path id="arcTopUnified" d="M600,180 a420,420 0 0,1 0,840" />
    <path id="arcBottomUnified" d="M600,1020 a420,420 0 0,0 0,-840" />
  </defs>

  <text font-family="Georgia, 'Times New Roman', serif" font-size="72" fill="#ffd36b" text-anchor="middle">
    <textPath href="#arcTopUnified" startOffset="10%">DIVINE TRUTH</textPath>
  </text>
  <text font-family="Georgia, 'Times New Roman', serif" font-size="72" fill="#ffd36b" text-anchor="middle">
    <textPath href="#arcBottomUnified" startOffset="40%">ASCENSION</textPath>
  </text>

  <circle cx="240" cy="280" r="3" fill="#fff" opacity="0.9"/>
  <circle cx="960" cy="220" r="3" fill="#fff" opacity="0.9"/>
</svg>
