<?xml version="1.0" standalone="no"?>
<!DOCTYPE svg PUBLIC "-//W3C//DTD SVG 20010904//EN"
 "http://www.w3.org/TR/2001/REC-SVG-20010904/DTD/svg10.dtd">
<svg version="1.0" xmlns="http://www.w3.org/2000/svg"
 width="300.000000pt" height="300.000000pt" viewBox="0 0 300.000000 300.000000"
 preserveAspectRatio="xMidYMid meet">
<metadata>
Created by potrace 1.10, written by Peter Selinger 2001-2011
</metadata>
<g transform="translate(0.000000,300.000000) scale(0.100000,-0.100000)"
fill="#000000" stroke="none">
<path d="M330 1500 c0 -1493 0 -1500 20 -1500 19 0 20 7 20 148 1 81 2 378 3
660 1 283 0 515 -4 517 -10 7 6 88 19 93 7 2 18 -9 25 -27 6 -17 14 -31 18
-31 4 0 24 -29 45 -65 21 -36 41 -65 45 -65 4 0 14 -11 23 -25 12 -17 14 -30
7 -42 -22 -41 -40 -113 -28 -113 8 0 9 -3 1 -8 -6 -4 -20 -27 -31 -52 -31 -68
-35 -82 -21 -78 16 5 62 117 89 211 l19 68 -25 27 c-14 15 -40 50 -57 77 -57
92 -81 126 -121 171 l-39 45 44 47 c24 26 71 88 105 137 33 50 69 98 80 108
20 18 20 18 1 100 -37 164 -67 247 -91 256 -27 11 -34 6 -18 -13 7 -8 9 -21 5
-27 -4 -7 -3 -9 3 -6 6 4 16 -6 21 -21 24 -59 51 -150 63 -209 12 -57 11 -64
-4 -75 -26 -20 -67 -80 -61 -89 3 -5 0 -9 -5 -9 -6 0 -23 -19 -38 -42 -40 -62
-50 -71 -60 -56 -6 11 -9 287 -13 1281 0 100 -1 107 -20 107 -20 0 -20 -7 -20
-1500z"/>
<path d="M2626 2429 c1 -321 -1 -582 -7 -595 -6 -16 -5 -24 2 -24 7 0 9 -10 5
-25 -4 -15 -2 -25 4 -25 6 0 5 -8 -2 -21 -10 -17 -10 -23 0 -26 18 -7 15 -23
-4 -23 -12 0 -14 -4 -6 -12 12 -16 9 -61 -4 -64 -5 -2 -44 45 -87 103 l-79
107 17 80 c10 45 21 101 26 126 5 25 16 62 24 83 8 20 11 37 6 37 -12 0 -35
-70 -70 -212 -16 -62 -40 -143 -55 -181 -27 -67 -27 -68 -12 -130 21 -83 20
-189 -2 -252 l-18 -50 28 -57 c15 -31 41 -100 58 -152 43 -132 66 -183 90
-189 18 -5 17 -2 -5 27 -14 18 -25 42 -25 52 0 11 -4 24 -8 30 -5 5 -14 29
-21 54 -8 25 -17 57 -21 72 -7 23 -3 33 31 71 21 25 39 48 39 53 0 12 84 133
94 134 4 0 6 -18 4 -40 -2 -22 0 -40 4 -40 3 0 3 -12 -1 -27 -3 -16 -6 -120
-5 -233 1 -113 -3 -213 -8 -222 -6 -12 -5 -18 2 -18 7 0 10 -87 9 -277 -1
-153 -1 -342 0 -420 1 -136 2 -143 21 -143 20 0 20 7 20 750 0 413 -3 750 -7
749 -12 0 -82 -92 -146 -190 -52 -80 -87 -121 -87 -104 0 4 10 21 22 38 l22
31 -24 -17 c-41 -29 -41 -19 0 36 22 28 40 56 40 61 0 5 -13 -9 -29 -32 -39
-53 -49 -58 -62 -28 -9 19 -9 36 -1 68 6 24 14 59 18 78 3 19 11 41 16 47 6 7
7 21 2 30 -4 10 -14 38 -21 63 -30 98 -31 109 -17 121 8 6 11 15 8 20 -3 5 0
9 6 9 6 0 9 4 5 9 -12 21 15 20 32 -1 32 -39 47 -31 16 9 -41 52 -48 66 -33
61 6 -2 58 -66 114 -143 55 -76 107 -140 114 -143 9 -3 12 149 12 737 l0 741
-23 0 -23 0 2 -571z"/>
<path d="M1474 2802 c4 -6 -5 -19 -19 -28 -14 -9 -25 -23 -25 -30 0 -8 -4 -14
-10 -14 -5 0 -10 -6 -10 -13 0 -16 -66 -109 -85 -120 -8 -4 -15 -15 -15 -23 0
-8 -5 -12 -10 -9 -6 4 -10 3 -9 -2 3 -19 -2 -46 -8 -40 -3 4 -11 0 -17 -8 -9
-12 -18 -13 -51 -4 -22 6 -47 17 -55 23 -8 7 -30 13 -49 15 -19 1 -40 6 -46
11 -6 5 -17 5 -24 0 -16 -9 -71 6 -86 25 -5 6 -22 15 -38 19 -25 6 -27 5 -15
-13 18 -29 72 -49 182 -66 55 -9 119 -24 142 -35 l43 -19 29 37 c37 47 98 139
150 224 28 45 38 70 30 74 -7 4 -8 3 -4 -4z"/>
<path d="M1540 2765 c0 -15 93 -163 152 -241 l39 -52 50 19 c27 11 96 27 152
35 108 17 177 44 177 70 0 15 -11 12 -40 -11 -8 -7 -35 -15 -60 -19 -96 -13
-117 -18 -191 -44 -66 -23 -79 -24 -93 -13 -9 8 -14 21 -11 30 3 8 3 12 -1 9
-4 -4 -23 14 -42 40 -20 26 -39 48 -43 50 -5 2 -13 19 -19 38 -6 19 -16 34
-21 34 -5 0 -9 7 -9 15 0 8 -4 15 -10 15 -5 0 -9 5 -7 11 1 6 -4 14 -10 16 -7
3 -13 1 -13 -2z"/>
<path d="M1520 2726 c0 -4 7 -18 16 -31 9 -13 13 -29 9 -35 -4 -6 -2 -9 3 -8
6 2 24 -12 41 -31 17 -19 31 -30 31 -25 0 5 -11 21 -24 35 -13 14 -26 35 -30
46 -6 20 -46 63 -46 49z"/>
<path d="M2151 2706 c-15 -18 -3 -46 18 -46 14 1 14 2 -1 11 -10 5 -18 14 -18
19 0 15 28 12 33 -2 4 -8 6 -7 6 3 1 22 -25 31 -38 15z"/>
<path d="M755 2650 c-4 -7 -1 -16 6 -21 8 -5 10 -9 5 -9 -5 0 -4 -6 1 -12 7
-9 2 -24 -17 -51 -18 -23 -30 -33 -33 -25 -3 8 -6 6 -6 -4 -1 -22 2 -22 39 -3
50 26 60 68 27 116 -11 14 -17 17 -22 9z"/>
<path d="M1240 2640 c0 -28 -28 -37 -45 -14 -11 15 -14 16 -15 4 0 -22 31 -46
55 -42 28 6 45 33 34 54 -13 24 -29 23 -29 -2z"/>
<path d="M1421 2598 c-17 -24 -34 -47 -39 -53 -45 -54 -152 -196 -162 -216
-15 -29 -7 -20 45 46 21 28 54 67 74 88 19 20 31 37 26 37 -5 0 0 7 12 15 11
8 24 26 27 40 4 17 11 23 19 19 7 -4 9 -4 5 1 -4 4 2 21 13 36 11 16 18 29 16
29 -3 0 -19 -19 -36 -42z"/>
<path d="M1750 2612 c0 -5 11 -14 25 -20 19 -9 24 -9 22 1 -4 22 -47 39 -47
19z"/>
<path d="M2125 2587 c-12 -46 4 -95 82 -245 41 -79 72 -146 70 -149 -3 -2 -11
5 -17 17 -10 18 -14 20 -21 9 -6 -10 -9 -10 -9 -2 0 7 -7 10 -15 7 -10 -4 -15
0 -15 12 0 20 -33 89 -64 136 -10 15 -26 54 -36 85 -11 32 -19 48 -19 36 -1
-24 36 -125 48 -133 13 -8 61 -103 61 -120 0 -16 -43 -21 -57 -7 -3 4 -13 7
-20 7 -16 0 -118 100 -115 112 1 5 -1 7 -6 6 -4 -1 -38 9 -77 22 -38 13 -78
23 -88 22 -9 0 -15 3 -12 9 4 5 -1 9 -11 9 -13 0 -14 3 -5 13 11 14 5 27 -13
27 -6 0 -4 -5 4 -10 10 -7 11 -10 2 -10 -7 0 -15 7 -18 15 -6 14 -34 22 -34 9
0 -11 64 -94 72 -94 5 0 6 5 2 11 -7 13 8 9 101 -24 44 -16 75 -37 123 -83
l63 -63 107 -20 c59 -11 132 -23 164 -27 63 -7 128 1 128 17 0 6 -9 7 -22 3
-27 -9 -115 -7 -132 3 -6 4 -19 7 -30 8 -13 0 -22 13 -32 45 -8 27 -9 47 -4
50 5 3 -3 14 -19 23 -43 25 -89 127 -119 262 -9 39 -9 40 -17 12z"/>
<path d="M866 2578 c-2 -7 -12 -42 -21 -78 -9 -36 -23 -70 -31 -77 -9 -6 -16
-24 -18 -39 -2 -16 -15 -37 -31 -50 -27 -21 -30 -22 -42 -6 -13 15 -13 14 -3
-5 8 -17 7 -25 -6 -35 -39 -33 -54 -49 -54 -60 0 -9 3 -10 8 -2 4 6 17 16 30
23 20 11 22 9 22 -12 0 -28 -24 -52 -41 -42 -6 4 -15 1 -20 -6 -7 -11 -11 -11
-17 -1 -5 7 -16 10 -24 7 -11 -4 -17 2 -22 19 -7 30 -31 34 -45 7 -7 -13 -18
-17 -37 -13 -24 4 -25 3 -15 -15 20 -38 81 -38 294 -1 l118 20 51 54 c57 60
151 112 215 121 30 4 44 13 62 39 13 19 20 38 16 42 -4 4 -10 1 -12 -6 -3 -6
-9 -10 -14 -7 -5 3 -17 1 -28 -5 -13 -7 -22 -7 -26 0 -3 5 2 10 12 11 39 1
-22 18 -67 18 -51 0 -105 -17 -60 -19 14 0 40 -1 59 -1 37 0 65 -15 55 -31 -4
-6 4 -5 17 2 23 11 23 10 4 -5 -11 -8 -25 -13 -32 -11 -7 3 -13 0 -13 -7 0 -9
-3 -8 -9 1 -7 11 -9 11 -14 0 -2 -8 -24 -20 -48 -28 -24 -8 -64 -33 -87 -55
-24 -22 -53 -45 -64 -51 -16 -8 -17 -13 -7 -16 8 -3 -3 -10 -24 -16 -21 -6
-44 -9 -52 -6 -7 3 -16 0 -21 -7 -5 -9 -9 -7 -15 7 -7 17 -8 17 -8 2 -1 -10
-6 -18 -11 -18 -6 0 -8 12 -5 28 5 24 3 22 -14 -10 -21 -37 -41 -57 -41 -40 0
5 25 55 56 113 59 110 104 217 104 249 0 23 -18 37 -24 18z"/>
<path d="M1307 2494 c-21 -30 -36 -54 -33 -54 7 0 79 100 75 105 -3 2 -21 -21
-42 -51z"/>
<path d="M1557 2528 c2 -5 22 -8 44 -8 38 0 52 -13 27 -23 -8 -3 -6 -6 4 -6 9
-1 23 -10 32 -22 8 -11 25 -28 38 -37 14 -10 6 5 -23 42 -43 53 -50 59 -87 60
-22 0 -38 -2 -35 -6z"/>
<path d="M2040 2528 c-14 -5 -56 -13 -95 -18 -62 -6 -65 -7 -22 -9 52 -1 134
16 143 30 6 11 6 11 -26 -3z"/>
<path d="M973 2520 c10 -6 44 -13 75 -15 l57 -4 -50 8 c-28 5 -62 11 -75 15
-21 6 -22 5 -7 -4z"/>
<path d="M875 2453 c-16 -38 -29 -71 -27 -75 1 -5 -2 -8 -6 -8 -5 0 -9 -7 -9
-15 0 -8 2 -15 3 -15 4 0 35 58 34 65 0 3 6 18 13 33 14 27 30 82 24 82 -1 0
-16 -30 -32 -67z"/>
<path d="M2111 2492 c-1 -27 49 -138 79 -172 15 -17 10 -3 -14 45 -19 39 -42
88 -50 110 -11 29 -15 34 -15 17z"/>
<path d="M1995 2493 c-11 -3 -24 -9 -29 -13 -4 -4 -21 -4 -37 0 -17 5 -29 5
-29 -1 0 -19 49 -20 91 -1 43 20 44 25 4 15z"/>
<path d="M961 2467 c7 -14 17 -24 22 -20 6 4 8 0 4 -10 -4 -11 -1 -15 13 -12
10 2 26 -3 37 -10 10 -8 22 -15 26 -15 14 0 -4 21 -26 30 -12 5 -37 22 -55 37
l-33 26 12 -26z"/>
<path d="M1414 2466 c-3 -7 -23 -19 -45 -26 -38 -13 -73 -40 -51 -40 6 0 12 5
14 12 2 6 10 9 17 7 9 -3 3 -16 -20 -39 -19 -18 -33 -41 -31 -51 2 -9 -7 -24
-20 -33 -27 -20 -83 -22 -72 -3 4 6 -2 4 -13 -6 -11 -9 -22 -14 -26 -11 -3 3
-11 -4 -17 -16 -16 -30 -10 -33 41 -14 55 21 177 23 242 5 26 -8 50 -11 54 -8
10 11 -18 36 -33 30 -8 -3 -14 0 -14 6 0 8 -5 9 -19 1 -25 -13 -28 -13 -28 4
0 8 7 12 16 9 13 -4 13 -3 2 5 -15 11 -36 6 -59 -11 -11 -9 -11 -5 -1 17 7 15
20 26 28 25 29 -3 36 1 21 11 -13 8 -13 11 3 27 16 16 17 16 18 -12 l1 -30 8
30 c16 61 11 65 -30 24 -22 -22 -47 -53 -55 -69 -9 -17 -22 -30 -30 -30 -21 0
13 68 64 130 42 51 55 70 46 70 -3 0 -8 -6 -11 -14z"/>
<path d="M1486 2436 c-8 -44 -29 -80 -39 -69 -4 3 -7 4 -7 1 0 -3 7 -11 16
-18 8 -8 14 -9 13 -4 -2 5 5 24 15 42 9 18 16 45 14 60 -3 24 -4 22 -12 -12z"/>
<path d="M1590 2465 c0 -3 17 -29 39 -58 36 -48 71 -108 71 -122 0 -15 -28 -2
-37 18 -15 31 -84 109 -91 102 -3 -3 5 -16 18 -30 13 -14 20 -28 16 -32 -4 -4
-12 -1 -17 7 -8 12 -9 11 -7 -5 3 -15 10 -19 30 -17 19 2 30 -4 38 -19 9 -16
9 -20 0 -14 -6 4 -17 0 -23 -10 -10 -13 -18 -14 -40 -6 -19 7 -27 7 -27 0 0
-6 -4 -8 -9 -4 -6 3 -15 -4 -22 -16 -10 -20 -9 -21 12 -15 103 30 198 30 280
1 23 -9 44 -13 47 -11 8 8 -62 46 -76 41 -7 -2 -17 6 -23 18 -6 13 -20 29 -32
36 -17 11 -16 8 6 -19 31 -37 31 -42 -2 -33 -20 5 -44 41 -45 68 -1 6 -10 18
-20 28 -10 9 -15 17 -10 17 5 0 0 8 -11 16 -19 16 -19 16 5 10 14 -4 6 3 -17
15 -24 12 -40 25 -37 30 3 5 0 9 -5 9 -6 0 -11 -2 -11 -5z"/>
<path d="M1517 2433 c-12 -11 -8 -163 4 -163 6 0 9 6 6 13 -3 8 -1 20 4 28 6
10 9 10 9 2 0 -7 5 -13 11 -13 7 0 6 8 -3 23 -8 12 -16 42 -16 66 -2 47 -5 55
-15 44z"/>
<path d="M1165 2370 c-11 -5 -14 -9 -7 -9 7 -1 -20 -18 -60 -39 -40 -21 -72
-44 -70 -51 1 -7 -2 -10 -7 -7 -5 4 -13 1 -16 -5 -4 -5 -13 -8 -20 -5 -7 2
-20 -3 -29 -13 -15 -16 -11 -17 72 -13 50 2 90 9 95 15 16 25 77 130 77 133 0
6 -13 4 -35 -6z m-49 -98 c-4 -3 -22 -7 -41 -8 -38 -3 -48 11 -15 21 11 3 20
10 20 15 0 5 8 10 18 12 17 3 30 -27 18 -40z"/>
<path d="M1743 2351 c20 -15 34 -31 31 -33 -3 -3 2 -8 11 -12 13 -4 14 -2 5
14 -6 11 -15 20 -20 20 -6 0 -9 5 -7 12 1 7 -3 12 -10 13 -6 0 -15 3 -19 8 -4
4 -12 7 -17 7 -5 0 6 -13 26 -29z"/>
<path d="M1483 2354 c-3 -10 -11 -22 -17 -26 -5 -3 -11 -14 -12 -23 -1 -9 0
-14 3 -11 4 3 13 0 21 -7 13 -10 14 -9 5 7 -8 15 -7 26 4 43 9 13 13 26 10 30
-4 3 -10 -3 -14 -13z"/>
<path d="M1839 2313 c17 -28 31 -55 31 -61 0 -6 12 -26 28 -44 15 -18 45 -59
66 -90 l38 -58 57 0 c31 0 72 -4 91 -10 30 -8 33 -8 17 4 -18 14 -112 30 -126
22 -5 -3 -16 3 -26 14 -10 11 -15 20 -11 20 4 0 1 7 -8 15 -8 8 -19 15 -24 15
-16 0 -24 33 -10 42 7 4 40 8 73 9 60 2 60 2 -20 9 -44 4 -91 13 -105 19 -20
9 -7 11 67 7 53 -2 90 0 87 5 -3 5 -9 7 -13 4 -5 -2 -26 9 -46 25 -21 17 -40
28 -43 25 -3 -3 -11 4 -18 14 -8 11 -33 26 -56 34 -24 8 -51 18 -61 22 -15 6
-12 -2 12 -42z m45 2 c3 -9 12 -15 19 -13 7 2 28 -9 46 -24 32 -28 32 -28 7
-28 -43 0 -73 17 -84 49 -11 31 0 45 12 16z"/>
<path d="M1394 2231 c11 -17 -25 -21 -92 -11 -96 14 -127 11 -67 -5 28 -8 59
-14 70 -15 40 -1 47 -14 28 -48 -10 -18 -22 -32 -26 -32 -5 0 -5 -5 -2 -10 4
-6 -9 -26 -28 -45 -19 -19 -31 -35 -27 -35 4 0 6 -9 3 -19 -6 -22 -64 -35 -75
-17 -6 8 -8 8 -8 0 0 -7 -8 -14 -17 -17 -10 -2 -27 -8 -38 -13 -17 -7 -18 -6
-7 8 11 14 11 16 -1 14 -8 -1 -22 -8 -30 -14 -11 -9 -17 -10 -22 -2 -9 15 4
66 20 80 11 9 12 16 2 32 -9 16 -9 22 1 25 6 3 12 10 12 16 0 31 -35 -30 -60
-104 -20 -61 -33 -85 -46 -87 -11 -2 -23 -8 -28 -13 -5 -5 -15 -1 -23 9 -12
15 -13 14 -7 -13 4 -25 3 -28 -8 -15 -7 8 -26 16 -43 17 l-30 2 25 -14 c14 -8
21 -15 15 -15 -5 0 1 -7 14 -14 22 -12 29 -11 70 13 55 32 144 58 229 67 l62
7 43 81 c23 45 65 105 94 135 29 30 53 56 53 58 0 2 -14 3 -31 3 -16 0 -28 -4
-25 -9z"/>
<path d="M1565 2230 c-3 -5 7 -17 21 -27 31 -20 113 -140 139 -205 l18 -43 65
-2 c70 -2 181 -34 224 -64 33 -24 55 -24 67 0 9 17 8 18 -12 13 -20 -5 -21 -4
-7 13 14 17 14 18 -6 7 -17 -9 -24 -9 -34 3 -6 7 -17 12 -24 9 -14 -5 -17 0
-67 144 -17 51 -34 91 -36 89 -2 -3 1 -16 7 -31 22 -59 -3 -91 -37 -48 -11 13
-13 13 -11 2 3 -8 18 -21 35 -29 21 -9 36 -27 47 -54 9 -22 14 -42 12 -45 -2
-2 -18 4 -35 12 -27 14 -30 14 -25 1 5 -11 2 -13 -11 -8 -10 3 -30 7 -44 8
-14 1 -25 7 -24 13 2 7 -2 12 -7 12 -5 0 -10 -6 -10 -12 0 -10 -3 -9 -9 1 -7
10 -10 10 -13 1 -7 -21 -40 20 -34 42 2 11 2 18 -1 15 -7 -8 -49 43 -57 71 -4
12 -11 22 -15 22 -4 0 -13 11 -19 24 -11 24 -10 25 36 31 26 4 65 13 87 21
l40 14 -52 -5 c-29 -3 -75 -8 -102 -11 -36 -4 -52 -2 -64 10 -18 18 -33 20
-42 6z"/>
<path d="M1065 2210 c-3 -5 -41 -11 -83 -12 -51 -1 -63 -3 -37 -6 36 -4 38 -5
15 -13 -14 -4 0 -5 34 -2 55 6 58 5 48 -13 -16 -29 -74 -81 -101 -89 -15 -5
-26 -3 -32 6 -6 9 -9 10 -9 2 0 -8 -9 -9 -30 -3 -20 6 -28 5 -24 -1 3 -6 -2
-17 -12 -25 -18 -15 -18 -15 1 -9 35 12 129 25 145 20 9 -2 27 11 43 33 33 43
77 111 77 117 0 9 -29 5 -35 -5z"/>
<path d="M1444 2182 c-51 -41 -160 -206 -152 -229 2 -4 11 -9 22 -10 10 -2 52
-15 93 -28 42 -14 78 -24 81 -21 8 9 -8 37 -18 31 -6 -3 -14 4 -18 16 -7 19
-10 20 -15 6 -4 -10 -13 -14 -21 -11 -8 3 -12 12 -9 21 5 13 3 13 -15 4 -18
-10 -20 -8 -18 12 6 44 18 77 27 71 5 -3 9 5 9 18 0 19 2 20 11 8 9 -12 10
-12 5 4 -6 19 22 56 42 56 10 0 26 49 19 56 -5 5 -111 -137 -144 -194 -15 -25
-29 -40 -31 -34 -4 12 79 139 135 210 29 36 28 40 -3 14z"/>
<path d="M1510 2197 c6 -29 40 -106 40 -92 1 18 2 18 20 -5 11 -14 24 -30 30
-37 5 -7 10 -22 10 -33 0 -12 4 -19 9 -16 10 6 35 -54 26 -62 -3 -3 -5 1 -5 9
-1 10 -4 9 -11 -4 -8 -14 -14 -15 -24 -7 -9 8 -14 7 -19 -5 -3 -8 -10 -15 -16
-15 -6 0 -8 4 -5 10 3 5 1 18 -4 27 -9 16 -10 16 -11 -3 0 -12 -8 -28 -17 -35
-15 -13 -16 -11 -10 16 3 17 2 46 -3 65 -7 28 -8 20 -8 -42 0 -43 3 -78 7 -78
12 0 151 47 157 52 9 10 -33 84 -93 165 -59 80 -67 112 -10 41 31 -38 68 -94
121 -181 28 -46 30 -24 3 30 -34 66 -111 169 -139 184 -20 11 -49 21 -48 16z"/>
<path d="M734 2164 c-7 -3 -41 -9 -75 -13 -58 -8 -60 -9 -19 -10 25 0 68 6 95
13 28 8 41 14 30 14 -11 0 -25 -2 -31 -4z"/>
<path d="M790 2152 c-41 -8 -78 -19 -81 -24 -3 -5 -13 -6 -22 -2 -10 3 -17 1
-17 -5 0 -6 -8 -8 -17 -4 -10 3 -16 4 -13 2 41 -35 54 -43 41 -26 -7 9 -9 17
-3 17 13 0 29 -20 35 -45 2 -11 3 -3 2 18 -3 41 -2 42 26 27 13 -8 19 -7 19 0
0 6 4 9 8 6 10 -6 9 -36 -2 -54 -4 -8 15 3 43 23 28 20 54 42 58 48 3 7 -3 3
-15 -7 -12 -11 -22 -15 -22 -11 0 5 -11 -2 -24 -14 l-23 -22 0 25 c0 18 5 26
18 27 27 2 32 3 57 17 12 7 26 11 30 9 4 -3 16 -1 27 4 34 13 -42 8 -125 -9z"/>
<path d="M2060 2160 c-15 -5 -19 -8 -8 -9 9 -1 25 -4 35 -7 15 -5 16 -4 3 6
-13 9 -12 11 5 7 11 -2 19 -9 17 -18 -2 -8 0 -11 3 -7 4 4 27 -6 51 -22 23
-17 45 -26 48 -21 3 5 -10 16 -29 25 -50 24 -50 34 1 22 24 -6 44 -14 44 -19
0 -4 5 -5 10 -2 6 3 10 1 10 -6 0 -8 4 -9 13 0 8 6 23 9 35 6 12 -2 22 0 22 4
0 8 -125 37 -195 45 -22 3 -51 1 -65 -4z"/>
<path d="M2339 2137 c4 -5 32 -7 62 -5 l54 3 -62 5 c-34 3 -58 1 -54 -3z"/>
<path d="M1247 2126 c-4 -10 -4 -23 0 -28 3 -7 1 -8 -5 -4 -6 3 -15 -2 -21
-11 -6 -10 -11 -15 -11 -10 0 13 -57 -21 -64 -38 -3 -9 -10 -14 -15 -10 -5 3
-12 1 -15 -4 -12 -18 21 -5 97 41 43 25 73 49 68 53 -6 3 -11 3 -12 -2 0 -4
-4 1 -8 11 -7 18 -8 18 -14 2z"/>
<path d="M1751 2133 c-1 -7 -11 -13 -23 -13 -16 0 4 -18 67 -59 50 -32 94 -56
99 -53 11 6 -15 27 -76 57 -30 16 -50 34 -56 52 -6 15 -11 22 -11 16z"/>
<path d="M2330 2105 c-9 -11 -9 -15 -1 -15 7 0 11 -6 9 -13 -2 -7 2 -13 7 -14
6 -1 9 5 7 14 -2 8 1 12 7 9 5 -3 22 -1 37 6 l27 13 -24 6 c-39 11 -56 10 -69
-6z"/>
<path d="M2431 2113 c3 -16 -14 -53 -21 -48 -5 3 -12 0 -16 -6 -4 -7 -3 -9 4
-5 6 4 12 -3 14 -16 2 -18 7 -12 19 25 9 26 12 50 7 53 -4 3 -8 2 -7 -3z"/>
<path d="M580 2059 c9 -31 25 -49 44 -49 4 0 -2 9 -15 21 l-24 20 23 -11 c35
-17 33 -9 -4 23 l-33 28 9 -32z"/>
<path d="M555 2033 c17 -40 25 -52 25 -36 0 21 -22 73 -31 73 -5 0 -2 -17 6
-37z"/>
<path d="M828 2026 l-67 -22 46 -12 c25 -7 48 -10 52 -6 3 4 0 9 -6 11 -21 8
-15 25 6 18 11 -3 22 -1 26 5 9 15 25 12 25 -4 0 -9 7 -12 20 -9 29 8 25 -12
-7 -36 l-28 -20 26 -1 c21 0 29 8 46 50 l21 50 -46 -1 c-26 -1 -77 -11 -114
-23z"/>
<path d="M2030 2014 c11 -21 20 -43 20 -50 0 -6 12 -11 28 -11 27 0 27 0 4 10
-16 7 -22 17 -19 29 3 10 1 16 -4 12 -5 -3 -6 1 -4 8 5 12 47 17 65 8 3 -1 8
-2 13 -1 4 0 6 -2 6 -6 -3 -21 2 -33 16 -33 8 0 15 4 15 9 0 5 6 9 13 8 6 0
26 1 42 2 26 2 21 5 -30 22 -33 11 -88 22 -122 26 l-62 6 19 -39z"/>
<path d="M2405 2000 c-3 -5 -21 -10 -38 -10 -22 0 -28 -3 -18 -9 7 -5 21 -6
31 -4 12 3 20 -2 22 -14 3 -11 6 -6 9 15 6 34 4 39 -6 22z"/>
<path d="M601 1969 c1 -13 5 -37 10 -54 6 -24 7 -20 4 19 -4 49 -16 80 -14 35z"/>
<path d="M2242 1947 c-11 -19 -27 -47 -37 -63 -16 -26 -14 -26 15 6 17 19 29
27 26 18 -3 -10 -1 -18 4 -18 5 0 11 -6 13 -12 2 -7 3 -1 1 14 -2 15 1 30 6
33 6 3 10 14 9 23 0 12 -3 9 -10 -7 -5 -13 -12 -22 -14 -19 -3 3 -1 17 4 32
14 36 7 33 -17 -7z"/>
<path d="M751 1948 c23 -44 51 -78 72 -89 20 -10 19 -8 -4 17 -15 16 -34 44
-43 62 -9 17 -21 32 -27 32 -6 0 -5 -8 2 -22z"/>
<path d="M2389 1934 c-1 -5 -1 -12 0 -16 0 -5 -3 -8 -9 -8 -5 0 -6 -7 -3 -17
4 -10 2 -14 -4 -10 -6 4 -10 -8 -10 -28 0 -19 2 -35 3 -35 7 0 35 112 30 117
-3 4 -7 2 -7 -3z"/>
<path d="M1155 1923 c-35 -7 -166 -55 -162 -59 2 -2 35 7 74 20 83 28 179 44
169 27 -4 -6 -20 -11 -36 -11 -36 0 -194 -49 -198 -61 -2 -5 -9 -6 -14 -3 -7
4 -8 2 -4 -4 5 -8 15 -8 33 -1 14 5 28 7 31 4 3 -3 13 2 23 11 22 19 115 26
130 8 12 -14 -6 -14 -31 1 -13 8 -13 7 0 -9 16 -20 25 -60 11 -52 -5 3 -12 -1
-15 -10 -3 -8 -2 -12 3 -9 5 3 12 1 15 -4 12 -19 -12 -20 -48 -2 -20 11 -38
15 -41 11 -7 -11 32 -43 45 -35 6 3 9 1 8 -7 -2 -7 5 -12 14 -12 10 1 16 -2
13 -6 -3 -5 -1 -11 4 -15 6 -3 15 14 20 37 6 24 21 76 34 116 l24 72 -41 -1
c-23 -1 -50 -3 -61 -6z"/>
<path d="M1246 1850 c-14 -43 -26 -84 -26 -91 0 -6 17 4 38 23 20 18 52 40 69
47 37 15 35 31 -4 31 -18 0 -24 -4 -20 -14 3 -8 -1 -17 -9 -20 -19 -7 -18 7 5
35 17 22 20 22 43 7 20 -13 32 -14 66 -5 23 6 42 14 42 17 0 7 -111 42 -117
37 -2 -3 16 -11 41 -18 25 -7 40 -16 34 -20 -6 -4 -31 0 -55 8 -42 15 -46 14
-64 -3 -10 -11 -20 -28 -22 -39 -1 -11 -9 -29 -16 -40 -11 -18 -12 -17 -6 9
12 55 34 96 57 106 23 9 23 9 -3 9 -24 1 -29 -6 -53 -79z"/>
<path d="M1707 1918 c13 -6 25 -20 29 -30 3 -11 8 -18 10 -15 3 2 0 16 -5 31
-7 18 -18 26 -33 25 l-23 0 22 -11z"/>
<path d="M1795 1920 c42 -7 116 -28 220 -64 13 -5 12 -2 -5 8 -43 27 -179 66
-223 65 l-42 -1 50 -8z"/>
<path d="M717 1845 c3 -44 7 -82 9 -84 8 -8 3 124 -6 144 -4 12 -6 -13 -3 -60z"/>
<path d="M1625 1905 c-16 -8 -40 -14 -52 -15 -29 0 -31 -20 -3 -20 12 0 35 -7
51 -16 17 -8 38 -13 47 -9 9 3 13 3 9 -1 -3 -4 17 -23 45 -43 28 -20 54 -42
56 -50 3 -8 -16 2 -42 21 -25 20 -75 48 -111 63 -83 36 -100 25 -56 -35 17
-23 33 -61 37 -85 l6 -44 40 20 c27 14 55 19 86 18 43 -3 46 -2 45 21 -1 57
-3 71 -11 66 -5 -3 -19 20 -32 50 -24 59 -20 57 -85 41 -11 -3 -28 -8 -37 -12
-37 -15 -16 7 25 25 23 11 35 19 27 19 -8 0 -28 -7 -45 -14z m71 -40 c4 -8 10
-13 14 -10 8 5 24 -25 17 -31 -2 -2 -13 5 -25 16 -12 11 -29 20 -39 20 -15 0
-16 2 -3 10 21 14 30 12 36 -5z m-35 -62 c36 -19 79 -48 95 -65 27 -30 28 -31
4 -16 -14 8 -67 39 -117 67 -132 74 -118 85 18 14z m-48 -17 c12 -8 43 -25 69
-38 l47 -25 -44 -1 c-24 0 -52 6 -62 14 -17 13 -17 13 2 14 16 0 14 4 -12 21
-31 20 -40 29 -28 29 3 0 16 -6 28 -14z"/>
<path d="M2287 1900 c-4 -14 -6 -38 -6 -55 l1 -30 9 34 c6 18 9 43 7 55 -3 20
-4 19 -11 -4z"/>
<path d="M826 1898 c3 -9 17 -24 30 -33 30 -20 31 -35 2 -27 -21 5 -22 4 -9
-11 12 -16 12 -17 -5 -11 -10 4 -25 12 -33 18 -7 6 -24 11 -37 12 -30 1 -33
-31 -4 -39 14 -4 19 -12 18 -31 -1 -14 -6 -26 -10 -26 -4 0 -8 -6 -8 -14 0 -8
-6 -16 -13 -19 -16 -6 -39 -76 -30 -91 4 -6 -1 -4 -12 4 -17 14 -18 13 -11
-22 9 -47 2 -48 -21 -5 -13 25 -18 28 -21 14 -2 -10 1 -24 7 -30 5 -7 9 -30 8
-50 -2 -29 -6 -37 -22 -38 -16 -1 -16 -2 -3 -6 9 -2 19 -11 22 -19 7 -19 -3
-64 -14 -64 -5 0 -6 -10 -2 -22 3 -14 2 -19 -6 -14 -8 5 -12 0 -12 -13 0 -32
7 -26 35 29 14 28 28 50 31 50 4 0 4 -16 1 -36 -3 -20 -3 -34 0 -30 9 9 33
-51 33 -82 0 -24 1 -25 16 -10 15 15 14 23 -16 99 -17 46 -36 92 -41 102 -6
10 -5 24 1 35 5 9 22 53 37 97 22 65 37 91 82 138 53 56 93 77 72 38 -6 -10
-7 -21 -4 -25 3 -3 0 -6 -8 -6 -11 0 -11 -2 1 -10 12 -8 3 -22 -51 -77 -92
-96 -102 -112 -41 -69 28 21 52 42 52 47 0 5 14 18 32 29 34 20 48 14 48 -22
0 -9 13 -40 30 -67 16 -28 26 -50 22 -50 -18 3 -30 -2 -35 -15 -4 -10 -1 -13
9 -9 7 3 14 9 14 14 0 4 7 6 15 4 51 -16 50 -16 35 -25 -11 -7 -7 -10 15 -10
26 -1 28 -2 12 -11 -10 -6 -34 -8 -52 -5 -20 4 -36 2 -40 -4 -9 -15 -2 -21 24
-23 11 -1 21 -5 21 -10 0 -5 -7 -6 -16 -3 -12 4 -15 2 -10 -9 3 -8 1 -15 -4
-15 -5 0 -10 -10 -12 -22 -2 -13 -9 -22 -16 -20 -6 1 -12 -4 -13 -10 -1 -7 -2
-22 -3 -33 -1 -15 -7 -19 -26 -17 -29 3 -62 40 -56 63 2 12 -3 15 -19 11 -16
-3 -27 2 -34 16 -6 11 -8 22 -5 24 2 3 -4 11 -13 19 -16 13 -17 12 -4 -3 8
-11 9 -18 3 -18 -6 0 -16 8 -21 18 -8 13 -10 14 -11 2 0 -8 35 -49 78 -90 65
-63 77 -79 77 -107 0 -18 -4 -33 -8 -33 -16 0 -52 23 -74 47 -12 14 -24 20
-27 14 -4 -6 7 -23 24 -39 32 -32 39 -52 15 -52 -8 0 -19 -10 -26 -21 -9 -18
-3 -16 36 11 35 24 49 29 55 20 11 -18 0 -50 -17 -50 -8 0 -11 -5 -8 -10 4 -6
15 -3 29 7 18 13 25 32 30 71 8 68 51 162 105 230 l42 53 -40 48 c-56 67 -102
168 -108 240 -5 52 -9 60 -37 76 -17 11 -37 26 -44 34 -11 14 -11 14 -6 -1z"/>
<path d="M1789 1800 c24 -97 25 -100 45 -86 12 7 61 37 109 66 l89 53 -47 18
c-61 23 -164 49 -196 49 l-25 0 25 -100z m170 44 c34 -14 40 -19 27 -26 -9 -5
-20 -7 -25 -3 -5 3 -13 0 -17 -6 -4 -8 -3 -9 4 -5 7 4 12 5 12 2 0 -3 -27 -19
-60 -34 -33 -16 -57 -32 -53 -35 3 -4 1 -7 -6 -7 -21 0 -24 30 -5 52 19 20 19
21 -3 14 -28 -9 -29 0 -5 28 16 20 16 20 0 7 -10 -7 -18 -10 -19 -5 0 5 -2 16
-4 25 -2 13 7 16 54 13 31 -1 76 -10 100 -20z"/>
<path d="M1372 1833 c-37 -15 -82 -44 -110 -70 -50 -48 -43 -46 24 5 22 18 71
46 110 62 38 16 62 29 54 29 -8 0 -43 -12 -78 -26z"/>
<path d="M2101 1851 c-7 -5 -11 -13 -8 -17 3 -5 1 -35 -4 -67 -11 -70 -56
-163 -104 -216 -19 -21 -35 -41 -35 -45 0 -15 44 -4 61 16 18 20 20 21 39 3
17 -16 20 -16 20 -2 0 8 3 24 7 34 6 17 6 17 -14 0 -16 -14 -23 -15 -29 -6 -4
7 -1 17 7 23 8 6 20 24 27 40 11 24 15 27 24 15 8 -11 9 -10 4 4 -7 22 3 67
15 67 4 0 38 -30 74 -66 37 -36 69 -63 72 -60 7 6 -58 80 -108 124 -31 27 -36
37 -33 69 3 45 15 45 62 0 41 -39 56 -66 98 -176 l32 -85 -28 -81 c-30 -88
-45 -122 -66 -143 -8 -7 -20 -22 -28 -33 -7 -11 -26 -21 -42 -22 -24 -2 -29 2
-32 23 -2 20 11 38 65 86 37 34 77 77 87 95 l20 34 -36 -37 c-20 -22 -45 -38
-58 -38 -15 0 -20 -5 -17 -14 6 -15 -22 -46 -40 -46 -6 0 -14 -7 -17 -16 -6
-17 -27 -10 -25 9 2 20 -13 57 -23 57 -5 0 -7 9 -3 20 5 16 3 19 -12 13 -10
-3 -15 -3 -11 2 15 16 -21 62 -53 69 -38 7 -45 4 -65 -37 -9 -18 -35 -54 -57
-80 -32 -39 -38 -51 -26 -58 18 -11 42 -12 35 0 -9 14 4 41 20 41 8 0 11 6 8
15 -5 11 0 14 17 12 25 -4 40 -27 17 -27 -7 0 1 -11 17 -25 17 -13 26 -24 22
-25 -5 0 -1 -10 7 -22 23 -33 20 -41 -9 -22 -14 9 -25 12 -25 8 0 -5 -5 -1
-11 8 -6 11 -16 15 -26 11 -11 -4 -14 -3 -9 5 4 7 2 12 -3 12 -6 0 -11 -4 -11
-10 0 -11 53 -40 75 -40 8 0 15 -5 15 -11 0 -6 7 -9 15 -5 8 3 19 -3 25 -12
23 -36 -2 33 -42 121 -23 48 -39 89 -36 92 5 5 50 -82 92 -179 15 -32 29 -56
33 -53 10 10 -37 127 -78 196 -48 78 -49 99 -3 47 49 -57 90 -144 105 -226 13
-73 18 -80 39 -55 9 11 9 15 1 15 -7 0 -9 5 -5 11 3 6 17 8 30 5 16 -4 24 -2
24 7 0 7 11 24 25 37 14 13 25 30 25 37 0 8 7 16 15 19 8 4 15 13 15 21 0 8 5
11 12 7 6 -4 8 -3 5 3 -8 13 27 106 36 97 6 -7 11 19 8 39 -1 4 6 10 14 13 12
5 13 9 4 20 -9 11 -8 14 2 14 11 0 11 2 1 9 -7 4 -12 12 -11 17 1 5 -1 17 -6
28 -4 10 -4 21 2 25 13 8 24 41 14 41 -4 0 -13 -12 -19 -26 -14 -30 -27 -25
-37 13 -11 47 -38 102 -47 97 -4 -3 -8 2 -8 10 0 8 -13 30 -30 48 -16 18 -30
36 -30 40 0 4 -7 4 -17 1 -10 -4 -14 -2 -10 4 10 15 -26 44 -42 34z"/>
<path d="M2250 1833 c0 -13 -3 -14 -12 -5 -7 7 -19 12 -27 12 -11 0 -12 -3 -4
-11 6 -6 9 -18 6 -26 -5 -13 -1 -12 20 2 23 15 38 45 22 45 -3 0 -5 -8 -5 -17z"/>
<path d="M1345 1779 c-122 -73 -124 -75 -77 -71 33 3 70 -8 125 -36 4 -2 7 10
7 27 0 36 23 97 47 123 28 31 2 20 -102 -43z m59 6 c-4 -8 -10 -15 -16 -15 -5
0 -6 -5 -2 -12 4 -6 3 -8 -3 -5 -16 10 -24 -18 -10 -33 10 -10 8 -10 -8 -2
-11 5 -36 8 -55 6 -33 -4 -31 -2 30 36 76 46 71 44 64 25z"/>
<path d="M1468 1823 c-9 -10 -23 -32 -32 -49 -14 -30 -14 -33 2 -45 14 -11 15
-11 5 1 -10 10 -8 18 8 39 12 14 26 26 32 26 5 0 12 6 15 14 3 9 0 11 -8 6
-10 -6 -12 -4 -7 8 8 22 4 21 -15 0z"/>
<path d="M1510 1825 c0 -8 11 -25 24 -36 20 -18 23 -26 15 -51 -4 -17 -5 -37
0 -45 5 -10 10 0 15 33 6 48 -11 94 -35 94 -6 0 -7 5 -4 10 3 6 1 10 -4 10 -6
0 -11 -7 -11 -15z"/>
<path d="M490 1810 c0 -5 -10 -18 -22 -30 -20 -18 -20 -20 -3 -20 19 0 44 27
45 48 0 6 -4 12 -10 12 -5 0 -10 -4 -10 -10z"/>
<path d="M2510 1797 c0 -15 4 -27 9 -27 5 0 18 -3 28 -6 10 -3 14 -2 7 3 -5 4
-18 19 -27 33 l-17 24 0 -27z"/>
<path d="M2021 1711 c-24 -56 -54 -118 -67 -137 -26 -38 -28 -44 -15 -44 16 0
92 138 112 201 31 101 16 91 -30 -20z"/>
<path d="M569 1783 c-10 -12 -10 -15 -1 -9 13 8 34 -32 25 -47 -3 -5 3 -14 12
-21 13 -9 15 -19 9 -37 -4 -13 -8 -27 -9 -31 0 -3 -3 -10 -7 -14 -5 -4 -8 -18
-8 -30 0 -12 -5 -35 -12 -51 -13 -31 -11 -62 4 -80 6 -7 8 -13 5 -13 -3 0 0
-21 8 -47 17 -55 19 -92 6 -112 -8 -13 -12 -13 -27 0 -9 8 -25 28 -36 44 -10
17 -18 25 -18 20 0 -12 28 -55 46 -70 19 -17 25 -45 8 -38 -16 6 -18 -5 -4
-27 11 -18 11 -17 44 48 l26 52 -17 53 c-24 69 -24 186 0 255 18 53 18 54 -5
113 -13 32 -26 59 -29 59 -4 0 -13 -8 -20 -17z"/>
<path d="M946 1770 c5 -36 56 -146 97 -213 l23 -38 24 43 c13 24 37 60 54 81
18 23 26 41 20 46 -5 5 -45 28 -89 51 -44 23 -86 47 -93 53 -7 5 -14 8 -16 6
-2 -2 21 -57 51 -122 30 -65 53 -121 50 -124 -3 -3 -25 37 -50 89 -24 51 -51
109 -60 128 l-17 35 6 -35z m68 -17 c4 -5 11 -8 14 -9 24 -4 71 -27 67 -34 -3
-4 3 -7 12 -6 22 1 27 -43 7 -51 -8 -3 -14 -11 -14 -19 0 -10 -6 -11 -22 -5
-16 6 -23 16 -22 34 1 14 -2 25 -6 24 -5 -1 -20 15 -34 36 -22 32 -23 51 -2
30z"/>
<path d="M2001 1740 c-14 -30 -28 -47 -35 -43 -6 4 -5 -1 3 -10 11 -14 11 -18
-3 -23 -9 -3 -14 -9 -12 -13 2 -3 -6 -15 -17 -26 -11 -11 -16 -14 -12 -6 6 11
4 13 -9 8 -14 -5 -17 -3 -12 8 4 10 -1 15 -17 16 -12 0 -16 3 -9 6 10 4 9 9
-5 20 -10 8 -13 12 -8 10 6 -3 16 1 23 9 17 18 8 18 -29 -1 l-30 -16 34 -42
c19 -23 40 -53 47 -66 6 -13 15 -19 19 -15 15 18 102 215 99 225 -2 5 -14 -13
-27 -41z"/>
<path d="M1723 1693 c-27 -5 -31 -23 -5 -23 20 -1 -25 -28 -55 -33 -10 -1 -24
-6 -30 -10 -7 -5 -13 -4 -13 2 0 5 7 14 16 19 9 5 13 12 8 15 -5 3 -19 -10
-32 -29 -16 -25 -18 -34 -8 -34 7 0 19 7 26 15 7 8 16 12 20 10 13 -8 100 37
93 48 -3 6 -1 7 5 3 7 -4 20 -2 29 3 10 6 13 11 6 11 -6 0 -17 2 -25 4 -7 2
-23 1 -35 -1z"/>
<path d="M2491 1698 c-2 -22 67 -120 104 -150 18 -14 11 0 -22 44 -26 35 -56
74 -65 88 -9 14 -17 22 -17 18z"/>
<path d="M494 1667 c-10 -12 -34 -42 -53 -67 -19 -25 -44 -53 -55 -63 l-21
-18 21 10 c26 12 91 85 117 130 21 37 18 40 -9 8z"/>
<path d="M1220 1686 c0 -6 108 -66 117 -66 5 0 -3 10 -17 21 -16 14 -19 19 -7
15 27 -9 20 2 -13 19 -26 14 -80 21 -80 11z"/>
<path d="M1138 1605 c-56 -79 -61 -97 -38 -148 18 -39 80 -128 80 -114 0 4
-18 34 -40 68 -51 80 -51 105 2 180 22 33 39 61 37 63 -2 3 -21 -19 -41 -49z"/>
<path d="M1216 1653 c-8 -8 21 -60 38 -66 16 -6 33 10 22 20 -3 4 -6 1 -6 -6
0 -7 -4 -10 -9 -6 -6 3 -8 14 -6 23 3 18 -28 46 -39 35z"/>
<path d="M1778 1649 c-10 -5 -18 -21 -18 -35 0 -14 -4 -23 -9 -19 -5 3 -12 2
-15 -3 -3 -5 2 -9 10 -9 8 0 24 18 35 39 11 21 18 38 17 38 -2 0 -11 -5 -20
-11z"/>
<path d="M1822 1634 c0 -16 -7 -54 -15 -84 -12 -47 -12 -62 0 -110 8 -30 16
-56 18 -58 1 -2 16 19 32 45 36 58 36 96 2 144 -23 32 -34 59 -25 59 8 0 76
-114 76 -128 0 -24 -29 -76 -61 -111 -16 -18 -28 -38 -26 -44 4 -14 86 100 94
132 7 27 -27 101 -70 155 l-24 29 -1 -29z m32 -98 c15 -32 15 -36 -6 -82 -21
-46 -23 -47 -26 -21 -2 16 4 39 13 53 14 21 14 24 0 24 -11 0 -15 10 -15 36 0
41 11 38 34 -10z"/>
<path d="M1786 1594 c-22 -54 -80 -104 -120 -104 -38 0 -31 -6 19 -14 29 -5
36 -4 25 3 -13 9 -13 11 2 11 9 0 28 -15 42 -33 32 -42 33 -56 4 -31 l-23 19
19 -22 c10 -13 22 -20 26 -18 4 3 11 -7 14 -21 4 -15 9 -24 12 -21 8 8 -18 90
-37 115 -14 18 -15 27 -6 46 7 13 14 23 17 21 6 -4 33 85 28 91 -2 1 -12 -17
-22 -42z"/>
<path d="M470 1571 l-44 -56 62 53 c34 30 62 56 62 59 0 3 -6 0 -14 -6 -8 -7
-16 -8 -18 -3 -1 5 -23 -16 -48 -47z"/>
<path d="M1200 1618 c0 -10 7 -36 16 -59 18 -43 18 -36 -16 -176 -5 -19 -4
-31 1 -27 5 3 9 0 9 -7 0 -15 27 6 41 33 7 14 6 18 -5 18 -8 0 -18 -9 -21 -21
-4 -11 -9 -18 -12 -15 -12 12 21 77 53 106 l35 30 -29 25 c-16 14 -39 44 -50
67 -12 24 -21 35 -22 26z"/>
<path d="M2500 1589 c52 -42 107 -80 70 -47 -9 7 -26 26 -38 42 -13 17 -28 31
-35 32 -7 1 -21 6 -32 10 -11 4 5 -12 35 -37z"/>
<path d="M1147 1569 c-20 -31 -37 -62 -37 -69 0 -15 62 -119 72 -120 4 0 6 9
5 20 -1 10 -3 17 -6 14 -7 -7 -41 66 -41 87 0 26 22 69 32 63 11 -7 21 19 16
43 -2 13 -13 3 -41 -38z"/>
<path d="M2100 1568 c-3 -25 -3 -45 -1 -42 2 2 10 -1 17 -7 8 -7 14 -7 19 1 4
6 1 9 -7 8 -9 -2 -15 12 -18 42 l-6 45 -4 -47z"/>
<path d="M900 1574 c0 -8 -4 -13 -9 -9 -13 7 -22 -10 -16 -27 11 -29 35 -16
35 19 0 18 -2 33 -5 33 -3 0 -5 -7 -5 -16z"/>
<path d="M2464 1553 c28 -30 38 -35 48 -25 9 9 9 12 -3 12 -9 0 -26 11 -39 25
-13 14 -27 25 -32 25 -5 0 7 -17 26 -37z"/>
<path d="M1686 1569 c-15 -9 -16 -13 -5 -21 11 -7 9 -9 -7 -5 -13 3 -21 -1
-21 -9 0 -10 7 -10 34 1 18 8 41 19 50 25 20 13 22 13 -34 -6 -15 -5 -15 -3 1
10 22 18 11 21 -18 5z"/>
<path d="M1194 1548 c3 -10 -3 -23 -16 -32 -12 -8 -17 -19 -13 -26 6 -9 10 -9
17 1 6 10 8 4 5 -19 -6 -51 11 -48 19 3 4 29 2 55 -5 68 -6 12 -9 14 -7 5z"/>
<path d="M400 1465 c25 -28 58 -66 74 -85 l28 -35 -23 42 c-12 24 -45 62 -73
85 l-51 42 45 -49z"/>
<path d="M2544 1466 c-17 -17 -34 -42 -37 -56 -5 -24 -5 -24 16 4 29 40 68 76
80 76 6 0 2 -9 -8 -20 -25 -28 -3 -25 23 3 l21 22 -32 1 c-24 1 -40 -7 -63
-30z"/>
<path d="M450 1465 c14 -17 31 -34 38 -38 7 -5 9 -13 6 -19 -5 -7 -2 -8 6 -3
10 6 12 4 7 -8 -3 -9 -1 -19 5 -23 7 -4 8 -3 4 4 -11 18 5 14 28 -5 11 -10 3
2 -19 27 -22 25 -53 56 -70 70 l-30 24 25 -29z"/>
<path d="M1022 1408 c-44 -71 -85 -179 -80 -207 2 -9 14 13 27 49 26 73 91
203 98 196 4 -4 -65 -168 -88 -209 -11 -20 -3 -41 12 -31 5 3 7 9 4 14 -5 8
27 32 36 27 2 -1 -2 4 -10 11 -8 6 -10 12 -4 12 6 0 10 8 9 18 -4 22 15 52 28
45 5 -4 7 1 3 11 -5 13 -3 17 7 13 10 -4 13 -1 9 9 -3 7 -2 14 2 14 12 0 72
-69 66 -76 -3 -4 4 -1 16 5 l23 12 -33 35 c-17 19 -43 54 -57 78 l-25 43 -43
-69z"/>
<path d="M1655 1425 c29 -24 78 -49 70 -36 -3 6 -25 20 -48 32 -29 14 -36 15
-22 4z"/>
<path d="M1737 1398 c7 -8 9 -19 5 -23 -4 -5 -1 -5 6 -1 7 4 15 1 18 -8 3 -8
13 -17 21 -20 11 -5 8 4 -9 26 -14 17 -31 34 -39 37 -11 3 -12 1 -2 -11z"/>
<path d="M2337 1375 c12 -24 19 -31 25 -23 11 18 10 30 -2 23 -5 -3 -10 3 -10
14 0 12 -7 21 -15 21 -13 0 -12 -5 2 -35z"/>
<path d="M1378 1376 c-21 -11 -38 -25 -38 -29 0 -17 32 -19 48 -3 16 16 15 17
-13 7 -25 -9 -27 -8 -11 2 25 17 62 47 56 46 -3 -1 -22 -11 -42 -23z"/>
<path d="M1590 1370 c0 -12 26 -30 50 -35 18 -3 20 -2 10 10 -6 8 -19 11 -27
8 -12 -5 -15 -2 -11 9 4 9 0 15 -8 15 -8 0 -14 -4 -14 -7z"/>
<path d="M1673 1367 c10 -8 14 -17 10 -19 -4 -3 -2 -3 5 -2 6 2 12 -1 12 -6 0
-5 8 -11 18 -13 10 -3 5 -5 -13 -7 l-30 -2 27 -8 c14 -4 41 -4 60 0 28 6 30 8
13 14 -11 4 -42 18 -70 32 -27 14 -42 19 -32 11z"/>
<path d="M1310 1361 c0 -5 -17 -15 -37 -21 -62 -20 -62 -30 -1 -30 31 0 59 4
62 9 3 4 -11 7 -32 5 l-37 -3 33 16 c31 16 43 33 22 33 -5 0 -10 -4 -10 -9z"/>
<path d="M1422 1353 c-11 -23 -3 -113 10 -113 6 0 8 -6 5 -14 -9 -23 14 -38
30 -18 13 15 13 14 3 -6 -9 -18 -8 -26 5 -38 13 -14 15 -12 15 24 0 26 -5 42
-15 46 -8 3 -15 0 -15 -7 0 -6 -7 -1 -16 11 -11 17 -15 39 -12 78 5 58 3 63
-10 37z"/>
<path d="M1557 1357 c-6 -16 9 -75 17 -66 2 2 1 22 -3 44 -5 29 -9 35 -14 22z"/>
<path d="M1365 1310 c-16 -8 -31 -18 -33 -22 -2 -4 -9 -5 -15 -3 -7 2 -32 6
-56 10 l-44 6 51 -36 c28 -19 54 -35 56 -35 10 0 126 -73 123 -77 -9 -8 -123
49 -177 89 l-55 41 35 -37 c41 -44 139 -97 188 -102 33 -3 33 -2 18 19 -9 12
-23 32 -32 44 -9 13 -19 44 -23 71 l-6 48 -30 -16z m3 -31 c-2 -3 4 -14 12
-24 14 -17 14 -17 -7 -7 -38 21 -39 13 0 -13 46 -32 48 -38 5 -16 -51 26 -89
53 -84 59 3 3 12 0 19 -7 11 -9 17 -8 27 4 12 14 36 17 28 4z"/>
<path d="M1607 1291 c-3 -20 -9 -47 -13 -59 -6 -22 -5 -23 14 -11 11 7 18 19
15 26 -4 9 0 11 13 6 12 -4 15 -3 10 5 -4 7 -4 12 1 13 4 0 20 2 34 4 l27 3
-24 -25 c-13 -15 -28 -22 -35 -17 -8 4 -9 3 -5 -4 6 -10 -7 -17 -17 -9 -2 1
-11 -4 -20 -12 -10 -7 -17 -11 -17 -7 0 3 -13 -8 -30 -26 -19 -22 -30 -28 -30
-18 0 9 9 22 19 29 11 8 17 20 14 28 -3 7 0 13 6 13 6 0 11 5 11 11 0 8 -5 8
-15 -1 -8 -7 -15 -18 -15 -26 0 -7 -5 -16 -12 -20 -6 -4 -8 -3 -5 4 4 5 3 20
-1 33 -8 20 -10 17 -15 -21 -3 -25 -1 -50 4 -56 24 -29 140 10 217 73 25 20
43 30 40 22 -9 -28 -103 -88 -171 -110 l-70 -22 44 -14 c57 -16 70 -16 39 2
-32 18 -27 18 38 1 54 -15 54 -15 48 7 -3 12 -6 25 -6 29 0 4 -8 5 -17 1 -22
-8 -15 1 13 15 19 10 21 9 16 -13 -2 -14 0 -25 6 -25 6 0 14 17 18 38 4 20 9
31 11 25 3 -7 9 -13 14 -13 6 0 9 6 8 13 -1 6 3 25 10 41 6 16 9 31 7 34 -3 2
-1 12 4 22 8 15 4 17 -48 13 -42 -3 -66 1 -93 15 l-37 19 -5 -36z m134 -42
c-46 -41 -163 -103 -183 -97 -6 2 22 23 63 45 41 23 90 53 109 67 54 38 60 30
11 -15z"/>
<path d="M1138 1265 c-25 -18 -72 -47 -104 -63 l-59 -30 35 -14 c54 -23 161
-56 202 -63 l37 -6 -14 40 c-7 22 -19 68 -26 101 -6 33 -15 62 -18 64 -4 3
-27 -11 -53 -29z m21 -33 c-11 -14 -11 -15 1 -4 8 6 18 12 22 12 13 0 9 -35
-4 -49 -8 -9 -8 -11 -2 -8 12 7 24 -12 30 -45 2 -10 -1 -18 -7 -18 -5 0 -8 4
-4 9 3 5 1 12 -5 16 -6 4 -7 11 -4 17 4 7 2 8 -4 4 -6 -4 -9 -13 -5 -21 3 -10
-1 -15 -12 -15 -9 0 -13 5 -10 10 3 6 -1 10 -10 10 -9 0 -13 -4 -10 -10 4 -6
-1 -7 -12 -4 -53 17 -72 27 -67 35 3 5 -3 9 -13 10 -12 0 -9 4 10 11 15 5 27
14 27 19 0 5 6 9 13 9 6 0 26 11 42 24 31 25 46 18 24 -12z"/>
<path d="M1788 1198 c-14 -57 -24 -104 -23 -106 1 -2 36 5 76 14 73 17 74 17
44 30 -22 9 -34 9 -44 1 -17 -15 -41 16 -34 44 5 16 8 17 22 7 14 -11 14 -11
3 3 -7 9 -10 27 -8 40 3 13 5 29 6 34 0 6 7 2 15 -9 7 -10 18 -15 23 -12 5 3
17 -3 27 -14 10 -11 23 -20 29 -20 6 0 22 -9 35 -19 l24 -19 -21 -11 c-12 -6
-34 -9 -49 -5 -28 6 -28 6 -6 -10 18 -14 26 -14 52 -3 17 7 28 17 24 21 -4 4
0 4 10 0 28 -10 19 10 -10 23 -16 7 -57 35 -93 63 -36 27 -68 49 -71 50 -3 0
-17 -46 -31 -102z"/>
<path d="M2340 1243 c0 -17 5 -33 12 -35 6 -2 11 -21 11 -41 0 -31 4 -37 21
-38 21 0 21 -1 1 -9 -17 -7 -17 -9 -2 -9 9 -1 18 -8 18 -16 1 -8 2 -20 3 -27
0 -6 6 -13 13 -15 8 -3 6 15 -6 54 -23 73 -42 113 -53 113 -5 0 -6 4 -3 10 3
5 1 18 -4 27 -9 15 -10 13 -11 -14z"/>
<path d="M716 1214 c-3 -26 -6 -61 -5 -78 1 -49 15 -3 21 67 6 68 -7 77 -16
11z"/>
<path d="M632 1194 c-21 -52 -23 -87 -2 -54 7 12 11 12 27 0 17 -14 16 -13 -1
7 -16 20 -17 26 -6 52 6 17 10 35 9 40 -2 6 -14 -14 -27 -45z"/>
<path d="M1220 1242 c0 -19 50 -171 58 -175 4 -2 18 -1 32 4 l25 7 -26 1 c-28
1 -38 17 -59 90 -11 41 1 32 16 -12 l12 -32 9 24 10 25 6 -23 c5 -19 10 -22
31 -17 15 4 26 2 26 -4 0 -15 -60 -12 -60 3 0 6 -5 4 -11 -6 -18 -30 2 -39 50
-22 57 20 85 19 51 -1 -19 -11 -20 -14 -5 -10 11 3 32 8 47 12 32 7 28 24 -6
24 -13 0 -49 13 -81 29 -33 17 -63 27 -68 24 -6 -3 -7 -2 -4 4 4 5 -7 23 -23
38 -17 16 -30 24 -30 17z"/>
<path d="M480 1201 c15 -29 12 -41 -12 -50 -15 -5 -27 -4 -36 6 -8 8 -17 12
-19 9 -11 -10 24 -33 50 -33 17 0 29 6 32 18 4 11 11 19 16 19 6 0 3 7 -5 16
-9 8 -16 20 -16 25 0 5 -5 9 -10 9 -7 0 -7 -6 0 -19z"/>
<path d="M752 1188 c-14 -44 -24 -103 -17 -96 12 11 43 128 35 128 -5 0 -13
-15 -18 -32z"/>
<path d="M2255 1168 c3 -16 0 -28 -8 -31 -9 -4 -9 -6 1 -6 6 -1 12 -7 12 -15
0 -8 4 -18 10 -21 11 -7 3 46 -12 80 -7 16 -7 15 -3 -7z"/>
<path d="M799 1132 c-65 -75 -65 -84 1 -17 24 25 39 45 34 45 -6 0 -22 -12
-35 -28z"/>
<path d="M580 1130 c0 -11 -16 -59 -35 -107 -37 -92 -41 -123 -7 -50 17 36 62
162 62 174 0 1 -4 3 -10 3 -5 0 -10 -9 -10 -20z"/>
<path d="M980 1140 c45 -29 163 -69 220 -75 75 -7 64 8 -15 20 -27 4 -82 20
-122 36 -74 29 -112 38 -83 19z"/>
<path d="M1739 1120 c-8 -21 -20 -33 -42 -39 -18 -5 -24 -10 -15 -10 9 -1 23
-4 31 -7 11 -4 19 8 30 40 9 25 14 46 11 46 -3 0 -10 -13 -15 -30z"/>
<path d="M1930 1118 c-41 -16 -98 -32 -127 -35 -29 -3 -53 -10 -53 -16 0 -26
179 18 250 62 48 29 19 25 -70 -11z"/>
<path d="M887 1121 c-16 -10 -25 -21 -19 -25 5 -3 12 -2 16 1 4 4 15 8 26 10
23 3 27 -19 7 -39 -11 -11 -8 -18 17 -43 22 -23 27 -25 22 -10 -4 11 -10 34
-13 50 -5 25 -4 28 8 19 8 -7 23 -13 33 -15 14 -3 28 -28 52 -99 30 -87 32
-91 33 -54 1 22 -3 44 -8 50 -5 5 -12 24 -16 43 -6 26 -4 32 6 26 7 -5 24 -10
38 -12 60 -7 91 -16 91 -27 0 -6 5 -4 10 4 7 10 10 11 10 2 0 -8 8 -10 25 -6
21 5 25 3 25 -15 0 -12 5 -21 11 -21 5 0 7 -4 4 -10 -3 -5 3 -17 15 -27 25
-21 26 -33 3 -34 -12 -1 -10 -3 6 -8 32 -9 69 -57 55 -71 -6 -6 -48 -13 -94
-15 -46 -3 -86 -8 -89 -11 -3 -4 47 -4 111 0 80 5 118 3 123 -4 4 -6 18 -16
32 -21 15 -6 23 -15 20 -23 -4 -10 0 -12 15 -8 18 4 20 2 13 -14 -10 -25 -8
-55 4 -67 8 -8 11 -4 11 11 0 12 -5 22 -10 22 -7 0 -6 6 1 18 16 27 -4 67 -48
92 -45 26 -90 82 -139 176 l-36 69 -56 2 c-68 2 -192 43 -238 78 -39 30 -41
30 -77 6z"/>
<path d="M2011 1100 c-80 -43 -199 -74 -241 -65 -24 5 -28 1 -48 -47 -31 -75
-112 -178 -163 -209 -43 -25 -44 -26 -47 -83 -2 -36 1 -56 7 -52 5 4 9 19 9
35 -1 37 11 58 23 40 7 -11 9 -9 9 6 1 19 1 19 14 2 9 -12 16 -14 21 -8 3 6
11 11 16 11 6 0 8 -4 4 -9 -3 -6 34 -8 90 -7 84 2 95 1 91 -13 -3 -9 2 -6 10
7 9 12 24 22 33 22 9 0 22 5 29 12 44 44 -43 -113 -104 -188 -49 -60 -51 -64
-28 -64 8 0 12 5 9 10 -4 6 6 10 22 11 33 1 79 17 51 18 -57 3 -7 60 58 67 26
2 53 9 60 15 8 6 14 8 14 3 0 -4 7 1 15 12 8 10 15 15 15 10 0 -16 100 93 100
109 0 9 20 20 52 30 66 19 66 19 71 -7 4 -20 4 -19 6 5 1 19 6 27 20 27 11 0
21 -3 24 -7 2 -5 3 -3 2 2 -1 6 6 19 16 29 31 32 22 -1 -22 -84 -107 -202
-140 -295 -125 -354 9 -38 13 -31 21 34 3 30 11 71 17 90 19 61 74 167 99 191
15 15 23 33 21 49 -5 51 51 104 104 99 4 0 10 5 15 12 4 7 24 14 43 15 43 4
85 23 51 24 -31 0 -172 -36 -250 -64 -119 -42 -234 -67 -299 -65 -41 2 -82 -5
-125 -19 -73 -25 -175 -28 -231 -8 l-34 13 32 6 c19 4 31 11 27 17 -4 6 16 11
52 12 42 1 48 2 21 5 -42 5 -47 15 -19 40 11 9 18 20 15 25 -3 4 0 8 5 8 6 0
11 6 11 14 0 7 7 19 15 26 8 7 12 16 9 21 -3 5 5 9 18 9 16 0 19 3 10 9 -11 7
-12 12 -1 29 14 22 49 37 49 21 0 -12 53 1 62 15 4 6 8 7 8 2 0 -6 5 -5 12 2
16 16 41 16 32 0 -6 -10 -4 -10 7 -2 8 6 22 14 33 18 16 5 17 3 12 -21 -4 -16
-15 -39 -24 -53 -12 -17 -16 -36 -12 -60 5 -32 7 -28 34 58 26 79 35 95 62
111 l32 19 5 -24 c2 -13 0 -24 -4 -24 -5 0 -9 -7 -9 -17 0 -15 1 -15 18 0 10
10 27 17 37 17 10 0 15 3 11 7 -4 4 -14 8 -22 8 -7 0 -14 3 -14 8 0 33 1 37
12 31 8 -5 9 -2 5 10 -6 15 -2 14 26 -4 l32 -22 -34 31 c-18 17 -34 31 -35 30
0 0 -34 -18 -75 -39z m41 -368 c-40 -50 -98 -90 -158 -108 -54 -16 -87 -19
-66 -5 8 4 12 12 10 16 -1 4 20 18 47 31 28 13 40 21 29 19 -26 -7 -39 18 -24
45 12 22 58 32 84 18 18 -10 31 -6 86 22 26 13 23 2 -8 -38z"/>
<path d="M1397 1081 c-73 -24 -78 -28 -72 -50 6 -24 124 -183 145 -196 6 -3
10 3 10 14 0 12 -5 21 -11 21 -6 0 -8 9 -4 23 5 20 5 20 -9 -3 l-15 -25 -1 27
c0 18 -9 33 -25 44 -15 10 -25 26 -25 41 0 13 -4 22 -9 19 -5 -4 -7 3 -4 15 4
12 0 25 -8 30 -9 5 -1 7 24 6 21 -2 47 3 57 10 19 13 24 10 21 -10 -1 -5 3 -6
8 -3 10 7 12 67 2 64 -3 0 -41 -13 -84 -27z"/>
<path d="M1510 1051 c0 -43 4 -61 13 -61 9 0 11 13 9 43 -3 34 -2 40 9 30 9
-9 16 -10 26 -2 10 9 15 6 21 -12 6 -15 11 -18 16 -11 14 22 27 12 15 -10 -11
-20 -10 -21 3 -11 19 16 27 8 21 -18 -5 -16 -8 -18 -14 -7 -6 9 -9 5 -9 -14 0
-18 -7 -29 -20 -33 -11 -4 -18 -11 -15 -16 4 -5 1 -9 -4 -9 -6 0 -12 -8 -12
-17 -1 -10 -5 -2 -9 17 l-7 35 -2 -40 c-1 -30 -4 -36 -11 -25 -8 12 -10 9 -10
-12 0 -14 -3 -35 -6 -45 -9 -29 63 55 117 136 27 40 49 76 49 80 0 3 -33 16
-74 28 -41 13 -81 26 -90 29 -14 5 -16 -3 -16 -55z"/>
<path d="M580 1031 c-14 -27 -13 -36 4 -22 9 7 17 8 20 2 3 -5 -11 -23 -32
-41 -29 -25 -30 -27 -6 -11 41 27 58 48 45 55 -6 4 -8 13 -4 21 8 22 -15 18
-27 -4z"/>
<path d="M1311 989 c18 -33 62 -91 97 -127 63 -66 56 -53 -33 59 -24 31 -52
73 -61 93 -10 20 -22 36 -26 36 -5 0 5 -27 23 -61z"/>
<path d="M1683 1002 c-13 -26 -48 -77 -78 -115 -61 -74 -71 -96 -24 -51 50 48
153 215 131 214 -4 -1 -17 -22 -29 -48z"/>
<path d="M850 1030 c0 -5 3 -10 8 -10 4 -1 18 -10 31 -21 21 -17 22 -22 10
-30 -12 -7 -11 -9 3 -9 9 0 18 5 20 12 3 8 12 4 26 -10 29 -29 43 -28 29 2 -7
13 -15 23 -18 20 -4 -2 -25 10 -48 26 -42 31 -61 37 -61 20z"/>
<path d="M824 1009 c0 -11 7 -19 16 -19 9 0 21 -5 28 -12 7 -7 12 -8 11 -2 0
5 -12 19 -27 30 -26 21 -28 21 -28 3z"/>
<path d="M2218 1024 c-4 -3 -12 -7 -20 -8 -7 -2 -26 -9 -41 -16 -24 -12 -30
-12 -38 1 -6 9 -12 10 -16 4 -5 -6 -19 -11 -33 -10 -19 0 -31 -10 -48 -40 -13
-22 -34 -51 -46 -65 -28 -31 -68 -101 -62 -107 8 -9 46 8 41 18 -4 5 6 9 22 9
43 0 103 12 103 20 0 4 -19 4 -42 -1 -59 -11 -88 -11 -88 1 0 6 8 10 17 10 9
0 14 3 10 6 -3 3 9 21 26 39 28 30 37 33 75 31 32 -3 55 3 87 20 63 36 74 55
14 26 -29 -14 -76 -28 -107 -30 -52 -4 -56 -4 -43 12 8 10 21 14 32 11 14 -5
17 -2 13 9 -4 10 -1 16 7 17 84 5 112 11 140 28 19 12 27 21 18 21 -9 0 -18
-3 -21 -6z"/>
<path d="M2420 1010 c0 -5 -7 -10 -16 -10 -13 0 -10 -6 10 -25 32 -30 47 -33
21 -5 -10 11 -15 23 -11 27 4 4 11 1 16 -7 11 -17 13 -9 4 14 -7 18 -24 22
-24 6z"/>
<path d="M770 987 c32 -33 130 -90 130 -76 0 8 5 8 14 -1 8 -6 25 -10 38 -9
26 4 51 -8 43 -21 -3 -5 4 -11 15 -15 11 -3 25 -15 30 -26 9 -17 7 -19 -18
-19 -54 0 -119 27 -151 61 -24 28 -29 30 -25 12 6 -23 -6 -25 -41 -6 -11 6
-24 12 -30 12 -23 3 -45 13 -45 21 0 5 -7 7 -15 4 -8 -4 -22 -1 -30 6 -8 6
-20 8 -26 4 -8 -5 -9 -3 -4 5 6 10 -4 11 -41 6 -60 -8 -69 -15 -19 -15 50 0
116 -20 108 -33 -3 -6 -1 -7 6 -3 6 4 21 4 33 0 21 -6 21 -7 3 -20 -10 -8 -14
-14 -9 -14 6 0 15 5 21 11 11 11 123 -16 134 -33 3 -5 38 -15 77 -21 39 -7 77
-18 84 -25 6 -6 18 -12 25 -12 7 0 13 -4 13 -10 0 -5 -6 -10 -14 -10 -45 0
-199 38 -325 80 -160 53 -230 67 -257 52 -16 -9 -16 -10 4 -21 12 -7 22 -8 22
-3 0 6 14 9 30 8 17 0 30 -4 30 -8 0 -5 -4 -8 -10 -8 -5 0 -14 -9 -20 -20 -7
-14 -7 -20 0 -20 5 0 10 7 10 15 0 21 27 19 39 -2 9 -15 10 -15 11 -2 0 8 -6
21 -12 28 -11 11 -10 12 2 8 8 -3 35 -12 59 -19 38 -11 46 -19 62 -56 18 -42
17 -68 -2 -57 -5 4 -9 1 -9 -4 0 -6 5 -11 11 -11 5 0 8 -4 4 -9 -3 -5 5 -11
17 -13 35 -5 105 -153 119 -250 11 -77 29 -98 29 -34 0 56 -30 136 -103 278
-39 75 -68 140 -65 144 4 3 17 -9 29 -27 11 -19 19 -27 16 -18 -4 13 -1 15 14
12 10 -3 17 -8 15 -12 -2 -3 16 -7 40 -8 44 -2 94 -26 94 -46 0 -10 18 -28 92
-94 35 -31 92 -54 115 -46 14 5 77 -26 69 -34 -3 -4 -1 -12 6 -20 19 -23 -5
-35 -61 -32 -28 2 -51 0 -51 -5 0 -9 157 -2 167 8 11 11 -72 95 -94 96 -54 0
-138 44 -191 98 -29 30 -51 56 -48 59 3 3 19 -2 37 -11 17 -9 36 -13 42 -9 5
3 7 1 4 -4 -4 -6 0 -17 9 -24 13 -11 15 -10 12 6 -2 13 4 19 24 22 26 3 49
-19 84 -81 6 -11 15 -21 22 -24 6 -2 -3 21 -19 52 l-30 54 25 -11 c13 -6 23
-14 21 -17 -2 -3 43 -5 98 -5 56 0 110 -3 119 -7 14 -7 16 -5 11 9 -5 12 -2
15 10 10 9 -3 21 1 29 10 11 15 11 16 -7 8 -11 -4 -52 -10 -92 -13 -95 -6
-212 27 -248 70 -14 16 -25 34 -25 39 0 6 -15 28 -32 49 -30 36 -38 40 -79 40
-57 0 -121 22 -168 57 l-36 26 25 -26z"/>
<path d="M697 994 c-3 -3 -3 -12 -1 -19 3 -7 0 -16 -7 -21 -8 -5 -10 -3 -4 6
5 9 4 11 -4 6 -9 -6 -9 -11 0 -22 16 -19 39 0 39 32 0 23 -10 31 -23 18z"/>
<path d="M1116 979 c10 -11 34 -30 53 -42 50 -30 71 -49 71 -64 0 -6 3 -14 8
-16 4 -3 7 5 7 17 0 16 -20 35 -78 73 -44 29 -71 43 -61 32z"/>
<path d="M1885 985 c-11 -7 -46 -30 -78 -50 -32 -20 -57 -39 -54 -41 6 -6 142
80 152 95 8 14 5 13 -20 -4z"/>
<path d="M2288 979 c-7 -18 1 -41 12 -34 5 3 11 1 15 -5 3 -6 -1 -13 -10 -17
-10 -3 -21 0 -26 8 -7 11 -9 11 -9 1 0 -7 -4 -10 -10 -7 -5 3 -10 1 -10 -6 0
-7 -3 -9 -6 -6 -4 4 -20 -3 -35 -14 -16 -11 -29 -17 -29 -13 0 4 -8 0 -17 -8
-10 -9 -27 -18 -38 -20 -16 -3 -15 -5 8 -10 15 -3 25 -3 22 0 -6 6 151 61 178
62 23 0 22 12 -3 28 -12 7 -24 22 -29 34 -5 15 -9 17 -13 7z"/>
<path d="M1730 788 c0 -11 90 -9 115 2 13 5 -3 8 -47 7 -37 -1 -68 -5 -68 -9z"/>
<path d="M2188 678 c-51 -75 -67 -110 -73 -159 l-5 -44 15 39 c8 22 17 51 20
64 2 13 19 47 38 75 42 65 49 77 44 77 -2 0 -20 -24 -39 -52z"/>
<path d="M861 690 c0 -14 10 -49 24 -79 14 -29 28 -71 31 -92 4 -21 10 -37 14
-34 13 8 3 50 -24 103 -14 29 -30 69 -35 89 -7 29 -9 32 -10 13z"/>
<path d="M1675 658 c-11 -22 -40 -64 -65 -92 -39 -44 -41 -48 -15 -32 31 21
62 55 63 70 0 5 5 12 11 15 13 9 44 81 34 81 -5 0 -17 -19 -28 -42z"/>
<path d="M843 620 c19 -36 40 -89 47 -117 8 -29 16 -51 18 -49 8 8 -20 116
-29 116 -6 0 -8 4 -4 9 3 5 1 12 -5 16 -6 4 -8 10 -5 15 3 5 -8 24 -25 42
l-30 33 33 -65z"/>
<path d="M1382 649 c2 -12 14 -28 28 -36 l25 -15 -22 20 c-26 23 -31 47 -7 38
8 -3 12 -2 9 4 -12 19 -37 11 -33 -11z"/>
<path d="M1586 661 c-4 -5 -3 -16 0 -24 3 -9 -3 -24 -14 -35 -21 -21 -46 -62
-38 -62 14 0 65 86 60 102 -4 12 0 18 11 18 11 0 15 -5 11 -16 -3 -8 -2 -12 4
-9 6 3 10 13 10 21 0 15 -35 20 -44 5z"/>
<path d="M1456 635 c4 -11 11 -24 15 -30 4 -5 12 -26 18 -45 11 -35 11 -35 6
10 -4 26 -14 53 -26 65 -20 20 -20 20 -13 0z"/>
<path d="M1530 632 c-16 -13 -21 -26 -18 -49 3 -30 3 -30 25 18 12 27 20 49
18 49 -1 0 -13 -8 -25 -18z"/>
<path d="M1745 630 c-11 -12 -20 -28 -21 -36 -2 -15 -46 -54 -61 -55 -4 -1
-16 -5 -26 -11 -10 -5 -31 -12 -45 -14 -35 -7 -41 -14 -11 -14 13 0 36 7 52
14 17 10 27 11 27 4 0 -16 71 60 75 80 1 9 9 16 16 14 8 -2 11 0 7 4 -4 4 -3
13 3 21 18 21 4 15 -16 -7z"/>
<path d="M2111 601 c-11 -27 -21 -60 -20 -73 1 -19 2 -18 9 7 4 17 15 47 24
69 10 21 15 40 13 42 -2 3 -14 -18 -26 -45z"/>
<path d="M910 632 c0 -8 6 -26 14 -40 8 -15 17 -36 20 -46 4 -10 9 -16 12 -13
3 3 -6 29 -20 59 -14 29 -26 47 -26 40z"/>
<path d="M1736 564 c-99 -113 -216 -274 -216 -297 0 -6 15 9 33 35 17 25 73
99 122 163 50 65 96 126 104 136 26 36 6 19 -43 -37z"/>
<path d="M1340 605 c0 -3 18 -22 40 -43 30 -30 36 -42 28 -50 -9 -9 -7 -12 9
-12 12 0 25 5 28 11 4 6 12 8 19 6 15 -6 20 40 5 49 -8 4 -9 -1 -4 -17 7 -23
6 -23 -24 5 -32 31 -43 26 -14 -6 9 -10 12 -18 6 -18 -5 0 -24 18 -42 40 -28
35 -51 51 -51 35z"/>
<path d="M1006 569 c-15 -12 -25 -24 -22 -26 3 -3 -5 -14 -17 -24 -12 -10 -18
-18 -13 -19 5 0 1 -10 -10 -22 -10 -13 0 -7 22 12 47 39 62 62 36 53 -9 -3 -3
6 13 21 36 31 29 35 -9 5z"/>
<path d="M1987 569 c38 -24 35 -42 -5 -34 -22 5 -20 3 8 -10 19 -9 45 -26 57
-37 31 -29 29 -4 -2 27 -13 14 -21 25 -18 25 4 0 -4 11 -17 25 -13 14 -31 25
-39 25 -9 0 -2 -9 16 -21z"/>
<path d="M1290 520 c0 -5 10 -16 22 -24 12 -9 19 -16 15 -16 -5 0 27 -46 69
-102 90 -119 101 -132 84 -98 -19 36 -110 169 -121 176 -5 3 -9 10 -9 16 0 6
9 3 19 -6 12 -11 21 -14 26 -7 3 6 11 11 18 11 8 0 8 -3 -1 -12 -7 -7 -12 -19
-12 -27 1 -13 3 -13 11 2 6 9 15 15 20 11 5 -3 8 0 7 7 -2 6 3 14 11 17 9 3
11 0 6 -8 -6 -9 -4 -11 4 -5 22 13 -2 24 -63 27 -43 2 -65 9 -82 25 -13 12
-24 18 -24 13z"/>
<path d="M1015 499 c-58 -29 -64 -40 -11 -21 25 9 48 22 51 29 5 16 8 16 -40
-8z"/>
<path d="M1260 500 c-12 -8 -12 -10 5 -10 18 -1 18 -2 3 -11 -9 -5 -72 -16
-140 -25 -151 -18 -194 -30 -219 -62 -27 -35 -16 -39 24 -9 22 17 57 30 98 36
35 6 80 13 99 16 19 4 52 6 72 5 20 0 39 4 43 10 3 5 13 10 22 10 19 0 55 -39
47 -52 -3 -5 3 -12 15 -15 11 -3 18 -9 15 -14 -3 -5 2 -12 11 -15 9 -4 14 -13
11 -21 -3 -8 -2 -12 3 -9 4 3 23 -15 40 -39 35 -48 65 -63 36 -17 -22 33 -166
232 -168 232 -1 0 -9 -5 -17 -10z"/>
<path d="M1645 490 c-3 -5 -24 -10 -45 -10 -21 0 -41 -4 -44 -9 -4 -5 2 -7 13
-4 25 7 35 -12 19 -39 -9 -17 -13 -19 -15 -8 -2 9 -14 22 -26 29 -22 14 -22
14 -3 -7 13 -15 16 -29 12 -47 -9 -36 7 -31 37 13 15 20 36 49 47 65 12 15 19
27 16 27 -2 0 -8 -4 -11 -10z"/>
<path d="M562 474 c-28 -20 -28 -45 1 -72 50 -47 110 -5 84 58 -10 24 -11 24
-16 -15 -5 -34 -10 -40 -30 -40 -13 0 -29 8 -35 18 -9 15 -7 21 9 33 11 8 25
12 32 10 7 -3 13 1 13 9 0 20 -30 19 -58 -1z"/>
<path d="M1689 457 c-46 -58 -127 -174 -144 -207 -22 -43 -12 -49 13 -8 11 18
31 44 44 58 13 13 37 43 54 67 17 24 34 40 37 36 4 -3 7 1 7 10 0 10 5 17 10
17 6 0 10 7 10 15 0 8 5 15 10 15 6 0 10 -3 10 -7 0 -5 26 -9 58 -11 134 -6
292 -40 292 -62 0 -4 7 -11 16 -14 17 -6 12 6 -14 37 -20 23 -63 33 -216 52
-71 9 -137 20 -146 25 -12 6 -22 1 -41 -23z"/>
<path d="M1890 470 c74 -11 136 -18 138 -16 10 10 -74 25 -168 29 l-105 6 135
-19z"/>
<path d="M2365 466 c-12 -18 -14 -30 -6 -44 27 -51 70 -52 91 -1 11 25 10 32
-5 49 -25 27 -61 25 -80 -4z m68 -17 c15 -24 1 -49 -27 -49 -29 0 -44 33 -25
56 15 18 38 15 52 -7z"/>
<path d="M995 460 c-22 -11 -29 -17 -16 -14 14 4 63 12 110 19 l86 12 -70 1
c-51 1 -81 -4 -110 -18z"/>
<path d="M1466 389 c-4 -29 -3 -56 1 -60 4 -4 9 19 11 52 3 73 -3 77 -12 8z"/>
<path d="M1221 382 c8 -13 20 -17 42 -14 32 5 23 14 -26 26 -25 6 -26 5 -16
-12z"/>
<path d="M1773 393 c-14 -3 -23 -12 -23 -23 0 -17 3 -18 23 -9 13 6 24 17 24
25 0 8 -1 13 -1 13 -1 -1 -11 -4 -23 -6z"/>
</g>
</svg>
