<svg xmlns="http://www.w3.org/2000/svg" width="1000" height="1000" viewBox="0 0 1000 1000">
  <circle cx="500" cy="500" r="420" fill="none" stroke="#000" stroke-width="18"/>
  <g fill="#000" transform="translate(500,500)">
    <path d="M0,-360 C60,-340 90,-290 110,-240 C130,-190 120,-110 0,-20 C-120,-110 -130,-190 -110,-240 C-90,-290 -60,-340 0,-360 Z" opacity="0.9"/>
    <path d="M0,-360 C60,-340 90,-290 110,-240 C130,-190 120,-110 0,-20 C-120,-110 -130,-190 -110,-240 C-90,-290 -60,-340 0,-360 Z" opacity="0.9" transform="rotate(45)"/>
  </g>
</svg>
