<?xml version="1.0" standalone="no"?>
<!DOCTYPE svg PUBLIC "-//W3C//DTD SVG 20010904//EN"
 "http://www.w3.org/TR/2001/REC-SVG-20010904/DTD/svg10.dtd">
<svg version="1.0" xmlns="http://www.w3.org/2000/svg"
 width="300.000000pt" height="300.000000pt" viewBox="0 0 300.000000 300.000000"
 preserveAspectRatio="xMidYMid meet">
<metadata>
Created by potrace 1.10, written by Peter Selinger 2001-2011
</metadata>
<g transform="translate(0.000000,300.000000) scale(0.100000,-0.100000)"
fill="#000000" stroke="none">
<path d="M330 2275 l0 -725 28 0 c15 0 33 5 40 12 9 9 12 9 12 0 0 -7 12 -12
26 -12 25 0 26 1 22 60 -1 33 0 60 5 60 4 0 7 11 7 23 0 43 39 179 76 261 19
45 38 86 40 93 3 6 -6 17 -20 25 -126 67 -217 121 -212 125 5 5 168 -78 219
-112 24 -15 25 -15 85 67 65 90 147 173 230 232 79 57 79 62 24 150 -26 42
-51 84 -57 94 -87 154 -141 241 -143 230 -1 -8 18 -52 44 -99 70 -125 84 -155
85 -186 l0 -28 10 24 10 24 23 -34 c13 -19 22 -37 20 -41 -2 -4 0 -9 6 -13 18
-11 11 -64 -10 -77 -11 -7 -20 -18 -20 -25 0 -6 -9 -15 -21 -18 -29 -10 -163
-138 -217 -210 -58 -76 -61 -77 -91 -56 -15 10 -42 25 -61 35 -19 9 -42 21
-50 26 -8 5 -23 11 -33 14 -36 11 -39 48 -33 434 l6 372 -25 0 -25 0 0 -725z
m135 -167 c69 -35 89 -64 66 -100 -9 -14 -8 -18 1 -19 7 0 3 -5 -9 -11 -28
-14 -38 -38 -15 -38 16 -1 16 -1 0 -11 -10 -5 -18 -17 -18 -26 0 -9 -10 -48
-21 -87 -12 -39 -27 -107 -33 -151 -12 -77 -13 -80 -39 -81 l-28 -1 2 271 c0
149 3 274 6 279 7 12 20 8 88 -25z"/>
<path d="M1429 2968 c0 -18 -2 -40 -4 -48 -1 -8 -5 -53 -8 -100 -7 -93 -5 -88
33 82 24 105 24 98 0 98 -16 0 -20 -7 -21 -32z"/>
<path d="M1535 2983 c4 -10 15 -63 26 -118 26 -133 30 -138 23 -25 -7 138 -12
160 -36 160 -15 0 -18 -4 -13 -17z"/>
<path d="M2621 2618 c3 -384 0 -428 -32 -428 -6 0 -41 -18 -79 -40 -38 -22
-77 -40 -87 -40 -10 1 -37 27 -63 61 -60 81 -174 195 -210 211 -17 7 -30 17
-30 23 0 6 -9 16 -20 23 -22 14 -26 52 -7 71 6 6 12 15 12 19 0 4 7 22 14 41
13 31 15 32 28 15 12 -17 13 -16 13 7 0 13 14 49 31 79 73 130 99 184 96 194
-3 10 -104 -154 -129 -211 -7 -15 -19 -34 -26 -41 -7 -8 -20 -28 -29 -45 -9
-18 -29 -52 -46 -76 -17 -24 -25 -41 -19 -37 7 4 12 3 12 -3 0 -6 33 -34 73
-64 105 -78 202 -186 273 -305 1 -2 57 27 123 64 67 36 124 64 127 61 6 -5
-28 -27 -123 -78 -54 -29 -63 -38 -63 -62 0 -16 -4 -26 -9 -23 -5 3 -7 16 -4
27 5 19 4 20 -16 10 -11 -7 -21 -14 -21 -17 0 -2 12 -28 26 -57 56 -110 104
-293 104 -398 l0 -49 60 0 60 0 0 725 0 725 -21 0 c-20 0 -20 -2 -18 -382z m7
-750 c2 -237 1 -268 -14 -282 -15 -16 -18 -16 -33 1 -9 10 -16 37 -17 63 -1
50 -41 220 -55 235 -5 5 -9 24 -9 43 0 21 -7 40 -17 48 -11 8 -13 13 -5 14 10
0 10 4 0 20 -19 30 6 67 67 101 84 47 80 59 83 -243z"/>
<path d="M756 2835 c28 -53 219 -373 227 -382 1 -1 38 16 82 37 44 21 116 48
160 60 113 30 110 29 97 42 -8 8 -15 8 -24 1 -7 -6 -38 -16 -68 -23 -55 -13
-86 -25 -167 -61 -23 -10 -50 -19 -60 -19 -20 1 -83 86 -83 113 0 9 -4 17 -8
17 -4 0 -21 23 -36 52 -32 59 -105 171 -137 208 -12 14 -5 -6 17 -45z"/>
<path d="M2209 2806 c-105 -165 -126 -201 -132 -226 -3 -14 -22 -42 -41 -63
-28 -30 -39 -36 -53 -29 -88 44 -219 92 -293 107 -32 6 -34 6 -15 -8 11 -8 49
-23 85 -33 75 -20 194 -68 228 -90 13 -9 27 -12 31 -7 9 9 171 278 224 371 53
92 28 76 -34 -22z"/>
<path d="M663 2569 c-59 -22 -25 -114 34 -93 32 11 40 37 23 70 -16 28 -29 34
-57 23z m41 -34 c8 -23 -4 -45 -25 -45 -22 0 -34 22 -25 45 3 8 14 15 25 15
10 0 21 -7 25 -15z"/>
<path d="M2280 2545 l-23 -24 32 -30 c31 -29 34 -30 56 -15 30 20 39 54 18 76
-23 25 -55 22 -83 -7z m68 -22 c-2 -20 -9 -28 -23 -28 -14 0 -21 8 -23 28 -3
23 0 27 23 27 23 0 26 -4 23 -27z"/>
<path d="M2191 2528 c-1 -35 -18 -44 -42 -22 -10 9 -22 14 -26 11 -3 -4 -1 -7
6 -7 7 0 10 -4 6 -9 -3 -5 4 -13 16 -16 28 -9 52 15 46 46 -4 23 -4 22 -6 -3z"/>
<path d="M847 2504 c-16 -21 -16 -24 -2 -24 9 0 18 7 22 16 5 13 7 13 14 2 5
-8 9 -9 9 -2 0 6 -6 16 -12 22 -10 7 -18 3 -31 -14z"/>
<path d="M1210 2501 c-93 -31 -200 -81 -200 -93 0 -11 -1 -12 76 27 39 18 110
46 160 60 113 32 115 33 79 34 -16 0 -68 -12 -115 -28z"/>
<path d="M1715 2506 c92 -23 240 -81 251 -97 7 -11 24 -12 24 -1 0 12 -143 77
-224 101 -37 12 -85 21 -105 20 -27 0 -14 -6 54 -23z"/>
<path d="M1475 2454 c-12 -33 -3 -101 9 -73 4 9 6 36 4 59 -3 42 -3 42 -13 14z"/>
<path d="M1441 2387 c-8 -12 -21 -32 -29 -44 -8 -13 -10 -23 -4 -23 5 0 19 19
31 42 22 46 23 60 2 25z"/>
<path d="M934 2366 c-97 -65 -212 -185 -280 -290 -38 -59 5 -18 65 61 62 83
147 163 234 222 26 18 47 34 47 36 0 11 -18 3 -66 -29z"/>
<path d="M1036 2392 c-4 -6 5 -29 20 -52 33 -50 39 -51 15 -2 -10 20 -21 44
-23 52 -3 10 -6 11 -12 2z"/>
<path d="M1550 2397 c0 -4 7 -21 15 -36 8 -16 11 -31 8 -35 -4 -3 1 -6 11 -6
15 0 15 2 2 28 -22 39 -36 58 -36 49z"/>
<path d="M2006 2392 c5 -4 44 -34 87 -66 83 -63 166 -148 219 -227 32 -47 51
-59 63 -39 3 5 0 8 -7 5 -8 -3 -25 13 -41 39 -61 98 -275 296 -318 296 -8 0
-9 -3 -3 -8z"/>
<path d="M1949 2360 c-6 -16 -15 -30 -20 -30 -5 0 -9 -8 -9 -17 0 -15 2 -15
13 2 41 60 49 75 38 75 -7 0 -17 -13 -22 -30z"/>
<path d="M1357 2329 c-9 -6 -26 -7 -37 -4 -11 4 -20 2 -20 -3 0 -5 -6 -9 -14
-9 -7 0 -39 -10 -71 -23 -31 -13 -69 -23 -84 -24 -18 -1 -27 -5 -24 -13 3 -7
1 -13 -5 -13 -12 0 -95 -66 -154 -124 l-48 -46 -77 -1 c-43 -1 -87 -1 -98 0
-11 1 -28 -4 -38 -11 -14 -11 2 -13 102 -11 l119 2 44 47 c89 97 259 193 370
209 26 4 53 13 59 21 13 16 2 18 -24 3z"/>
<path d="M1621 2331 c3 -8 31 -20 65 -27 121 -24 274 -112 362 -208 l42 -46
110 0 c67 0 110 4 110 10 0 6 -41 10 -102 10 l-103 0 -50 48 c-69 64 -141 122
-154 122 -6 0 -11 4 -11 8 0 5 -40 21 -90 37 -49 16 -90 33 -90 38 0 5 -14 6
-30 2 -20 -4 -37 -2 -47 7 -14 11 -16 11 -12 -1z"/>
<path d="M1260 2271 c-68 -23 -78 -29 -52 -30 18 -1 49 -8 69 -16 19 -8 37
-15 38 -15 2 0 15 20 28 45 15 27 21 45 14 45 -7 -1 -50 -14 -97 -29z m57 -17
c0 -11 -7 -14 -21 -10 -12 3 -25 6 -31 6 -16 0 18 20 36 20 9 0 16 -7 16 -16z"/>
<path d="M1372 2275 l-12 -25 38 18 c20 11 44 22 52 25 8 3 -3 6 -26 6 -34 1
-43 -3 -52 -24z"/>
<path d="M1579 2284 c18 -8 31 -17 28 -20 -3 -3 -16 -1 -29 6 -19 9 -20 9 -6
-2 9 -7 25 -19 35 -26 17 -12 17 -12 -3 -7 -15 4 -24 0 -28 -11 -5 -14 -4 -15
9 -4 8 7 15 8 15 2 0 -5 7 -13 16 -16 12 -4 15 -2 10 9 -6 17 9 21 19 5 7 -11
40 -7 124 13 l53 13 -87 27 c-49 15 -90 25 -92 23 -3 -2 3 -18 11 -35 25 -48
18 -54 -24 -20 -16 13 -19 19 -8 15 15 -4 16 -2 6 19 -9 20 -18 25 -47 24
l-36 -1 34 -14z m150 -23 c11 -7 11 -10 0 -17 -24 -15 -37 -13 -42 7 -6 20 17
26 42 10z"/>
<path d="M1465 2270 c-3 -5 -1 -18 4 -29 8 -14 8 -20 0 -23 -8 -3 -7 -13 4
-33 l16 -30 1 63 c0 57 -9 77 -25 52z"/>
<path d="M1511 2218 l0 -62 18 30 c16 25 17 31 4 41 -8 6 -10 14 -4 17 5 3 11
0 14 -6 3 -10 8 -10 17 -2 9 9 6 15 -11 28 -13 9 -27 16 -30 16 -4 0 -8 -28
-8 -62z"/>
<path d="M1386 2225 c-11 -8 -16 -18 -12 -22 4 -4 11 -2 15 6 7 10 11 10 22
-1 8 -7 23 -20 33 -28 18 -14 18 -14 8 5 -15 25 -38 55 -43 55 -2 0 -13 -7
-23 -15z"/>
<path d="M1132 2200 c-37 -23 -46 -25 -36 -8 12 20 -47 -26 -111 -86 l-60 -56
54 3 c54 2 54 2 66 42 13 46 35 89 41 82 2 -2 -3 -20 -11 -40 -8 -20 -14 -40
-13 -44 1 -5 -13 -38 -31 -75 -19 -39 -36 -91 -40 -122 -5 -50 -10 -57 -48
-85 -24 -17 -56 -50 -73 -72 l-30 -42 22 -36 c11 -20 39 -55 62 -78 l40 -43
-34 -35 c-18 -19 -36 -32 -39 -30 -2 3 8 18 23 33 l27 29 -52 -3 c-56 -4 -64
-7 -55 -23 5 -7 13 -7 26 1 11 7 22 9 26 5 9 -9 -26 -48 -37 -41 -5 3 -9 -4
-9 -15 0 -29 17 -35 30 -10 7 11 14 18 17 15 3 -2 -4 -18 -16 -35 -12 -16 -21
-42 -20 -58 1 -15 -1 -42 -5 -60 -6 -26 -4 -34 15 -43 12 -7 38 -13 58 -14 57
-3 67 -14 74 -79 4 -39 17 -78 41 -121 19 -35 32 -66 29 -69 -2 -3 4 -25 15
-50 25 -56 90 -92 148 -81 30 5 33 8 20 16 -10 5 -24 7 -32 4 -8 -3 -14 -1
-14 4 0 6 -13 10 -30 10 -16 0 -30 4 -30 9 0 5 -16 24 -35 42 -50 47 -43 56
11 15 106 -81 230 -97 332 -41 l50 27 58 -28 c109 -53 222 -39 328 42 25 19
46 32 46 29 0 -15 -44 -64 -53 -58 -6 3 -7 1 -4 -4 10 -16 -56 -52 -85 -46
-14 3 -28 1 -32 -5 -3 -5 9 -12 26 -16 69 -14 154 57 161 136 2 13 15 47 31
77 17 34 30 77 33 113 6 59 21 76 65 69 22 -3 88 25 88 38 0 5 -4 21 -10 35
-7 20 -4 37 16 81 19 41 26 73 26 123 1 61 -17 160 -27 150 -3 -2 0 -20 5 -39
13 -46 11 -155 -4 -204 l-12 -40 -13 24 c-8 14 -34 46 -59 73 -37 40 -43 50
-32 63 14 17 35 21 25 5 -4 -6 14 -10 46 -10 l51 0 -7 48 c-4 26 -11 50 -17
53 -7 4 -7 13 0 26 13 23 1 45 -57 106 -19 20 -30 37 -24 37 6 0 28 -19 47
-42 20 -23 36 -35 36 -27 0 8 3 23 6 35 5 18 -1 23 -39 33 -25 6 -52 9 -59 6
-26 -9 -45 19 -51 76 -3 32 -17 79 -33 110 -16 30 -29 64 -30 75 -5 40 -32 92
-59 110 -32 21 -116 30 -141 15 -17 -9 -17 -10 7 -11 14 0 47 -11 74 -25 27
-13 53 -21 58 -18 6 3 7 1 3 -6 -4 -6 -1 -14 8 -17 8 -3 22 -17 31 -31 14 -21
8 -19 -37 15 -129 95 -240 102 -373 22 l-50 -30 32 0 c21 0 32 5 30 12 -5 27
74 53 158 53 72 0 86 -4 143 -34 35 -19 75 -48 89 -65 l26 -31 -39 -7 -39 -6
43 2 c42 2 45 0 64 -37 11 -22 22 -65 25 -96 l6 -56 -27 24 c-27 25 -28 44 -1
21 22 -18 20 6 -6 75 -22 60 -24 61 -113 49 -52 -8 -57 -16 -21 -32 21 -10 25
-9 25 3 0 22 69 20 86 -2 13 -18 19 -53 9 -53 -4 0 -20 7 -38 17 -30 15 -31
15 -18 0 20 -24 10 -21 -65 20 -56 31 -64 38 -48 45 13 5 8 6 -13 2 -27 -4
-31 -3 -27 13 3 10 0 29 -5 43 -9 21 -10 19 -4 -14 3 -21 2 -37 -3 -35 -5 2
-40 20 -79 40 -38 20 -81 39 -95 43 l-25 7 25 -15 c14 -9 21 -15 17 -16 -5 0
1 -15 12 -34 12 -18 21 -42 21 -53 0 -25 25 -49 35 -33 3 5 11 10 17 10 7 0 0
-12 -14 -27 -14 -16 -33 -48 -43 -73 -9 -25 -19 -51 -22 -57 -3 -7 -1 -13 5
-13 5 0 17 21 27 46 9 25 32 65 51 89 20 27 27 42 17 38 -12 -5 -14 -3 -8 8 7
10 1 9 -18 -4 -15 -9 -27 -13 -27 -7 0 5 14 17 31 26 24 12 29 18 18 25 -8 5
-20 3 -30 -7 -22 -20 -29 -18 -29 11 0 14 -8 29 -21 35 -11 7 -19 14 -16 16 5
5 122 -52 156 -75 11 -7 3 -29 -43 -115 -31 -58 -56 -108 -56 -111 0 -19 26 4
65 56 37 50 45 69 45 105 0 23 4 45 10 49 10 6 115 -43 107 -51 -3 -3 -23 4
-46 15 -22 12 -42 21 -43 21 -2 0 -2 -26 -2 -57 l2 -58 -7 50 -8 50 -1 -42
c-3 -67 3 -73 46 -52 20 11 55 19 78 19 42 0 49 8 31 38 -11 17 8 15 23 -3 7
-8 9 -15 5 -15 -5 0 -1 -8 8 -17 15 -17 12 -18 -47 -19 -85 -1 -147 -36 -201
-112 l-39 -57 49 44 c68 59 134 90 211 100 64 7 66 7 75 -18 8 -19 12 -22 18
-12 7 11 18 6 50 -19 23 -18 41 -37 41 -43 0 -5 -18 6 -40 23 -34 27 -41 29
-46 15 -4 -9 -4 -19 0 -22 3 -4 6 2 7 13 2 29 16 -23 19 -66 2 -35 2 -35 9 -6
8 39 28 44 42 12 9 -20 9 -32 0 -53 l-12 -28 21 25 c22 28 25 46 10 55 -5 3
-10 12 -10 18 1 7 9 2 20 -11 19 -23 19 -23 -10 -70 -16 -26 -41 -59 -57 -74
l-28 -27 1 92 1 92 -7 -85 -6 -85 -2 95 c-2 63 -8 103 -18 120 -13 22 -14 23
-9 3 7 -27 -17 -77 -57 -120 l-31 -32 39 -16 c21 -9 46 -23 56 -32 21 -18 25
-75 6 -71 -7 1 -31 -4 -53 -12 -22 -8 -73 -14 -112 -14 -81 0 -96 -10 -30 -19
46 -7 112 5 161 29 l31 15 -30 -25 -30 -25 30 2 c29 2 30 0 31 -40 2 -43 -17
-61 -30 -28 -3 8 -10 15 -15 15 -5 0 2 -20 15 -45 16 -28 23 -53 20 -67 -4
-15 -1 -13 9 7 8 18 15 67 16 120 l3 90 6 -85 7 -85 -1 92 c-1 89 0 91 18 75
10 -9 36 -41 58 -70 l39 -52 -31 -44 c-39 -54 -117 -115 -104 -82 3 9 3 16 0
16 -4 0 -11 -11 -16 -24 l-9 -24 -70 13 c-39 8 -79 19 -90 24 -26 14 -34 14
-25 -1 4 -7 -16 11 -46 40 -30 28 -58 52 -62 52 -4 0 8 -22 27 -49 47 -65 108
-96 188 -95 55 1 57 0 41 -18 -18 -19 -40 -25 -29 -8 4 6 -8 10 -30 10 -23 0
-34 -4 -30 -11 4 -5 -1 -20 -12 -31 -18 -21 -18 -21 5 -9 13 7 26 10 29 8 3
-3 -9 -13 -26 -22 -17 -8 -31 -18 -31 -21 0 -11 84 42 128 81 l45 40 -6 -57
c-3 -30 -14 -73 -25 -94 -19 -37 -21 -38 -73 -38 -54 1 -54 1 -6 -3 26 -2 47
-8 47 -13 0 -16 -86 -83 -140 -108 -78 -36 -155 -36 -235 2 -51 24 -57 29 -40
36 15 6 11 7 -16 7 -34 -1 -209 73 -209 89 0 3 8 3 17 0 9 -4 19 -2 23 4 4 6
17 12 28 13 26 2 30 32 6 41 -8 3 -12 2 -9 -4 6 -10 -27 -34 -64 -45 -16 -5
-21 -4 -17 4 4 7 -1 11 -13 11 -25 0 -26 12 -5 45 9 13 12 30 8 36 -4 7 -3 9
3 6 15 -9 31 34 23 63 l-6 24 -22 -31 c-13 -18 -22 -46 -22 -66 0 -41 -8 -67
-22 -67 -5 0 -7 4 -4 9 4 5 3 18 -2 30 -5 15 -11 18 -22 10 -13 -8 -12 -11 4
-24 14 -11 16 -15 5 -15 -8 -1 -3 -7 11 -16 l25 -15 -25 6 c-41 11 -63 11 -67
-1 -2 -6 9 -9 29 -8 31 3 31 3 8 -6 -20 -7 -17 -8 17 -4 34 5 42 2 46 -13 4
-17 5 -17 6 0 1 15 11 12 74 -22 39 -22 91 -45 114 -52 23 -6 40 -15 38 -19
-9 -14 -90 -48 -132 -55 -75 -12 -189 32 -265 103 -16 14 -28 29 -28 33 0 5
21 10 48 12 46 4 46 4 -8 3 l-54 0 -19 42 c-19 45 -36 153 -21 139 5 -4 9 -18
9 -30 0 -17 6 -22 25 -22 14 0 39 -10 55 -21 17 -12 46 -29 65 -38 37 -17 25
-8 -47 37 -25 15 -43 31 -40 34 3 3 18 -4 34 -14 43 -30 61 -37 35 -14 -14 12
-20 25 -16 32 5 9 -4 11 -34 7 -31 -5 -45 -2 -56 11 -15 16 -12 17 43 13 80
-6 158 29 197 87 33 51 27 61 -12 19 -16 -17 -23 -27 -15 -23 10 5 12 4 7 -4
-4 -6 -11 -9 -16 -6 -5 3 -26 -3 -47 -14 -43 -22 -102 -38 -153 -43 l-35 -3
-1 45 c-1 43 24 111 46 125 5 3 10 11 10 16 0 6 -13 -4 -29 -21 -32 -36 -36
-33 -40 29 l-3 44 32 -5 31 -5 -28 23 c-15 12 -31 20 -35 17 -12 -7 -9 -143 3
-186 6 -22 8 -41 5 -45 -3 -3 -9 10 -13 29 -7 33 -7 33 -14 9 -6 -20 -7 -21
-8 -5 -1 12 -13 25 -31 33 -25 11 -30 19 -30 48 0 25 8 42 26 59 14 13 24 30
22 37 -5 13 -77 -78 -78 -97 0 -14 95 -107 102 -100 3 3 8 -4 11 -15 5 -18 3
-19 -11 -9 -9 7 -36 31 -59 53 -53 49 -57 36 -6 -16 20 -21 32 -38 27 -38 -24
0 -67 60 -70 96 -3 44 14 80 63 135 27 30 38 37 44 27 6 -8 9 0 9 22 0 23 -3
30 -9 22 -6 -10 -17 -3 -45 29 -20 24 -45 58 -56 77 l-20 33 61 62 c37 38 63
57 66 49 3 -6 10 -9 15 -5 8 4 9 -2 3 -18 -13 -42 -18 -198 -6 -213 9 -11 21
-9 68 7 46 15 73 18 133 13 41 -3 86 -9 100 -12 14 -4 22 -4 19 -1 -11 13
-163 39 -197 34 -19 -4 -53 -16 -76 -28 -41 -21 -41 -21 -22 0 10 11 34 25 53
32 34 11 34 11 13 26 -27 19 -80 101 -80 122 0 14 1 14 10 1 9 -13 10 -13 10
0 0 13 1 13 10 0 13 -20 12 -33 -2 -24 -14 9 -5 -8 29 -54 22 -29 94 -78 79
-53 -9 14 -9 14 39 -4 22 -8 51 -14 65 -14 18 0 4 11 -50 39 -41 22 -95 59
-120 82 -25 23 -48 41 -51 40 -9 -2 -21 46 -15 57 9 14 123 -6 177 -31 30 -14
81 -49 114 -79 46 -41 53 -46 32 -19 -15 19 -37 49 -50 67 -45 65 -162 104
-237 79 -25 -9 -25 -9 -6 13 11 11 16 21 11 21 -4 0 -2 7 5 15 7 8 17 15 22
15 7 0 6 -5 -1 -13 -16 -20 -4 -27 44 -27 22 0 56 -8 75 -18 l35 -17 0 62 c0
35 -1 63 -3 63 -1 0 -20 -9 -42 -20 -46 -23 -54 -25 -43 -7 4 6 -5 4 -21 -6
-15 -10 -30 -16 -33 -14 -7 7 66 52 97 61 24 6 24 6 -2 -9 -40 -22 -35 -28 7
-8 32 15 33 18 17 29 -10 7 -45 16 -78 19 -48 6 -62 4 -73 -9 -16 -19 -12 -20
24 -6 27 10 75 4 75 -10 0 -16 -108 -68 -118 -58 -11 11 -27 -45 -18 -61 4 -5
1 -13 -5 -17 -18 -11 -4 86 19 139 19 42 20 43 63 41 l44 -2 -40 7 -40 7 40
38 c63 62 135 91 225 91 57 0 85 -5 119 -22 25 -12 47 -20 49 -18 8 7 -99 53
-139 60 -57 10 -155 -19 -224 -67 -59 -41 -59 -34 -2 24 16 15 35 28 43 28 9
0 12 5 9 10 -4 6 -3 10 2 9 30 -5 93 3 88 11 -11 18 -98 11 -133 -10z m728
-299 c0 -10 -25 -21 -49 -21 -12 0 -16 8 -15 28 1 15 2 28 3 30 3 6 61 -29 61
-37z m-656 7 c-9 -31 -8 -31 -45 -23 l-33 7 23 19 c13 11 32 19 43 19 15 0 18
-4 12 -22z m-79 -257 c-7 -6 -85 70 -85 83 0 6 20 -10 45 -34 24 -24 42 -46
40 -49z m-101 36 c7 -7 18 -22 25 -35 11 -20 9 -23 -15 -32 -15 -6 -28 -9 -29
-8 -9 9 -8 88 1 88 3 0 11 -6 18 -13z m982 -28 c2 -39 1 -40 -29 -37 -17 2
-32 9 -34 15 -4 12 42 63 56 63 3 0 7 -18 7 -41z m113 -54 c-22 -31 -39 -45
-39 -29 0 9 54 73 59 69 2 -3 -7 -20 -20 -40z m31 -9 c0 -7 -7 -19 -15 -26
-12 -10 -15 -9 -15 7 0 11 3 23 7 26 11 12 23 8 23 -7z m-40 -301 c-19 -19
-38 -35 -44 -35 -6 0 7 18 29 40 21 22 41 37 44 35 2 -3 -11 -21 -29 -40z"/>
<path d="M1933 2170 c3 -8 13 -39 22 -67 l16 -53 51 0 51 0 -24 26 c-40 43
-123 110 -116 94z"/>
<path d="M1720 2162 c1 -17 19 -34 29 -27 7 4 19 4 27 1 12 -5 13 -10 4 -27
-11 -20 -12 -20 -26 -2 -14 17 -15 17 -10 -4 17 -69 16 -68 42 -23 13 23 24
46 24 50 0 5 -20 15 -45 23 -25 9 -45 13 -45 9z"/>
<path d="M1255 2130 c-9 -40 -23 -46 -37 -16 -10 22 -28 36 -28 21 0 -16 45
-93 52 -89 4 3 8 -4 8 -16 0 -17 -5 -19 -27 -15 -16 3 -21 2 -13 -1 8 -4 19
-14 24 -22 4 -8 11 -10 15 -6 8 12 33 27 103 64 59 31 85 39 57 17 -9 -7 -19
-25 -23 -40 -7 -29 -32 -33 -30 -4 1 13 -3 14 -22 5 -13 -6 -23 -13 -21 -14 1
-2 19 -14 40 -28 l37 -25 0 22 c0 12 9 39 20 60 11 20 17 37 13 37 -5 1 3 7
17 16 l25 15 -25 -7 c-32 -8 -117 -51 -152 -75 l-26 -19 -7 39 c-4 27 -2 49 9
70 18 35 19 41 7 41 -5 0 -12 -13 -16 -30z"/>
<path d="M1156 2111 c-3 -5 1 -11 9 -15 14 -5 22 -46 10 -46 -4 0 -20 7 -37
16 -28 14 -32 14 -46 0 -15 -15 -13 -16 18 -16 20 0 51 -4 69 -10 19 -5 36 -8
39 -6 5 6 -41 86 -50 86 -4 0 -9 -4 -12 -9z"/>
<path d="M1802 2078 c-12 -23 -21 -43 -19 -44 2 -2 19 1 38 6 18 6 50 10 69
10 l35 1 -40 34 c-22 19 -44 35 -50 35 -5 0 -20 -19 -33 -42z m68 -2 c0 -16
-37 -28 -46 -15 -8 14 5 29 27 29 10 0 19 -6 19 -14z"/>
<path d="M1440 2059 c-48 -67 -52 -132 -12 -239 11 -30 23 -68 27 -84 3 -15 8
-27 9 -25 2 2 -5 49 -16 104 -20 106 -16 173 17 253 19 43 11 40 -25 -9z"/>
<path d="M1542 2049 c22 -58 28 -143 15 -224 l-8 -50 26 60 c14 33 25 79 25
103 0 46 -30 120 -60 147 -18 16 -18 14 2 -36z"/>
<path d="M1471 2038 c-7 -25 -10 -52 -6 -59 5 -8 4 -10 -3 -5 -16 10 -16 -71
-1 -147 13 -66 30 -76 27 -17 -1 23 -5 37 -11 33 -6 -4 -7 -1 -1 8 14 23 13
38 -2 32 -18 -7 -15 17 4 32 9 7 12 34 10 90 l-3 80 -14 -47z"/>
<path d="M1511 1997 c-1 -49 3 -86 8 -83 4 3 6 18 3 32 -3 18 -1 25 6 20 13
-8 10 -72 -4 -69 -7 1 -11 -31 -11 -95 l-1 -97 14 55 c26 104 28 199 6 265
l-20 60 -1 -88z"/>
<path d="M588 1951 c-21 -49 -47 -126 -57 -172 -25 -104 -37 -229 -24 -229 6
0 13 39 16 88 3 48 16 121 27 162 26 91 79 211 92 204 4 -3 6 -9 3 -14 -3 -5
1 -15 9 -22 18 -19 73 -126 81 -160 4 -15 1 -42 -5 -60 -7 -18 -16 -58 -20
-88 -15 -102 -9 -95 -85 -93 -38 1 -76 -2 -84 -7 -11 -6 16 -10 79 -11 52 -1
87 -3 78 -6 -20 -5 -24 -18 -9 -28 5 -3 13 -31 17 -63 4 -31 13 -77 20 -102
22 -72 21 -77 -54 -210 -18 -30 -32 -59 -32 -65 0 -16 36 33 86 117 l45 76
-21 64 c-40 120 -37 307 6 434 15 44 15 45 -18 102 -32 57 -107 172 -111 172
-1 0 -19 -40 -39 -89z"/>
<path d="M967 2013 c-27 -13 -51 -22 -54 -19 -3 2 8 11 23 19 25 13 15 14
-113 13 l-140 -1 75 -42 c41 -24 78 -43 82 -43 4 0 13 13 20 30 12 30 40 60
40 43 0 -5 -6 -15 -12 -22 -11 -10 -9 -11 7 -6 15 5 12 0 -10 -20 -24 -21 -15
-18 50 16 90 48 90 48 84 53 -2 2 -26 -7 -52 -21z"/>
<path d="M1980 2033 c0 -9 111 -65 117 -59 2 2 -11 13 -29 25 -18 11 -28 21
-23 21 6 0 21 -7 33 -16 27 -19 41 -11 21 12 -9 11 -23 14 -47 10 -19 -3 -43
-1 -53 5 -11 5 -19 6 -19 2z"/>
<path d="M2372 2031 c-11 -7 -8 -19 14 -62 52 -103 79 -204 98 -364 1 -17 4
-8 4 20 2 73 -31 218 -72 314 -19 46 -33 88 -30 92 6 11 3 11 -14 0z"/>
<path d="M2113 2020 c1 -3 13 -22 26 -42 l23 -38 31 17 c18 9 55 28 83 42 l50
26 -108 0 c-59 0 -107 -2 -105 -5z"/>
<path d="M714 1960 c20 -29 34 -60 32 -67 -3 -8 -2 -12 3 -9 4 3 14 -7 20 -21
l12 -27 26 43 c14 23 23 44 21 45 -1 1 -20 12 -40 24 -21 12 -54 32 -74 44
l-37 21 37 -53z"/>
<path d="M2243 1968 l-72 -39 21 -45 c12 -24 24 -44 27 -44 4 1 17 23 29 51
13 27 35 63 49 80 14 16 24 31 22 33 -2 2 -36 -14 -76 -36z"/>
<path d="M2310 1943 c-87 -136 -82 -120 -58 -193 32 -95 32 -325 0 -420 l-21
-65 39 -65 c22 -36 51 -81 65 -100 21 -28 25 -30 25 -13 0 11 -9 30 -20 43
-11 13 -20 29 -20 37 0 7 -4 13 -10 13 -5 0 -10 5 -10 12 0 6 -9 31 -21 55
-17 35 -19 49 -11 75 6 18 16 65 22 103 7 39 16 77 21 86 5 9 3 21 -3 27 -9 9
9 12 75 12 72 0 87 3 87 16 0 10 -6 14 -17 10 -48 -13 -132 -17 -138 -6 -7 11
-42 161 -51 215 -3 22 6 48 36 100 74 130 81 168 10 58z"/>
<path d="M968 1984 l-26 -14 16 -41 16 -42 12 54 c7 30 12 55 11 56 -1 1 -14
-5 -29 -13z"/>
<path d="M2004 1984 c3 -9 9 -34 13 -56 6 -40 6 -40 18 -17 28 55 28 66 -6 78
-27 9 -30 9 -25 -5z"/>
<path d="M2114 1982 c4 -7 1 -12 -6 -12 -8 -1 -5 -7 7 -17 20 -16 15 -15 -28
2 -8 4 -21 -12 -35 -40 -12 -25 -22 -48 -22 -50 0 -3 23 8 52 24 49 28 67 54
47 67 -5 3 -7 9 -4 14 3 5 0 12 -6 16 -8 4 -9 3 -5 -4z"/>
<path d="M1287 1950 c11 -19 37 -66 58 -105 44 -81 43 -80 51 -73 10 10 -68
156 -99 185 l-30 28 20 -35z"/>
<path d="M1317 1959 c12 -13 33 -44 48 -69 l27 -45 -6 35 c-7 35 -36 74 -71
92 -19 10 -18 9 2 -13z"/>
<path d="M1698 1953 c-30 -33 -90 -148 -81 -157 3 -3 14 6 23 22 35 59 91 162
87 162 -2 0 -15 -12 -29 -27z"/>
<path d="M1250 1932 c0 -28 9 -52 31 -83 39 -54 80 -99 91 -99 9 0 -41 93 -66
122 -9 10 -14 18 -11 18 3 0 -4 18 -15 40 -11 22 -23 40 -25 40 -3 0 -5 -17
-5 -38z"/>
<path d="M887 1941 l-28 -18 53 -31 c29 -16 54 -29 56 -27 5 4 -41 95 -47 94
-4 0 -19 -9 -34 -18z"/>
<path d="M850 1888 c0 -13 -3 -34 -7 -47 -4 -18 -3 -22 6 -16 7 4 36 10 65 14
l51 6 -53 33 c-29 17 -54 32 -57 32 -3 0 -5 -10 -5 -22z"/>
<path d="M2093 1882 c-50 -32 -53 -42 -14 -42 16 0 42 -5 57 -10 25 -10 26 -9
20 12 -3 13 -6 33 -6 46 0 27 -5 27 -57 -6z"/>
<path d="M2164 1802 c0 -52 3 -87 7 -76 10 25 11 146 1 160 -4 7 -7 -31 -8
-84z"/>
<path d="M1711 1812 c-17 -27 -42 -59 -57 -73 -14 -13 -30 -33 -36 -44 -6 -11
13 2 41 30 28 27 59 66 70 87 10 21 22 34 26 30 5 -4 5 -1 1 6 -10 17 -11 17
-45 -36z"/>
<path d="M2190 1816 c0 -52 1 -53 18 -21 7 15 7 27 -4 45 -13 24 -13 23 -14
-24z"/>
<path d="M1260 1837 c0 -17 64 -100 105 -137 l29 -25 -22 30 c-64 88 -112 145
-112 132z"/>
<path d="M882 1820 c-42 -10 -42 -9 -34 -45 l7 -30 42 43 c44 43 42 46 -15 32z"/>
<path d="M1080 1805 c164 -99 232 -136 242 -133 18 6 -94 95 -153 122 -30 14
-72 28 -94 31 l-40 7 45 -27z"/>
<path d="M1883 1815 c-23 -7 -62 -24 -85 -38 -42 -25 -159 -126 -146 -127 3 0
51 27 106 59 55 33 123 71 152 86 94 48 63 19 -55 -50 -63 -37 -115 -71 -115
-77 0 -5 -3 -7 -8 -4 -4 2 -25 -7 -47 -21 -28 -17 -32 -22 -15 -17 14 3 27 9
30 13 3 3 10 6 15 7 27 1 64 17 59 25 -3 5 1 6 8 4 33 -13 222 130 195 147
-17 11 -45 9 -94 -7z"/>
<path d="M1020 1812 c0 -34 205 -166 220 -142 5 9 9 9 14 1 4 -6 4 -11 -1 -11
-4 0 0 -5 10 -11 28 -16 31 -4 5 20 -15 15 -31 20 -48 17 -14 -3 -19 -3 -12 0
14 7 16 24 2 24 -5 0 -33 15 -62 33 -106 66 -128 78 -128 69z"/>
<path d="M916 1751 c-42 -43 -47 -51 -37 -70 16 -28 18 -27 13 9 -4 27 0 32
32 45 26 11 36 22 37 38 0 21 1 21 9 2 7 -16 9 -17 9 -3 2 33 -16 27 -63 -21z"/>
<path d="M777 1783 c-10 -15 -37 -134 -37 -161 0 -19 8 -14 50 33 40 44 50 62
48 88 l-1 32 -5 -35 -4 -35 -22 44 c-13 24 -26 39 -29 34z"/>
<path d="M2198 1745 l-26 -50 46 -43 45 -44 -7 49 c-3 26 -12 68 -20 93 l-13
45 -25 -50z"/>
<path d="M1933 1741 c-46 -42 -136 -92 -216 -122 -28 -11 -41 -17 -27 -14 14
3 50 10 80 16 82 16 143 56 182 117 11 18 23 31 25 28 8 -8 -26 -56 -66 -93
-20 -18 -31 -33 -25 -33 13 0 77 68 94 100 21 39 -4 39 -47 1z"/>
<path d="M963 1655 c0 -44 2 -61 4 -37 2 23 2 59 0 80 -2 20 -4 1 -4 -43z"/>
<path d="M820 1639 c-15 -53 -9 -196 9 -224 12 -19 12 -18 7 5 -15 63 -18 151
-6 199 15 63 6 80 -10 20z"/>
<path d="M2056 1636 c-8 -41 -4 -54 11 -34 5 7 7 27 3 43 l-6 30 -8 -39z"/>
<path d="M2194 1646 c13 -37 18 -132 8 -175 l-10 -43 28 27 c53 50 47 140 -12
192 -21 18 -21 17 -14 -1z"/>
<path d="M776 1619 c-39 -46 -37 -117 5 -161 19 -21 29 -26 25 -15 -13 41 -17
124 -8 165 5 23 9 42 7 42 -2 0 -15 -14 -29 -31z"/>
<path d="M846 1629 c-17 -82 -18 -79 37 -79 l51 0 -26 28 c-14 15 -32 38 -41
51 l-16 24 -5 -24z"/>
<path d="M921 1618 c14 -19 25 -26 27 -19 2 7 -5 21 -16 32 -32 29 -36 23 -11
-13z"/>
<path d="M1767 1605 c-32 -7 -61 -16 -65 -20 -4 -4 4 -5 18 -1 14 3 57 9 95
12 56 5 82 2 130 -14 45 -15 55 -17 40 -5 -57 44 -114 51 -218 28z"/>
<path d="M1053 1569 c-18 -5 -33 -12 -33 -14 0 -3 64 -5 143 -5 109 1 138 3
123 12 -26 15 -192 20 -233 7z"/>
<path d="M1748 1573 c-16 -2 -28 -9 -28 -14 0 -5 57 -9 133 -9 105 1 128 3
112 12 -21 12 -168 20 -217 11z"/>
<path d="M330 769 c0 -762 0 -769 20 -769 22 0 23 34 20 610 -1 180 2 239 12
252 7 9 53 38 101 63 102 54 89 58 165 -50 50 -70 160 -185 178 -185 7 0 22
-16 34 -35 23 -38 33 -45 23 -17 -6 15 -4 15 16 -3 26 -23 25 -69 -3 -128 -15
-30 -21 -35 -32 -26 -8 6 -14 18 -14 25 0 8 -7 14 -15 14 -9 0 -20 10 -25 23
l-9 22 0 -22 c-1 -13 7 -24 19 -28 11 -3 20 -15 20 -25 0 -10 6 -21 13 -23 8
-4 8 -8 2 -14 -21 -17 -138 -248 -134 -262 2 -6 29 32 59 85 101 177 130 229
142 254 7 14 20 36 30 49 10 13 18 27 18 30 0 4 -36 33 -81 66 -96 71 -180
158 -250 261 -36 53 -54 72 -62 66 -26 -21 -219 -123 -224 -119 -5 5 98 68
179 108 43 22 64 49 38 49 -5 0 -10 9 -10 20 0 26 -26 77 -42 83 -7 3 -8 6 -2
6 7 1 5 20 -7 55 -24 70 -49 215 -49 282 l0 53 -65 0 -65 -1 0 -769z m96 726
c9 -8 12 -19 9 -25 -8 -13 9 -125 36 -245 25 -108 37 -135 55 -128 8 3 14 0
14 -6 0 -6 -8 -11 -17 -12 -11 0 -13 -3 -5 -6 6 -2 12 -17 12 -33 0 -22 -8
-32 -37 -48 -21 -11 -53 -28 -71 -38 -28 -16 -34 -17 -42 -4 -10 17 -14 543
-4 553 12 12 35 8 50 -8z"/>
<path d="M504 1455 c4 -48 18 -128 30 -179 26 -99 84 -239 97 -231 4 3 -8 38
-26 78 -48 103 -74 207 -82 315 -3 51 -11 95 -16 99 -7 4 -8 -24 -3 -82z"/>
<path d="M1030 1523 c44 -20 124 -28 187 -18 39 6 44 9 29 17 -10 6 -21 6 -25
2 -9 -14 -41 -16 -41 -4 0 6 -4 8 -10 5 -5 -3 -10 -1 -10 4 0 7 -31 11 -82 10
l-83 -1 35 -15z"/>
<path d="M1826 1523 c-5 -11 -10 -14 -14 -6 -7 11 -72 13 -72 1 0 -11 87 -21
143 -16 29 3 68 12 87 21 l35 15 -86 1 c-73 1 -88 -2 -93 -16z"/>
<path d="M2088 1507 c26 -28 27 -28 30 -7 2 12 9 19 15 17 17 -5 21 -38 6 -48
-11 -6 -11 -11 -2 -20 17 -17 20 -12 28 41 l7 45 -56 0 -55 0 27 -28z"/>
<path d="M2542 1475 c1 -36 0 -65 -4 -65 -5 0 -8 -11 -8 -26 0 -14 -7 -57 -16
-96 -9 -38 -17 -75 -18 -82 -2 -6 -13 -33 -25 -60 -12 -27 -23 -57 -24 -67 -2
-10 -11 -27 -20 -37 -19 -20 -14 -32 14 -32 9 0 19 -4 21 -8 2 -5 42 -29 90
-55 77 -42 112 -67 93 -67 -3 0 -57 29 -120 64 l-115 64 -44 -67 c-64 -95
-155 -191 -249 -262 -45 -34 -83 -65 -85 -70 -2 -4 5 -16 15 -26 10 -10 26
-36 36 -57 23 -49 31 -43 12 9 -19 53 -18 71 2 95 12 13 20 16 29 9 8 -7 15
-1 22 21 6 16 17 30 25 30 19 0 161 152 203 217 19 28 38 54 43 58 11 6 141
-55 179 -83 l23 -18 0 -432 c-1 -425 -1 -432 19 -432 20 0 20 7 20 770 l0 770
-25 0 c-14 0 -25 -5 -25 -12 0 -9 -3 -9 -12 0 -7 7 -23 12 -36 12 -23 0 -24
-2 -20 -65z m84 -243 c0 -149 -3 -277 -7 -284 -7 -10 -18 -8 -51 11 -74 40
-90 57 -93 101 -2 22 1 38 5 35 4 -3 15 6 24 20 14 21 14 24 1 19 -8 -4 -15
-1 -15 5 0 6 6 11 14 11 8 0 16 14 19 33 3 17 8 45 12 62 25 115 35 172 35
210 0 43 9 54 40 50 13 -2 15 -40 16 -273z"/>
<path d="M533 1523 c8 -7 108 -5 116 3 2 2 -24 4 -59 4 -35 0 -60 -3 -57 -7z"/>
<path d="M2385 1523 c64 -8 74 -13 78 -41 3 -22 4 -20 6 11 l1 37 -57 -1 c-32
-1 -44 -4 -28 -6z"/>
<path d="M1023 1503 c23 -23 107 -42 160 -36 65 8 60 21 -5 15 -36 -3 -72 2
-111 16 -46 15 -55 16 -44 5z"/>
<path d="M963 1420 c0 -47 2 -66 4 -42 2 23 2 61 0 85 -2 23 -4 4 -4 -43z"/>
<path d="M2050 1468 c0 -31 10 -40 30 -28 13 8 11 13 -7 32 l-23 22 0 -26z"/>
<path d="M740 1458 c0 -31 31 -157 40 -163 4 -3 10 1 13 8 3 6 12 29 21 49
l16 37 -45 44 c-36 36 -45 41 -45 25z"/>
<path d="M2213 1430 l-41 -40 21 -50 c11 -27 24 -50 27 -50 9 0 43 144 38 164
-2 12 -13 6 -45 -24z m17 -45 c0 -16 -6 -25 -15 -25 -18 0 -20 21 -3 38 17 17
18 16 18 -13z"/>
<path d="M1195 1453 c-39 -6 -118 -65 -145 -109 -12 -19 -27 -31 -32 -28 -7 5
-8 2 -3 -5 5 -9 18 -2 45 24 20 20 75 56 121 80 80 42 82 48 14 38z"/>
<path d="M2478 1400 c-8 -77 -49 -212 -88 -292 -16 -32 -25 -60 -21 -62 10 -6
47 70 76 156 26 75 49 201 43 238 -2 14 -7 -4 -10 -40z"/>
<path d="M1085 1419 c-20 -18 -40 -41 -46 -53 -7 -15 -4 -14 13 6 13 15 39 39
58 53 18 14 29 25 22 25 -6 0 -27 -14 -47 -31z"/>
<path d="M1773 1440 c9 -6 22 -8 29 -4 6 4 8 3 5 -3 -3 -5 13 -18 36 -28 23
-10 63 -38 88 -62 29 -27 50 -40 54 -33 8 13 -24 66 -64 104 -27 25 -40 30
-98 33 -52 3 -64 1 -50 -7z m124 -17 c27 -18 83 -89 83 -106 0 -6 -13 8 -29
30 -16 22 -44 52 -62 66 -38 30 -32 36 8 10z"/>
<path d="M1250 1420 c0 -5 -7 -6 -17 -3 -12 5 -14 3 -8 -7 5 -8 4 -11 -3 -6
-17 10 -107 -39 -158 -86 -24 -23 -43 -43 -41 -45 9 -8 176 100 170 110 -3 6
-1 7 5 3 7 -4 25 1 42 11 30 17 39 33 20 33 -5 0 -10 -4 -10 -10z"/>
<path d="M1735 1421 c-4 -8 23 -25 34 -21 2 1 7 -3 10 -8 3 -5 53 -37 111 -71
100 -60 103 -61 70 -26 -19 20 -54 50 -76 66 -51 35 -141 71 -149 60z"/>
<path d="M2101 1409 c6 -12 8 -30 5 -42 -5 -19 -4 -19 11 -4 15 14 15 20 3 42
-7 14 -17 25 -22 25 -5 0 -4 -9 3 -21z"/>
<path d="M2167 1268 c1 -57 2 -105 3 -108 0 -3 31 -23 70 -44 86 -49 85 -59
-1 -14 -35 18 -67 33 -72 33 -4 0 -18 -18 -31 -40 l-24 -40 102 0 c121 0 121
-1 58 94 -23 35 -42 70 -42 78 0 23 -17 14 -30 -17 -20 -49 -26 -42 -22 28 2
37 0 82 -5 100 -6 23 -8 2 -6 -70z"/>
<path d="M1815 1329 c11 -13 13 -18 5 -11 -8 6 -23 12 -34 12 -21 -1 -21 -1
-2 -15 36 -27 208 -81 181 -57 -6 5 -46 29 -90 52 -68 37 -77 40 -60 19z"/>
<path d="M1120 1307 c-19 -11 -48 -28 -65 -39 l-30 -19 30 7 c75 15 105 26
119 40 8 8 18 14 21 14 3 -1 9 0 13 3 4 2 2 3 -5 1 -6 -1 -14 0 -17 4 -12 12
-31 9 -66 -11z"/>
<path d="M1284 1290 c-37 -56 -25 -60 14 -5 17 25 27 45 22 45 -5 0 -22 -18
-36 -40z"/>
<path d="M1702 1285 c33 -46 49 -54 28 -13 -16 30 -41 58 -51 58 -5 0 6 -20
23 -45z"/>
<path d="M801 1291 c-9 -21 -10 -35 -2 -48 9 -15 11 -11 12 22 2 40 2 40 9
-10 l7 -50 1 45 c2 61 -11 81 -27 41z"/>
<path d="M2190 1266 c0 -52 1 -53 18 -21 7 15 7 27 -4 45 -13 24 -13 23 -14
-24z"/>
<path d="M1610 1292 c0 -24 68 -147 96 -172 25 -23 23 -18 -16 55 -24 44 -47
82 -50 85 -4 3 -12 14 -18 25 -6 11 -12 14 -12 7z"/>
<path d="M1657 1294 c-10 -10 15 -54 32 -55 11 0 12 -2 3 -6 -6 -2 -10 -9 -7
-13 3 -5 12 -7 19 -4 7 3 16 -3 20 -12 8 -22 -2 -33 -14 -14 -19 30 -9 -2 15
-50 30 -60 30 -60 3 -60 -19 0 -20 -1 -6 -12 9 -7 18 -22 21 -33 4 -17 5 -17
6 3 1 22 4 23 44 18 29 -4 35 -3 17 3 -17 6 3 8 59 7 l84 -1 19 54 c25 72 21
86 -17 53 -16 -14 -22 -23 -13 -19 22 8 33 -10 18 -28 -7 -8 -9 -15 -4 -15 5
-1 -2 -10 -15 -20 -23 -20 -91 -28 -91 -11 0 10 -32 8 -65 -4 -20 -7 -20 -6
-1 9 15 12 16 16 5 16 -8 1 -2 8 14 16 29 15 37 30 12 20 -8 -3 -16 -2 -16 2
-6 32 -5 53 2 58 14 8 11 18 -8 30 -17 10 -18 5 -16 -63 1 -53 -2 -73 -10 -70
-7 2 -13 26 -15 53 -3 39 -11 60 -43 101 -42 56 -42 56 -52 47z"/>
<path d="M1369 1268 c-7 -13 -15 -25 -19 -28 -3 -3 -23 -36 -45 -75 -36 -66
-36 -69 -10 -45 25 23 64 89 85 146 12 30 5 31 -11 2z"/>
<path d="M1556 1250 c4 -19 12 -40 20 -46 13 -11 16 -54 3 -54 -4 0 -12 -23
-18 -50 -6 -28 -18 -67 -26 -87 l-15 -36 21 19 c60 53 75 161 34 241 -24 46
-25 47 -19 13z"/>
<path d="M1420 1230 c-36 -71 -17 -183 40 -235 19 -17 19 -16 1 31 -10 27 -22
72 -26 99 -4 28 -12 53 -18 57 -8 5 -6 12 8 22 11 9 17 16 13 16 -4 0 -3 11 2
25 15 38 3 30 -20 -15z"/>
<path d="M844 1220 c4 -25 8 -46 10 -47 2 -2 24 9 50 23 26 14 45 28 42 31 -2
3 -19 8 -38 13 -18 4 -42 11 -52 16 -18 7 -19 4 -12 -36z"/>
<path d="M2130 1250 c-14 -4 -38 -11 -55 -15 l-29 -6 48 -30 c26 -17 49 -29
51 -27 4 5 17 88 13 87 -1 0 -14 -4 -28 -9z"/>
<path d="M771 1216 c-6 -15 -15 -24 -21 -21 -6 4 -7 -1 -3 -11 5 -13 3 -15 -7
-9 -9 5 -11 4 -6 -4 5 -7 -4 -29 -20 -53 -16 -22 -29 -45 -30 -52 -1 -8 30
-11 102 -11 57 0 104 2 104 5 0 3 -9 16 -20 30 -11 14 -20 31 -20 38 0 18 -9
15 -83 -24 -89 -47 -96 -39 -9 11 37 21 69 40 70 41 2 1 -8 22 -22 45 l-25 43
-10 -28z"/>
<path d="M1198 1224 c-27 -14 -37 -25 -20 -23 20 3 31 -3 34 -18 3 -10 6 -1 9
20 3 20 5 37 4 37 0 -1 -12 -8 -27 -16z"/>
<path d="M1369 1198 c-7 -18 -28 -49 -47 -70 -21 -23 -29 -39 -22 -43 6 -4 14
-4 17 -1 4 3 0 6 -8 6 -11 0 -11 2 1 10 21 14 33 12 24 -2 -4 -8 -3 -10 2 -5
5 5 9 12 9 15 0 4 8 18 18 33 16 25 34 89 24 89 -2 0 -11 -15 -18 -32z"/>
<path d="M1614 1210 c3 -14 6 -31 6 -38 0 -8 15 -28 33 -45 17 -17 24 -28 15
-24 -24 9 -23 0 2 -13 34 -18 44 0 17 29 -14 14 -38 46 -52 71 -18 30 -25 37
-21 20z"/>
<path d="M913 1185 l-52 -31 29 -17 c15 -9 31 -17 34 -17 8 0 48 80 44 89 -2
4 -26 -6 -55 -24z"/>
<path d="M2030 1214 c0 -5 40 -86 45 -92 2 -2 17 4 35 13 18 9 30 18 28 20
-11 10 -108 64 -108 59z"/>
<path d="M957 1145 c-10 -21 -17 -39 -15 -40 8 -6 48 -25 53 -25 4 0 4 8 0 18
-4 9 -10 32 -14 51 l-6 34 -18 -38z"/>
<path d="M2013 1133 c-6 -26 -10 -49 -8 -51 4 -4 55 21 55 27 -1 3 -9 21 -19
39 l-17 33 -11 -48z"/>
<path d="M1534 1118 c-7 -22 -7 -22 -15 -3 -5 13 -8 -6 -8 -50 0 -77 9 -73 29
13 12 53 8 84 -6 40z"/>
<path d="M875 1120 c-12 -19 34 -70 63 -70 l27 0 -33 21 c-48 31 -33 34 19 4
24 -13 51 -25 59 -25 8 0 -12 14 -44 30 -33 17 -65 35 -72 41 -8 7 -14 7 -19
-1z"/>
<path d="M2043 1085 c-34 -16 -63 -34 -63 -38 0 -5 26 5 57 22 62 34 83 36 31
2 l-33 -21 27 0 c18 0 33 9 47 29 12 16 21 31 21 33 0 11 -29 2 -87 -27z"/>
<path d="M1606 1079 c-3 -17 -15 -44 -27 -60 -11 -16 -17 -29 -12 -29 4 0 1
-5 -7 -11 -11 -8 -9 -9 10 -4 33 9 162 77 156 82 -2 2 -36 -12 -76 -32 -40
-20 -74 -34 -77 -31 -3 2 5 9 16 16 12 6 21 19 21 28 0 24 19 42 36 35 8 -3
12 -8 9 -13 -2 -4 7 -5 22 -2 l25 5 -30 12 c-16 7 -33 18 -36 24 -12 19 -23
12 -30 -20z"/>
<path d="M1480 1089 c0 -5 -5 -7 -11 -3 -9 5 -10 -1 -5 -19 15 -61 41 -107 30
-54 -2 12 -5 37 -6 55 -1 29 -8 47 -8 21z"/>
<path d="M1046 1075 c4 -10 18 -15 43 -14 27 1 30 3 11 6 -14 3 -29 9 -34 14
-15 14 -26 11 -20 -6z"/>
<path d="M1202 1043 c-16 -3 -22 -10 -18 -19 3 -8 -1 -26 -10 -40 -9 -13 -12
-24 -8 -24 5 0 21 20 36 45 15 25 26 44 25 44 -1 -1 -12 -4 -25 -6z"/>
<path d="M784 1030 c-140 -6 -141 -17 -1 -18 108 -1 109 -2 164 -53 21 -20 61
-53 88 -74 28 -21 49 -42 47 -47 -1 -5 7 -6 19 -3 18 6 21 4 16 -9 -4 -10 -3
-15 1 -12 5 3 53 -11 108 -30 54 -19 109 -35 121 -36 14 -2 27 -15 38 -41 22
-49 28 -44 11 8 -16 46 -21 49 -100 65 -100 20 -230 94 -317 180 l-77 75 -118
-5z"/>
<path d="M930 1032 c0 -11 141 -144 147 -139 1 2 -6 26 -17 53 -10 27 -21 57
-24 67 -4 12 -16 17 -40 17 -19 0 -41 3 -50 6 -9 3 -16 2 -16 -4z"/>
<path d="M1802 1000 c27 -47 46 -54 22 -9 -13 26 -14 33 -2 40 9 6 4 9 -15 9
l-28 0 23 -40z"/>
<path d="M636 1018 c31 -54 91 -134 136 -183 56 -62 180 -165 197 -165 6 0 11
-4 11 -10 0 -5 5 -10 10 -10 24 0 6 21 -52 63 -79 56 -203 184 -253 260 -21
31 -42 57 -47 57 -5 0 -6 -6 -2 -12z"/>
<path d="M1212 989 c-13 -23 -21 -43 -18 -47 3 -3 7 -3 9 -1 1 2 13 19 26 37
13 19 19 38 14 43 -4 4 -18 -10 -31 -32z"/>
<path d="M1756 1014 c-9 -24 -7 -41 3 -25 6 10 12 5 22 -18 8 -17 19 -31 26
-31 7 0 2 18 -14 45 -13 25 -26 45 -28 45 -1 0 -6 -7 -9 -16z"/>
<path d="M1855 1023 c11 -3 23 -10 27 -17 5 -8 13 -6 25 7 16 16 15 17 -27 16
-25 -1 -36 -4 -25 -6z"/>
<path d="M1970 1018 c0 -7 -11 -39 -24 -70 l-24 -58 37 29 c20 16 54 48 76 70
l39 41 -52 0 c-35 0 -52 -4 -52 -12z"/>
<path d="M2040 974 c-30 -30 -85 -76 -122 -100 -73 -49 -210 -104 -258 -104
-19 0 -33 -7 -40 -20 -6 -11 -8 -20 -5 -20 3 0 -2 -11 -11 -25 -9 -14 -12 -25
-7 -25 5 0 17 16 26 36 14 28 22 35 41 32 13 -1 30 3 37 9 8 7 26 14 40 16 34
7 132 48 140 60 4 5 12 6 18 3 6 -4 11 -2 11 3 0 6 5 11 11 11 6 0 27 15 47
34 147 137 129 126 212 128 41 0 85 0 98 -1 12 -1 30 3 40 8 12 8 -17 10 -103
11 l-121 0 -54 -56z"/>
<path d="M2306 960 c-60 -88 -167 -196 -246 -250 -53 -36 -74 -60 -53 -60 15
0 153 113 209 172 61 64 151 188 137 188 -4 0 -1 5 7 10 8 5 10 10 4 10 -6 0
-32 -32 -58 -70z"/>
<path d="M1260 1012 c0 -16 41 -114 46 -109 2 2 -8 30 -21 63 -14 32 -25 53
-25 46z"/>
<path d="M1460 869 c-14 -22 -23 -43 -22 -46 2 -3 -2 -9 -9 -13 -7 -5 -3 -8
12 -7 13 0 31 -3 40 -7 13 -6 16 -2 12 18 -4 17 -10 23 -20 19 -11 -4 -14 -2
-11 8 3 8 11 13 17 12 6 -2 11 10 11 27 0 17 -1 30 -2 30 -2 0 -14 -19 -28
-41z"/>
<path d="M1510 850 c0 -58 1 -60 20 -50 11 6 25 8 31 5 11 -7 94 38 106 58 6
11 -16 -2 -72 -40 -25 -17 -36 -17 -29 0 3 8 -2 20 -11 27 -10 8 -15 9 -15 1
0 -6 -5 -11 -11 -11 -8 0 -8 4 0 14 9 11 10 20 1 35 -6 12 -13 21 -15 21 -3 0
-5 -27 -5 -60z"/>
<path d="M1425 874 c-13 -20 -19 -23 -31 -13 -8 7 -14 7 -14 1 0 -8 22 -22 35
-22 2 0 13 14 25 30 12 17 17 30 12 30 -5 0 -17 -12 -27 -26z"/>
<path d="M1560 870 c23 -32 35 -37 46 -18 4 6 3 8 -3 5 -6 -4 -19 5 -29 18
-27 36 -40 31 -14 -5z"/>
<path d="M1290 858 c-14 -5 -45 -13 -70 -17 l-45 -8 75 -22 c107 -33 110 -33
110 -24 0 4 -10 24 -23 44 -20 33 -25 36 -47 27z"/>
<path d="M1345 855 c11 -9 19 -21 17 -26 -7 -26 20 -49 56 -49 l37 0 -44 20
c-24 11 -41 23 -38 27 4 3 13 0 22 -7 9 -7 18 -11 21 -8 3 3 -12 16 -33 29
-47 29 -65 36 -38 14z"/>
<path d="M1663 829 c-14 -22 -24 -41 -22 -44 7 -6 108 19 149 38 l35 15 -30 2
c-16 0 -47 7 -68 14 l-38 14 -26 -39z m67 2 c0 -6 -5 -13 -10 -16 -15 -9 -43
3 -35 15 8 13 45 13 45 1z"/>
<path d="M1585 799 l-40 -18 37 -1 c27 0 40 5 48 20 13 24 7 24 -45 -1z"/>
<path d="M1958 741 c15 -28 28 -46 30 -41 3 8 -46 90 -54 90 -2 0 8 -22 24
-49z"/>
<path d="M1057 719 c-16 -27 -24 -49 -19 -49 9 0 56 89 50 95 -2 2 -16 -18
-31 -46z"/>
<path d="M1438 763 c-39 -4 -46 -11 -28 -29 6 -6 26 -39 45 -75 l35 -64 -1 50
c0 41 -2 47 -12 33 -10 -15 -13 -13 -28 20 -10 20 -15 40 -13 44 10 16 35 7
44 -14 8 -21 9 -20 9 10 1 17 -2 31 -6 30 -5 -1 -25 -3 -45 -5z"/>
<path d="M1510 683 c0 -47 2 -84 4 -82 2 2 13 24 25 49 12 25 15 37 8 27 -14
-16 -15 -16 -19 8 -3 14 0 36 7 49 14 26 10 36 -12 36 -10 0 -13 -21 -13 -87z"/>
<path d="M1565 730 l0 -30 17 23 c22 28 22 37 1 37 -13 0 -18 -8 -18 -30z"/>
<path d="M1010 650 c0 -17 158 -88 242 -109 93 -23 208 -35 208 -21 0 5 -20
10 -44 10 -89 0 -251 52 -398 128 -5 2 -8 -2 -8 -8z"/>
<path d="M1898 618 c-85 -43 -246 -88 -314 -88 -26 0 -44 -5 -44 -11 0 -15
110 -3 208 22 83 21 242 92 242 108 0 15 -4 13 -92 -31z"/>
<path d="M965 566 c-15 -26 -22 -50 -19 -64 5 -17 1 -24 -18 -31 -18 -7 -49
-52 -109 -157 -46 -81 -86 -152 -88 -158 -13 -35 77 90 120 167 29 51 65 108
80 127 16 19 29 40 29 47 0 29 24 63 45 63 12 0 25 -3 29 -7 7 -8 62 -30 156
-65 30 -11 86 -24 124 -29 38 -5 77 -15 85 -24 15 -13 17 -12 19 10 1 22 -4
24 -71 35 -95 16 -239 63 -305 99 l-52 29 -25 -42z"/>
<path d="M2155 585 c-26 -25 -31 -40 -17 -49 4 -2 9 5 9 16 2 26 9 32 28 25
22 -9 19 -48 -4 -54 -11 -3 -21 -15 -23 -27 -2 -13 -10 -20 -21 -20 -9 1 -17
0 -17 -1 0 -6 153 -270 162 -280 28 -31 -52 140 -110 236 l-22 36 35 34 c25
26 33 41 28 57 -3 12 -9 22 -14 22 -5 0 -6 7 -3 15 9 22 -4 18 -31 -10z"/>
<path d="M648 589 c-22 -12 -23 -47 -2 -77 20 -29 40 -28 69 4 25 27 24 49 -4
71 -19 15 -40 16 -63 2z m56 -24 c8 -23 -4 -45 -25 -45 -22 0 -34 22 -25 45 3
8 14 15 25 15 10 0 21 -7 25 -15z"/>
<path d="M832 588 c8 -7 20 -21 25 -32 7 -12 13 -15 17 -8 8 13 -27 52 -46 52
-7 0 -6 -5 4 -12z"/>
<path d="M1945 573 c-103 -53 -291 -103 -391 -103 -46 0 -54 -9 -29 -30 12
-10 15 -10 15 1 0 12 2 12 9 1 6 -11 10 -10 15 4 5 13 10 14 18 6 8 -8 8 -15
-2 -27 -19 -23 -4 -18 19 6 12 13 36 23 63 25 24 2 54 6 68 8 39 6 170 54 222
81 42 22 49 23 62 9 9 -8 19 -27 22 -42 4 -15 24 -50 45 -78 22 -28 39 -55 39
-59 0 -12 129 -203 142 -211 7 -4 2 10 -11 32 -13 21 -52 89 -87 151 -36 61
-76 119 -90 128 -16 10 -23 22 -20 31 7 19 -30 94 -47 94 -6 -1 -34 -13 -62
-27z"/>
<path d="M2290 585 c-14 -8 -21 -14 -16 -15 5 0 3 -7 -4 -15 -9 -11 -7 -19 14
-40 32 -32 49 -32 75 1 27 34 26 49 -1 68 -27 19 -36 19 -68 1z m58 -34 c4
-29 -9 -44 -31 -35 -11 4 -17 17 -17 36 0 25 4 29 23 26 14 -2 23 -11 25 -27z"/>
<path d="M1430 464 c0 -3 4 -14 10 -24 12 -23 50 -15 50 11 0 14 -7 19 -30 19
-16 0 -30 -3 -30 -6z"/>
<path d="M1579 318 c-1 -25 -2 -34 -25 -153 -8 -44 -17 -96 -20 -115 -3 -19
-8 -38 -11 -43 -2 -4 5 -7 16 -7 12 0 21 4 21 8 0 5 6 53 14 108 20 135 26
224 15 224 -5 0 -9 -10 -10 -22z"/>
<path d="M1413 250 c7 -87 14 -160 23 -217 3 -24 10 -33 23 -33 16 0 18 5 10
43 -4 23 -17 96 -29 162 -12 66 -24 122 -27 125 -3 3 -3 -33 0 -80z"/>
</g>
</svg>
